<svg width="133" height="133" viewBox="0 0 133 133" fill="none" xmlns="http://www.w3.org/2000/svg">
<path d="M116.657 114.415C118.003 113.562 119.209 112.506 120.232 111.284C127.848 102.064 127.768 89.0568 127.244 77.8475C126.627 64.6167 124.286 51.3779 117.519 39.7085C111.007 28.462 101.178 18.9046 88.8786 13.7921C85.4749 12.3849 81.9365 11.3287 78.3184 10.64C71.6227 9.32996 64.71 9.65388 58.1662 11.5843C55.6826 12.3413 53.2499 13.2564 50.8831 14.3241C34.6997 21.546 32.452 36.4101 26.1584 51.2874C21.7029 61.821 11.2252 68.7024 6.78298 79.2494C1.80612 91.0598 9.7808 103.966 19.95 110.305C22.2902 111.754 24.7725 112.96 27.3581 113.904C51.5428 122.804 78.8184 125.533 103.993 119.056C108.235 117.966 112.93 116.809 116.657 114.415Z" fill="#40C5A6"/>
<path opacity="0.7" d="M116.657 114.415C118.003 113.562 119.209 112.506 120.232 111.284C127.848 102.064 127.768 89.0568 127.244 77.8475C126.627 64.6167 124.286 51.3779 117.519 39.7085C111.007 28.462 101.178 18.9046 88.8786 13.7921C85.4749 12.3849 81.9365 11.3287 78.3184 10.64C71.6227 9.32996 64.71 9.65388 58.1662 11.5843C55.6826 12.3413 53.2499 13.2564 50.8831 14.3241C34.6997 21.546 32.452 36.4101 26.1584 51.2874C21.7029 61.821 11.2252 68.7024 6.78298 79.2494C1.80612 91.0598 9.7808 103.966 19.95 110.305C22.2902 111.754 24.7725 112.96 27.3581 113.904C51.5428 122.804 78.8184 125.533 103.993 119.056C108.235 117.966 112.93 116.809 116.657 114.415Z" fill="white"/>
<g opacity="0.3">
<path d="M101.295 31.6886C101.857 31.6886 102.312 31.2336 102.312 30.6724C102.312 30.1112 101.857 29.6563 101.295 29.6563C100.734 29.6563 100.279 30.1112 100.279 30.6724C100.279 31.2336 100.734 31.6886 101.295 31.6886Z" stroke="black" stroke-linecap="round" stroke-linejoin="round"/>
<path d="M12.1323 48.9626C12.6935 48.9626 13.1484 48.5077 13.1484 47.9465C13.1484 47.3853 12.6935 46.9304 12.1323 46.9304C11.5711 46.9304 11.1161 47.3853 11.1161 47.9465C11.1161 48.5077 11.5711 48.9626 12.1323 48.9626Z" stroke="black" stroke-linecap="round" stroke-linejoin="round"/>
<path d="M88.594 101.543C89.1552 101.543 89.6101 101.088 89.6101 100.527C89.6101 99.9655 89.1552 99.5106 88.594 99.5106C88.0328 99.5106 87.5779 99.9655 87.5779 100.527C87.5779 101.088 88.0328 101.543 88.594 101.543Z" stroke="black" stroke-linecap="round" stroke-linejoin="round"/>
<path d="M13.9118 93.1612C14.473 93.1612 14.9279 92.7062 14.9279 92.145C14.9279 91.5838 14.473 91.1289 13.9118 91.1289C13.3506 91.1289 12.8957 91.5838 12.8957 92.145C12.8957 92.7062 13.3506 93.1612 13.9118 93.1612Z" stroke="black" stroke-linecap="round" stroke-linejoin="round"/>
<path d="M82.8138 48.3907L80.6566 50.5479" stroke="black" stroke-linecap="round" stroke-linejoin="round"/>
<path d="M82.8138 50.5479L80.6566 48.3907" stroke="black" stroke-linecap="round" stroke-linejoin="round"/>
<path d="M75.0679 110.374L77.2251 112.529" stroke="black" stroke-linecap="round" stroke-linejoin="round"/>
<path d="M77.2251 110.374L75.0679 112.529" stroke="black" stroke-linecap="round" stroke-linejoin="round"/>
<path d="M7.24585 61.8556L9.40045 64.0102" stroke="black" stroke-linecap="round" stroke-linejoin="round"/>
<path d="M9.40045 61.8556L7.24585 64.0102" stroke="black" stroke-linecap="round" stroke-linejoin="round"/>
<path d="M86.7532 11.5577L88.9105 13.7149" stroke="black" stroke-linecap="round" stroke-linejoin="round"/>
<path d="M88.9105 11.5577L86.7532 13.7149" stroke="black" stroke-linecap="round" stroke-linejoin="round"/>
<path d="M34.4257 13.3372L36.5803 15.4918" stroke="black" stroke-linecap="round" stroke-linejoin="round"/>
<path d="M36.5803 13.3372L34.4257 15.4918" stroke="black" stroke-linecap="round" stroke-linejoin="round"/>
</g>
<path opacity="0.3" d="M19.3967 107.911L20.091 105.977L18.495 105.099L17.2448 106.733C16.8858 106.648 16.5176 106.608 16.1489 106.615L15.2711 104.753L13.5155 105.27L13.7815 107.307C13.468 107.502 13.1795 107.734 12.9223 107.999L10.9885 107.304L10.1107 108.9L11.7439 110.151C11.6593 110.509 11.6191 110.876 11.6242 111.244L9.76221 112.122L10.2782 113.877L12.3158 113.611C12.5113 113.923 12.7434 114.211 13.0074 114.468L12.3131 116.402L13.9224 117.279L15.162 115.659C15.5211 115.744 15.8891 115.784 16.2579 115.779L17.1357 117.641L18.8913 117.125L18.6253 115.088C18.9375 114.892 19.225 114.66 19.4818 114.396L21.4157 115.09L22.2935 113.494L20.6602 112.244C20.7447 111.885 20.7849 111.517 20.7799 111.148L22.6419 110.273L22.1259 108.515L20.0883 108.781C20.0431 108.704 19.9926 108.629 19.9394 108.555M14.0262 113.109C13.5619 112.58 13.3062 111.9 13.307 111.196C13.3078 110.492 13.565 109.813 14.0305 109.285C14.4959 108.757 15.1378 108.417 15.8359 108.328C16.5341 108.239 17.2406 108.408 17.8234 108.803C18.4062 109.197 18.8253 109.79 19.0022 110.472C19.1791 111.153 19.1018 111.875 18.7847 112.503C18.4676 113.132 17.9324 113.623 17.2793 113.885C16.6263 114.147 15.9 114.162 15.2365 113.928" stroke="black" stroke-linecap="round" stroke-linejoin="round"/>
<path opacity="0.3" d="M16.3005 101.567C15.871 101.697 15.4098 101.674 14.9955 101.501C14.5812 101.329 14.2396 101.018 14.029 100.622C13.8185 100.226 13.7521 99.7687 13.8412 99.329C13.9303 98.8892 14.1693 98.494 14.5175 98.2109C14.8656 97.9279 15.3012 97.7745 15.7499 97.777C16.1986 97.7795 16.6325 97.9377 16.9775 98.2247C17.3225 98.5116 17.5571 98.9095 17.6412 99.3502C17.7254 99.7909 17.6539 100.247 17.4389 100.641C17.3844 100.741 17.3212 100.837 17.2501 100.926M13.1351 103.208L14.1991 103.793L15.037 102.7C15.2772 102.758 15.524 102.785 15.7711 102.78L16.3563 104.025L17.532 103.679L17.3512 102.314C17.5606 102.184 17.7535 102.028 17.9257 101.851L19.2185 102.317L19.8063 101.24L18.7131 100.404C18.7698 100.164 18.7966 99.9173 18.7929 99.6702L20.0378 99.085L19.692 97.9093L18.3274 98.0902C18.1968 97.8807 18.0414 97.6878 17.8645 97.5156L18.354 96.2255L17.29 95.6403L16.4547 96.7309C16.2141 96.675 15.9676 96.6491 15.7206 96.6538L15.1354 95.4089L13.9331 95.76L14.1139 97.1246C13.904 97.2545 13.711 97.41 13.5394 97.5874L12.236 97.1166L11.6508 98.1806L12.7414 99.0158C12.6858 99.2565 12.659 99.503 12.6616 99.75L11.438 100.348L11.7838 101.524L13.1457 101.343C13.2772 101.553 13.4335 101.746 13.6112 101.918L13.1351 103.208Z" stroke="black" stroke-linecap="round" stroke-linejoin="round"/>
<path opacity="0.3" d="M85.4365 33.2341L86.1334 31.3002L84.5242 30.4224L83.2739 32.0557C82.9149 31.971 82.5469 31.9308 82.178 31.936L81.3029 30.074L79.5473 30.59L79.8133 32.6276C79.5011 32.823 79.2136 33.0552 78.9568 33.3192L77.0229 32.6249L76.1452 34.2209L77.7784 35.4685C77.6939 35.8275 77.6537 36.1956 77.6587 36.5644L75.7967 37.4422L76.3154 39.1978L78.3503 38.9318C78.5467 39.244 78.7798 39.5315 79.0445 39.7883L78.3503 41.7221L79.9463 42.5999L81.1965 40.9667C81.5555 41.0511 81.9236 41.0913 82.2924 41.0864L83.1675 42.9484L84.9258 42.4323L84.6598 40.3948C84.9729 40.2007 85.2606 39.9684 85.5163 39.7032L87.4528 40.3974L88.3279 38.8014L86.6974 37.5512C86.7796 37.1919 86.8189 36.824 86.8144 36.4553L88.6764 35.5802L88.1604 33.8219L86.1228 34.0879C86.0749 34.0108 86.0244 33.9363 85.9738 33.8618M80.066 38.4317C79.6026 37.9029 79.3477 37.2233 79.3491 36.5202C79.3506 35.817 79.6082 35.1385 80.0737 34.6115C80.5393 34.0846 81.1809 33.7454 81.8785 33.6574C82.5762 33.5693 83.2819 33.7385 83.8638 34.1333C84.4457 34.528 84.8638 35.1213 85.0399 35.802C85.2159 36.4828 85.1379 37.2044 84.8204 37.8317C84.5028 38.4591 83.9676 38.9493 83.3148 39.2105C82.6619 39.4717 81.9363 39.4861 81.2736 39.251" stroke="black" stroke-linecap="round" stroke-linejoin="round"/>
<path opacity="0.3" d="M82.343 26.8953C81.913 27.0266 81.4509 27.0044 81.0355 26.8326C80.6201 26.6608 80.2773 26.3501 80.0657 25.9535C79.8541 25.5569 79.7869 25.0991 79.8755 24.6584C79.9641 24.2177 80.2031 23.8215 80.5515 23.5375C80.9 23.2535 81.3363 23.0994 81.7858 23.1016C82.2353 23.1037 82.6701 23.2619 83.0158 23.5492C83.3616 23.8364 83.5968 24.2349 83.6812 24.6764C83.7657 25.1179 83.6941 25.575 83.4788 25.9696C83.4255 26.0706 83.3622 26.1659 83.2899 26.2542M79.1749 28.5338L80.2522 29.1217L81.0874 28.0284C81.3277 28.0865 81.5745 28.1133 81.8216 28.1082L82.4095 29.3531L83.5852 29.0073L83.4043 27.6427C83.6134 27.5128 83.8055 27.3573 83.9762 27.1799L85.2716 27.6454L85.8595 26.5681L84.7662 25.7329C84.8239 25.4942 84.8534 25.2496 84.854 25.004L86.0962 24.4188L85.7504 23.2431L84.3885 23.424C84.2576 23.214 84.1013 23.021 83.923 22.8494L84.3805 21.546L83.3165 20.9608L82.46 22.0541C82.2203 21.9982 81.9746 21.9723 81.7285 21.9769L81.1406 20.7321L79.9649 21.0779L80.1458 22.4398C79.9372 22.5715 79.7452 22.7278 79.5739 22.9053L78.2785 22.4398L77.6906 23.5038L78.7839 24.339C78.7283 24.5797 78.7015 24.8262 78.7041 25.0732L77.4619 25.6584L77.8077 26.8341L79.1696 26.6532C79.301 26.8621 79.4563 27.0549 79.6324 27.2278L79.1749 28.5338Z" stroke="black" stroke-linecap="round" stroke-linejoin="round"/>
<path d="M8.29388 120.517H124.855" stroke="#263238" stroke-linecap="round" stroke-linejoin="round"/>
<path d="M18.8062 27.8954L18.8062 113.595C18.8062 116.607 21.2476 119.048 24.2592 119.048H63.1777C66.1893 119.048 68.6307 116.607 68.6307 113.595V27.8954C68.6307 24.8838 66.1893 22.4424 63.1777 22.4424H24.2592C21.2476 22.4424 18.8062 24.8838 18.8062 27.8954Z" fill="white"/>
<path d="M68.628 27.648C68.6294 26.4506 68.2158 25.2897 67.4576 24.3629C64.9679 25.5706 61.4035 28.1321 56.7884 33.5027C46.8692 45.0418 43.8315 72.9797 32.0876 85.12C27.0629 90.3203 22.4451 93.5149 18.8036 95.47V113.824C18.8036 115.205 19.3523 116.53 20.3291 117.507C21.3058 118.484 22.6305 119.032 24.0119 119.032H60.539C60.7784 118.736 61.0134 118.429 61.2439 118.112C63.9837 114.332 66.5 111.148 68.628 108.608V27.648Z" fill="#D6D6D6"/>
<path d="M18.8036 27.648V49.9308C22.8601 48.1194 27.7651 44.6826 31.279 38.1577C34.846 31.5476 39.4186 26.1637 43.092 22.4424H24.0119C22.631 22.4424 21.3067 22.9907 20.33 23.9669C19.3533 24.9431 18.8043 26.2671 18.8036 27.648Z" fill="#D6D6D6"/>
<path d="M22.6553 24.5332C22.6553 25.1237 21.9903 25.3312 21.9876 25.786V25.818H22.6313V26.0148H21.7722V25.8472C21.7722 25.2141 22.4372 25.0918 22.4372 24.5412C22.4372 24.339 22.368 24.2326 22.2057 24.2326C22.0435 24.2326 21.977 24.347 21.977 24.5199V24.6954H21.7722V24.5358C21.7722 24.2353 21.9105 24.0358 22.2111 24.0358C22.5116 24.0358 22.6553 24.2326 22.6553 24.5332Z" fill="#263238"/>
<path d="M23.7272 24.5279V24.5784C23.7363 24.6623 23.7182 24.7468 23.6755 24.8196C23.6329 24.8924 23.568 24.9496 23.4905 24.9827C23.5691 25.0153 23.6348 25.0727 23.6775 25.1463C23.7203 25.2198 23.7378 25.3053 23.7272 25.3897V25.536C23.7272 25.8366 23.5862 26.0334 23.2857 26.0334C22.9851 26.0334 22.8441 25.8366 22.8441 25.536V25.403H23.0489V25.552C23.0489 25.7275 23.1234 25.8339 23.2803 25.8339C23.4373 25.8339 23.5091 25.7302 23.5091 25.5307V25.3791C23.5091 25.1875 23.4266 25.0944 23.2617 25.0891H23.142V24.8923H23.2697C23.3035 24.893 23.3371 24.8863 23.3682 24.8728C23.3992 24.8593 23.4269 24.8392 23.4494 24.8139C23.4719 24.7886 23.4887 24.7587 23.4985 24.7263C23.5083 24.694 23.5111 24.6598 23.5064 24.6263V24.5385C23.5064 24.3363 23.4373 24.2326 23.2777 24.2326C23.1181 24.2326 23.0462 24.3417 23.0462 24.5172V24.6183H22.8414V24.5279C22.8414 24.2299 22.9824 24.0358 23.283 24.0358C23.5836 24.0358 23.7272 24.2299 23.7272 24.5279Z" fill="#263238"/>
<path d="M24.1501 24.6768V24.9428H23.94V24.6768H24.1501ZM24.1501 25.7408V26.0068H23.94V25.7408H24.1501Z" fill="#263238"/>
<path d="M24.5917 24.855C24.6204 24.8033 24.6631 24.7607 24.7148 24.7321C24.7665 24.7034 24.8252 24.6898 24.8843 24.6927C25.1343 24.6927 25.2461 24.8763 25.2461 25.1556V25.536C25.2461 25.8365 25.1051 26.0334 24.8045 26.0334C24.5039 26.0334 24.3656 25.8392 24.3656 25.536V25.4056H24.5704V25.5519C24.5704 25.7275 24.6422 25.8339 24.7992 25.8339C24.9561 25.8339 25.0279 25.7275 25.0279 25.5519V25.1742C25.0279 24.996 24.9561 24.8896 24.7992 24.8896C24.7707 24.8881 24.7422 24.8925 24.7155 24.9024C24.6888 24.9123 24.6643 24.9276 24.6437 24.9472C24.623 24.9669 24.6066 24.9906 24.5954 25.0168C24.5841 25.043 24.5784 25.0712 24.5784 25.0997V25.1449H24.3736L24.4268 24.057H25.2008V24.2512H24.6236L24.5917 24.855Z" fill="#263238"/>
<path d="M26.334 24.5252V24.5624H26.1292V24.5119C26.1292 24.3363 26.0574 24.2326 25.8978 24.2326C25.7382 24.2326 25.6584 24.339 25.6584 24.5491V24.988C25.6813 24.9235 25.7245 24.8681 25.7816 24.8302C25.8387 24.7923 25.9065 24.774 25.9749 24.7779C26.2409 24.7779 26.3393 24.9614 26.3393 25.2434V25.536C26.3393 25.8366 26.1904 26.0334 25.8924 26.0334C25.5945 26.0334 25.4402 25.8366 25.4402 25.536V24.5412C25.4402 24.2299 25.5812 24.0358 25.8924 24.0358C26.2037 24.0358 26.334 24.2273 26.334 24.5252ZM25.661 25.27V25.5653C25.661 25.7408 25.7355 25.8472 25.8951 25.8472C26.0547 25.8472 26.1265 25.7408 26.1265 25.5653V25.27C26.1265 25.0944 26.052 24.988 25.8951 24.988C25.7382 24.988 25.661 25.0838 25.661 25.27Z" fill="#263238"/>
<path d="M56.9267 24.613H56.3734V25.9962H56.9267V24.613Z" fill="#263238"/>
<path d="M57.6635 24.3363H57.1102V25.9961H57.6635V24.3363Z" fill="#263238"/>
<path d="M58.403 24.1395H57.8497V25.9961H58.403V24.1395Z" fill="#263238"/>
<path d="M59.1398 23.7963H58.5865V25.9961H59.1398V23.7963Z" fill="#263238"/>
<path d="M65.9867 25.9589H62.667V23.94H65.9867V25.9589ZM62.8505 25.7727H65.8031V24.1129H62.8505V25.7727Z" fill="#263238"/>
<path d="M64.8801 24.3151H63.1271V25.5732H64.8801V24.3151Z" fill="#263238"/>
<path d="M66.2899 24.7034H65.8723V25.1822H66.2899V24.7034Z" fill="#263238"/>
<path d="M61.446 25.5174C61.4234 25.5175 61.4012 25.511 61.3822 25.4987C60.7065 25.0971 60.2623 25.4695 60.2437 25.4987C60.2186 25.5168 60.1876 25.5249 60.1569 25.5214C60.1261 25.518 60.0977 25.5032 60.0772 25.4801C60.0567 25.4569 60.0455 25.4269 60.0458 25.396C60.0461 25.3651 60.0578 25.3353 60.0788 25.3125C60.1027 25.2913 60.6746 24.8018 61.5099 25.3125C61.524 25.3208 61.5364 25.3317 61.5462 25.3448C61.556 25.3579 61.5631 25.3728 61.5671 25.3887C61.5711 25.4045 61.5718 25.421 61.5693 25.4372C61.5668 25.4534 61.561 25.4689 61.5524 25.4828C61.5388 25.4968 61.5221 25.5072 61.5035 25.5133C61.485 25.5193 61.4652 25.5207 61.446 25.5174Z" fill="#263238"/>
<path d="M61.712 25.0997C61.6894 25.0998 61.6672 25.0934 61.6482 25.0811C60.672 24.5012 60.015 25.0625 60.0096 25.0678C59.9978 25.0807 59.9834 25.0909 59.9673 25.0979C59.9513 25.1048 59.9339 25.1083 59.9164 25.1082C59.899 25.108 59.8817 25.1042 59.8658 25.0969C59.8499 25.0897 59.8356 25.0791 59.824 25.0661C59.8124 25.053 59.8037 25.0376 59.7984 25.0209C59.7932 25.0042 59.7914 24.9866 59.7934 24.9692C59.7953 24.9518 59.8009 24.9351 59.8097 24.92C59.8186 24.9049 59.8305 24.8918 59.8447 24.8816C59.8447 24.8816 60.6427 24.198 61.7759 24.8683C61.79 24.8765 61.8024 24.8875 61.8122 24.9006C61.822 24.9136 61.8292 24.9286 61.8331 24.9444C61.8371 24.9603 61.8378 24.9768 61.8353 24.993C61.8328 25.0091 61.827 25.0246 61.8184 25.0385C61.8079 25.0574 61.7924 25.073 61.7737 25.0838C61.7549 25.0946 61.7336 25.1001 61.712 25.0997Z" fill="#263238"/>
<path d="M61.9275 24.6183C61.9049 24.6178 61.8829 24.6114 61.8636 24.5997C60.6267 23.8628 59.8021 24.5571 59.7676 24.5997C59.7446 24.6226 59.7135 24.6354 59.6811 24.6354C59.6487 24.6354 59.6176 24.6226 59.5947 24.5997C59.5716 24.5763 59.5587 24.5447 59.5587 24.5119C59.5587 24.479 59.5716 24.4475 59.5947 24.4241C59.5947 24.4241 60.5815 23.5782 61.9887 24.4241C62.003 24.4321 62.0156 24.4429 62.0257 24.4559C62.0358 24.4689 62.0432 24.4837 62.0474 24.4996C62.0516 24.5155 62.0526 24.5321 62.0503 24.5484C62.048 24.5646 62.0424 24.5803 62.0339 24.5943C62.0188 24.6056 62.0016 24.6136 61.9832 24.6177C61.9649 24.6218 61.9459 24.622 61.9275 24.6183Z" fill="#263238"/>
<path d="M61.0763 25.7249C61.0763 25.7864 61.058 25.8466 61.0238 25.8978C60.9897 25.9489 60.941 25.9888 60.8842 26.0124C60.8273 26.0359 60.7647 26.0421 60.7044 26.0301C60.644 26.0181 60.5885 25.9884 60.545 25.9449C60.5015 25.9014 60.4718 25.8459 60.4598 25.7856C60.4478 25.7252 60.454 25.6626 60.4775 25.6058C60.5011 25.5489 60.541 25.5003 60.5922 25.4661C60.6434 25.4319 60.7035 25.4136 60.7651 25.4136C60.8476 25.4136 60.9268 25.4464 60.9851 25.5048C61.0435 25.5632 61.0763 25.6423 61.0763 25.7249Z" fill="#263238"/>
<path d="M69.958 25.8765V28.845H70.8784V37.2772H69.958V39.1924H70.8784V47.6273H69.958V49.5425H70.8784V57.988H69.958V115.612C69.958 117.068 69.3793 118.466 68.3492 119.496C67.3191 120.526 65.9219 121.104 64.4651 121.104H22.9558C22.2346 121.104 21.5205 120.962 20.8542 120.686C20.1879 120.41 19.5826 120.006 19.0727 119.495C18.5629 118.985 18.1585 118.38 17.8827 117.713C17.607 117.047 17.4652 116.333 17.4656 115.612V44.023H16.8059V35.5908H17.4656V25.8765C17.4656 24.4204 18.044 23.0239 19.0736 21.9943C20.1033 20.9647 21.4997 20.3862 22.9558 20.3862H64.4758C65.9303 20.389 67.3243 20.9686 68.352 21.9979C69.3798 23.0271 69.9573 24.422 69.958 25.8765ZM55.594 22.4424L53.998 24.8524C53.7585 25.2087 53.435 25.5006 53.056 25.7024C52.677 25.9042 52.2542 26.0096 51.8248 26.0095H35.6148C35.1858 26.0094 34.7635 25.9039 34.3849 25.7021C34.0064 25.5003 33.6833 25.2085 33.4442 24.8524L31.8216 22.4424H24.2965C22.8406 22.4424 21.4442 23.0204 20.4143 24.0494C19.3843 25.0783 18.805 26.4741 18.8036 27.93V113.555C18.8043 115.012 19.3833 116.408 20.4133 117.438C21.4434 118.467 22.8401 119.046 24.2965 119.046H63.1325C63.8537 119.046 64.568 118.905 65.2345 118.629C65.9011 118.354 66.5068 117.95 67.0172 117.44C67.5275 116.931 67.9324 116.326 68.2088 115.659C68.4852 114.993 68.6277 114.279 68.628 113.558V27.93C68.628 26.4739 68.0496 25.0774 67.02 24.0478C65.9904 23.0182 64.5939 22.4398 63.1378 22.4398L55.594 22.4424Z" fill="#263238"/>
<path d="M64.3188 49.476H64.6992C65.0695 49.476 65.4247 49.6231 65.6866 49.885C65.9485 50.1469 66.0957 50.5021 66.0957 50.8725V77.5576C66.0957 79.6404 66.9229 81.638 68.3954 83.111C69.8679 84.584 71.8652 85.4119 73.948 85.4126C76.0315 85.4126 78.0297 84.5851 79.5032 83.1121C80.9768 81.6391 81.8049 79.6411 81.8056 77.5576V67.7582" stroke="#263238" stroke-linecap="round" stroke-linejoin="round"/>
<path d="M63.1537 49.4707H64.3188" stroke="#263238" stroke-width="3" stroke-linecap="round" stroke-linejoin="round"/>
<path d="M35.394 65.8377C35.6101 65.8377 35.8174 65.9234 35.9705 66.0759C36.1236 66.2285 36.2099 66.4356 36.2106 66.6517V77.5843C36.2103 80.5219 36.7886 83.4308 37.9125 86.1449C39.0364 88.859 40.684 91.3252 42.7611 93.4025C44.8382 95.4799 47.3041 97.1277 50.0181 98.252C52.7321 99.3762 55.6409 99.9549 58.5785 99.9549C64.2174 99.9549 69.6253 97.7148 73.6126 93.7276C77.5999 89.7403 79.8399 84.3324 79.8399 78.6935V67.83" stroke="#263238" stroke-linecap="round" stroke-linejoin="round"/>
<path d="M34.1092 65.8377H35.394" stroke="#263238" stroke-width="3" stroke-linecap="round" stroke-linejoin="round"/>
<path d="M64.9998 82.992C65.3746 82.992 65.7341 83.1407 65.9995 83.4055C66.2648 83.6704 66.4142 84.0296 66.4149 84.4045V97.1725C66.4149 99.5005 67.3397 101.733 68.9859 103.379C70.6321 105.026 72.8648 105.95 75.1929 105.95C77.5209 105.95 79.7537 105.026 81.3999 103.379C83.0461 101.733 83.9709 99.5005 83.9709 97.1725V68.1279" stroke="#263238" stroke-linecap="round" stroke-linejoin="round"/>
<path d="M63.3426 82.9947H64.9998" stroke="#263238" stroke-width="3" stroke-linecap="round" stroke-linejoin="round"/>
<path d="M61.8929 43.6879H53.1388C52.3837 43.6879 51.7716 44.3 51.7716 45.0551V53.8092C51.7716 54.5643 52.3837 55.1764 53.1388 55.1764H61.8929C62.648 55.1764 63.2601 54.5643 63.2601 53.8092V45.0551C63.2601 44.3 62.648 43.6879 61.8929 43.6879Z" fill="#40C5A6" stroke="#263238" stroke-linecap="round" stroke-linejoin="round"/>
<path d="M61.2199 49.1781V48.3083L60.3421 48.1593C60.268 47.8032 60.1282 47.464 59.9298 47.1592L60.4618 46.4277L59.8447 45.8106L59.1159 46.3426C58.813 46.144 58.4755 46.0041 58.121 45.9303L57.9721 45.0365H57.1022L56.9533 45.9303C56.6025 46.0028 56.2686 46.1409 55.9691 46.3372L55.2216 45.8052L54.6071 46.4224L55.1391 47.1645C54.9424 47.4622 54.8035 47.7943 54.7295 48.1434L53.8224 48.295V49.1648L54.7242 49.3164C54.7947 49.6569 54.9272 49.9815 55.1152 50.274L54.5832 51.0242L55.1977 51.6386L55.9398 51.1066C56.2376 51.3067 56.5707 51.4484 56.9214 51.5242L57.0703 52.4207H57.9401L58.0891 51.5322C58.4447 51.4635 58.7835 51.3262 59.0866 51.1279L59.8207 51.6599L60.4379 51.0454L59.9192 50.3193C60.1219 50.0158 60.2645 49.6763 60.3394 49.3191L61.2199 49.1781ZM57.5278 50.8646C57.107 50.8646 56.6955 50.7398 56.3456 50.5059C55.9956 50.2721 55.7229 49.9398 55.5618 49.5509C55.4008 49.1621 55.3586 48.7342 55.4407 48.3214C55.5228 47.9086 55.7255 47.5294 56.0231 47.2318C56.3207 46.9342 56.6999 46.7316 57.1127 46.6494C57.5255 46.5673 57.9533 46.6095 58.3422 46.7705C58.731 46.9316 59.0634 47.2044 59.2972 47.5543C59.531 47.9043 59.6558 48.3157 59.6558 48.7366C59.6558 49.3009 59.4316 49.8422 59.0326 50.2413C58.6335 50.6404 58.0922 50.8646 57.5278 50.8646Z" fill="white" stroke="#263238" stroke-linecap="round" stroke-linejoin="round"/>
<path d="M60.9619 53.3304H53.7879V53.9182H60.9619V53.3304Z" fill="white" stroke="#263238" stroke-linecap="round" stroke-linejoin="round"/>
<path d="M57.3762 53.3304H53.7879V53.9182H57.3762V53.3304Z" fill="#263238" stroke="#263238" stroke-linecap="round" stroke-linejoin="round"/>
<path d="M47.207 43.6959H38.6179C37.8305 43.6959 37.1921 44.3342 37.1921 45.1216V53.7108C37.1921 54.4982 37.8305 55.1365 38.6179 55.1365H47.207C47.9945 55.1365 48.6328 54.4982 48.6328 53.7108V45.1216C48.6328 44.3342 47.9945 43.6959 47.207 43.6959Z" fill="white" stroke="#263238" stroke-linecap="round" stroke-linejoin="round"/>
<path d="M43.8142 53.2538C45.9338 52.7567 47.2491 50.6353 46.752 48.5157C46.2548 46.396 44.1335 45.0807 42.0138 45.5779C39.8942 46.0751 38.5789 48.1964 39.076 50.3161C39.5732 52.4357 41.6945 53.751 43.8142 53.2538Z" fill="#263238" stroke="#263238" stroke-linecap="round" stroke-linejoin="round"/>
<path d="M41.6689 51.0295L42.9112 49.4175V46.5287" stroke="white" stroke-linecap="round" stroke-linejoin="round"/>
<path d="M32.6036 43.696H24.0145C23.2271 43.696 22.5887 44.3343 22.5887 45.1217V53.7109C22.5887 54.4983 23.2271 55.1366 24.0145 55.1366H32.6036C33.3911 55.1366 34.0294 54.4983 34.0294 53.7109V45.1217C34.0294 44.3343 33.3911 43.696 32.6036 43.696Z" fill="white" stroke="#263238" stroke-linecap="round" stroke-linejoin="round"/>
<path d="M27.0656 51.0295L28.3104 49.4175V46.5287" stroke="white" stroke-linecap="round" stroke-linejoin="round"/>
<path d="M31.513 49.1595L26.3181 46.159V52.1573L31.513 49.1595Z" fill="#263238" stroke="#263238" stroke-linecap="round" stroke-linejoin="round"/>
<path d="M61.8929 60.5044H53.1388C52.3837 60.5044 51.7716 61.1165 51.7716 61.8716V70.6257C51.7716 71.3808 52.3837 71.9929 53.1388 71.9929H61.8929C62.648 71.9929 63.2601 71.3808 63.2601 70.6257V61.8716C63.2601 61.1165 62.648 60.5044 61.8929 60.5044Z" fill="white" stroke="#263238" stroke-linecap="round" stroke-linejoin="round"/>
<path d="M57.3497 62.8398C55.3068 62.8398 53.6496 64.1698 53.6496 65.7978C53.6496 66.8618 54.3439 67.7795 55.3839 68.3035L54.7588 69.8676L56.7379 68.7131C56.9406 68.7409 57.145 68.7551 57.3497 68.7557C59.3899 68.7557 61.0471 67.4257 61.0471 65.7978C61.0471 64.1698 59.3899 62.8398 57.3497 62.8398Z" fill="#263238" stroke="#263238" stroke-linecap="round" stroke-linejoin="round"/>
<path d="M61.8929 77.3209H53.1388C52.3837 77.3209 51.7716 77.9331 51.7716 78.6882V87.4422C51.7716 88.1973 52.3837 88.8095 53.1388 88.8095H61.8929C62.648 88.8095 63.2601 88.1973 63.2601 87.4422V78.6882C63.2601 77.9331 62.648 77.3209 61.8929 77.3209Z" fill="#40C5A6" stroke="#263238" stroke-linecap="round" stroke-linejoin="round"/>
<path d="M61.2199 82.8112V81.9414L60.3421 81.7951C60.2684 81.438 60.1285 81.0979 59.9298 80.7922L60.4618 80.0607L59.8447 79.4463L59.1159 79.9783C58.8138 79.7777 58.4761 79.6369 58.121 79.5633L57.9721 78.6696H57.1022L56.9533 79.5633C56.6024 79.6368 56.2685 79.7758 55.9691 79.973L55.2216 79.441L54.6071 80.0554L55.1391 80.8002C54.942 81.0967 54.803 81.428 54.7295 81.7764L53.8224 81.9281V82.7979L54.7242 82.9495C54.7944 83.2984 54.9308 83.6307 55.1259 83.9284L54.5939 84.6785L55.2083 85.2956L55.9504 84.7636C56.2489 84.9618 56.5818 85.1026 56.932 85.1786L57.0809 86.0777H57.9508L58.0997 85.1892C58.4546 85.1182 58.793 84.981 59.0972 84.7849L59.8314 85.3169L60.4485 84.6998L59.9298 83.9736C60.132 83.6708 60.2747 83.3323 60.3501 82.9761L61.2199 82.8112ZM57.5278 84.4976C57.107 84.4976 56.6955 84.3728 56.3456 84.139C55.9956 83.9052 55.7229 83.5728 55.5618 83.184C55.4008 82.7951 55.3586 82.3673 55.4407 81.9545C55.5228 81.5417 55.7255 81.1625 56.0231 80.8649C56.3207 80.5673 56.6999 80.3646 57.1127 80.2825C57.5255 80.2004 57.9533 80.2425 58.3422 80.4036C58.731 80.5647 59.0634 80.8374 59.2972 81.1874C59.531 81.5373 59.6558 81.9487 59.6558 82.3696C59.6558 82.934 59.4316 83.4753 59.0326 83.8743C58.6335 84.2734 58.0922 84.4976 57.5278 84.4976Z" fill="white" stroke="#263238" stroke-linecap="round" stroke-linejoin="round"/>
<path d="M60.9619 86.9634H53.7879V87.5512H60.9619V86.9634Z" fill="white" stroke="#263238" stroke-linecap="round" stroke-linejoin="round"/>
<path d="M54.9743 86.9634H53.7879V87.5512H54.9743V86.9634Z" fill="#263238" stroke="#263238" stroke-linecap="round" stroke-linejoin="round"/>
<path d="M32.6036 60.515H24.0145C23.2271 60.515 22.5887 61.1533 22.5887 61.9408V70.5299C22.5887 71.3173 23.2271 71.9557 24.0145 71.9557H32.6036C33.3911 71.9557 34.0294 71.3173 34.0294 70.5299V61.9408C34.0294 61.1533 33.3911 60.515 32.6036 60.515Z" fill="#40C5A6" stroke="#263238" stroke-linecap="round" stroke-linejoin="round"/>
<path d="M32.0983 65.9946V65.1248L31.2178 64.9785C31.1463 64.6208 31.0063 64.2802 30.8055 63.9757L31.3375 63.2442L30.723 62.6297L29.9942 63.1617C29.6914 62.9631 29.3539 62.8233 28.9994 62.7494L28.8504 61.8557H27.9806L27.8316 62.7494C27.4803 62.8226 27.1456 62.9607 26.8448 63.1564L26.1 62.6244L25.4855 63.2415L26.0175 63.9863C25.8223 64.2836 25.6843 64.6147 25.6105 64.9625L24.7008 65.1142V65.968L25.6025 66.1196C25.6744 66.4681 25.8106 66.8 26.0042 67.0985L25.4722 67.8486L26.068 68.4658L26.8075 67.9338C27.1063 68.1315 27.4391 68.2722 27.7891 68.3487L27.9407 69.2478H28.8105L28.9595 68.3594C29.3147 68.2881 29.6532 68.15 29.957 67.9524L30.6911 68.4844L31.3056 67.8699L30.7869 67.1437C30.9906 66.8408 31.1334 66.5011 31.2072 66.1436L32.0983 65.9946ZM28.4035 67.6811C27.9826 67.6811 27.5712 67.5562 27.2213 67.3224C26.8713 67.0886 26.5986 66.7562 26.4375 66.3674C26.2764 65.9786 26.2343 65.5507 26.3164 65.1379C26.3985 64.7251 26.6012 64.3459 26.8988 64.0483C27.1964 63.7507 27.5756 63.5481 27.9884 63.4659C28.4012 63.3838 28.829 63.426 29.2179 63.587C29.6067 63.7481 29.9391 64.0209 30.1729 64.3708C30.4067 64.7207 30.5315 65.1322 30.5315 65.5531C30.5315 66.1174 30.3073 66.6587 29.9082 67.0578C29.5092 67.4569 28.9679 67.6811 28.4035 67.6811Z" fill="white" stroke="#263238" stroke-linecap="round" stroke-linejoin="round"/>
<path d="M31.8402 70.1469H24.6662V70.7348H31.8402V70.1469Z" fill="white" stroke="#263238" stroke-linecap="round" stroke-linejoin="round"/>
<path d="M31.1513 70.1469H24.6662V70.7348H31.1513V70.1469Z" fill="#263238" stroke="#263238" stroke-linecap="round" stroke-linejoin="round"/>
<path d="M32.6036 77.3315H24.0145C23.2271 77.3315 22.5887 77.9699 22.5887 78.7573V87.3464C22.5887 88.1339 23.2271 88.7722 24.0145 88.7722H32.6036C33.3911 88.7722 34.0294 88.1339 34.0294 87.3464V78.7573C34.0294 77.9699 33.3911 77.3315 32.6036 77.3315Z" fill="white" stroke="#263238" stroke-linecap="round" stroke-linejoin="round"/>
<path d="M27.0656 84.6652L28.3104 83.0506V80.1618" stroke="white" stroke-linecap="round" stroke-linejoin="round"/>
<path d="M32.1648 80.5768H24.4534V85.5244H32.1648V80.5768Z" fill="#263238" stroke="#263238" stroke-linecap="round" stroke-linejoin="round"/>
<path d="M24.4534 80.5768L28.2466 83.7901L32.1116 80.622" stroke="white" stroke-linecap="round" stroke-linejoin="round"/>
<path d="M24.4534 85.5243L27.2172 83.0186" stroke="white" stroke-linecap="round" stroke-linejoin="round"/>
<path d="M32.1647 85.5243L29.2733 83.0186" stroke="white" stroke-linecap="round" stroke-linejoin="round"/>
<path d="M113.319 81.8775L116.364 111.082" stroke="#263238" stroke-width="2" stroke-miterlimit="10"/>
<path d="M115.875 105.493L114.492 104.033" stroke="#263238" stroke-width="2" stroke-miterlimit="10"/>
<path d="M114.912 104.469C114.909 104.246 114.859 104.026 114.764 103.824C114.669 103.622 114.532 103.443 114.361 103.298C114.008 102.982 112.14 102.197 111.967 102.854C111.77 103.567 113.68 104.972 114.912 104.469Z" fill="#40C5A6" stroke="#263238" stroke-miterlimit="10"/>
<path d="M114.912 104.469L113.135 103.362" stroke="#263238" stroke-width="0.5" stroke-miterlimit="10"/>
<path d="M116.221 108.813L114.84 107.355" stroke="#263238" stroke-width="2" stroke-miterlimit="10"/>
<path d="M115.258 107.791C115.255 107.568 115.205 107.348 115.111 107.145C115.016 106.943 114.88 106.763 114.71 106.618C114.353 106.302 112.489 105.517 112.316 106.174C112.119 106.889 114.029 108.294 115.258 107.791Z" fill="#40C5A6" stroke="#263238" stroke-miterlimit="10"/>
<path d="M115.258 107.791L113.481 106.685" stroke="#263238" stroke-width="0.5" stroke-miterlimit="10"/>
<path d="M115.029 97.3879L113.646 95.9276" stroke="#263238" stroke-width="2" stroke-miterlimit="10"/>
<path d="M114.066 96.3665C114.063 96.143 114.013 95.9226 113.918 95.7203C113.823 95.5179 113.686 95.3383 113.515 95.1935C113.162 94.8769 111.294 94.0922 111.121 94.7492C110.922 95.4648 112.835 96.8666 114.066 96.3665Z" fill="#40C5A6" stroke="#263238" stroke-miterlimit="10"/>
<path d="M114.066 96.3665L112.289 95.2573" stroke="#263238" stroke-width="0.5" stroke-miterlimit="10"/>
<path d="M115.375 100.708L113.994 99.2499" stroke="#263238" stroke-width="2" stroke-miterlimit="10"/>
<path d="M114.412 99.6862C114.41 99.4632 114.359 99.2434 114.265 99.0415C114.17 98.8396 114.034 98.6603 113.864 98.5158C113.507 98.1966 111.643 97.4119 111.47 98.0689C111.273 98.7844 113.183 100.189 114.412 99.6862Z" fill="#40C5A6" stroke="#263238" stroke-miterlimit="10"/>
<path d="M114.412 99.6862L112.635 98.5796" stroke="#263238" stroke-width="0.5" stroke-miterlimit="10"/>
<path d="M114.465 91.9935L113.085 90.5331" stroke="#263238" stroke-width="2" stroke-miterlimit="10"/>
<path d="M113.502 90.972C113.5 90.7491 113.449 90.5294 113.355 90.3276C113.26 90.1257 113.124 89.9464 112.954 89.8016C112.598 89.4851 110.733 88.6977 110.56 89.3574C110.363 90.0676 112.273 91.4721 113.502 90.972Z" fill="#40C5A6" stroke="#263238" stroke-miterlimit="10"/>
<path d="M113.502 90.9694L111.725 89.8628" stroke="#263238" stroke-width="0.5" stroke-miterlimit="10"/>
<path d="M113.898 86.5724L112.518 85.1147" stroke="#263238" stroke-width="2" stroke-miterlimit="10"/>
<path d="M112.938 85.5509C112.936 85.3277 112.885 85.1077 112.79 84.9058C112.695 84.7038 112.558 84.5247 112.388 84.3805C112.034 84.0613 110.167 83.2766 109.994 83.9336C109.797 84.6492 111.72 86.0536 112.938 85.5509Z" fill="#40C5A6" stroke="#263238" stroke-miterlimit="10"/>
<path d="M112.938 85.551L111.161 84.4444" stroke="#263238" stroke-width="0.5" stroke-miterlimit="10"/>
<path d="M115.641 103.527L116.691 101.814" stroke="#263238" stroke-width="2" stroke-miterlimit="10"/>
<path d="M116.372 102.328C116.331 102.111 116.335 101.887 116.386 101.672C116.437 101.457 116.533 101.255 116.668 101.08C116.95 100.697 118.615 99.5452 118.923 100.152C119.258 100.798 117.678 102.567 116.372 102.328Z" fill="#40C5A6" stroke="#263238" stroke-miterlimit="10"/>
<path d="M116.372 102.328L117.971 100.798" stroke="#263238" stroke-width="0.5" stroke-miterlimit="10"/>
<path d="M114.728 94.7865L115.779 93.0734" stroke="#263238" stroke-width="2" stroke-miterlimit="10"/>
<path d="M115.46 93.5895C115.416 93.3704 115.42 93.1445 115.471 92.927C115.522 92.7095 115.619 92.5054 115.755 92.3286C116.037 91.9456 117.702 90.7912 118.011 91.3976C118.346 92.0573 116.774 93.8262 115.46 93.5895Z" fill="#40C5A6" stroke="#263238" stroke-miterlimit="10"/>
<path d="M115.46 93.5894L117.059 92.0599" stroke="#263238" stroke-width="0.5" stroke-miterlimit="10"/>
<path d="M114.329 90.9454L115.38 89.2324" stroke="#263238" stroke-width="2" stroke-miterlimit="10"/>
<path d="M115.058 89.7484C115.015 89.5292 115.02 89.3032 115.071 89.0858C115.122 88.8684 115.22 88.6644 115.356 88.4876C115.635 88.1045 117.301 86.9501 117.609 87.5566C117.947 88.2163 116.367 89.9851 115.058 89.7484Z" fill="#40C5A6" stroke="#263238" stroke-miterlimit="10"/>
<path d="M115.058 89.7484L116.66 88.2189" stroke="#263238" stroke-width="0.5" stroke-miterlimit="10"/>
<path d="M113.742 85.3142L114.792 83.6011" stroke="#263238" stroke-width="2" stroke-miterlimit="10"/>
<path d="M114.47 84.1172C114.427 83.8979 114.432 83.672 114.483 83.4546C114.535 83.2372 114.632 83.0332 114.768 82.8563C115.048 82.4733 116.713 81.3189 117.021 81.9253C117.359 82.585 115.779 84.3539 114.47 84.1172Z" fill="#40C5A6" stroke="#263238" stroke-miterlimit="10"/>
<path d="M114.47 84.1172L116.072 82.5877" stroke="#263238" stroke-width="0.5" stroke-miterlimit="10"/>
<path d="M113.292 81.7152C113.248 81.4962 113.252 81.2703 113.303 81.0528C113.354 80.8353 113.451 80.6313 113.587 80.4544C113.869 80.0713 115.534 78.9169 115.843 79.5234C116.178 80.183 114.598 81.952 113.292 81.7152Z" fill="#40C5A6" stroke="#263238" stroke-miterlimit="10"/>
<path d="M113.292 81.7152L114.891 80.1857" stroke="#263238" stroke-width="0.5" stroke-miterlimit="10"/>
<path d="M113.385 81.7817C113.163 81.8012 112.938 81.7732 112.727 81.6993C112.516 81.6255 112.323 81.5076 112.162 81.3534C111.81 81.0342 110.832 79.2574 111.473 79.0153C112.164 78.7493 113.758 80.5049 113.385 81.7817Z" fill="#40C5A6" stroke="#263238" stroke-miterlimit="10"/>
<path d="M113.385 81.7817L112.031 80.0287" stroke="#263238" stroke-width="0.5" stroke-miterlimit="10"/>
<path d="M121.357 85.8994L118.325 115.104" stroke="#263238" stroke-width="2" stroke-miterlimit="10"/>
<path d="M118.995 109.533L117.944 107.82" stroke="#263238" stroke-width="2" stroke-miterlimit="10"/>
<path d="M118.264 108.336C118.307 108.117 118.304 107.892 118.253 107.674C118.202 107.457 118.105 107.252 117.968 107.076C117.686 106.693 116.021 105.541 115.713 106.147C115.377 106.807 116.957 108.573 118.264 108.336Z" fill="#40C5A6" stroke="#263238" stroke-miterlimit="10"/>
<path d="M118.264 108.336L116.753 106.887" stroke="#263238" stroke-width="0.5" stroke-miterlimit="10"/>
<path d="M119.836 101.428L118.785 99.7155" stroke="#263238" stroke-width="2" stroke-miterlimit="10"/>
<path d="M119.107 100.231C119.15 100.012 119.145 99.7863 119.094 99.5688C119.043 99.3514 118.945 99.1475 118.809 98.9706C118.527 98.5876 116.862 97.4358 116.553 98.0423C116.218 98.7019 117.798 100.468 119.107 100.231Z" fill="#40C5A6" stroke="#263238" stroke-miterlimit="10"/>
<path d="M119.107 100.232L117.596 98.7818" stroke="#263238" stroke-width="0.5" stroke-miterlimit="10"/>
<path d="M119.492 104.751L118.439 103.038" stroke="#263238" stroke-width="2" stroke-miterlimit="10"/>
<path d="M118.761 103.551C118.804 103.332 118.8 103.107 118.748 102.89C118.697 102.673 118.6 102.469 118.463 102.293C118.181 101.91 116.519 100.756 116.21 101.365C115.872 102.024 117.452 103.791 118.761 103.551Z" fill="#40C5A6" stroke="#263238" stroke-miterlimit="10"/>
<path d="M118.761 103.551L117.25 102.104" stroke="#263238" stroke-width="0.5" stroke-miterlimit="10"/>
<path d="M120.397 96.034L119.344 94.3209" stroke="#263238" stroke-width="2" stroke-miterlimit="10"/>
<path d="M119.665 94.8343C119.709 94.6155 119.705 94.3899 119.654 94.1727C119.602 93.9556 119.505 93.7522 119.367 93.5761C119.085 93.1931 117.423 92.0387 117.114 92.6451C116.774 93.3075 118.37 95.0737 119.665 94.8343Z" fill="#40C5A6" stroke="#263238" stroke-miterlimit="10"/>
<path d="M119.665 94.8343L118.155 93.3846" stroke="#263238" stroke-width="0.5" stroke-miterlimit="10"/>
<path d="M120.958 90.6156L119.907 88.9025" stroke="#263238" stroke-width="2" stroke-miterlimit="10"/>
<path d="M120.232 89.4159C120.276 89.1968 120.272 88.971 120.221 88.7535C120.17 88.536 120.073 88.3319 119.937 88.1551C119.655 87.772 117.99 86.6202 117.681 87.2267C117.34 87.8864 118.921 89.6553 120.232 89.4159Z" fill="#40C5A6" stroke="#263238" stroke-miterlimit="10"/>
<path d="M120.227 89.4159L118.716 87.9662" stroke="#263238" stroke-width="0.5" stroke-miterlimit="10"/>
<path d="M119.173 107.562L120.554 106.102" stroke="#263238" stroke-width="2" stroke-miterlimit="10"/>
<path d="M120.134 106.541C120.136 106.317 120.187 106.097 120.282 105.895C120.377 105.692 120.514 105.513 120.684 105.368C121.038 105.051 122.903 104.264 123.078 104.924C123.275 105.637 121.365 107.044 120.134 106.541Z" fill="#40C5A6" stroke="#263238" stroke-miterlimit="10"/>
<path d="M120.134 106.541L122.014 105.373" stroke="#263238" stroke-width="0.5" stroke-miterlimit="10"/>
<path d="M120.08 98.8217L121.461 97.3613" stroke="#263238" stroke-width="2" stroke-miterlimit="10"/>
<path d="M121.03 97.8002C121.033 97.5767 121.083 97.3563 121.178 97.154C121.273 96.9516 121.41 96.772 121.581 96.6272C121.934 96.3106 123.799 95.5233 123.975 96.183C124.182 96.8958 122.272 98.303 121.03 97.8002Z" fill="#40C5A6" stroke="#263238" stroke-miterlimit="10"/>
<path d="M121.041 97.8003L122.921 96.6325" stroke="#263238" stroke-width="0.5" stroke-miterlimit="10"/>
<path d="M120.479 94.9806L121.86 93.5203" stroke="#263238" stroke-width="2" stroke-miterlimit="10"/>
<path d="M121.44 93.9592C121.442 93.7359 121.492 93.5158 121.587 93.3134C121.681 93.1111 121.818 92.9314 121.988 92.7862C122.344 92.4696 124.209 91.6823 124.382 92.3419C124.581 93.0548 122.671 94.462 121.44 93.9592Z" fill="#40C5A6" stroke="#263238" stroke-miterlimit="10"/>
<path d="M121.44 93.9592L123.32 92.7914" stroke="#263238" stroke-width="0.5" stroke-miterlimit="10"/>
<path d="M121.062 89.3494L122.442 87.8891" stroke="#263238" stroke-width="2" stroke-miterlimit="10"/>
<path d="M122.025 88.328C122.027 88.1047 122.077 87.8845 122.172 87.6822C122.266 87.4799 122.403 87.3001 122.573 87.1549C122.927 86.8384 124.794 86.051 124.967 86.7107C125.164 87.4236 123.254 88.844 122.025 88.328Z" fill="#40C5A6" stroke="#263238" stroke-miterlimit="10"/>
<path d="M122.025 88.328L123.905 87.1602" stroke="#263238" stroke-width="0.5" stroke-miterlimit="10"/>
<path d="M121.365 85.7345C121.368 85.5112 121.418 85.2911 121.512 85.0888C121.607 84.8865 121.744 84.7067 121.913 84.5614C122.267 84.2449 124.134 83.4602 124.307 84.1172C124.504 84.8328 122.594 86.2372 121.365 85.7345Z" fill="#40C5A6" stroke="#263238" stroke-miterlimit="10"/>
<path d="M121.365 85.7344L123.246 84.5667" stroke="#263238" stroke-width="0.5" stroke-miterlimit="10"/>
<path d="M121.442 85.8196C121.22 85.7931 121.007 85.7196 120.815 85.604C120.624 85.4884 120.46 85.3334 120.333 85.1492C120.054 84.7635 119.469 82.8244 120.142 82.718C120.873 82.601 122.07 84.6465 121.442 85.8196Z" fill="#40C5A6" stroke="#263238" stroke-miterlimit="10"/>
<path d="M121.442 85.8196L120.477 83.8273" stroke="#263238" stroke-width="0.5" stroke-miterlimit="10"/>
<path d="M117.883 74.0065V110.938" stroke="#263238" stroke-width="2" stroke-miterlimit="10"/>
<path d="M117.912 105.387L116.689 103.791" stroke="#263238" stroke-width="2" stroke-miterlimit="10"/>
<path d="M117.061 104.272C117.082 104.05 117.054 103.825 116.981 103.614C116.907 103.403 116.79 103.21 116.636 103.048C116.316 102.697 114.542 101.718 114.298 102.357C114.032 103.046 115.787 104.642 117.061 104.272Z" fill="#40C5A6" stroke="#263238" stroke-miterlimit="10"/>
<path d="M117.061 104.269L115.409 102.985" stroke="#263238" stroke-width="0.5" stroke-miterlimit="10"/>
<path d="M117.912 98.4439L116.689 96.8506" stroke="#263238" stroke-width="2" stroke-miterlimit="10"/>
<path d="M117.061 97.3294C117.082 97.1069 117.054 96.8826 116.981 96.6716C116.907 96.4605 116.79 96.2676 116.636 96.1058C116.316 95.7547 114.542 94.7758 114.298 95.4142C114.032 96.1058 115.787 97.7018 117.061 97.3294Z" fill="#40C5A6" stroke="#263238" stroke-miterlimit="10"/>
<path d="M117.061 97.3294L115.409 96.042" stroke="#263238" stroke-width="0.5" stroke-miterlimit="10"/>
<path d="M117.912 90.2964L116.689 88.7004" stroke="#263238" stroke-width="2" stroke-miterlimit="10"/>
<path d="M117.061 89.1792C117.082 88.9571 117.054 88.7332 116.981 88.5225C116.908 88.3119 116.79 88.1195 116.636 87.9583C116.316 87.6045 114.542 86.6283 114.298 87.2667C114.032 87.9583 115.787 89.5516 117.061 89.1792Z" fill="#40C5A6" stroke="#263238" stroke-miterlimit="10"/>
<path d="M117.061 89.1792L115.409 87.8944" stroke="#263238" stroke-width="0.5" stroke-miterlimit="10"/>
<path d="M117.912 84.8726L116.689 83.2766" stroke="#263238" stroke-width="2" stroke-miterlimit="10"/>
<path d="M117.061 83.7554C117.082 83.5329 117.054 83.3086 116.981 83.0976C116.907 82.8865 116.79 82.6936 116.636 82.5318C116.316 82.1807 114.542 81.2018 114.298 81.8429C114.032 82.5318 115.787 84.1278 117.061 83.7554Z" fill="#40C5A6" stroke="#263238" stroke-miterlimit="10"/>
<path d="M117.061 83.7554L115.409 82.4706" stroke="#263238" stroke-width="0.5" stroke-miterlimit="10"/>
<path d="M117.912 79.425L116.689 77.829" stroke="#263238" stroke-width="2" stroke-miterlimit="10"/>
<path d="M117.061 78.3077C117.082 78.0852 117.054 77.8609 116.981 77.6499C116.907 77.4388 116.79 77.246 116.636 77.0841C116.316 76.733 114.542 75.7541 114.298 76.3925C114.032 77.0841 115.787 78.6801 117.061 78.3077Z" fill="#40C5A6" stroke="#263238" stroke-miterlimit="10"/>
<path d="M117.061 78.3078L115.409 77.0203" stroke="#263238" stroke-width="0.5" stroke-miterlimit="10"/>
<path d="M117.886 107.504L119.109 105.911" stroke="#263238" stroke-width="2" stroke-miterlimit="10"/>
<path d="M118.737 106.4C118.717 106.178 118.744 105.953 118.817 105.742C118.891 105.531 119.009 105.338 119.163 105.176C119.482 104.825 121.256 103.846 121.501 104.485C121.767 105.166 120.011 106.762 118.737 106.4Z" fill="#40C5A6" stroke="#263238" stroke-miterlimit="10"/>
<path d="M118.737 106.389L120.487 105.033" stroke="#263238" stroke-width="0.5" stroke-miterlimit="10"/>
<path d="M117.886 96.4676L119.109 94.8716" stroke="#263238" stroke-width="2" stroke-miterlimit="10"/>
<path d="M118.737 95.3503C118.717 95.1278 118.744 94.9035 118.817 94.6925C118.891 94.4815 119.009 94.2886 119.163 94.1267C119.482 93.7756 121.256 92.7967 121.501 93.4351C121.767 94.1267 120.011 95.7227 118.737 95.3503Z" fill="#40C5A6" stroke="#263238" stroke-miterlimit="10"/>
<path d="M118.737 95.3504L120.487 93.9938" stroke="#263238" stroke-width="0.5" stroke-miterlimit="10"/>
<path d="M117.886 91.0172L119.109 89.4239" stroke="#263238" stroke-width="2" stroke-miterlimit="10"/>
<path d="M118.737 89.908C118.717 89.6855 118.744 89.4612 118.817 89.2502C118.891 89.0391 119.009 88.8462 119.163 88.6844C119.482 88.3333 121.256 87.3544 121.501 87.9928C121.767 88.6791 120.011 90.2751 118.737 89.908Z" fill="#40C5A6" stroke="#263238" stroke-miterlimit="10"/>
<path d="M118.737 89.9027L120.487 88.5461" stroke="#263238" stroke-width="0.5" stroke-miterlimit="10"/>
<path d="M117.886 83.8166L119.109 82.2233" stroke="#263238" stroke-width="2" stroke-miterlimit="10"/>
<path d="M118.737 82.6994C118.717 82.4773 118.744 82.2534 118.817 82.0428C118.891 81.8322 119.009 81.6398 119.163 81.4785C119.482 81.1274 121.256 80.1485 121.501 80.7869C121.767 81.4785 120.011 83.0718 118.737 82.6994Z" fill="#40C5A6" stroke="#263238" stroke-miterlimit="10"/>
<path d="M118.737 82.6994L120.487 81.3455" stroke="#263238" stroke-width="0.5" stroke-miterlimit="10"/>
<path d="M117.886 78.1561L119.109 76.5601" stroke="#263238" stroke-width="2" stroke-miterlimit="10"/>
<path d="M118.737 77.0389C118.717 76.8152 118.744 76.5896 118.819 76.3776C118.893 76.1655 119.012 75.972 119.168 75.81C119.487 75.4589 121.261 74.48 121.506 75.1211C121.767 75.81 120.011 77.406 118.737 77.0389Z" fill="#40C5A6" stroke="#263238" stroke-miterlimit="10"/>
<path d="M118.737 77.0389L120.487 75.685" stroke="#263238" stroke-width="0.5" stroke-miterlimit="10"/>
<path d="M117.811 74.5279C117.791 74.3058 117.818 74.0818 117.892 73.8712C117.965 73.6606 118.083 73.4682 118.237 73.307C118.556 72.9532 120.333 71.977 120.578 72.6154C120.841 73.307 119.088 74.9003 117.811 74.5279Z" fill="#40C5A6" stroke="#263238" stroke-miterlimit="10"/>
<path d="M117.811 74.5279L119.562 73.174" stroke="#263238" stroke-width="0.5" stroke-miterlimit="10"/>
<path d="M117.896 74.6024C117.673 74.5997 117.453 74.5492 117.251 74.4542C117.05 74.3592 116.87 74.222 116.726 74.0518C116.41 73.698 115.628 71.8307 116.285 71.6578C117 71.4609 118.402 73.3734 117.896 74.6024Z" fill="#40C5A6" stroke="#263238" stroke-miterlimit="10"/>
<path d="M117.896 74.6024L116.734 72.7217" stroke="#263238" stroke-width="0.5" stroke-miterlimit="10"/>
<path d="M119.402 120.517H115.492L115.002 110.64H119.892L119.402 120.517Z" fill="#263238" stroke="#263238" stroke-miterlimit="10"/>
<path d="M109.951 48.7525C108.342 47.3985 108.653 45.2413 108.653 45.2413C108.653 45.2413 102.077 51.2103 101.737 53.1574C101.396 55.1046 106.31 62.1323 107.057 63.2335C107.152 63.3676 107.275 63.4785 107.419 63.558C107.182 64.1395 107.066 64.7631 107.078 65.3908C107.097 67.5507 109.536 66.7846 110.52 66.1303C110.803 65.9314 111.023 65.6556 111.155 65.3355C111.286 65.0154 111.322 64.6644 111.26 64.3241C111.26 64.3241 110.028 64.8162 110.028 64.2443C110.028 63.6724 111.188 62.776 111.188 62.776L111.159 62.7547C111.398 62.5744 111.616 62.3683 111.81 62.1403C113.079 60.6161 110.962 58.9216 110.539 57.9907C110.116 57.0597 110.877 56.2138 112.401 54.9423C113.925 53.6708 111.56 50.1091 109.951 48.7525Z" fill="#263238" stroke="#263238" stroke-linecap="round" stroke-linejoin="round"/>
<path d="M85.8302 61.8636C85.8647 62.6054 85.8434 63.3488 85.7663 64.0874C85.7412 64.5268 85.8103 64.9666 85.9691 65.3772C86.1278 65.7878 86.3725 66.1598 86.6867 66.4681C87.0378 66.7341 88.7828 67.2927 88.7828 67.2927L89.0701 65.7685L88.8041 65.1354L89.1525 62.8159C89.0014 62.3869 88.8108 61.9728 88.5833 61.579C88.2641 61.0709 87.4076 60.5309 87.3437 60.4352C87.2799 60.3394 86.2318 60.5629 86.1361 60.5629C85.9419 60.6116 85.7516 60.6748 85.5668 60.7517L85.8302 61.8636Z" fill="white" stroke="#263238" stroke-linecap="round" stroke-linejoin="round"/>
<path d="M85.2902 60.3128C85.2902 60.3128 84.7449 60.358 84.6784 60.5788C84.6119 60.7996 84.8407 62.0445 84.9763 62.1588C85.112 62.2732 85.4817 62.1588 85.4844 61.6534C85.4871 61.148 85.4339 60.5123 85.2902 60.3128Z" fill="white" stroke="#263238" stroke-linecap="round" stroke-linejoin="round"/>
<path d="M85.918 60.1639C85.918 60.1639 85.3221 60.1639 85.2317 60.3926C85.1413 60.6214 85.2769 61.9886 85.4152 62.1296C85.5536 62.2706 85.9632 62.1748 86.0084 61.6269C86.0536 61.0789 86.0457 60.382 85.918 60.1639Z" fill="white" stroke="#263238" stroke-linecap="round" stroke-linejoin="round"/>
<path d="M86.5431 59.9324C86.5431 59.9324 85.8728 59.9324 85.769 60.1984C85.6653 60.4644 85.8222 62.0046 85.9765 62.1589C86.1308 62.3131 86.5936 62.2094 86.6468 61.5923C86.7 60.9752 86.6974 60.1905 86.5431 59.9324Z" fill="white" stroke="#263238" stroke-linecap="round" stroke-linejoin="round"/>
<path d="M87.1522 59.9377C87.1522 59.9377 86.4819 59.9377 86.3781 60.2037C86.2744 60.4697 86.4287 62.0072 86.583 62.1615C86.7372 62.3158 87.2027 62.2147 87.2533 61.5949C87.3038 60.9751 87.3065 60.1958 87.1522 59.9377Z" fill="white" stroke="#263238" stroke-linecap="round" stroke-linejoin="round"/>
<path d="M88.844 64.638C88.844 64.638 89.11 63.308 89.1552 62.5738C89.2004 61.8397 88.3812 60.9778 88.1737 60.7118C87.9662 60.4458 87.9689 59.5281 87.6071 59.5281C87.2453 59.5281 87.1442 59.9404 87.1442 59.9404C87.1442 59.9404 86.9368 60.6108 87.2985 60.9699C87.5656 61.2576 87.8068 61.5682 88.0194 61.8982C88.0194 61.8982 86.9368 63.9624 86.9368 64.5289C86.9368 65.0955 87.9688 65.7658 87.9688 65.7658" fill="white"/>
<path d="M88.844 64.638C88.844 64.638 89.11 63.308 89.1552 62.5738C89.2004 61.8397 88.3812 60.9778 88.1737 60.7118C87.9662 60.4458 87.9689 59.5281 87.6071 59.5281C87.2453 59.5281 87.1442 59.9404 87.1442 59.9404C87.1442 59.9404 86.9368 60.6108 87.2985 60.9699C87.5656 61.2576 87.8068 61.5682 88.0194 61.8982C88.0194 61.8982 86.9368 63.9624 86.9368 64.5289C86.9368 65.0955 87.9688 65.7658 87.9688 65.7658" stroke="#263238" stroke-linecap="round" stroke-linejoin="round"/>
<path d="M89.0063 65.6434L88.719 68.1199L95.5153 70.341L95.4515 66.6276L89.0063 65.6434Z" fill="#40C5A6" stroke="#263238" stroke-linecap="round" stroke-linejoin="round"/>
<path d="M100.215 53.9581C100.215 53.9581 96.4302 55.0912 96.1749 56.2749C95.9195 57.4586 95.1348 61.0629 95.1348 61.0629C95.1348 61.0629 94.2012 63.5181 94.2863 64.7869C94.3714 66.0557 95.1348 68.5987 94.7092 70.2905C94.2836 71.9822 92.8472 77.0655 92.5094 78.7599C92.1716 80.4543 92.0013 81.4678 92.0013 81.4678L93.3553 81.7338L95.2173 81.9865C95.2173 81.9865 95.9807 76.9059 96.5739 72.5036C97.1671 68.1013 95.6429 65.0556 97.0819 62.1721C98.521 59.2887 101.992 56.4159 101.74 55.2295C101.487 54.0432 100.215 53.9581 100.215 53.9581Z" fill="#40C5A6" stroke="#263238" stroke-linecap="round" stroke-linejoin="round"/>
<path d="M93.366 78.4274C93.366 78.4274 92.858 84.6092 93.8741 89.1818C94.4409 91.7979 95.1766 94.3747 96.0766 96.8958C96.0766 96.8958 97.2603 104.344 98.1088 106.972C98.8807 109.289 99.1969 111.733 99.0398 114.17C98.8696 116.199 97.4305 118.825 96.7522 119.333C96.0739 119.841 94.72 121.027 96.4144 121.461C98.1088 121.894 100.295 120.91 101.325 120.868C103.357 120.783 103.612 119.429 103.612 118.16C103.612 116.891 102.426 112.574 102.766 110.369C103.107 108.164 103.189 100.886 102.849 98.9307C102.508 96.9756 102.341 95.2067 102.341 95.2067L102.088 79.3717L93.7038 78.188L93.366 78.4274Z" fill="#263238" stroke="#263238" stroke-linecap="round" stroke-linejoin="round"/>
<path d="M102.703 111.677C100.748 112.523 99.6516 112.369 99.0478 112.021C99.0912 112.734 99.085 113.449 99.0292 114.162C98.8589 116.191 97.4199 118.817 96.7416 119.325C96.0633 119.833 94.7093 121.019 96.4037 121.453C98.0982 121.887 100.285 120.902 101.314 120.86C103.346 120.775 103.602 119.421 103.602 118.152C103.602 117.093 102.796 113.973 102.703 111.677Z" fill="white" stroke="#263238" stroke-linecap="round" stroke-linejoin="round"/>
<path d="M103.594 117.942C103.592 117.928 103.592 117.915 103.594 117.902C103.594 117.83 103.58 117.753 103.57 117.673C103.571 117.655 103.571 117.638 103.57 117.62C103.559 117.542 103.548 117.459 103.538 117.372C103.538 117.372 103.538 117.354 103.538 117.343C103.524 117.253 103.511 117.154 103.495 117.056L103.479 116.963C103.463 116.872 103.447 116.777 103.431 116.678C103.431 116.625 103.413 116.572 103.405 116.519V116.484C103.288 116.604 103.163 116.729 103.03 116.87C101.676 118.309 99.8111 119.918 97.864 119.918C96.9356 119.918 96.7016 119.652 96.7095 119.367C96.0179 119.899 94.7757 121.03 96.4249 121.442C98.1193 121.865 100.306 120.892 101.335 120.849C103.368 120.764 103.623 119.41 103.623 118.141C103.609 118.081 103.599 118.014 103.594 117.942Z" fill="#40C5A6" stroke="#263238" stroke-linecap="round" stroke-linejoin="round"/>
<path d="M101.907 119.665C100.298 120.934 98.6061 121.104 97.1671 121.104C96.0525 121.104 95.7519 120.65 95.6721 120.442C95.478 120.846 95.5764 121.24 96.4036 121.442C98.0981 121.865 100.285 120.892 101.314 120.849C103.229 120.769 103.564 119.564 103.599 118.362C103.192 118.665 102.625 119.096 101.907 119.665Z" fill="white" stroke="#263238" stroke-linecap="round" stroke-linejoin="round"/>
<path d="M98.7738 87.8279C98.7738 87.8279 99.6223 98.5796 100.298 101.46C100.974 104.341 102.426 114.329 102.426 115.686C102.426 117.043 101.495 118.987 100.987 119.833C100.479 120.679 99.1249 120.849 99.1249 121.613C99.1249 122.376 101.833 122.373 102.341 122.458C102.849 122.544 106.331 121.613 106.405 121.19C106.48 120.767 106.49 118.987 106.49 118.987C106.537 118.509 106.537 118.027 106.49 117.548C106.405 116.955 105.389 115.178 105.389 115.178C105.389 115.178 106.323 106.879 106.576 105.525C106.828 104.171 106.746 101.375 106.661 100.104C106.576 98.8323 105.804 96.292 105.804 96.292L107.496 82.8297L107.328 78.5099C107.328 78.5099 104.956 78.7759 102.33 78.7759H97.8428L98.013 81.9918" fill="#263238"/>
<path d="M98.7738 87.8279C98.7738 87.8279 99.6223 98.5796 100.298 101.46C100.974 104.341 102.426 114.329 102.426 115.686C102.426 117.043 101.495 118.987 100.987 119.833C100.479 120.679 99.1249 120.849 99.1249 121.613C99.1249 122.376 101.833 122.373 102.341 122.458C102.849 122.544 106.331 121.613 106.405 121.19C106.48 120.767 106.49 118.987 106.49 118.987C106.537 118.509 106.537 118.027 106.49 117.548C106.405 116.955 105.389 115.178 105.389 115.178C105.389 115.178 106.323 106.879 106.576 105.525C106.828 104.171 106.746 101.375 106.661 100.104C106.576 98.8323 105.804 96.292 105.804 96.292L107.496 82.8297L107.328 78.5099C107.328 78.5099 104.956 78.7759 102.33 78.7759H97.8428L98.013 81.9918" stroke="#263238" stroke-linecap="round" stroke-linejoin="round"/>
<path d="M106.4 121.19C106.485 120.764 106.485 118.987 106.485 118.987C106.532 118.509 106.532 118.027 106.485 117.548C106.4 116.955 105.384 115.178 105.384 115.178C105.384 115.178 105.525 113.941 105.708 112.345C105.114 112.575 104.475 112.671 103.839 112.625C103.203 112.579 102.585 112.393 102.03 112.079C102.264 113.837 102.421 115.226 102.421 115.673C102.421 117.027 101.49 118.974 100.982 119.82C100.473 120.666 99.1195 120.836 99.1195 121.599C99.1195 122.363 101.827 122.36 102.335 122.445C102.844 122.53 106.312 121.613 106.4 121.19Z" fill="white" stroke="#263238" stroke-linecap="round" stroke-linejoin="round"/>
<path d="M106.4 121.19C106.485 120.764 106.485 118.987 106.485 118.987C106.532 118.509 106.532 118.027 106.485 117.548C106.437 117.205 106.078 116.468 105.783 115.907C105.762 115.947 105.743 115.981 105.724 116.024C105.216 117.04 103.04 119.684 102.024 120.28C101.008 120.876 100.729 120.176 100.729 120.176H100.702C100.096 120.745 99.1781 120.974 99.1196 121.615C99.0079 122.823 102.312 122.743 102.804 122.586C103.296 122.429 106.312 121.613 106.4 121.19Z" fill="#40C5A6" stroke="#263238" stroke-linecap="round" stroke-linejoin="round"/>
<path d="M106.4 121.19C106.459 120.635 106.486 120.077 106.482 119.519C104.811 120.831 102.787 121.615 100.668 121.769C99.6915 121.831 99.2925 121.397 99.2233 121.309C99.1661 121.401 99.1306 121.505 99.1196 121.613C99.0079 122.82 102.312 122.74 102.804 122.583C103.296 122.426 106.312 121.613 106.4 121.19Z" fill="white" stroke="#263238" stroke-linecap="round" stroke-linejoin="round"/>
<path d="M99.7074 54.381C99.7074 54.381 96.4037 60.8156 95.6429 62.5951C94.8822 64.3747 95.2173 67.2501 95.2173 68.2662C95.2173 69.2824 93.3553 78.4274 93.3553 78.4274C93.3553 78.4274 95.0498 80.207 99.5372 80.0367C104.025 79.8665 106.735 78.7679 106.735 78.7679C106.735 78.7679 105.719 70.3836 105.719 68.6067C105.719 66.8298 107.919 59.2063 107.666 57.1687C107.413 55.1312 104.362 55.3067 103.602 55.1365C102.841 54.9662 99.7074 54.381 99.7074 54.381Z" fill="white" stroke="#263238" stroke-linecap="round" stroke-linejoin="round"/>
<path d="M95.917 42.3684C95.917 42.3684 94.962 45.6163 95.3078 46.0179C95.5898 46.4386 95.8169 46.8936 95.9835 47.3719C95.9835 47.3719 94.97 49.335 95.2387 49.6063C95.5015 49.8154 95.7997 49.9758 96.1191 50.0798C96.1191 50.0798 96.7283 53.0058 97.2709 53.1281C97.8136 53.2505 100.995 52.3833 100.995 52.3833C100.995 52.3833 102.892 50.6889 102.147 47.6432C101.402 44.5975 98.4227 42.4296 97.8907 42.1583C97.3587 41.887 95.917 42.3684 95.917 42.3684Z" fill="white" stroke="#263238" stroke-linecap="round" stroke-linejoin="round"/>
<path d="M97.6219 47.2416V47.9864C97.6219 47.9864 98.4625 48.0396 98.8695 47.7683" stroke="#263238" stroke-linecap="round" stroke-linejoin="round"/>
<path d="M97.3267 46.8984C97.5538 46.7783 97.8077 46.7179 98.0646 46.723C98.3215 46.7281 98.5728 46.7986 98.795 46.9277" stroke="#263238" stroke-linecap="round" stroke-linejoin="round"/>
<path d="M96.5766 46.8985C96.5766 46.8985 96.8772 46.2707 98.0449 46.2707C99.2127 46.2707 99.875 46.6298 99.9628 46.8399C99.99 46.8971 100.002 46.9604 99.9965 47.0234C99.9913 47.0865 99.9696 47.1471 99.9335 47.199C99.9335 47.199 99.9335 48.428 99.6037 48.7578C99.2739 49.0876 98.0769 49.4175 97.4757 49.1462C96.8745 48.8748 96.5474 47.7071 96.5474 47.4384C96.5474 47.1698 96.5766 46.8985 96.5766 46.8985Z" stroke="#263238" stroke-linecap="round" stroke-linejoin="round"/>
<path d="M99.9628 46.8399H100.444" stroke="#263238" stroke-linecap="round" stroke-linejoin="round"/>
<path d="M96.5766 46.8985C96.5766 46.8985 96.0685 46.4782 95.8584 46.9889" stroke="#263238" stroke-linecap="round" stroke-linejoin="round"/>
<path d="M95.6482 46.8984C95.3449 46.8202 95.0331 46.78 94.7199 46.7787C94.2091 46.7787 94.0602 46.9889 94.0894 47.0793C94.1888 47.3597 94.2497 47.6524 94.2703 47.9491C94.2703 48.2763 94.2996 48.787 94.6002 48.936C94.8082 49.0332 95.0313 49.0943 95.2598 49.1169" stroke="#263238" stroke-linecap="round" stroke-linejoin="round"/>
<path d="M102.5 54.8891C102.5 54.8891 100.216 60.6453 99.6224 63.8639C99.0292 67.0825 99.2819 83.7634 99.2819 83.7634C100.814 84.4871 102.505 84.8075 104.195 84.6944C107.073 84.5242 110.047 82.6622 110.047 82.6622C110.047 82.6622 109.369 77.7518 108.27 74.2778C107.171 70.8039 106.746 69.1999 106.746 69.1999C106.746 69.1999 108.946 57.9375 108.778 56.7511C108.61 55.5647 102.5 54.8891 102.5 54.8891Z" fill="#40C5A6" stroke="#263238" stroke-linecap="round" stroke-linejoin="round"/>
<path d="M98.1539 39.1844C98.1539 39.1844 94.8369 40.1341 94.8369 40.674C94.8369 41.214 94.7013 41.9615 96.9357 43.5176C99.1701 45.0737 100.795 46.4968 100.926 48.3934C101.056 50.2899 99.1647 55.3094 98.7578 56.924C98.3508 58.5386 98.5556 60.914 99.8404 61.2571C101.125 61.6003 100.721 61.3928 100.585 60.648C100.45 59.9032 101.194 56.7883 103.429 55.7749C105.663 54.7614 108.086 53.1308 108.576 50.0851C109.087 46.9091 108.882 42.3126 105.597 39.7936C102.312 37.2746 98.1539 39.1844 98.1539 39.1844Z" fill="#263238" stroke="#263238" stroke-linecap="round" stroke-linejoin="round"/>
<path d="M104.272 61.1534L103.423 68.9445L102.915 69.1148V69.5377L102.407 69.7904L102.155 70.1309L90.3841 69.0296C90.3841 69.0296 87.6736 68.6918 87.1655 68.6918C86.6574 68.6918 84.7103 68.4258 84.7103 68.4258C84.7103 68.4258 84.9763 69.1892 85.3886 69.2717C85.8009 69.3542 88.0141 70.1202 88.0141 70.1202C88.0141 70.1202 89.4531 70.881 90.3841 70.881C91.3151 70.881 92.7542 70.9661 92.7542 70.9661C92.7542 70.9661 98.936 72.6605 100.883 72.9984C102.83 73.3362 104.44 74.0996 105.118 73.8442C105.534 73.6863 105.91 73.437 106.218 73.1148C106.525 72.7926 106.756 72.4056 106.895 71.9822C107.161 71.0512 108.251 65.2923 108.251 65.2923C108.251 65.2923 109.605 59.4403 109.605 58.0119C109.605 56.5835 107.658 55.8094 105.881 56.7404" fill="#40C5A6"/>
<path d="M104.272 61.1534L103.423 68.9445L102.915 69.1148V69.5377L102.407 69.7904L102.155 70.1309L90.3841 69.0296C90.3841 69.0296 87.6736 68.6918 87.1655 68.6918C86.6574 68.6918 84.7103 68.4258 84.7103 68.4258C84.7103 68.4258 84.9763 69.1892 85.3886 69.2717C85.8009 69.3542 88.0141 70.1202 88.0141 70.1202C88.0141 70.1202 89.4531 70.881 90.3841 70.881C91.3151 70.881 92.7542 70.9661 92.7542 70.9661C92.7542 70.9661 98.936 72.6605 100.883 72.9984C102.83 73.3362 104.44 74.0996 105.118 73.8442C105.534 73.6863 105.91 73.437 106.218 73.1148C106.525 72.7926 106.756 72.4056 106.895 71.9822C107.161 71.0512 108.251 65.2923 108.251 65.2923C108.251 65.2923 109.605 59.4403 109.605 58.0119C109.605 56.5835 107.658 55.8094 105.881 56.7404" stroke="#263238" stroke-linecap="round" stroke-linejoin="round"/>
<path d="M102.434 73.3601L101.532 70.0697L90.3921 69.0297C90.3921 69.0297 87.6816 68.6918 87.1735 68.6918C86.6654 68.6918 84.7183 68.4258 84.7183 68.4258C84.7183 68.4258 84.9843 69.1893 85.3966 69.2717C85.8089 69.3542 88.022 70.1203 88.022 70.1203C88.022 70.1203 89.4611 70.881 90.3921 70.881C91.3231 70.881 92.7622 70.9661 92.7622 70.9661C92.7622 70.9661 98.944 72.6606 100.891 72.9984C101.436 73.1048 101.955 73.2325 102.434 73.3601Z" fill="white" stroke="#263238" stroke-linecap="round" stroke-linejoin="round"/>
<path d="M103.676 72.3653L103.939 72.7537" stroke="#263238" stroke-linecap="round" stroke-linejoin="round"/>
<path d="M102.163 70.1309L103.354 71.8891" stroke="#263238" stroke-linecap="round" stroke-linejoin="round"/>
<path d="M102.923 69.5377L104.618 70.7241" stroke="#263238" stroke-linecap="round" stroke-linejoin="round"/>
<path d="M85.2344 68.5615C85.2711 68.6846 85.3426 68.7945 85.4403 68.8781C85.5379 68.9616 85.6576 69.0151 85.785 69.0323C86.2159 69.0695 87.4688 69.7744 87.5858 69.7744" stroke="#263238" stroke-linecap="round" stroke-linejoin="round"/>
<path d="M86.6468 68.6785C86.8612 68.8726 87.1141 69.0194 87.3889 69.1094C87.8956 69.2786 88.3929 69.4749 88.8785 69.6973" stroke="#263238" stroke-linecap="round" stroke-linejoin="round"/>
<path d="M92.5999 69.3834C92.5999 69.3834 90.8496 68.7929 90.706 68.8328C90.2931 68.8792 89.8758 68.8667 89.4664 68.7956C88.8786 68.7184 88.5248 69.3834 88.9956 69.5803C89.3206 69.7017 89.6703 69.7419 90.0144 69.6973C90.1713 69.6973 90.6395 69.8542 90.7592 69.8542" fill="white"/>
<path d="M92.5999 69.3834C92.5999 69.3834 90.8496 68.7929 90.706 68.8328C90.2931 68.8792 89.8758 68.8667 89.4664 68.7956C88.8786 68.7184 88.5248 69.3834 88.9956 69.5803C89.3206 69.7017 89.6703 69.7419 90.0144 69.6973C90.1713 69.6973 90.6395 69.8542 90.7592 69.8542" stroke="#263238" stroke-linecap="round" stroke-linejoin="round"/>
<path d="M78.8504 67.5693L95.3504 69.426L95.2972 68.8568L78.7466 67.1038L78.8504 67.5693Z" fill="white" stroke="#263238" stroke-linecap="round" stroke-linejoin="round"/>
<path d="M78.7466 67.1038L75.4961 58.5439L84.7795 59.318L87.8225 68.1359L78.7466 67.1038Z" fill="white" stroke="#263238" stroke-linecap="round" stroke-linejoin="round"/>
<path d="M87.8226 68.1359V68.5775L95.3504 69.426L95.2972 68.8568L87.8146 68.0641L87.8226 68.1359Z" fill="#263238" stroke="#263238" stroke-linecap="round" stroke-linejoin="round"/>
</svg>
