<svg width="176" height="117" viewBox="0 0 176 117" fill="none" xmlns="http://www.w3.org/2000/svg">
<path d="M148.338 32.76C148.338 32.76 124.218 8.12448 92.874 6.22206C61.5296 4.31964 43.2514 24.5115 34.5899 36.5531C25.9283 48.5948 4.31789 68.6579 6.86637 87.0293C9.41485 105.401 34.3998 119.34 70.1912 113.216C105.983 107.092 116.36 104.769 132.666 109.416C148.973 114.063 170.152 107.092 170.575 80.6949C170.997 54.2974 148.338 32.76 148.338 32.76Z" fill="#40C5A6"/>
<path opacity="0.7" d="M148.338 32.76C148.338 32.76 124.218 8.12448 92.874 6.22206C61.5296 4.31964 43.2514 24.5115 34.5899 36.5531C25.9283 48.5948 4.31789 68.6579 6.86637 87.0293C9.41485 105.401 34.3998 119.34 70.1912 113.216C105.983 107.092 116.36 104.769 132.666 109.416C148.973 114.063 170.152 107.092 170.575 80.6949C170.997 54.2974 148.338 32.76 148.338 32.76Z" fill="white"/>
<path d="M158.104 103.73H169.371" stroke="#263238" stroke-linecap="round" stroke-linejoin="round"/>
<path d="M15.3448 103.73H155.521" stroke="#263238" stroke-linecap="round" stroke-linejoin="round"/>
<path d="M9.98975 103.73H13.315" stroke="#263238" stroke-linecap="round" stroke-linejoin="round"/>
<path d="M153.355 76.8643C153.741 76.9575 154.148 76.8943 154.487 76.6885C154.826 76.4828 155.07 76.1514 155.164 75.7669L156.121 71.838C156.215 71.4533 156.151 71.0473 155.945 70.7091C155.739 70.3709 155.406 70.1281 155.021 70.0339C154.635 69.9408 154.228 70.0041 153.89 70.2098C153.551 70.4156 153.308 70.747 153.214 71.1313L152.254 75.0555C152.207 75.2464 152.198 75.4446 152.228 75.639C152.257 75.8333 152.325 76.0198 152.428 76.1879C152.53 76.356 152.664 76.5022 152.824 76.6183C152.983 76.7344 153.163 76.818 153.355 76.8643Z" fill="white" stroke="#263238" stroke-linecap="round" stroke-linejoin="round"/>
<path d="M154.88 81.4531C155.01 81.4889 155.146 81.4949 155.278 81.4708C155.41 81.4466 155.535 81.3929 155.644 81.3136C155.752 81.2343 155.841 81.1316 155.904 81.0131C155.967 80.8945 156.002 80.7634 156.006 80.6294L156.403 75.6943C156.42 75.3977 156.335 75.1042 156.161 74.8624C155.988 74.6207 155.737 74.4453 155.45 74.3652C155.32 74.3294 155.184 74.3234 155.052 74.3476C154.919 74.3719 154.794 74.4259 154.686 74.5054C154.577 74.585 154.488 74.688 154.426 74.8068C154.363 74.9256 154.328 75.057 154.324 75.1912L153.925 80.124C153.908 80.421 153.993 80.715 154.167 80.9568C154.341 81.1987 154.592 81.3738 154.88 81.4531Z" fill="white" stroke="#263238" stroke-linecap="round" stroke-linejoin="round"/>
<path d="M144.301 75.9962L149.302 74.9595C151.061 74.9243 152.818 75.1162 154.528 75.5305L157.888 76.3448C158.065 76.3878 158.248 76.3956 158.428 76.3679C158.607 76.3402 158.779 76.2776 158.934 76.1835C159.09 76.0894 159.225 75.9657 159.332 75.8195C159.439 75.6734 159.516 75.5076 159.559 75.3316L160.263 72.444C160.35 72.0884 160.291 71.7132 160.1 71.4009C159.909 71.0885 159.601 70.8644 159.245 70.778L156.523 70.1181C154.463 69.619 152.494 68.801 150.689 67.6938L147.136 64.35L144.301 75.9962Z" fill="white" stroke="#263238" stroke-linecap="round" stroke-linejoin="round"/>
<path d="M154.645 69.5612C155.265 69.7764 155.891 69.9636 156.523 70.1181L159.24 70.778C159.597 70.8644 159.904 71.0885 160.095 71.4009C160.286 71.7133 160.345 72.0884 160.259 72.444L159.555 75.3316C159.512 75.5076 159.434 75.6734 159.327 75.8195C159.22 75.9657 159.085 76.0894 158.93 76.1835C158.775 76.2776 158.602 76.3403 158.423 76.3679C158.243 76.3956 158.06 76.3878 157.884 76.3448L154.523 75.5305C154.104 75.4275 153.68 75.3386 153.251 75.2637L154.645 69.5612Z" fill="#263238" stroke="#263238" stroke-linecap="round" stroke-linejoin="round"/>
<path d="M143.635 77.4247L143.843 77.4751C144.438 77.6196 145.039 77.2553 145.184 76.6614L148.112 64.6658C148.257 64.0718 147.891 63.4732 147.296 63.3286L147.088 63.2782C146.493 63.1337 145.892 63.498 145.747 64.0919L142.819 76.0875C142.674 76.6814 143.04 77.2801 143.635 77.4247Z" fill="#40C5A6" stroke="#263238" stroke-linecap="round" stroke-linejoin="round"/>
<path d="M141.769 65.3211L142.942 67.1674" stroke="#263238" stroke-width="2" stroke-linecap="round" stroke-linejoin="round"/>
<path d="M139.88 73.0642L141.772 71.962" stroke="#263238" stroke-width="2" stroke-linecap="round" stroke-linejoin="round"/>
<path d="M141.945 69.5846L139.648 69.0276" stroke="#263238" stroke-width="2" stroke-linecap="round" stroke-linejoin="round"/>
<path d="M153.941 79.56L153.136 80.2433C153.042 80.3249 152.976 80.4337 152.946 80.5545C152.927 80.6303 152.924 80.709 152.936 80.7862C152.947 80.8634 152.974 80.9375 153.015 81.0042C153.055 81.071 153.109 81.1291 153.172 81.1752C153.235 81.2213 153.307 81.2545 153.383 81.2729L155.924 81.8906L156.084 79.574L153.941 79.56Z" fill="#263238" stroke="#263238" stroke-linecap="round" stroke-linejoin="round"/>
<path d="M158.055 72.5985C158.072 72.5317 158.108 72.4714 158.159 72.4251C158.21 72.3788 158.274 72.3485 158.342 72.3382C158.41 72.3278 158.48 72.3379 158.542 72.367C158.605 72.3961 158.657 72.443 158.693 72.5018C158.729 72.5606 158.747 72.6287 158.744 72.6974C158.741 72.7662 158.718 72.8325 158.677 72.8881C158.636 72.9438 158.58 72.9861 158.515 73.01C158.451 73.0338 158.38 73.038 158.313 73.022C158.268 73.0116 158.226 72.9923 158.188 72.9653C158.15 72.9382 158.119 72.9039 158.095 72.8645C158.071 72.825 158.055 72.7812 158.048 72.7355C158.041 72.6898 158.044 72.6432 158.055 72.5985Z" fill="#40C5A6"/>
<path d="M143.123 87.6353V84.708H143.985C144.134 84.7021 144.282 84.7352 144.414 84.8039C144.521 84.8707 144.603 84.97 144.649 85.0871C144.704 85.2303 144.73 85.383 144.726 85.5364C144.734 85.6979 144.7 85.8588 144.63 86.0044C144.569 86.1167 144.472 86.2057 144.355 86.2571C144.225 86.3132 144.084 86.3404 143.942 86.3366H143.651V87.6353H143.123ZM143.658 85.9622H143.862C143.943 85.9676 144.024 85.9531 144.097 85.9201C144.124 85.9069 144.148 85.8883 144.168 85.8653C144.187 85.8423 144.201 85.8156 144.21 85.7867C144.233 85.707 144.243 85.624 144.24 85.541C144.243 85.4546 144.235 85.3682 144.217 85.2836C144.211 85.2534 144.199 85.2247 144.182 85.1993C144.165 85.1739 144.142 85.1524 144.116 85.1362C144.043 85.1018 143.962 85.0857 143.881 85.0894H143.677L143.658 85.9622Z" fill="#263238"/>
<path d="M145.024 87.6353V84.708H145.728C145.898 84.7038 146.068 84.7275 146.23 84.7782C146.358 84.8176 146.467 84.9004 146.54 85.0122C146.62 85.1547 146.658 85.3171 146.648 85.4802C146.649 85.5864 146.638 85.6923 146.615 85.7961C146.595 85.881 146.558 85.9608 146.505 86.0301C146.448 86.0994 146.373 86.1519 146.289 86.1822L146.697 87.6213H146.15L145.796 86.2828H145.561V87.6213L145.024 87.6353ZM145.561 85.9622H145.726C145.811 85.9665 145.896 85.9513 145.974 85.9178C146.035 85.8877 146.082 85.8359 146.106 85.7727C146.136 85.6912 146.15 85.6045 146.146 85.5176C146.154 85.4021 146.126 85.2869 146.066 85.1877C146.026 85.147 145.978 85.1159 145.924 85.0968C145.87 85.0778 145.813 85.0712 145.756 85.0777H145.561V85.9622Z" fill="#263238"/>
<path d="M147.826 87.6751C147.653 87.6841 147.482 87.6443 147.331 87.5605C147.207 87.4833 147.113 87.366 147.066 87.2282C147.01 87.0632 146.983 86.8898 146.986 86.7157V85.623C146.983 85.4511 147.01 85.2801 147.066 85.1175C147.114 84.9828 147.208 84.8688 147.331 84.7946C147.486 84.7206 147.656 84.6823 147.828 84.6823C148 84.6823 148.17 84.7206 148.326 84.7946C148.448 84.8693 148.542 84.9831 148.591 85.1175C148.649 85.2796 148.677 85.4509 148.673 85.623V86.7204C148.676 86.8925 148.649 87.0637 148.591 87.2259C148.542 87.3628 148.449 87.4797 148.326 87.5581C148.173 87.6427 148 87.6832 147.826 87.6751ZM147.826 87.282C147.897 87.2882 147.967 87.2673 148.023 87.2235C148.067 87.1817 148.097 87.1267 148.108 87.0667C148.122 86.9943 148.129 86.9206 148.129 86.8468V85.5013C148.129 85.4274 148.122 85.3537 148.108 85.2813C148.097 85.2221 148.067 85.1679 148.023 85.1269C147.965 85.0903 147.897 85.0709 147.828 85.0709C147.759 85.0709 147.692 85.0903 147.634 85.1269C147.589 85.1677 147.558 85.2219 147.547 85.2813C147.532 85.3537 147.525 85.4274 147.526 85.5013V86.8468C147.525 86.9206 147.532 86.9943 147.547 87.0667C147.555 87.1274 147.585 87.1829 147.631 87.2235C147.686 87.267 147.756 87.2879 147.826 87.282Z" fill="#263238"/>
<path d="M149.058 87.6353L149.11 84.715H149.663L150.079 86.7368L150.513 84.715H151.048L151.102 87.6353H150.705L150.661 85.6042L150.245 87.6353H149.924L149.499 85.5972L149.462 87.6353H149.058Z" fill="#263238"/>
<path d="M152.332 87.6752C152.159 87.6841 151.987 87.6443 151.836 87.5605C151.713 87.4832 151.62 87.3658 151.574 87.2282C151.517 87.0634 151.49 86.8899 151.494 86.7157V85.623C151.489 85.451 151.516 85.2797 151.574 85.1175C151.621 84.9829 151.714 84.8689 151.836 84.7946C151.988 84.7125 152.159 84.6737 152.332 84.6823C152.506 84.6731 152.68 84.7119 152.834 84.7946C152.955 84.8696 153.048 84.9834 153.097 85.1175C153.155 85.2796 153.183 85.4509 153.179 85.623V86.7204C153.182 86.8925 153.154 87.0637 153.097 87.2259C153.048 87.3627 152.956 87.4796 152.834 87.5582C152.681 87.6431 152.507 87.6837 152.332 87.6752ZM152.332 87.282C152.402 87.2882 152.473 87.2673 152.529 87.2235C152.573 87.1817 152.603 87.1267 152.613 87.0667C152.63 86.9946 152.638 86.9208 152.637 86.8468V85.5013C152.638 85.4273 152.63 85.3534 152.613 85.2813C152.602 85.2221 152.573 85.1679 152.529 85.1269C152.472 85.0849 152.402 85.065 152.332 85.0707C152.263 85.0656 152.196 85.0856 152.141 85.1269C152.096 85.167 152.065 85.2215 152.055 85.2813C152.038 85.3534 152.03 85.4273 152.031 85.5013V86.8468C152.031 86.9206 152.038 86.9943 152.052 87.0667C152.062 87.127 152.092 87.1822 152.137 87.2235C152.192 87.2668 152.262 87.2876 152.332 87.282Z" fill="#263238"/>
<path d="M153.852 87.6353V85.1081H153.383V84.708H154.842V85.1011H154.373V87.6283L153.852 87.6353Z" fill="#263238"/>
<path d="M155.129 87.6353V84.708H155.657V87.6283L155.129 87.6353Z" fill="#263238"/>
<path d="M156.903 87.6751C156.73 87.6831 156.559 87.6434 156.408 87.5605C156.284 87.4831 156.192 87.3658 156.145 87.2282C156.088 87.0634 156.061 86.8899 156.065 86.7157V85.623C156.06 85.451 156.087 85.2797 156.145 85.1175C156.193 84.9829 156.285 84.8689 156.408 84.7946C156.563 84.7206 156.734 84.6822 156.906 84.6822C157.079 84.6822 157.249 84.7206 157.405 84.7946C157.527 84.8696 157.619 84.9834 157.668 85.1175C157.726 85.2796 157.754 85.4509 157.75 85.623V86.7204C157.753 86.8925 157.726 87.0637 157.668 87.2259C157.62 87.3627 157.527 87.4796 157.405 87.5581C157.252 87.6431 157.078 87.6837 156.903 87.6751ZM156.903 87.282C156.974 87.2882 157.044 87.2673 157.1 87.2235C157.144 87.1812 157.174 87.1266 157.187 87.0667C157.201 86.9943 157.208 86.9206 157.208 86.8468V85.5013C157.209 85.4274 157.202 85.3537 157.187 85.2813C157.174 85.2222 157.144 85.1683 157.1 85.1269C157.043 85.0849 156.973 85.065 156.903 85.0707C156.835 85.0656 156.767 85.0856 156.713 85.1269C156.667 85.167 156.636 85.2215 156.626 85.2813C156.609 85.3534 156.601 85.4273 156.602 85.5013V86.8468C156.602 86.9206 156.609 86.9943 156.624 87.0667C156.633 87.127 156.663 87.1822 156.708 87.2235C156.763 87.2668 156.833 87.2876 156.903 87.282Z" fill="#263238"/>
<path d="M158.144 87.6353V84.708H158.517L159.221 86.3741V84.708H159.663V87.6283H159.315L158.611 85.8827V87.6283L158.144 87.6353Z" fill="#263238"/>
<path d="M157.616 45.8874L156.488 45.0263L155.136 43.9944L151.346 41.1021V41.0998L151.341 41.0975L151.313 41.0764L147.19 44.0529L145.773 45.0731L144.616 45.9108L147.282 31.9691L148.551 25.3329L153.24 25.4312L153.589 25.4382L153.862 25.4429L154.981 31.5339L157.616 45.8874Z" fill="#40C5A6" stroke="#263238" stroke-linecap="round" stroke-linejoin="round"/>
<path d="M154.981 31.5339C154.811 31.4777 154.628 31.472 154.455 31.5175C154.221 31.6439 154.16 32.1961 153.901 32.2944C153.643 32.3927 153.235 32.0229 152.963 32.0955C152.691 32.168 152.531 32.6969 152.259 32.7413C151.987 32.7858 151.663 32.3342 151.386 32.3505C151.109 32.3669 150.839 32.849 150.562 32.8349C150.285 32.8209 150.058 32.3154 149.788 32.2733C149.518 32.2312 149.145 32.6477 148.882 32.5799C148.619 32.512 148.497 31.9668 148.241 31.8779C147.985 31.7889 147.537 32.1119 147.303 31.9855H147.286L148.544 25.3329L153.237 25.4312H153.587H153.859L154.981 31.5339Z" fill="#263238" stroke="#263238" stroke-linecap="round" stroke-linejoin="round"/>
<path d="M143.32 22.8689C143.334 22.5904 142.882 22.2698 142.924 22.0007C142.966 21.7316 143.494 21.5561 143.562 21.2987C143.63 21.0413 143.257 20.6225 143.353 20.3627C143.449 20.103 144.006 20.0492 144.128 19.8035C144.25 19.5578 143.97 19.0804 144.128 18.8511C144.285 18.6218 144.832 18.6779 145.001 18.465C145.17 18.252 145.001 17.7255 145.191 17.529C145.381 17.3324 145.913 17.5056 146.129 17.3301C146.345 17.1546 146.28 16.607 146.509 16.4549C146.739 16.3028 147.213 16.5813 147.465 16.4549C147.716 16.3286 147.76 15.7763 148.018 15.6757C148.277 15.5751 148.687 15.9471 148.957 15.8746C149.227 15.8021 149.386 15.2756 149.661 15.2311C149.936 15.1866 150.257 15.6359 150.534 15.6219C150.811 15.6078 151.078 15.1235 151.358 15.1375C151.637 15.1515 151.862 15.657 152.13 15.6968C152.397 15.7365 152.773 15.3247 153.036 15.3926C153.298 15.4604 153.42 16.0056 153.676 16.0946C153.932 16.1835 154.38 15.8606 154.615 15.9869C154.85 16.1133 154.85 16.6632 155.084 16.8129C155.319 16.9627 155.821 16.731 156.035 16.9042C156.248 17.0774 156.133 17.6062 156.33 17.8121C156.527 18.018 157.067 17.8847 157.241 18.0976C157.414 18.3105 157.189 18.816 157.342 19.0453C157.494 19.2746 158.046 19.2676 158.175 19.5133C158.304 19.759 157.973 20.2036 158.074 20.4493C158.175 20.695 158.719 20.8143 158.792 21.0811C158.865 21.3479 158.449 21.7129 158.494 21.9867C158.539 22.2605 159.048 22.4757 159.062 22.7519C159.076 23.028 158.592 23.2994 158.592 23.5779C158.592 23.8563 159.031 24.1769 158.991 24.446C158.952 24.7151 158.421 24.8906 158.351 25.148C158.28 25.4054 158.656 25.8243 158.56 26.084C158.463 26.3438 157.91 26.3999 157.785 26.6433C157.661 26.8866 157.942 27.3663 157.785 27.598C157.628 27.8297 157.081 27.7688 156.91 27.9841C156.739 28.1994 156.91 28.7235 156.72 28.9201C156.53 29.1167 155.997 28.9435 155.781 29.1167C155.565 29.2898 155.633 29.8421 155.403 29.9918C155.173 30.1416 154.699 29.8655 154.446 29.9918C154.192 30.1182 154.15 30.6681 153.892 30.7687C153.634 30.8693 153.223 30.4973 152.953 30.5698C152.684 30.6423 152.522 31.1712 152.249 31.2156C151.977 31.2601 151.656 30.8085 151.379 30.8249C151.102 30.8412 150.832 31.3233 150.553 31.3092C150.274 31.2952 150.051 30.7898 149.781 30.7476C149.511 30.7055 149.138 31.122 148.875 31.0518C148.612 30.9816 148.49 30.4411 148.234 30.3498C147.978 30.2586 147.53 30.5838 147.284 30.4598C147.037 30.3358 147.049 29.7812 146.815 29.6338C146.58 29.4864 146.078 29.7134 145.876 29.5425C145.674 29.3717 145.777 28.8265 145.583 28.6346C145.388 28.4427 144.843 28.5621 144.67 28.3491C144.496 28.1362 144.721 27.6308 144.569 27.4131C144.416 27.1955 143.865 27.1791 143.736 26.9451C143.607 26.7111 143.938 26.2431 143.837 25.9951C143.736 25.7471 143.194 25.6324 143.133 25.3656C143.072 25.0989 143.473 24.7315 143.428 24.4601C143.384 24.1886 142.875 23.9687 142.86 23.6925C142.846 23.4164 143.309 23.145 143.32 22.8689Z" fill="#40C5A6" stroke="#263238" stroke-linecap="round" stroke-linejoin="round"/>
<path d="M152.934 29.4052C156.353 28.3161 158.238 24.6698 157.146 21.2611C156.054 17.8523 152.397 15.972 148.979 17.0611C145.56 18.1503 143.675 21.7966 144.767 25.2053C145.859 28.614 149.516 30.4944 152.934 29.4052Z" fill="#263238" stroke="#263238" stroke-linecap="round" stroke-linejoin="round"/>
<path d="M155.764 26.393C157.516 23.744 156.781 20.1811 154.125 18.435C151.468 16.689 147.895 17.421 146.144 20.07C144.393 22.719 145.127 26.282 147.784 28.028C150.44 29.7741 154.013 29.0421 155.764 26.393Z" fill="white" stroke="#263238" stroke-linecap="round" stroke-linejoin="round"/>
<path d="M146.772 22.347L146.96 22.9227H147.568L147.075 23.2784L147.263 23.8563L146.772 23.4983L146.28 23.8563L146.467 23.2784L145.977 22.9227H146.585L146.772 22.347Z" fill="#40C5A6" stroke="#263238" stroke-width="0.5" stroke-linecap="round" stroke-linejoin="round"/>
<path d="M148.856 22.347L149.044 22.9227H149.652L149.161 23.2784L149.347 23.8563L148.856 23.4983L148.366 23.8563L148.553 23.2784L148.061 22.9227H148.668L148.856 22.347Z" fill="#40C5A6" stroke="#263238" stroke-width="0.5" stroke-linecap="round" stroke-linejoin="round"/>
<path d="M150.94 22.347L151.128 22.9227H151.735L151.245 23.2784L151.433 23.8563L150.94 23.4983L150.449 23.8563L150.637 23.2784L150.147 22.9227H150.752L150.94 22.347Z" fill="#40C5A6" stroke="#263238" stroke-width="0.5" stroke-linecap="round" stroke-linejoin="round"/>
<path d="M153.026 22.347L153.214 22.9227H153.822L153.329 23.2784L153.517 23.8563L153.026 23.4983L152.533 23.8563L152.721 23.2784L152.231 22.9227H152.838L153.026 22.347Z" fill="#40C5A6" stroke="#263238" stroke-width="0.5" stroke-linecap="round" stroke-linejoin="round"/>
<path d="M155.11 22.347L155.298 22.9227H155.905L155.413 23.2784L155.603 23.8563L155.11 23.4983L154.62 23.8563L154.807 23.2784L154.314 22.9227H154.922L155.11 22.347Z" fill="#40C5A6" stroke="#263238" stroke-width="0.5" stroke-linecap="round" stroke-linejoin="round"/>
<path d="M147.174 52.182C147.103 52.1478 147.038 52.1045 146.979 52.0533C146.907 51.992 146.84 51.9264 146.777 51.8568C146.715 51.7884 146.657 51.7157 146.606 51.6391H146.54C146.367 51.6481 146.196 51.6083 146.045 51.5245C145.921 51.4471 145.829 51.3298 145.782 51.1922C145.725 51.0274 145.698 50.8539 145.702 50.6797V49.608C145.698 49.4361 145.725 49.2648 145.782 49.1026C145.83 48.968 145.923 48.8539 146.045 48.7797C146.196 48.6976 146.368 48.6587 146.54 48.6673C146.714 48.6581 146.888 48.697 147.042 48.7797C147.165 48.8538 147.259 48.9678 147.307 49.1026C147.365 49.2648 147.392 49.4361 147.387 49.608V50.7055C147.388 50.8329 147.374 50.9601 147.347 51.0846C147.324 51.1901 147.279 51.2897 147.216 51.3771C147.156 51.4613 147.075 51.5283 146.981 51.5713L147.077 51.6742L147.178 51.7772C147.209 51.8047 147.242 51.8297 147.277 51.8521L147.174 52.182ZM146.54 51.246C146.573 51.251 146.607 51.2493 146.639 51.2411C146.671 51.2329 146.702 51.2184 146.728 51.1983C146.755 51.1783 146.777 51.1531 146.794 51.1244C146.811 51.0956 146.822 51.0638 146.826 51.0307C146.841 50.9583 146.848 50.8846 146.847 50.8108V49.4653C146.848 49.3914 146.841 49.3177 146.826 49.2453C146.815 49.1859 146.784 49.1317 146.739 49.0909C146.682 49.0493 146.611 49.0295 146.54 49.0347C146.47 49.0293 146.401 49.0493 146.345 49.0909C146.299 49.1306 146.269 49.1854 146.261 49.2453C146.246 49.3177 146.239 49.3914 146.24 49.4653V50.8108C146.239 50.8846 146.246 50.9583 146.261 51.0307C146.27 51.0918 146.3 51.148 146.345 51.1899C146.401 51.2315 146.47 51.2514 146.54 51.246Z" fill="#263238"/>
<path d="M148.586 51.6485C148.41 51.6586 148.235 51.6171 148.082 51.5292C147.96 51.4495 147.871 51.3292 147.831 51.1899C147.782 51.0187 147.759 50.8413 147.763 50.6634V48.6884H148.284V50.7266C148.284 50.8127 148.29 50.8987 148.302 50.984C148.31 51.0557 148.34 51.1233 148.387 51.1782C148.413 51.2042 148.444 51.2244 148.478 51.2373C148.513 51.2502 148.55 51.2556 148.586 51.2531C148.624 51.2565 148.662 51.2516 148.698 51.2386C148.734 51.2257 148.766 51.205 148.793 51.1782C148.837 51.122 148.865 51.0549 148.875 50.984C148.889 50.8989 148.896 50.8128 148.896 50.7266V48.6884H149.412V50.6634C149.416 50.8413 149.393 51.0187 149.344 51.1899C149.304 51.3286 149.216 51.4487 149.095 51.5292C148.941 51.6176 148.764 51.6591 148.586 51.6485Z" fill="#263238"/>
<path d="M149.668 51.6087L150.255 48.6884H150.825L151.412 51.6087H150.917L150.802 50.9348H150.29L150.17 51.6087H149.668ZM150.344 50.5955H150.743L150.543 49.3694L150.344 50.5955Z" fill="#263238"/>
<path d="M151.691 51.6087V48.6884H152.226V51.246H152.93V51.6134L151.691 51.6087Z" fill="#263238"/>
<path d="M153.214 51.6087V48.6884H153.742V51.6087H153.214Z" fill="#263238"/>
<path d="M154.486 51.6087V49.0815H154.016V48.6884H155.478V49.0815H155.009V51.6087H154.486Z" fill="#263238"/>
<path d="M156.157 51.6087V50.4949L155.563 48.6884H156.053L156.415 49.8584L156.755 48.6884H157.243L156.656 50.4949V51.6087H156.157Z" fill="#263238"/>
<path d="M98.3253 12.891L99.0504 18.1888L95.6689 18.9914C94.7416 19.6175 93.7734 20.1811 92.7707 20.6786C91.4003 21.3197 90.4358 21.5607 89.9547 21.5607C89.4737 21.5607 87.6996 20.8377 87.6996 20.8377C87.6996 20.8377 88.9081 14.3348 90.2809 13.6118C91.6537 12.8887 95.2605 11.8474 98.3253 12.891Z" fill="white" stroke="#263238" stroke-linecap="round" stroke-linejoin="round"/>
<path d="M81.1289 12.7061C81.1289 12.7061 87.1739 12.3224 88.0586 12.3224C88.9433 12.3224 90.9122 14.5079 90.9122 14.5079C90.9122 14.5079 94.5166 20.4913 94.2139 20.8493C93.4536 21.7479 92.8458 21.0974 92.8458 21.0974L92.7074 21.7292C92.7074 21.7292 92.1207 22.4546 89.1428 22.0544C86.1649 21.6543 85.198 20.7581 84.48 20.5919C83.7619 20.4258 79.85 19.3447 79.85 19.3447L81.1289 12.7061Z" fill="white" stroke="#263238" stroke-linecap="round" stroke-linejoin="round"/>
<path d="M92.8458 21.0857L91.8508 19.1716" stroke="#263238" stroke-linecap="round" stroke-linejoin="round"/>
<path d="M91.8509 21.9726L90.6166 19.8549" stroke="#263238" stroke-linecap="round" stroke-linejoin="round"/>
<path d="M96.6287 13.3707C96.6287 13.3707 90.5814 11.5245 89.3846 12.8091C88.1878 14.0938 85.5994 17.4657 86.1626 17.8682C86.7258 18.2707 88.7439 16.7427 89.2132 16.4221C89.5682 16.1657 89.8926 15.8698 90.1801 15.5399C90.7411 16.0923 91.4384 16.4871 92.2016 16.6843C92.9648 16.8815 93.7667 16.8742 94.5261 16.6631" fill="white"/>
<path d="M96.6287 13.3707C96.6287 13.3707 90.5814 11.5245 89.3846 12.8091C88.1878 14.0938 85.5994 17.4657 86.1626 17.8682C86.7258 18.2707 88.7439 16.7427 89.2132 16.4221C89.5682 16.1657 89.8926 15.8698 90.1801 15.5399C90.7411 16.0923 91.4384 16.4871 92.2016 16.6843C92.9648 16.8815 93.7667 16.8742 94.5261 16.6631" stroke="#263238" stroke-linecap="round" stroke-linejoin="round"/>
<path d="M89.9877 19.7402C89.9877 19.7402 89.4081 21.8041 89.6427 22.1551C89.7303 22.302 89.864 22.4159 90.023 22.4794C90.1821 22.5428 90.3577 22.5522 90.5227 22.5061C90.7208 22.4247 90.9009 22.3055 91.0531 22.1551C91.0531 22.1551 91.1399 20.4001 90.8771 19.9602C90.6142 19.5203 90.3843 19.2137 89.9877 19.7402Z" fill="white" stroke="#263238" stroke-linecap="round" stroke-linejoin="round"/>
<path d="M88.4459 20.0046C88.4459 20.0046 87.8733 22.0685 88.0939 22.4195C88.1819 22.5666 88.316 22.6806 88.4754 22.7441C88.6349 22.8075 88.8109 22.8168 88.9762 22.7705C89.1727 22.6875 89.3518 22.5685 89.5042 22.4195C89.5042 22.4195 89.5911 20.6622 89.3282 20.2246C89.0654 19.787 88.8425 19.4781 88.4459 20.0046Z" fill="white" stroke="#263238" stroke-linecap="round" stroke-linejoin="round"/>
<path d="M86.8971 20.0772C86.8971 20.0772 86.4583 21.6613 86.6272 21.9304C86.6939 22.042 86.7954 22.1287 86.9162 22.1773C87.0369 22.2259 87.1704 22.2337 87.296 22.1995C87.4474 22.1367 87.5853 22.0454 87.702 21.9304C87.702 21.9304 87.77 20.5826 87.5682 20.2456C87.3664 19.9087 87.1998 19.6747 86.8971 20.0772Z" fill="white" stroke="#263238" stroke-linecap="round" stroke-linejoin="round"/>
<path d="M85.0691 20.1451C85.0691 20.1451 84.7241 21.1934 84.8578 21.3712C84.9196 21.4488 85.0025 21.5068 85.0966 21.5384C85.1907 21.57 85.292 21.5737 85.3882 21.5491C85.5044 21.5093 85.6125 21.449 85.7073 21.3712C85.7073 21.3712 85.7613 20.4797 85.6017 20.2574C85.4422 20.0351 85.3084 19.89 85.0691 20.1451Z" fill="white" stroke="#263238" stroke-linecap="round" stroke-linejoin="round"/>
<path d="M99.4048 11.2567L97.1172 11.7345L98.9862 20.6323L101.274 20.1545L99.4048 11.2567Z" fill="white" stroke="#263238" stroke-linecap="round" stroke-linejoin="round"/>
<path d="M102.358 10.5217L98.6964 11.2864L100.781 21.2125L104.443 20.4479L102.358 10.5217Z" fill="#40C5A6" stroke="#263238" stroke-linecap="round" stroke-linejoin="round"/>
<path d="M78.3839 20.1544L80.6715 20.6322L82.5405 11.7344L80.2529 11.2566L78.3839 20.1544Z" fill="white" stroke="#263238" stroke-linecap="round" stroke-linejoin="round"/>
<path d="M75.2159 20.4476L78.8771 21.2123L80.9621 11.2861L77.301 10.5215L75.2159 20.4476Z" fill="#263238" stroke="#263238" stroke-linecap="round" stroke-linejoin="round"/>
<path d="M77.2053 27.4248C77.0282 27.4347 76.8522 27.3907 76.7008 27.2984C76.5798 27.215 76.4899 27.0941 76.445 26.9544C76.3949 26.7915 76.3703 26.6217 76.3723 26.4513V25.4077C76.3697 25.2318 76.3942 25.0566 76.445 24.8882C76.4886 24.7491 76.579 24.6293 76.7008 24.5489C76.8541 24.4621 77.0293 24.4215 77.2053 24.4319C77.3679 24.4243 77.5296 24.459 77.6746 24.5325C77.783 24.6027 77.8653 24.7062 77.9093 24.8274C77.9586 24.9703 77.9825 25.1208 77.9797 25.272V25.506H77.4681V25.272C77.4685 25.1976 77.4638 25.1233 77.4541 25.0497C77.4501 24.9898 77.4261 24.9329 77.386 24.8882C77.3592 24.8658 77.3281 24.8491 77.2946 24.839C77.2612 24.8289 77.226 24.8258 77.1912 24.8297C77.1555 24.8266 77.1194 24.8306 77.0852 24.8414C77.0509 24.8522 77.0192 24.8697 76.9918 24.8929C76.9472 24.9389 76.9184 24.9979 76.9096 25.0614C76.8981 25.1388 76.8926 25.217 76.8932 25.2954V26.5636C76.891 26.6516 76.8989 26.7395 76.9167 26.8257C76.9286 26.8881 76.9633 26.9438 77.0139 26.9823C77.0646 27.0207 77.1278 27.0391 77.1912 27.034C77.2256 27.0381 77.2605 27.0346 77.2934 27.0236C77.3262 27.0127 77.3563 26.9947 77.3813 26.9708C77.4213 26.923 77.4458 26.8643 77.4517 26.8023C77.4636 26.7249 77.4691 26.6466 77.4681 26.5683V26.3016H77.9797V26.5356C77.9842 26.6943 77.9612 26.8526 77.9117 27.0036C77.8712 27.1315 77.7885 27.242 77.677 27.3171C77.5333 27.3972 77.3696 27.4346 77.2053 27.4248Z" fill="#263238"/>
<path d="M79.1672 27.4248C78.991 27.4349 78.8156 27.3934 78.6627 27.3054C78.5411 27.2258 78.452 27.1055 78.4116 26.9661C78.3634 26.7949 78.3405 26.6175 78.3435 26.4396V24.4623H78.8645V26.5005C78.8633 26.5867 78.8696 26.6728 78.8833 26.7579C78.8908 26.8304 78.9203 26.899 78.9677 26.9544C79.0245 27.0012 79.0959 27.0268 79.1696 27.0268C79.2432 27.0268 79.3146 27.0012 79.3714 26.9544C79.4169 26.8978 79.4461 26.8298 79.4559 26.7579C79.4695 26.6728 79.4758 26.5867 79.4746 26.5005V24.4623H79.9932V26.442C79.9968 26.62 79.973 26.7976 79.9228 26.9685C79.8841 27.1074 79.7967 27.2278 79.6764 27.3078C79.5218 27.3954 79.3448 27.4361 79.1672 27.4248Z" fill="#263238"/>
<path d="M81.1501 27.4248C80.9965 27.4299 80.8443 27.3944 80.7089 27.3218C80.5892 27.2529 80.4953 27.1469 80.4414 27.02C80.3761 26.8659 80.3418 26.7005 80.3405 26.5332L80.7981 26.442C80.801 26.5431 80.8151 26.6435 80.8404 26.7415C80.8575 26.8166 80.8939 26.8859 80.946 26.9427C80.9704 26.9665 80.9994 26.985 81.0313 26.9971C81.0632 27.0091 81.0973 27.0145 81.1314 27.0129C81.1662 27.0162 81.2014 27.0109 81.2337 26.9974C81.266 26.984 81.2946 26.9628 81.3167 26.9357C81.3544 26.8772 81.3732 26.8086 81.3707 26.7392C81.376 26.6281 81.3456 26.5182 81.2839 26.4256C81.2159 26.3345 81.1371 26.252 81.0492 26.1799L80.6808 25.8546C80.5815 25.7704 80.4974 25.6699 80.432 25.5575C80.3673 25.4326 80.3358 25.2932 80.3405 25.1526C80.3349 25.0546 80.3499 24.9564 80.3847 24.8645C80.4194 24.7726 80.4731 24.689 80.5423 24.6191C80.6957 24.4876 80.8942 24.4205 81.0961 24.4319C81.2141 24.4285 81.3315 24.4493 81.4411 24.4928C81.528 24.5312 81.6033 24.5917 81.6594 24.6683C81.7143 24.7457 81.7556 24.832 81.7814 24.9233C81.808 25.022 81.8245 25.1231 81.8307 25.2252L81.3754 25.3024C81.3718 25.2237 81.3616 25.1454 81.3449 25.0684C81.3328 25.0049 81.3036 24.9458 81.2604 24.8976C81.2371 24.8763 81.2097 24.8599 81.1798 24.8495C81.15 24.839 81.1183 24.8347 81.0868 24.8367C81.0524 24.8355 81.0183 24.8417 80.9866 24.8551C80.955 24.8684 80.9267 24.8885 80.9037 24.914C80.8603 24.9692 80.8378 25.038 80.8404 25.1082C80.8398 25.1902 80.8608 25.2709 80.9014 25.3422C80.952 25.4151 81.012 25.4812 81.0797 25.5387L81.4435 25.8593C81.5648 25.9609 81.6694 26.0809 81.7532 26.215C81.8419 26.3634 81.8866 26.5337 81.8823 26.7064C81.8849 26.8366 81.8525 26.965 81.7884 27.0785C81.7288 27.1851 81.6401 27.2727 81.5326 27.3312C81.4157 27.3955 81.2837 27.4278 81.1501 27.4248Z" fill="#263238"/>
<path d="M82.4924 27.378V24.8555H82.0231V24.4623H83.4827V24.8555H83.0251V27.378H82.4924Z" fill="#263238"/>
<path d="M84.534 27.4248C84.3613 27.4327 84.1897 27.3922 84.0389 27.3078C83.9157 27.2313 83.8229 27.1147 83.7761 26.9778C83.7193 26.8131 83.6923 26.6396 83.6963 26.4654V25.3726C83.6918 25.1999 83.7189 25.0279 83.7761 24.8648C83.8238 24.7302 83.9166 24.6162 84.0389 24.5419C84.1949 24.4688 84.3652 24.431 84.5375 24.431C84.7099 24.431 84.8802 24.4688 85.0362 24.5419C85.1579 24.6169 85.2505 24.7307 85.299 24.8648C85.3571 25.0277 85.3849 25.1998 85.3812 25.3726V26.4677C85.3847 26.6405 85.3569 26.8125 85.299 26.9755C85.2502 27.1119 85.1579 27.2287 85.0362 27.3078C84.8831 27.3928 84.7091 27.4333 84.534 27.4248ZM84.534 27.0317C84.6047 27.0367 84.6748 27.0159 84.7312 26.9732C84.7759 26.9303 84.8062 26.8747 84.818 26.814C84.8325 26.7416 84.8396 26.6679 84.8391 26.5941V25.2486C84.8398 25.1747 84.8328 25.101 84.818 25.0286C84.805 24.9704 84.7747 24.9174 84.7312 24.8765C84.6745 24.8346 84.6044 24.8146 84.534 24.8204C84.4659 24.8153 84.3983 24.8352 84.344 24.8765C84.2987 24.916 84.2681 24.9696 84.2571 25.0286C84.2403 25.1007 84.2324 25.1746 84.2337 25.2486V26.5941C84.2331 26.6679 84.2402 26.7416 84.2548 26.814C84.2648 26.8748 84.2945 26.9307 84.3393 26.9732C84.3951 27.0152 84.4642 27.0359 84.534 27.0317Z" fill="#263238"/>
<path d="M85.7683 27.378L85.8176 24.4553H86.3714L86.7891 26.4794L87.2209 24.4553H87.7653L87.8123 27.378H87.4133L87.3711 25.3469L86.9534 27.378H86.6319L86.2095 25.3398L86.1696 27.378H85.7683Z" fill="#263238"/>
<path d="M88.2346 27.378V24.4623H89.4643V24.8391H88.7603V25.6791H89.307V26.0512H88.7603V27.0176H89.4643V27.378H88.2346Z" fill="#263238"/>
<path d="M89.7717 27.3779V24.4623H90.4757C90.6451 24.4582 90.8139 24.4819 90.9756 24.5325C91.1036 24.5722 91.2139 24.6549 91.2877 24.7665C91.3663 24.9095 91.4029 25.0717 91.3933 25.2345C91.3949 25.3414 91.3846 25.4481 91.3628 25.5527C91.3428 25.6376 91.3052 25.7173 91.2525 25.7867C91.1954 25.8563 91.1209 25.9096 91.0366 25.9412L91.4449 27.3803H90.9099L90.5555 26.0418H90.3091V27.3779H89.7717ZM90.3068 25.7048H90.4734C90.5541 25.7065 90.6342 25.6905 90.7081 25.658C90.7697 25.6298 90.8178 25.5786 90.8418 25.5153C90.8704 25.4334 90.8839 25.347 90.8817 25.2602C90.8898 25.1444 90.8611 25.0289 90.7996 24.9303C90.7601 24.8892 90.7116 24.8578 90.6578 24.8387C90.604 24.8196 90.5465 24.8133 90.4898 24.8203H90.295L90.3068 25.7048Z" fill="#263238"/>
<path d="M92.6722 27.378V24.4623H93.2073V27.0176H93.9113V27.378H92.6722Z" fill="#263238"/>
<path d="M94.9532 27.4248C94.7804 27.4327 94.6089 27.3922 94.4581 27.3078C94.3349 27.2313 94.2421 27.1147 94.1952 26.9778C94.1385 26.8131 94.1115 26.6396 94.1155 26.4654V25.3726C94.111 25.1999 94.1381 25.0279 94.1952 24.8648C94.243 24.7302 94.3358 24.6162 94.4581 24.5419C94.6141 24.4688 94.7844 24.431 94.9567 24.431C95.1291 24.431 95.2994 24.4688 95.4554 24.5419C95.577 24.6169 95.6697 24.7307 95.7182 24.8648C95.7774 25.0274 95.8052 25.1997 95.8004 25.3726V26.4677C95.8051 26.6406 95.7772 26.8128 95.7182 26.9755C95.6694 27.1119 95.5771 27.2287 95.4554 27.3078C95.3022 27.3928 95.1283 27.4333 94.9532 27.4248ZM94.9532 27.0317C95.0239 27.0367 95.094 27.0159 95.1503 26.9732C95.1958 26.9309 95.2263 26.8751 95.2372 26.814C95.2517 26.7416 95.2588 26.6679 95.2583 26.5941V25.2486C95.259 25.1747 95.252 25.101 95.2372 25.0286C95.2252 24.97 95.1948 24.9167 95.1503 24.8765C95.0936 24.8346 95.0236 24.8146 94.9532 24.8204C94.8851 24.8153 94.8175 24.8352 94.7631 24.8765C94.7179 24.916 94.6873 24.9696 94.6763 25.0286C94.6615 25.101 94.6544 25.1747 94.6552 25.2486V26.5941C94.6539 26.6678 94.6602 26.7415 94.674 26.814C94.684 26.8748 94.7137 26.9307 94.7584 26.9732C94.8143 27.0152 94.8834 27.0359 94.9532 27.0317Z" fill="#263238"/>
<path d="M96.5747 27.378V26.2618L95.9786 24.4623H96.4785L96.8399 25.6206L97.1801 24.4623H97.6682L97.0816 26.2688V27.378H96.5747Z" fill="#263238"/>
<path d="M97.6659 27.378L98.2526 24.4553H98.8251L99.4095 27.378H98.9143L98.7993 26.7041H98.2878L98.1681 27.378H97.6659ZM98.3441 26.3648H98.7407L98.5412 25.1386L98.3441 26.3648Z" fill="#263238"/>
<path d="M99.6887 27.378V24.4623H100.224V27.0176H100.928V27.378H99.6887Z" fill="#263238"/>
<path d="M101.36 27.378V24.8555H100.89V24.4623H102.352V24.8555H101.883V27.378H101.36Z" fill="#263238"/>
<path d="M103.03 27.378V26.2618L102.437 24.4553H102.936L103.298 25.6136L103.638 24.4553H104.126L103.54 26.2618V27.378H103.03Z" fill="#263238"/>
<path d="M29.4226 30.2024V27.7805L26.9985 27.5114C26.8678 27.0067 26.668 26.5225 26.4047 26.0723L27.9371 24.1628L26.2194 22.464L24.3139 23.9827C23.8628 23.7187 23.3782 23.5164 22.873 23.3813L22.6031 20.943H20.1814L19.9068 23.3579C19.4001 23.4895 18.9138 23.6895 18.4613 23.9522L16.5464 22.4242L14.831 24.1371L16.3563 26.0372C16.0908 26.4869 15.8872 26.9701 15.7509 27.4739L13.3174 27.743V30.1626L15.7415 30.4317C15.8727 30.9369 16.0725 31.4218 16.3352 31.8731L14.8028 33.7826L16.5206 35.4931L18.4261 33.9721C18.8766 34.2371 19.3614 34.4394 19.8669 34.5735L20.1368 37.0024H22.5656L22.8331 34.5852C23.3397 34.4544 23.8261 34.2552 24.2787 33.9932L26.1935 35.5189L27.909 33.8083L26.3836 31.9082C26.6491 31.4585 26.8528 30.9753 26.9891 30.4715L29.4226 30.2024ZM21.3711 31.8614C20.7978 31.8619 20.2373 31.6928 19.7604 31.3755C19.2835 31.0583 18.9117 30.6071 18.6919 30.0791C18.4722 29.5511 18.4145 28.9699 18.5261 28.4092C18.6376 27.8484 18.9135 27.3333 19.3187 26.9289C19.7239 26.5245 20.2403 26.249 20.8025 26.1373C21.3648 26.0256 21.9476 26.0827 22.4773 26.3014C23.007 26.5201 23.4598 26.8905 23.7783 27.3657C24.0969 27.841 24.2669 28.3999 24.2669 28.9715C24.2669 29.7376 23.9619 30.4723 23.4189 31.0142C22.8759 31.5561 22.1394 31.8608 21.3711 31.8614Z" fill="#263238" stroke="#263238" stroke-linecap="round" stroke-linejoin="round"/>
<path d="M38.9547 25.3446L38.6848 23.7417L37.0422 23.8306C36.8981 23.5116 36.7118 23.2134 36.4884 22.9437L37.312 21.5093L35.9862 20.5733L34.8926 21.7901C34.5647 21.6659 34.2212 21.5871 33.8718 21.5561L33.4236 19.9789L31.8161 20.2457L31.9077 21.8837C31.5868 22.0268 31.2868 22.2126 31.0159 22.4359L29.568 21.6169L28.6294 22.932L29.8496 24.0201C29.7251 24.3471 29.6461 24.6896 29.615 25.038L28.0239 25.506L28.2938 27.1066L29.9365 27.0177C30.0789 27.337 30.2644 27.6354 30.4879 27.9045L29.6877 29.3389L31.0136 30.2749L32.1071 29.0581C32.4351 29.1824 32.7785 29.2611 33.1279 29.2921L33.5761 30.8693L35.1836 30.6025L35.0921 28.9645C35.413 28.8214 35.7129 28.6357 35.9838 28.4123L37.42 29.2126L38.3586 27.8881L37.1384 26.8C37.2618 26.4727 37.3407 26.1304 37.373 25.7821L38.9547 25.3446ZM33.8061 27.3312C33.4272 27.3939 33.0381 27.3432 32.688 27.1855C32.3379 27.0278 32.0426 26.7702 31.8393 26.4452C31.6361 26.1202 31.5339 25.7424 31.5459 25.3595C31.5579 24.9766 31.6834 24.6059 31.9065 24.2942C32.1297 23.9824 32.4406 23.7436 32.7998 23.6079C33.159 23.4723 33.5505 23.4458 33.9248 23.5319C34.2991 23.618 34.6394 23.8129 34.9028 24.0918C35.1661 24.3706 35.3406 24.7211 35.4042 25.0989C35.4892 25.6052 35.3694 26.1244 35.0712 26.5428C34.773 26.9613 34.3206 27.2448 33.8132 27.3312H33.8061Z" fill="#40C5A6" stroke="#263238" stroke-linecap="round" stroke-linejoin="round"/>
<path d="M35.1508 40.0889L34.8809 38.486L33.2383 38.5749C33.0942 38.256 32.9079 37.9577 32.6845 37.6881L33.487 36.256L32.1588 35.32L31.0676 36.5368C30.7392 36.4142 30.3959 36.3355 30.0468 36.3028L29.5962 34.7256L27.9911 34.9947L28.0803 36.6327C27.76 36.7769 27.4601 36.9625 27.1886 37.185L25.7524 36.387L24.8137 37.7091L26.034 38.7996C25.9097 39.1258 25.8307 39.4675 25.7993 39.8151L24.2153 40.248L24.4829 41.8509L26.1255 41.7597C26.2682 42.0801 26.4545 42.3793 26.6793 42.6489L25.8768 44.081L27.2026 45.017L28.2962 43.8002C28.6241 43.9244 28.9676 44.0031 29.317 44.0342L29.7652 45.6137L31.3727 45.3446L31.2835 43.7066C31.6037 43.5646 31.903 43.3796 32.1729 43.1567L33.6114 43.9546L34.5501 42.6325L33.3298 41.5421C33.4533 41.2148 33.5322 40.8724 33.5645 40.5242L35.1508 40.0889ZM30.0046 42.0779C29.625 42.1417 29.2351 42.0917 28.884 41.9344C28.5329 41.7771 28.2366 41.5194 28.0324 41.1941C27.8282 40.8688 27.7254 40.4904 27.737 40.1068C27.7485 39.7232 27.8739 39.3516 28.0973 39.0391C28.3207 38.7265 28.6321 38.4871 28.9919 38.3511C29.3518 38.2151 29.7441 38.1885 30.1191 38.2749C30.4941 38.3612 30.835 38.5565 31.0987 38.8361C31.3623 39.1157 31.5369 39.467 31.6003 39.8456C31.6852 40.3526 31.5648 40.8724 31.2656 41.291C30.9664 41.7095 30.5129 41.9926 30.0046 42.0779Z" fill="white" stroke="#263238" stroke-linecap="round" stroke-linejoin="round"/>
<path d="M19.9866 51.6485C19.8329 51.6548 19.6804 51.6192 19.5454 51.5456C19.427 51.4761 19.3335 51.3713 19.2779 51.246C19.2128 51.0919 19.1785 50.9266 19.177 50.7593L19.6463 50.6681C19.6498 50.769 19.6632 50.8693 19.6862 50.9676C19.7033 51.042 19.7397 51.1106 19.7918 51.1665C19.8164 51.19 19.8455 51.2084 19.8773 51.2204C19.9092 51.2325 19.9432 51.238 19.9772 51.2367C20.0121 51.2404 20.0474 51.2353 20.0798 51.2218C20.1122 51.2083 20.1407 51.1868 20.1626 51.1595C20.2012 51.1014 20.2202 51.0325 20.2166 50.9629C20.2214 50.8519 20.191 50.7422 20.1297 50.6493C20.0619 50.5617 19.983 50.483 19.8951 50.4153L19.5196 50.076C19.4209 49.9919 19.3376 49.8913 19.2732 49.7789C19.2085 49.6531 19.177 49.513 19.1817 49.3717C19.176 49.2736 19.1911 49.1755 19.2258 49.0836C19.2606 48.9917 19.3143 48.9081 19.3835 48.8382C19.537 48.7069 19.7354 48.6398 19.9373 48.651C20.0547 48.6473 20.1716 48.6688 20.2799 48.7142C20.3669 48.7526 20.4421 48.8131 20.4982 48.8897C20.5536 48.966 20.595 49.0516 20.6202 49.1424C20.6461 49.2413 20.6634 49.3423 20.6718 49.4442L20.2025 49.5238C20.1986 49.4451 20.1884 49.3669 20.172 49.2898C20.1622 49.2267 20.1336 49.168 20.0899 49.1213C20.0662 49.0997 20.0384 49.0832 20.0082 49.0727C19.9779 49.0623 19.9458 49.0581 19.9139 49.0605C19.8795 49.0592 19.8454 49.0655 19.8137 49.0788C19.7821 49.0922 19.7538 49.1123 19.7308 49.1377C19.6875 49.1921 19.6651 49.2601 19.6675 49.3296C19.6661 49.4117 19.6872 49.4926 19.7285 49.5636C19.7791 49.6365 19.8391 49.7026 19.9068 49.7601L20.2846 50.076C20.4053 50.1777 20.509 50.2977 20.592 50.4317C20.6818 50.5796 20.7266 50.7503 20.7211 50.9231C20.7237 51.053 20.6921 51.1813 20.6296 51.2952C20.5692 51.4026 20.4798 51.491 20.3715 51.5502C20.254 51.6159 20.1213 51.6498 19.9866 51.6485Z" fill="#263238"/>
<path d="M21.8382 51.6485C21.6619 51.6586 21.4866 51.6171 21.3336 51.5292C21.2121 51.4495 21.123 51.3292 21.0825 51.1899C21.034 51.0187 21.0111 50.8413 21.0145 50.6634V48.6884H21.5354V50.7266C21.5348 50.8126 21.5403 50.8987 21.5519 50.984C21.5618 51.0556 21.5919 51.123 21.6387 51.1782C21.6949 51.2263 21.7665 51.2527 21.8405 51.2527C21.9146 51.2527 21.9862 51.2263 22.0423 51.1782C22.0875 51.1222 22.1166 51.0551 22.1268 50.984C22.1392 50.8987 22.1455 50.8127 22.1456 50.7266V48.6884H22.6642V50.6634C22.6681 50.8414 22.6444 51.019 22.5938 51.1899C22.5581 51.327 22.475 51.4472 22.3591 51.5292C22.2013 51.6199 22.0199 51.6615 21.8382 51.6485Z" fill="#263238"/>
<path d="M23.0819 51.6087V48.6884H23.9361C24.0852 48.6825 24.2332 48.7156 24.3655 48.7843C24.4722 48.8512 24.5545 48.9504 24.6002 49.0675C24.6553 49.2107 24.6816 49.3634 24.6776 49.5168C24.6855 49.6783 24.6524 49.8393 24.5814 49.9848C24.5207 50.0971 24.4241 50.1861 24.3069 50.2375C24.1766 50.2936 24.0357 50.3208 23.8939 50.317H23.6029V51.6157L23.0819 51.6087ZM23.6169 49.9356H23.8211C23.9016 49.941 23.9822 49.9265 24.0558 49.8935C24.0828 49.8803 24.1068 49.8617 24.1262 49.8387C24.1456 49.8157 24.16 49.789 24.1684 49.7601C24.1917 49.6804 24.202 49.5974 24.1989 49.5144C24.2012 49.428 24.1933 49.3416 24.1755 49.257C24.1627 49.1965 24.1264 49.1435 24.0745 49.1096C24.0013 49.0752 23.9208 49.0591 23.8399 49.0628H23.6357L23.6169 49.9356Z" fill="#263238"/>
<path d="M24.9733 51.6087V48.6884H25.8345C25.9836 48.6825 26.1316 48.7156 26.2639 48.7843C26.3706 48.8512 26.4529 48.9504 26.4986 49.0675C26.5537 49.2107 26.58 49.3634 26.576 49.5168C26.5839 49.6783 26.5508 49.8393 26.4798 49.9848C26.4191 50.0971 26.3225 50.1861 26.2053 50.2375C26.075 50.2936 25.9341 50.3208 25.7923 50.317H25.5036V51.6157L24.9733 51.6087ZM25.5107 49.9356H25.7125C25.793 49.941 25.8735 49.9265 25.9471 49.8935C25.9742 49.8803 25.9982 49.8617 26.0176 49.8387C26.037 49.8157 26.0514 49.789 26.0598 49.7601C26.083 49.6804 26.0933 49.5974 26.0903 49.5144C26.0925 49.428 26.0847 49.3416 26.0668 49.257C26.054 49.1965 26.0178 49.1435 25.9659 49.1096C25.8927 49.0752 25.8121 49.0591 25.7312 49.0628H25.5294L25.5107 49.9356Z" fill="#263238"/>
<path d="M27.6767 51.6485C27.5041 51.6577 27.3324 51.6179 27.1815 51.5339C27.0576 51.4566 26.964 51.3393 26.9164 51.2016C26.8596 51.0368 26.8326 50.8633 26.8366 50.6891V49.608C26.8319 49.4361 26.8589 49.2648 26.9164 49.1026C26.965 48.9678 27.0586 48.8538 27.1815 48.7797C27.3331 48.6976 27.5044 48.6587 27.6767 48.6674C27.8505 48.6579 28.0236 48.6967 28.1765 48.7797C28.2989 48.8544 28.3924 48.9682 28.4417 49.1026C28.4991 49.2648 28.5262 49.4361 28.5215 49.608V50.7055C28.5255 50.8774 28.4985 51.0486 28.4417 51.2109C28.3926 51.3479 28.2993 51.4648 28.1765 51.5432C28.0229 51.6237 27.8499 51.6602 27.6767 51.6485ZM27.6767 51.2554C27.747 51.2611 27.8171 51.2412 27.8738 51.1992C27.9177 51.1561 27.9472 51.1005 27.9583 51.0401C27.9728 50.9677 27.9799 50.894 27.9794 50.8202V49.4747C27.9802 49.4008 27.9731 49.3271 27.9583 49.2547C27.9476 49.1955 27.918 49.1413 27.8738 49.1003C27.8155 49.0637 27.7479 49.0443 27.679 49.0443C27.6101 49.0443 27.5426 49.0637 27.4843 49.1003C27.4394 49.1411 27.4089 49.1952 27.3974 49.2547C27.3826 49.3271 27.3756 49.4008 27.3763 49.4747V50.8202C27.3762 50.8939 27.3825 50.9675 27.3951 51.0401C27.3971 51.0736 27.4063 51.1063 27.4221 51.1359C27.4379 51.1656 27.4598 51.1915 27.4866 51.2119C27.5133 51.2323 27.5441 51.2468 27.5769 51.2543C27.6097 51.2618 27.6437 51.2622 27.6767 51.2554Z" fill="#263238"/>
<path d="M28.9156 51.6087V48.6884H29.6196C29.7898 48.6842 29.9594 48.7079 30.1218 48.7586C30.2494 48.798 30.359 48.8808 30.4316 48.9926C30.5117 49.1351 30.5492 49.2975 30.5395 49.4606C30.5403 49.5668 30.5293 49.6727 30.5067 49.7765C30.4874 49.8616 30.4497 49.9414 30.3964 50.0105C30.3396 50.0798 30.265 50.1324 30.1805 50.1626L30.5888 51.6017H30.0538L29.6994 50.2632H29.4648V51.6017L28.9156 51.6087ZM29.4507 49.9356H29.6173C29.7025 49.9399 29.7876 49.9247 29.866 49.8912C29.9267 49.8611 29.9736 49.8093 29.9975 49.7461C30.0262 49.665 30.0397 49.5793 30.0374 49.4934C30.0466 49.3774 30.0178 49.2616 29.9552 49.1634C29.9165 49.122 29.8684 49.0904 29.8149 49.0713C29.7614 49.0522 29.7041 49.046 29.6478 49.0534H29.4507V49.9356Z" fill="#263238"/>
<path d="M31.2248 51.6087V49.0815H30.7555V48.6884H32.2151V49.0815H31.7575V51.6087H31.2248Z" fill="#263238"/>
<path d="M17.2645 73.3941H14.8474V80.5849H17.2645V73.3941Z" fill="#263238" stroke="#263238" stroke-width="0.5" stroke-linecap="round" stroke-linejoin="round"/>
<path d="M21.0637 75.9798H18.6466V80.5849H21.0637V75.9798Z" fill="#40C5A6" stroke="#263238" stroke-linecap="round" stroke-linejoin="round"/>
<path d="M24.863 71.8193H22.4459V80.5849H24.863V71.8193Z" fill="#263238" stroke="#263238" stroke-width="0.5" stroke-linecap="round" stroke-linejoin="round"/>
<path d="M28.6622 73.6328H26.2451V80.585H28.6622V73.6328Z" fill="#40C5A6" stroke="#263238" stroke-linecap="round" stroke-linejoin="round"/>
<path d="M32.4615 72.0439H30.0444V80.5849H32.4615V72.0439Z" fill="#263238" stroke="#263238" stroke-width="0.5" stroke-linecap="round" stroke-linejoin="round"/>
<path d="M36.2584 66.9825H33.8413V80.5849H36.2584V66.9825Z" fill="#40C5A6" stroke="#263238" stroke-linecap="round" stroke-linejoin="round"/>
<path d="M38.9758 66.8374H40.3909" stroke="#263238" stroke-width="0.5" stroke-linecap="round" stroke-linejoin="round"/>
<path d="M38.9758 69.5869H40.3909" stroke="#263238" stroke-width="0.5" stroke-linecap="round" stroke-linejoin="round"/>
<path d="M38.9758 72.3387H40.3909" stroke="#263238" stroke-width="0.5" stroke-linecap="round" stroke-linejoin="round"/>
<path d="M38.9758 75.0883H40.3909" stroke="#263238" stroke-width="0.5" stroke-linecap="round" stroke-linejoin="round"/>
<path d="M38.9758 77.8378H40.3909" stroke="#263238" stroke-width="0.5" stroke-linecap="round" stroke-linejoin="round"/>
<path d="M38.9758 80.5873H40.3909" stroke="#263238" stroke-width="0.5" stroke-linecap="round" stroke-linejoin="round"/>
<path d="M16.2296 70.7429L19.935 72.9752L23.7859 68.8615L27.5898 69.1821L31.2788 67.7219L35.4488 62.2487" stroke="#263238" stroke-linecap="round" stroke-linejoin="round"/>
<path d="M16.6966 70.7429C16.6966 70.6503 16.6691 70.5599 16.6175 70.4829C16.5659 70.4059 16.4926 70.3459 16.4069 70.3105C16.3211 70.2751 16.2267 70.2658 16.1357 70.2839C16.0447 70.302 15.961 70.3465 15.8954 70.412C15.8298 70.4774 15.7851 70.5608 15.767 70.6516C15.7488 70.7424 15.7581 70.8365 15.7937 70.922C15.8292 71.0075 15.8893 71.0806 15.9665 71.132C16.0437 71.1835 16.1344 71.2109 16.2273 71.2109C16.3517 71.2109 16.4711 71.1616 16.5591 71.0738C16.6472 70.9861 16.6966 70.867 16.6966 70.7429Z" fill="#263238"/>
<path d="M20.4019 72.9753C20.4019 72.8827 20.3744 72.7922 20.3228 72.7153C20.2713 72.6383 20.198 72.5783 20.1122 72.5429C20.0264 72.5075 19.9321 72.4982 19.841 72.5163C19.75 72.5343 19.6664 72.5789 19.6007 72.6443C19.5351 72.7098 19.4904 72.7932 19.4723 72.884C19.4542 72.9747 19.4635 73.0688 19.499 73.1544C19.5345 73.2399 19.5947 73.313 19.6718 73.3644C19.749 73.4158 19.8398 73.4433 19.9326 73.4433C20.0571 73.4433 20.1764 73.394 20.2645 73.3062C20.3525 73.2184 20.4019 73.0994 20.4019 72.9753Z" fill="#263238"/>
<path d="M24.2529 68.8615C24.2529 68.7689 24.2254 68.6784 24.1738 68.6015C24.1222 68.5245 24.0489 68.4645 23.9631 68.4291C23.8774 68.3937 23.783 68.3844 23.692 68.4025C23.6009 68.4205 23.5173 68.4651 23.4517 68.5306C23.386 68.596 23.3413 68.6794 23.3232 68.7702C23.3051 68.861 23.3144 68.9551 23.3499 69.0406C23.3855 69.1261 23.4456 69.1992 23.5228 69.2506C23.6 69.302 23.6907 69.3295 23.7835 69.3295C23.908 69.3295 24.0274 69.2802 24.1154 69.1924C24.2034 69.1047 24.2529 68.9856 24.2529 68.8615Z" fill="#263238"/>
<path d="M28.0568 69.1821C28.0568 69.0896 28.0293 68.9991 27.9777 68.9221C27.9262 68.8451 27.8529 68.7852 27.7671 68.7497C27.6813 68.7143 27.587 68.705 27.4959 68.7231C27.4049 68.7412 27.3213 68.7857 27.2556 68.8512C27.19 68.9166 27.1453 69 27.1272 69.0908C27.1091 69.1816 27.1184 69.2757 27.1539 69.3612C27.1894 69.4467 27.2496 69.5198 27.3268 69.5712C27.4039 69.6227 27.4947 69.6501 27.5875 69.6501C27.712 69.6501 27.8313 69.6008 27.9194 69.513C28.0074 69.4253 28.0568 69.3062 28.0568 69.1821Z" fill="#263238"/>
<path d="M31.7458 67.6494C31.7458 67.5568 31.7183 67.4664 31.6667 67.3894C31.6151 67.3124 31.5418 67.2524 31.4561 67.217C31.3703 67.1816 31.2759 67.1723 31.1849 67.1904C31.0939 67.2084 31.0102 67.253 30.9446 67.3185C30.879 67.3839 30.8343 67.4673 30.8161 67.5581C30.798 67.6489 30.8073 67.743 30.8429 67.8285C30.8784 67.914 30.9385 67.9871 31.0157 68.0385C31.0929 68.09 31.1836 68.1174 31.2765 68.1174C31.4009 68.1174 31.5203 68.0681 31.6083 67.9803C31.6963 67.8926 31.7458 67.7735 31.7458 67.6494Z" fill="#263238"/>
<path d="M35.9182 62.244C35.9182 62.1514 35.8906 62.061 35.8391 61.984C35.7875 61.907 35.7142 61.8471 35.6284 61.8116C35.5427 61.7762 35.4483 61.7669 35.3573 61.785C35.2662 61.8031 35.1826 61.8476 35.117 61.9131C35.0513 61.9785 35.0066 62.0619 34.9885 62.1527C34.9704 62.2435 34.9797 62.3376 35.0152 62.4231C35.0507 62.5086 35.1109 62.5817 35.1881 62.6331C35.2653 62.6846 35.356 62.712 35.4488 62.712C35.5733 62.712 35.6927 62.6627 35.7807 62.5749C35.8687 62.4872 35.9182 62.3681 35.9182 62.244Z" fill="#263238"/>
<path d="M15.7228 87.6353V84.708H16.2508V87.6283L15.7228 87.6353Z" fill="#263238"/>
<path d="M16.7013 87.6353L16.7529 84.708H17.3044L17.7221 86.7298L18.1562 84.708H18.6913L18.7452 87.6283H18.3463L18.3041 85.6042L17.8887 87.6353H17.5649L17.1425 85.5972L17.1026 87.6353H16.7013Z" fill="#263238"/>
<path d="M19.1559 87.6353V84.708H20.0171C20.1662 84.7021 20.3142 84.7352 20.4466 84.8039C20.5532 84.8707 20.6355 84.97 20.6812 85.0871C20.7363 85.2303 20.7626 85.383 20.7587 85.5364C20.7662 85.6979 20.7331 85.8588 20.6624 86.0044C20.6017 86.1167 20.5051 86.2057 20.3879 86.2571C20.2576 86.3132 20.1167 86.3404 19.9749 86.3366H19.6909V87.6353H19.1559ZM19.6909 85.9622H19.8951C19.9756 85.9676 20.0562 85.9531 20.1298 85.9201C20.1568 85.9069 20.1808 85.8883 20.2002 85.8653C20.2196 85.8423 20.234 85.8156 20.2424 85.7867C20.2657 85.707 20.276 85.624 20.2729 85.541C20.2752 85.4546 20.2673 85.3682 20.2494 85.2836C20.2439 85.2534 20.232 85.2247 20.2146 85.1993C20.1973 85.1739 20.1747 85.1524 20.1485 85.1362C20.0753 85.1018 19.9947 85.0857 19.9139 85.0894H19.7097L19.6909 85.9622Z" fill="#263238"/>
<path d="M21.0497 87.6353V84.708H21.7537C21.9238 84.7038 22.0935 84.7275 22.2559 84.7782C22.3834 84.8176 22.493 84.9004 22.5656 85.0122C22.6458 85.1547 22.6832 85.3171 22.6736 85.4802C22.6743 85.5864 22.6633 85.6923 22.6407 85.7961C22.621 85.881 22.5834 85.9608 22.5304 86.0301C22.4736 86.0994 22.399 86.1519 22.3145 86.1822L22.7252 87.6213H22.1831L21.8241 86.2969H21.5894V87.6353H21.0497ZM21.5894 85.9622H21.7537C21.8389 85.9665 21.924 85.9513 22.0024 85.9178C22.0631 85.8877 22.11 85.8359 22.1338 85.7727C22.164 85.6912 22.1775 85.6045 22.1737 85.5176C22.1817 85.4021 22.1539 85.2869 22.094 85.1877C22.0544 85.1467 22.0058 85.1154 21.9521 85.0963C21.8983 85.0773 21.8408 85.0709 21.7842 85.0777H21.5894V85.9622Z" fill="#263238"/>
<path d="M23.8586 87.6751C23.686 87.6841 23.5144 87.6443 23.3634 87.5605C23.2395 87.4833 23.1459 87.366 23.0982 87.2282C23.0426 87.0632 23.0156 86.8898 23.0185 86.7157V85.623C23.0152 85.4511 23.0422 85.2801 23.0982 85.1175C23.1469 84.9828 23.2405 84.8688 23.3634 84.7946C23.5188 84.7206 23.6887 84.6823 23.8609 84.6823C24.0331 84.6823 24.203 84.7206 24.3584 84.7946C24.4808 84.8693 24.5743 84.9831 24.6236 85.1175C24.6818 85.2796 24.7096 85.4509 24.7057 85.623V86.7204C24.7091 86.8925 24.6812 87.0637 24.6236 87.2259C24.5745 87.3628 24.4812 87.4797 24.3584 87.5581C24.2063 87.6437 24.0329 87.6842 23.8586 87.6751ZM23.8586 87.282C23.9293 87.2882 23.9998 87.2673 24.0557 87.2235C24.1 87.1817 24.1296 87.1267 24.1402 87.0667C24.1547 86.9943 24.1618 86.9206 24.1613 86.8468V85.5013C24.162 85.4274 24.155 85.3537 24.1402 85.2813C24.1295 85.2221 24.0998 85.1679 24.0557 85.1269C23.9973 85.0903 23.9298 85.0709 23.8609 85.0709C23.792 85.0709 23.7245 85.0903 23.6661 85.1269C23.6212 85.1677 23.5908 85.2219 23.5793 85.2813C23.5645 85.3537 23.5574 85.4274 23.5582 85.5013V86.8468C23.5577 86.9206 23.5647 86.9943 23.5793 87.0667C23.5879 87.1274 23.6178 87.1829 23.6638 87.2235C23.7189 87.267 23.7885 87.2879 23.8586 87.282Z" fill="#263238"/>
<path d="M25.5341 87.6353L24.9427 84.708H25.4121L25.7993 86.7742L26.1654 84.708H26.6511L26.0621 87.6283L25.5341 87.6353Z" fill="#263238"/>
<path d="M26.9515 87.6353V84.708H28.1812V85.0824H27.4772V85.9225H28.0216V86.2945H27.4772V87.2609H28.1812V87.6283L26.9515 87.6353Z" fill="#263238"/>
<path d="M28.491 87.6353L28.5426 84.715H29.0988L29.5141 86.7368L29.9482 84.715H30.4833L30.5373 87.6353H30.1383L30.0961 85.6042L29.6807 87.6353H29.3569L28.9321 85.5972L28.8922 87.6353H28.491Z" fill="#263238"/>
<path d="M30.9479 87.6353V84.708H32.1775V85.0824H31.4735V85.9225H32.018V86.2945H31.4735V87.2609H32.1775V87.6283L30.9479 87.6353Z" fill="#263238"/>
<path d="M32.4944 87.6353V84.708H32.8675L33.5715 86.3741V84.708H34.0268V87.6283H33.6724L32.9543 85.8827V87.6283L32.4944 87.6353Z" fill="#263238"/>
<path d="M34.7589 87.6353V85.1081H34.2896V84.708H35.7515V85.1011H35.2822V87.6283L34.7589 87.6353Z" fill="#263238"/>
<path d="M100.278 102.562H79.3831L82.5159 91.0611H97.1426L100.278 102.562Z" fill="#263238" stroke="#263238" stroke-linecap="round" stroke-linejoin="round"/>
<path d="M105.71 102.562H73.9504V103.73H105.71V102.562Z" fill="#263238" stroke="#263238" stroke-linecap="round" stroke-linejoin="round"/>
<path d="M134.997 35.0859H44.6617V92.2685H134.997V35.0859Z" fill="#263238" stroke="#263238" stroke-linecap="round" stroke-linejoin="round"/>
<path d="M132.103 37.2668H47.5575V90.09H132.103V37.2668Z" fill="#B2B2B2" stroke="#263238" stroke-linecap="round" stroke-linejoin="round"/>
<path d="M73.101 50.5955L67.6239 51.5081L69.351 76.6982L77.2898 77.337C77.2898 77.337 79.0146 67.6517 79.1132 66.0792C79.2117 64.5068 76.2972 52.7085 76.2972 52.7085L73.101 50.5955Z" fill="#40C5A6" stroke="#263238" stroke-linecap="round" stroke-linejoin="round"/>
<path d="M81.1947 90.09C81.3748 89.4696 81.4641 88.8264 81.4599 88.1806C81.3965 87.2446 81.1478 85.8148 81.1478 85.8148L78.8997 86.002L79.7703 90.09H81.1947Z" fill="white" stroke="#263238" stroke-linecap="round" stroke-linejoin="round"/>
<path d="M57.0898 90.09H79.8243C79.7633 89.5916 79.5896 88.335 79.4089 87.0737C79.1625 85.4521 77.487 74.0937 77.487 74.0937L60.7787 72.5189C60.7787 72.5189 56.8833 80.042 56.3412 82.2533C55.7991 84.4646 57.0241 89.6758 57.0241 89.6758L57.0898 90.09Z" fill="#263238" stroke="#263238" stroke-linecap="round" stroke-linejoin="round"/>
<path d="M79.1132 33.4854C79.1132 33.4854 80.3945 33.1905 80.9366 35.2053C81.4787 37.22 80.838 38.2473 81.0844 39.2371C81.3308 40.2269 81.8612 42.5295 81.2182 44.839C80.5752 47.1486 78.2755 48.817 78.1675 49.6594L78.069 50.4948C78.069 50.4948 77.724 50.8388 76.6398 50.7405C75.5557 50.6422 74.2228 49.856 74.2228 49.856L74.3706 48.1852C74.3706 48.1852 76.2479 48.1852 76.6891 47.8413C77.1303 47.4973 79.0546 44.0973 79.2024 43.1215C79.3502 42.1457 79.4488 39.3354 79.301 38.5C79.1531 37.6646 78.1276 35.9424 77.724 35.7949C77.3204 35.6475 75.5041 34.3699 75.5041 34.3699C75.5041 34.3699 78.0291 32.8465 79.1132 33.4854Z" fill="#263238" stroke="#263238" stroke-linecap="round" stroke-linejoin="round"/>
<path d="M80.3452 54.6249C80.3452 54.6249 81.9245 55.362 81.9738 56.5905C82.0231 57.819 81.1337 63.2759 81.1337 63.6714C81.1337 64.0668 80.6902 72.2241 80.6902 72.2241L81.6453 86.4349L79.3995 86.5613C79.3995 86.5613 77.4401 76.05 77.6348 74.7817C77.8296 73.5134 79.0147 67.2095 79.1132 66.0792C79.2118 64.949 78.9654 60.131 79.3104 58.7059C79.6553 57.2808 80.3452 54.6249 80.3452 54.6249Z" fill="white" stroke="#263238" stroke-linecap="round" stroke-linejoin="round"/>
<path d="M76.9706 34.5571C76.9706 34.5571 79.4065 35.5493 79.8007 37.2715C80.195 38.9938 79.6036 41.1536 79.8007 42.5318C79.9978 43.9101 78.0266 47.3499 77.3367 48.1853C76.6468 49.0207 74.9689 48.7258 74.9689 48.7258L75.2224 51.48C75.2224 51.48 76.2549 54.9198 76.1047 55.8043C75.9545 56.6888 74.3283 57.9875 72.2609 57.8682C69.696 57.7208 68.9052 55.341 68.9052 55.341L69.2501 49.8841C69.3363 48.7599 69.3041 47.6297 69.1539 46.5122C68.9075 44.4974 69.4496 41.4484 69.6467 40.957C69.8438 40.4656 71.6695 38.4509 72.803 37.6646C73.9364 36.8784 76.154 34.6226 76.154 34.6226C76.154 34.6226 76.8064 34.3489 76.9706 34.5571Z" fill="white" stroke="#263238" stroke-linecap="round" stroke-linejoin="round"/>
<path d="M69.1516 50.916C69.1516 50.916 61.5625 51.618 60.4689 52.3621C59.3754 53.1063 60.9617 68.8802 60.9617 68.8802C60.9617 68.8802 54.8604 82.2533 55.0458 82.3516C55.2312 82.4499 58.1504 84.8577 61.2574 85.3936C64.3644 85.9294 68.8981 86.3296 68.8981 86.3296C68.8981 86.3296 70.5244 73.0548 70.7215 72.0228C70.9186 70.9909 70.278 60.7651 70.3765 59.34C70.4751 57.915 69.1516 50.916 69.1516 50.916Z" fill="white" stroke="#263238" stroke-linecap="round" stroke-linejoin="round"/>
<path d="M69.3699 66.9099C69.5937 67.435 69.8508 67.9454 70.1396 68.4379" stroke="#263238" stroke-linecap="round" stroke-linejoin="round"/>
<path d="M67.4244 54.192C67.7506 57.1381 68.2528 61.7151 68.4147 63.4233C68.5284 64.4643 68.785 65.4847 69.1774 66.456" stroke="#263238" stroke-linecap="round" stroke-linejoin="round"/>
<path d="M67.1311 51.5572C67.1311 51.5572 67.2085 52.2592 67.3259 53.3145" stroke="#263238" stroke-linecap="round" stroke-linejoin="round"/>
<path d="M76.9707 34.5571C76.4801 35.3925 75.9312 36.1924 75.328 36.9509C74.4691 37.9782 71.2119 40.0865 71.2119 40.0865C71.2119 40.0865 71.2683 41.2284 71.0383 41.5701C70.8083 41.9117 70.0668 41.6847 70.0668 41.6847C70.0668 41.6847 69.5528 44.4764 69.7241 46.5309C69.8955 48.5854 70.9256 49.1517 70.6393 49.6665C70.3531 50.1813 68.5485 51.5385 66.0915 50.5767C63.6346 49.615 62.3744 48.6369 61.7455 47.0972C61.1166 45.5574 63.3201 37.3511 64.9205 34.7279C66.5209 32.1048 70.3531 30.3942 72.6974 30.6797C75.0417 30.9652 79.2164 32.2194 79.559 33.1882C79.9016 34.157 76.9707 34.5571 76.9707 34.5571Z" fill="#263238" stroke="#263238" stroke-linecap="round" stroke-linejoin="round"/>
<path d="M69.6467 40.95C69.6467 40.95 67.4408 43.3976 66.9879 46.0395C66.535 48.6813 67.8961 49.8139 68.4264 50.0409" stroke="#5C5C5C" stroke-linecap="round" stroke-linejoin="round"/>
<path d="M63.1371 45.6791C63.0775 46.1834 63.1255 46.6946 63.2779 47.1791" stroke="#5C5C5C" stroke-linecap="round" stroke-linejoin="round"/>
<path d="M73.4506 36.1015C72.8957 36.5935 72.3034 37.0418 71.6789 37.4423C68.6822 39.3939 64.6788 41.7409 63.4656 44.481" stroke="#5C5C5C" stroke-linecap="round" stroke-linejoin="round"/>
<path d="M75.0933 33.2139C75.0933 33.2139 75.3467 34.0048 74.2109 35.3363" stroke="#5C5C5C" stroke-linecap="round" stroke-linejoin="round"/>
<path d="M75.2224 51.48C75.2224 51.48 79.4088 53.9861 80.3451 54.6249C81.2815 55.2638 79.7045 61.2612 79.8523 62.4405C80.0002 63.6199 80.4437 66.4185 80.0002 67.6026C79.5567 68.7866 79.3103 69.5214 79.3103 69.5214L78.4725 74.9291C78.4725 74.9291 79.8523 85.3023 79.8031 85.4591C79.7538 85.6159 74.922 86.2454 74.922 86.2454C74.922 86.2454 75.809 75.7154 76.3042 73.5111C76.7993 71.3068 78.4162 68.0542 78.029 64.4178C77.6418 60.7815 75.2224 51.48 75.2224 51.48Z" fill="white" stroke="#263238" stroke-linecap="round" stroke-linejoin="round"/>
<path d="M79.0217 64.4131C78.9601 65.5973 78.6734 66.7591 78.1769 67.8366" stroke="#263238" stroke-linecap="round" stroke-linejoin="round"/>
<path d="M77.6747 53.4924C77.6747 53.4924 78.9794 60.5264 79.0451 63.3016" stroke="#263238" stroke-linecap="round" stroke-linejoin="round"/>
<path d="M79.552 61.2611C79.552 61.2611 79.2516 58.8065 78.848 57.5172" stroke="#263238" stroke-linecap="round" stroke-linejoin="round"/>
<path d="M75.7973 41.3454C75.7973 41.7339 75.6096 42.0474 75.3749 42.0474C75.1403 42.0474 74.9525 41.7315 74.9525 41.3454C74.9525 40.9593 75.1403 40.6434 75.3749 40.6434C75.6096 40.6434 75.7973 40.95 75.7973 41.3454Z" fill="#263238"/>
<path d="M79.3854 41.3454C79.3854 41.7339 79.1976 42.0474 78.963 42.0474C78.7283 42.0474 78.5382 41.7315 78.5382 41.3454C78.5382 40.9593 78.7283 40.6434 78.963 40.6434C79.1976 40.6434 79.3854 40.95 79.3854 41.3454Z" fill="#263238"/>
<path d="M74.0936 40.014C74.4433 39.7841 74.8393 39.6335 75.2537 39.5729C75.6681 39.5122 76.0908 39.543 76.4919 39.663" stroke="#263238" stroke-linecap="round" stroke-linejoin="round"/>
<path d="M79.4558 40.014C79.3355 39.8761 79.1694 39.7861 78.988 39.7603C78.8066 39.7345 78.6219 39.7747 78.4678 39.8736C78.4678 39.8736 77.8342 40.7183 77.975 41.2776" stroke="#263238" stroke-linecap="round" stroke-linejoin="round"/>
<path d="M78.0454 44.6542L76.7031 44.8648" stroke="#263238" stroke-linecap="round" stroke-linejoin="round"/>
<path d="M77.2053 45.7797C77.2053 45.7797 75.2294 46.3413 74.0303 44.8648" stroke="#263238" stroke-linecap="round" stroke-linejoin="round"/>
<path d="M74.9713 48.7258L73.033 48.101L74.7273 50.1438L74.9713 48.7258Z" fill="#263238" stroke="#263238" stroke-linecap="round" stroke-linejoin="round"/>
<path d="M110.026 51.4238C109.563 52.1363 109.225 52.922 109.026 53.7474C108.749 55.0181 108.472 56.4572 108.472 56.4572C108.472 56.4572 109.859 55.3504 110.026 55.2872C110.192 55.224 109.915 53.8504 109.915 53.8504L110.854 53.0759L110.026 51.4238Z" fill="#263238" stroke="#263238" stroke-linecap="round" stroke-linejoin="round"/>
<path d="M110.58 32.7857C110.58 32.7857 109.193 33.2841 108.639 34.2786C108.085 35.2731 106.642 37.5967 106.865 38.3713C107.088 39.1458 107.196 39.4781 107.196 39.4781C107.196 39.4781 105.201 42.9624 105.422 43.2946C105.692 43.6298 105.988 43.9428 106.309 44.2306C106.309 44.2306 107.196 48.3771 107.585 48.6532C107.975 48.9294 109.082 49.0955 109.082 49.0955L110.69 51.0868L119.509 47.502L119.621 45.5668C119.621 45.5668 122.616 41.6941 123.003 39.4828C123.39 37.2715 120.562 33.4549 117.512 31.962C114.461 30.4691 111.246 31.2928 110.58 32.7857Z" fill="white" stroke="#263238" stroke-linecap="round" stroke-linejoin="round"/>
<path d="M107.712 40.6692C108.093 40.9827 108.562 41.17 109.054 41.205" stroke="#263238" stroke-linecap="round" stroke-linejoin="round"/>
<path d="M117.512 31.9573C114.461 30.4644 111.246 31.2928 110.58 32.7857C110.58 32.7857 110.856 33.008 111.753 32.9518C112.649 32.8957 114.75 32.0158 115.303 32.7857C115.857 33.5555 113.64 34.2248 112.809 35.3854C111.978 36.5461 112.199 36.6022 112.863 37.4914C113.527 38.3806 113.64 38.7644 113.529 39.1505C113.419 39.5366 113.252 39.8689 113.973 39.9812C114.693 40.0935 114.912 38.3221 116.024 38.8744C117.136 39.4266 117.3 41.0857 116.911 42.1925C116.816 42.5018 116.659 42.7888 116.449 43.0361C116.24 43.2834 115.983 43.4859 115.693 43.6316C115.693 43.6316 115.857 44.35 117.078 44.9584C117.877 45.3343 118.747 45.5414 119.631 45.5668C119.631 45.5668 122.625 41.6941 123.012 39.4828C123.399 37.2715 120.562 33.4619 117.512 31.9573Z" fill="#263238" stroke="#263238" stroke-linecap="round" stroke-linejoin="round"/>
<path d="M119.621 41.8649C119.803 42.3258 119.874 42.8227 119.828 43.3157" stroke="#5C5C5C" stroke-linecap="round" stroke-linejoin="round"/>
<path d="M113.313 36.1179C113.313 36.1179 113.705 36.8994 115.895 37.8378C117.129 38.3666 118.291 39.4898 119.03 40.6762" stroke="#5C5C5C" stroke-linecap="round" stroke-linejoin="round"/>
<path d="M119.356 38.4649C119.356 38.4649 121.318 39.6349 120.999 41.907" stroke="#5C5C5C" stroke-linecap="round" stroke-linejoin="round"/>
<path d="M108.651 39.6162C108.651 39.9976 108.489 40.3182 108.289 40.3182C108.09 40.3182 107.93 40.007 107.93 39.6162C107.93 39.2254 108.09 38.9142 108.289 38.9142C108.489 38.9142 108.651 39.2348 108.651 39.6162Z" fill="#263238"/>
<path d="M107.477 38.0952C107.477 38.0952 108.475 36.9252 109.355 38.1513" stroke="#263238" stroke-linecap="round" stroke-linejoin="round"/>
<path d="M107.085 44.3991C107.085 44.3991 108.416 44.2892 109.249 43.4631" stroke="#263238" stroke-linecap="round" stroke-linejoin="round"/>
<path d="M115.691 43.627L115.081 43.7908C114.809 44.6027 114.353 45.3411 113.748 45.9482" fill="white"/>
<path d="M115.691 43.627L115.081 43.7908C114.809 44.6027 114.353 45.3411 113.748 45.9482" stroke="#263238" stroke-linecap="round" stroke-linejoin="round"/>
<path d="M119.68 46.6666C119.68 46.6666 111.028 50.2631 110.641 50.7054C110.253 51.1477 110.031 51.4238 110.031 51.4238L110.695 54.9642L120.785 48.3256L119.68 46.6666Z" fill="white" stroke="#263238" stroke-linecap="round" stroke-linejoin="round"/>
<path d="M94.5167 71.0377L94.9978 74.5594L92.7497 75.0929C92.1309 75.5091 91.4849 75.8836 90.816 76.2138C89.9079 76.6397 89.2649 76.7988 88.9387 76.7988C88.6125 76.7988 87.4415 76.3191 87.4415 76.3191C87.4415 76.3191 88.2441 71.9971 89.1546 71.5174C90.0651 71.0377 92.4822 70.3427 94.5167 71.0377Z" fill="white" stroke="#263238" stroke-linecap="round" stroke-linejoin="round"/>
<path d="M83.1987 72.5142C83.1987 72.5142 87.4227 71.8895 87.8921 71.8239C88.3614 71.7584 89.5911 72.781 89.5911 72.781C89.5911 72.781 91.9776 75.7294 91.8415 75.9447C91.4989 76.4852 91.1258 76.1787 91.1258 76.1787L91.0976 76.5297C91.0976 76.5297 90.8371 76.9649 89.2039 76.9696C87.5706 76.9743 86.9863 76.5741 86.585 76.5414C86.1837 76.5086 83.0204 75.7037 83.0204 75.7037L83.1987 72.5142Z" fill="white" stroke="#263238" stroke-linecap="round" stroke-linejoin="round"/>
<path d="M81.7814 72.2007L83.3325 72.4791L83.1612 75.9657L81.7509 75.8745L81.7814 72.2007Z" fill="white" stroke="#263238" stroke-linecap="round" stroke-linejoin="round"/>
<path d="M64.5826 52.1422C64.5826 52.1422 60.1709 51.8356 59.2463 52.5517C58.3217 53.2677 58.777 62.733 59.5561 66.1611C60.3351 69.5892 61.4029 75.0648 61.9027 75.3199C62.4026 75.5749 81.9855 76.3659 81.9855 76.3659L82.192 72.1188L67.0865 68.8732L66.0094 55.4697" fill="white"/>
<path d="M64.5826 52.1422C64.5826 52.1422 60.1709 51.8356 59.2463 52.5517C58.3217 53.2677 58.777 62.733 59.5561 66.1611C60.3351 69.5892 61.4029 75.0648 61.9027 75.3199C62.4026 75.5749 81.9855 76.3659 81.9855 76.3659L82.192 72.1188L67.0865 68.8732L66.0094 55.4697" stroke="#263238" stroke-linecap="round" stroke-linejoin="round"/>
<path d="M91.1374 76.1787L90.4569 75.2239" stroke="#263238" stroke-linecap="round" stroke-linejoin="round"/>
<path d="M90.6682 76.7309L89.8445 75.6849" stroke="#263238" stroke-linecap="round" stroke-linejoin="round"/>
<path d="M93.3974 71.37C93.3974 71.37 89.3846 70.1415 88.582 70.9956C87.7794 71.8497 86.0664 74.0914 86.4418 74.3582C86.8173 74.6249 88.1526 73.6094 88.4741 73.3964C88.7103 73.2259 88.926 73.0288 89.117 72.8091C89.4898 73.1765 89.9532 73.4393 90.4604 73.5708C90.9677 73.7023 91.5008 73.6978 92.0058 73.5579" fill="white"/>
<path d="M93.3974 71.37C93.3974 71.37 89.3846 70.1415 88.582 70.9956C87.7794 71.8497 86.0664 74.0914 86.4418 74.3582C86.8173 74.6249 88.1526 73.6094 88.4741 73.3964C88.7103 73.2259 88.926 73.0288 89.117 72.8091C89.4898 73.1765 89.9532 73.4393 90.4604 73.5708C90.9677 73.7023 91.5008 73.6978 92.0058 73.5579" stroke="#263238" stroke-linecap="round" stroke-linejoin="round"/>
<path d="M88.9785 75.582C88.9785 75.582 88.5984 76.9555 88.7439 77.1872C88.8024 77.2849 88.8916 77.3607 88.9976 77.403C89.1036 77.4453 89.2205 77.4517 89.3305 77.4212C89.4609 77.366 89.5795 77.2866 89.6802 77.1872C89.6802 77.1872 89.7389 76.0172 89.5629 75.7294C89.3869 75.4416 89.2414 75.2403 88.9785 75.582Z" fill="white" stroke="#263238" stroke-linecap="round" stroke-linejoin="round"/>
<path d="M87.953 75.7645C87.953 75.7645 87.5729 77.1357 87.7184 77.3697C87.7762 77.4676 87.8649 77.5435 87.9706 77.5859C88.0763 77.6282 88.193 77.6345 88.3027 77.6037C88.434 77.549 88.5535 77.4695 88.6547 77.3697C88.6547 77.3697 88.7133 76.1997 88.5373 75.9119C88.3613 75.6241 88.2182 75.4158 87.953 75.7645Z" fill="white" stroke="#263238" stroke-linecap="round" stroke-linejoin="round"/>
<path d="M86.9229 75.816C86.9229 75.816 86.6319 76.869 86.7445 77.0468C86.7889 77.1219 86.8569 77.1802 86.938 77.2128C87.019 77.2454 87.1086 77.2504 87.1928 77.227C87.2938 77.1853 87.3855 77.1241 87.4626 77.0468C87.4626 77.0468 87.5072 76.1529 87.3735 75.9283C87.2397 75.7036 87.1247 75.5469 86.9229 75.816Z" fill="white" stroke="#263238" stroke-linecap="round" stroke-linejoin="round"/>
<path d="M85.7097 75.8581C85.7097 75.8581 85.475 76.5601 85.5689 76.6748C85.6099 76.7261 85.665 76.7646 85.7275 76.7853C85.79 76.8061 85.8572 76.8083 85.9209 76.7918C85.9984 76.7654 86.0706 76.7258 86.1345 76.6748C86.1345 76.6748 86.1697 76.0804 86.0641 75.933C85.9585 75.7856 85.8693 75.6803 85.7097 75.8581Z" fill="white" stroke="#263238" stroke-linecap="round" stroke-linejoin="round"/>
<path d="M94.1952 70.6633L94.7302 75.6264L96.4949 75.3059L95.8543 70.3427L94.1952 70.6633Z" fill="white" stroke="#263238" stroke-linecap="round" stroke-linejoin="round"/>
<path d="M95.3192 70.0245L96.3893 76.3191L103.718 75.3597L104.52 68.2086L95.3192 70.0245Z" fill="#40C5A6" stroke="#263238" stroke-linecap="round" stroke-linejoin="round"/>
<path d="M101.073 75.706L103.718 75.3597L104.52 68.2086L102.589 68.59L101.073 75.706Z" fill="#263238" stroke="#263238" stroke-linecap="round" stroke-linejoin="round"/>
<path d="M123.2 90.09L122.602 78.624C122.602 78.624 125.117 67.626 124.582 61.542C124.047 55.458 119.926 49.1119 119.926 49.1119C119.926 49.1119 110.242 55.1397 109.226 56.2068C108.21 57.2738 106.393 59.085 105.858 60.7932C105.323 62.5014 103.237 73.008 103.237 73.008C103.237 73.008 101.043 80.3719 100.348 84.8016C99.9258 87.4949 99.9774 89.1774 100.083 90.0853L123.2 90.09Z" fill="#40C5A6" stroke="#263238" stroke-linecap="round" stroke-linejoin="round"/>
<path d="M119.563 51.1173C120.226 50.849 120.875 50.5451 121.506 50.207" stroke="#263238" stroke-linecap="round" stroke-linejoin="round"/>
<path d="M106.393 63.2291C107.229 61.7222 108.271 59.9321 108.74 59.3868C109.627 58.3923 116.282 52.5306 118.723 51.48" stroke="#263238" stroke-linecap="round" stroke-linejoin="round"/>
<path d="M105.145 65.52C105.145 65.52 105.541 64.7712 106.083 63.7884" stroke="#263238" stroke-linecap="round" stroke-linejoin="round"/>
<path d="M111.298 66.0956C111.298 69.526 110.828 72.9214 111.063 76.3167C109.847 80.6831 107.658 84.5629 106.083 88.6602" stroke="#263238" stroke-linecap="round" stroke-linejoin="round"/>
<path d="M112.189 59.0569C112.189 59.0569 111.19 60.5498 111.3 63.3133C111.314 63.6526 111.319 64.116 111.316 64.6659" stroke="#263238" stroke-linecap="round" stroke-linejoin="round"/>
<path d="M121.839 60.606C121.839 60.606 119.621 77.6412 119.398 79.0241C119.239 80.0139 115.839 85.4287 113.919 88.4215" stroke="#263238" stroke-linecap="round" stroke-linejoin="round"/>
<path d="M107.182 85.2556L102.646 84.4693L102.941 83.0911L107.379 83.8796" stroke="#263238" stroke-linecap="round" stroke-linejoin="round"/>
</svg>
