<svg width="196" height="130" viewBox="0 0 196 130" fill="none" xmlns="http://www.w3.org/2000/svg">
<path d="M106.101 102.565V113.937H104.194V115.18H106.101V122.79H141.786V115.856H139.144V114.348H141.786V112.086H142.962V111.046H141.567V102.565H106.101Z" fill="#F5F5F5"/>
<path d="M132.313 102.599V122.655H141.786V115.731H139.144V114.348L141.786 114.395V112.133L142.983 112.135L142.962 110.965L141.567 110.932V102.565L132.313 102.599Z" fill="#E0E0E0"/>
<path d="M132.987 115.008C132.987 115.079 126.532 115.133 118.572 115.133C110.612 115.133 104.152 115.079 104.152 115.008C104.152 114.938 110.607 114.881 118.572 114.881C126.538 114.881 132.987 114.938 132.987 115.008Z" fill="#E0E0E0"/>
<path d="M132.987 113.854C132.987 113.922 126.532 113.979 118.572 113.979C110.612 113.979 104.152 113.922 104.152 113.854C104.152 113.786 110.607 113.727 118.572 113.727C126.538 113.727 132.987 113.784 132.987 113.854Z" fill="#E0E0E0"/>
<path d="M134.848 110.744C134.848 110.815 128.393 110.869 120.43 110.869C112.467 110.869 106.012 110.815 106.012 110.744C106.012 110.674 112.467 110.617 120.43 110.617C128.393 110.617 134.848 110.674 134.848 110.744Z" fill="#E0E0E0"/>
<path d="M135.018 119.215C135.018 119.285 128.563 119.343 120.6 119.343C112.637 119.343 106.182 119.285 106.182 119.215C106.182 119.145 112.635 119.08 120.6 119.08C128.565 119.08 135.018 119.148 135.018 119.215Z" fill="#E0E0E0"/>
<path d="M45.9418 68.4381L32.0778 66.6809L29.9301 83.4532L43.7942 85.2103L45.9418 68.4381Z" fill="white"/>
<path d="M45.9425 68.439L32.0785 66.6818L30.4804 79.1624L44.3445 80.9195L45.9425 68.439Z" fill="#EBEBEB"/>
<path d="M39.0666 81.6816C39.0666 81.705 37.266 81.4996 35.0552 81.2188C32.8443 80.938 31.0542 80.6988 31.0568 80.665C31.0594 80.6312 32.8547 80.847 35.0682 81.1252C37.2817 81.4034 39.0692 81.6556 39.0666 81.6816Z" fill="#E0E0E0"/>
<path d="M34.428 81.965C34.428 81.9884 33.644 81.9104 32.6823 81.7908C32.0996 81.7351 31.5203 81.6483 30.947 81.5308C31.5317 81.5573 32.1144 81.6155 32.6927 81.705C33.2754 81.7606 33.8547 81.8474 34.428 81.965Z" fill="#E0E0E0"/>
<path d="M43.7968 85.2098C43.795 85.183 43.795 85.156 43.7968 85.1292C43.7968 85.072 43.8125 84.994 43.823 84.8926C43.8491 84.6846 43.8857 84.3726 43.9353 83.9826C44.0346 83.187 44.181 82.0248 44.3639 80.5506C44.735 77.6048 45.2655 73.4162 45.8927 68.432L45.9293 68.4788L32.0786 66.7264L32.1335 66.6848C31.3495 72.8884 30.5943 78.6448 29.9775 83.4574L29.9436 83.4132L39.9944 84.7132L42.8038 85.0798L43.546 85.1786L43.8073 85.215L43.546 85.1864L42.8116 85.098L40.0101 84.76L29.9279 83.5016H29.8887V83.4626C30.5002 78.663 31.2372 72.891 32.029 66.69V66.6432H32.076L45.9267 68.406H45.9685V68.4476C45.3204 73.4422 44.7768 77.6386 44.4005 80.587C44.2097 82.056 44.0556 83.213 43.9536 84.0086C43.9014 84.4012 43.8595 84.7028 43.8334 84.9082L43.7994 85.1396C43.8021 85.1838 43.7968 85.2098 43.7968 85.2098Z" fill="#E0E0E0"/>
<path d="M25.7479 60.4269L11.8848 62.1913L14.0412 78.9625L27.9044 77.1981L25.7479 60.4269Z" fill="#F5F5F5"/>
<path d="M25.7497 60.4251L11.8866 62.1895L13.4913 74.6691L27.3544 72.9047L25.7497 60.4251Z" fill="#E0E0E0"/>
<path d="M22.438 74.9632C22.438 74.9866 20.6505 75.2362 18.4396 75.5196C16.2288 75.803 14.4334 76.0084 14.4308 75.9824C14.4282 75.9564 16.2157 75.7068 18.4292 75.426C20.6427 75.1452 22.4354 74.9372 22.438 74.9632Z" fill="#E0E0E0"/>
<path d="M18.0319 76.3958C17.4596 76.5137 16.8812 76.6005 16.2993 76.6558C15.721 76.7451 15.1382 76.8033 14.5536 76.83C15.1263 76.7138 15.7046 76.627 16.2862 76.57C16.8645 76.4806 17.4473 76.4224 18.0319 76.3958Z" fill="#E0E0E0"/>
<path d="M27.9077 77.1966C27.9077 77.1966 27.9077 77.168 27.8947 77.116C27.8816 77.064 27.8764 76.9834 27.8607 76.8794C27.8346 76.6714 27.7928 76.3594 27.7405 75.972C27.636 75.1764 27.4791 74.0142 27.2884 72.5426L25.7204 60.4292L25.7674 60.4656L11.9168 62.2362L11.9586 62.1842C12.7426 68.3852 13.4926 74.1442 14.1093 78.9568L14.0649 78.923L24.0949 77.662L26.9173 77.3136L27.6595 77.2252L27.9208 77.1966L27.6595 77.233L26.9251 77.3292L24.1262 77.6958L14.0518 78.9958H14.0126V78.9568C13.3907 74.1572 12.6459 68.3878 11.8462 62.1868V62.14H11.8932L25.7439 60.3798H25.7857V60.4214C26.4207 65.4186 26.9539 69.615 27.3276 72.566C27.5105 74.035 27.6569 75.1946 27.7562 75.9902C27.8058 76.3828 27.8424 76.6844 27.8685 76.8924C27.8685 76.9912 27.8894 77.0666 27.8947 77.1212L27.9077 77.1966Z" fill="#E0E0E0"/>
<path d="M38.6255 58.3823L25.022 55.193L21.1239 71.65L34.7274 74.8394L38.6255 58.3823Z" fill="white"/>
<path d="M38.6251 58.3803L25.0216 55.1909L22.121 67.4369L35.7245 70.6262L38.6251 58.3803Z" fill="#EBEBEB"/>
<path d="M30.3956 70.837C30.3956 70.8604 28.6264 70.4704 26.4574 69.9608C24.2883 69.4512 22.5374 69.0196 22.5374 68.9936C22.5374 68.9676 24.3092 69.3602 26.4783 69.8698C28.6473 70.3794 30.4035 70.811 30.3956 70.837Z" fill="#E0E0E0"/>
<path d="M25.7543 70.6368C25.1781 70.5468 24.6068 70.4279 24.0426 70.2806C23.4698 70.1624 22.9036 70.0139 22.3466 69.836C22.9234 69.9262 23.4948 70.0477 24.0583 70.2C24.6312 70.3149 25.1974 70.4607 25.7543 70.6368Z" fill="#E0E0E0"/>
<path d="M34.7312 74.8384L34.7468 74.7578C34.7468 74.7032 34.7756 74.6278 34.7991 74.5264C34.8461 74.321 34.9167 74.022 35.0056 73.632C35.1885 72.852 35.455 71.7106 35.7896 70.265C36.469 67.3738 37.4333 63.2632 38.5832 58.37L38.6146 58.422L25.0148 55.237L25.0697 55.2032C23.6271 61.2872 22.2838 66.9474 21.1653 71.6586L21.1366 71.6118L30.9967 73.9518L33.7512 74.607L34.4803 74.7838L34.7416 74.8462L34.496 74.7942L33.7642 74.62L31.0124 73.9856L21.1183 71.6872H21.0791V71.6482L24.9677 55.1902V55.1434H25.0148L38.6172 58.3362H38.6564V58.3778C37.4882 63.2762 36.5056 67.392 35.8157 70.2884C35.4707 71.7288 35.1963 72.8624 35.0108 73.6424C34.9167 74.0272 34.8461 74.3236 34.7965 74.5264C34.7704 74.6226 34.7521 74.698 34.739 74.75L34.7312 74.8384Z" fill="#E0E0E0"/>
<path d="M172.294 67.5615L157.906 73.0392L164.602 90.4476L178.99 84.9698L172.294 67.5615Z" fill="white"/>
<path d="M172.293 67.562L157.905 73.0397L162.888 85.9946L177.276 80.5168L172.293 67.562Z" fill="#EBEBEB"/>
<path d="M172.548 83.98C172.548 84.0086 170.719 84.7366 168.411 85.6128C166.103 86.489 164.245 87.1728 164.23 87.1468C164.214 87.1208 166.059 86.3902 168.367 85.514C170.674 84.6378 172.538 83.9592 172.548 83.98Z" fill="#E0E0E0"/>
<path d="M168.189 86.6658C167.011 87.188 165.805 87.6471 164.577 88.0412C165.159 87.7643 165.756 87.5187 166.365 87.3054C166.961 87.0605 167.57 86.847 168.189 86.6658Z" fill="#E0E0E0"/>
<path d="M178.99 84.9628C178.99 84.9628 178.99 84.9342 178.956 84.8796L178.859 84.6378C178.775 84.422 178.653 84.1178 178.491 83.694C178.172 82.8698 177.707 81.666 177.111 80.1398C165.406 72.9638 167.206 69.9816 172.25 67.5714L172.31 67.5974L157.937 73.0808L157.968 73.0158C160.44 79.4534 162.743 85.4412 164.656 90.4358L164.601 90.4124L175.054 86.4604C176.311 85.9846 177.299 85.6128 177.976 85.3606L178.747 85.072L179.008 84.9732L178.747 85.0772L177.968 85.3606L175.065 86.4786L164.611 90.4826L164.569 90.4982L164.554 90.4566L157.858 73.06L157.84 73.0106L157.887 72.9924L172.276 67.5324L172.318 67.5168L172.334 67.5584C174.32 72.7584 175.992 77.1056 177.16 80.171C177.743 81.6972 178.206 82.901 178.517 83.7252L178.87 84.6638L178.961 84.903L178.99 84.9628Z" fill="#E0E0E0"/>
<path d="M182.531 122.928C182.531 122.964 144.682 122.996 98.0052 122.996C51.3285 122.996 13.4691 122.964 13.4691 122.928C13.4691 122.892 51.3102 122.86 98.0052 122.86C144.7 122.86 182.531 122.889 182.531 122.928Z" fill="#263238"/>
<path d="M186.087 32.3245L152.756 36.6431C151.841 36.7616 151.196 37.5953 151.315 38.5052L152.456 47.217C152.575 48.1269 153.413 48.7684 154.327 48.6499L187.659 44.3313C188.573 44.2128 189.218 43.3791 189.099 42.4692L187.958 33.7574C187.839 32.8475 187.001 32.206 186.087 32.3245Z" fill="#FAFAFA"/>
<path d="M152.459 47.2134C152.459 47.2134 152.459 47.2966 152.514 47.45C152.581 47.6805 152.698 47.8935 152.857 48.074C153.114 48.3686 153.467 48.5637 153.855 48.6252C154.102 48.6532 154.353 48.6426 154.597 48.594L155.444 48.4822L165.576 47.151L180.605 45.1932L184.951 44.629L187.193 44.3378C187.381 44.3092 187.575 44.2936 187.758 44.2572C187.942 44.2233 188.119 44.1573 188.28 44.0622C188.605 43.8679 188.852 43.5674 188.978 43.212C189.042 43.0355 189.073 42.8486 189.07 42.6608C189.07 42.4762 189.03 42.2812 189.007 42.0888C188.957 41.7014 188.905 41.3088 188.855 40.924C188.751 40.144 188.649 39.364 188.544 38.571C188.337 36.9868 188.127 35.3834 187.914 33.761C187.862 33.3658 187.665 33.0036 187.361 32.7444C187.056 32.4852 186.666 32.3472 186.265 32.357C185.468 32.4428 184.661 32.5598 183.869 32.6586L179.165 33.267L170.28 34.4136L155.248 36.3506L153.68 36.5534L152.925 36.6496C152.682 36.666 152.445 36.7287 152.227 36.8342C152.019 36.938 151.836 37.0843 151.69 37.2636C151.544 37.4428 151.437 37.651 151.377 37.8742C151.255 38.311 151.377 38.753 151.424 39.1742C151.644 40.8668 151.83 42.3228 151.984 43.5136C152.138 44.7044 152.245 45.6274 152.334 46.2566C152.373 46.5686 152.402 46.8078 152.423 46.969C152.444 47.1302 152.449 47.2134 152.449 47.2134C152.449 47.2134 152.433 47.1302 152.412 46.9716C152.391 46.813 152.355 46.5712 152.313 46.2592C152.229 45.63 152.104 44.6992 151.945 43.5188C151.785 42.3384 151.592 40.872 151.367 39.182C151.341 38.9714 151.312 38.7556 151.283 38.5372C151.25 38.311 151.262 38.0805 151.317 37.8586C151.379 37.6266 151.489 37.41 151.64 37.2232C151.791 37.0363 151.981 36.8834 152.195 36.7744C152.422 36.6664 152.666 36.6011 152.917 36.582L153.669 36.4832L155.237 36.2804L170.277 34.32L179.162 33.1656L183.866 32.5572C184.65 32.4584 185.455 32.3414 186.273 32.253C186.7 32.2424 187.115 32.3894 187.439 32.6655C187.762 32.9416 187.972 33.3272 188.027 33.748C188.241 35.3704 188.451 36.9738 188.657 38.558C188.761 39.3484 188.864 40.1284 188.965 40.898C189.017 41.288 189.067 41.678 189.117 42.0628C189.14 42.2552 189.174 42.445 189.182 42.6478C189.184 42.8472 189.151 43.0453 189.083 43.2328C188.985 43.5145 188.814 43.7654 188.587 43.9603C188.36 44.1552 188.086 44.2872 187.792 44.343C187.598 44.3794 187.413 44.395 187.222 44.4236L184.961 44.72L180.618 45.2816L165.586 47.2186L155.449 48.5186L154.602 48.6252C154.355 48.6738 154.102 48.6826 153.852 48.6512C153.458 48.588 153.099 48.3871 152.841 48.0844C152.682 47.9011 152.568 47.6841 152.506 47.45C152.488 47.3915 152.475 47.3315 152.467 47.2706L152.459 47.2134Z" fill="#263238"/>
<path d="M186.884 43.9381L185.438 32.8929L179.75 33.63L181.196 44.6751L186.884 43.9381Z" fill="#40C5A6"/>
<path d="M178.827 44.9799L177.382 33.9348L171.693 34.6718L173.139 45.717L178.827 44.9799Z" fill="#40C5A6"/>
<path d="M170.771 46.0241L169.326 34.979L163.637 35.716L165.083 46.7612L170.771 46.0241Z" fill="#40C5A6"/>
<path d="M162.715 47.0686L161.269 36.0235L155.581 36.7605L157.027 47.8056L162.715 47.0686Z" fill="#40C5A6"/>
<g opacity="0.5">
<path d="M186.884 43.9381L185.438 32.8929L179.75 33.63L181.196 44.6751L186.884 43.9381Z" fill="black"/>
</g>
<g opacity="0.6">
<path d="M178.827 44.9799L177.382 33.9348L171.693 34.6718L173.139 45.717L178.827 44.9799Z" fill="black"/>
</g>
<g opacity="0.7">
<path d="M170.771 46.0241L169.326 34.979L163.637 35.716L165.083 46.7612L170.771 46.0241Z" fill="black"/>
</g>
<g opacity="0.8">
<path d="M162.715 47.0686L161.269 36.0235L155.581 36.7605L157.027 47.8056L162.715 47.0686Z" fill="black"/>
</g>
<path d="M152.457 45.6794L148.5 38.051C148.285 37.6351 148.244 37.1513 148.388 36.7057C148.531 36.2602 148.846 35.8893 149.263 35.6746L178.953 20.436C179.16 20.3296 179.385 20.2648 179.617 20.2452C179.849 20.2257 180.082 20.2518 180.304 20.3221C180.526 20.3924 180.731 20.5054 180.909 20.6548C181.086 20.8042 181.233 20.9869 181.339 21.1926L185.285 28.821C185.392 29.0269 185.457 29.2517 185.477 29.4826C185.496 29.7134 185.47 29.9459 185.399 30.1666C185.328 30.3873 185.214 30.592 185.064 30.7688C184.913 30.9457 184.729 31.0914 184.522 31.1974L154.843 46.436C154.636 46.5424 154.411 46.6072 154.179 46.6268C153.947 46.6463 153.714 46.6202 153.492 46.5499C153.27 46.4797 153.065 46.3666 152.887 46.2172C152.71 46.0679 152.563 45.8851 152.457 45.6794Z" fill="#FAFAFA"/>
<path d="M152.457 45.6794C152.469 45.6958 152.481 45.7132 152.491 45.7314C152.514 45.7652 152.54 45.8198 152.59 45.8848C152.728 46.0793 152.906 46.2424 153.113 46.3632C153.446 46.5672 153.84 46.6524 154.228 46.605C154.474 46.5739 154.711 46.4953 154.926 46.3736L155.684 45.981L164.745 41.314L178.185 34.4006L182.071 32.4064L184.078 31.3664C184.427 31.2265 184.745 31.0178 185.011 30.7528C185.196 30.5427 185.327 30.2908 185.392 30.0189C185.457 29.747 185.455 29.4635 185.385 29.1928C185.329 29.0119 185.254 28.8375 185.16 28.6728L184.619 27.6328L183.527 25.5268L181.295 21.2238C181.112 20.869 180.81 20.5891 180.442 20.4324C180.073 20.2757 179.661 20.2521 179.277 20.3658C179.089 20.4299 178.907 20.5117 178.734 20.6102L178.195 20.8858L177.124 21.437L172.924 23.5872L164.98 27.6614L151.529 34.554L150.128 35.2716L149.454 35.62C149.231 35.717 149.026 35.8526 148.85 36.0204C148.605 36.2613 148.438 36.5691 148.37 36.9048C148.301 37.2404 148.335 37.5887 148.466 37.9054C148.55 38.103 148.662 38.2928 148.756 38.4826L150.761 42.367C151.307 43.433 151.733 44.2598 152.023 44.824C152.167 45.1048 152.284 45.318 152.349 45.4636C152.415 45.6092 152.457 45.6846 152.457 45.6846C152.457 45.6846 152.415 45.6118 152.339 45.4688L152.005 44.8344C151.712 44.2728 151.278 43.4486 150.724 42.3852L148.699 38.506C148.602 38.3136 148.495 38.129 148.403 37.9236C148.271 37.5949 148.237 37.2348 148.308 36.8875C148.378 36.5401 148.548 36.2207 148.798 35.9684C148.98 35.7969 149.189 35.6571 149.417 35.555L150.092 35.2092L151.49 34.489L164.933 27.5756L172.872 23.4962L177.072 21.3408L178.143 20.7896L178.681 20.514C178.86 20.4096 179.048 20.3225 179.243 20.254C179.65 20.1356 180.086 20.1616 180.476 20.3276C180.866 20.4936 181.186 20.7893 181.381 21.164L183.618 25.48L184.71 27.586L185.249 28.626C185.348 28.7972 185.426 28.9796 185.481 29.1694C185.534 29.3614 185.554 29.5611 185.539 29.7596C185.51 30.1571 185.352 30.5344 185.087 30.8334C184.957 30.9805 184.803 31.1044 184.632 31.2C184.462 31.2962 184.292 31.3768 184.125 31.46L182.115 32.5L178.229 34.4864L164.779 41.379L155.705 46.02L154.947 46.4074C154.726 46.5294 154.484 46.6079 154.234 46.6388C153.838 46.6801 153.44 46.5886 153.102 46.3788C152.894 46.2548 152.716 46.0871 152.579 45.8874C152.544 45.8376 152.511 45.7855 152.483 45.7314C152.473 45.7145 152.465 45.6971 152.457 45.6794Z" fill="#263238"/>
<path d="M183.761 31.0461L178.628 21.1475L173.53 23.7641L178.663 33.6627L183.761 31.0461Z" fill="#40C5A6"/>
<path d="M176.54 34.7521L171.407 24.8534L166.309 27.47L171.442 37.3687L176.54 34.7521Z" fill="#40C5A6"/>
<path d="M169.323 38.459L164.189 28.5604L159.092 31.177L164.225 41.0756L169.323 38.459Z" fill="#40C5A6"/>
<path d="M162.104 42.1637L156.971 32.2651L151.873 34.8817L157.006 44.7804L162.104 42.1637Z" fill="#40C5A6"/>
<g opacity="0.1">
<path d="M183.761 31.0461L178.628 21.1475L173.53 23.7641L178.663 33.6627L183.761 31.0461Z" fill="black"/>
</g>
<g opacity="0.2">
<path d="M176.54 34.7521L171.407 24.8534L166.309 27.47L171.442 37.3687L176.54 34.7521Z" fill="black"/>
</g>
<g opacity="0.3">
<path d="M169.322 38.459L164.189 28.5604L159.092 31.177L164.225 41.0756L169.322 38.459Z" fill="black"/>
</g>
<g opacity="0.4">
<path d="M162.104 42.1637L156.971 32.2651L151.873 34.8817L157.006 44.7804L162.104 42.1637Z" fill="black"/>
</g>
<path d="M153.364 45.5156L146.781 40.1466C146.594 39.9955 146.44 39.8095 146.326 39.599C146.212 39.3885 146.141 39.1578 146.117 38.92C146.092 38.6822 146.115 38.4419 146.185 38.213C146.254 37.984 146.367 37.7708 146.519 37.5856L167.627 11.96C167.779 11.7748 167.966 11.6211 168.178 11.5078C168.389 11.3944 168.621 11.3237 168.86 11.2995C169.099 11.2754 169.341 11.2983 169.571 11.367C169.801 11.4358 170.015 11.5489 170.201 11.7L176.787 17.069C176.973 17.2201 177.127 17.4062 177.241 17.6166C177.355 17.8271 177.426 18.0578 177.451 18.2957C177.475 18.5335 177.452 18.7737 177.383 19.0027C177.314 19.2316 177.2 19.4448 177.048 19.63L155.948 45.2504C155.797 45.4376 155.609 45.593 155.397 45.7077C155.185 45.8224 154.952 45.8942 154.711 45.9188C154.471 45.9435 154.228 45.9206 153.997 45.8514C153.766 45.7821 153.55 45.668 153.364 45.5156Z" fill="#FAFAFA"/>
<path d="M153.363 45.5156L153.416 45.5494C153.45 45.5702 153.497 45.6118 153.567 45.6508C153.772 45.7757 153.999 45.858 154.236 45.8926C154.623 45.9519 155.019 45.8863 155.365 45.7054C155.791 45.5078 156.081 45.0372 156.471 44.5822L162.918 36.7302L172.48 25.0926L175.248 21.7308L176.677 19.994C176.94 19.7257 177.151 19.4109 177.299 19.0658C177.421 18.7112 177.428 18.3276 177.32 17.9686C177.205 17.6061 176.979 17.2881 176.674 17.0586C176.371 16.8142 176.068 16.5672 175.765 16.3176L173.93 14.82L170.172 11.752C169.863 11.5028 169.48 11.362 169.083 11.3516C168.684 11.3448 168.294 11.4722 167.977 11.713C167.823 11.8362 167.684 11.9777 167.564 12.1342L167.18 12.5996C166.919 12.9116 166.671 13.2184 166.417 13.5278L163.414 17.16L157.754 24.0266L148.176 35.6512L147.175 36.8628L146.684 37.44C146.52 37.618 146.385 37.8207 146.284 38.0406C146.103 38.4703 146.097 38.953 146.266 39.3874C146.346 39.5926 146.465 39.7805 146.616 39.9412C146.769 40.0936 146.931 40.236 147.102 40.3676L150.499 43.1366C151.427 43.8984 152.146 44.4912 152.637 44.8916L153.191 45.3518C153.316 45.4532 153.377 45.5104 153.377 45.5104L153.183 45.3596L152.619 44.9124L150.468 43.173L147.071 40.417C146.897 40.2841 146.732 40.1408 146.577 39.988C146.42 39.8208 146.297 39.6259 146.213 39.4134C146.037 38.9644 146.043 38.4648 146.229 38.0198C146.331 37.7939 146.468 37.5859 146.637 37.4036L147.118 36.8186L148.113 35.607L157.686 23.9668L163.333 17.095L166.326 13.455L167.089 12.5268C167.217 12.3734 167.35 12.2174 167.47 12.0614C167.596 11.8987 167.741 11.7512 167.901 11.622C168.239 11.3683 168.653 11.2347 169.076 11.2427C169.499 11.2507 169.907 11.3999 170.235 11.6662L173.996 14.7394L175.838 16.2396L176.745 16.9806C177.066 17.2211 177.304 17.5557 177.424 17.9374C177.54 18.3176 177.531 18.7243 177.401 19.0996C177.338 19.2867 177.244 19.4624 177.124 19.6196C177.006 19.773 176.883 19.9134 176.763 20.0616C176.282 20.6475 175.806 21.2264 175.334 21.7984C174.388 22.9424 173.464 24.0621 172.564 25.1576L162.975 36.7822L156.502 44.6134L155.961 45.2686C155.757 45.5197 155.489 45.7122 155.186 45.8264C154.882 45.9406 154.554 45.9725 154.234 45.9186C153.994 45.88 153.765 45.7914 153.562 45.6586C153.493 45.6151 153.427 45.5673 153.363 45.5156Z" fill="#263238"/>
<path d="M176.32 19.7527L167.661 12.6933L164.025 17.1077L172.685 24.1671L176.32 19.7527Z" fill="#40C5A6"/>
<path d="M171.17 26.0033L162.51 18.944L158.875 23.3584L167.535 30.4177L171.17 26.0033Z" fill="#40C5A6"/>
<path d="M166.021 32.2562L157.361 25.1968L153.725 29.6113L162.385 36.6706L166.021 32.2562Z" fill="#40C5A6"/>
<path d="M160.872 38.5085L152.212 31.4492L148.577 35.8636L157.237 42.9229L160.872 38.5085Z" fill="#40C5A6"/>
<g opacity="0.5">
<path d="M176.321 19.7527L167.661 12.6933L164.025 17.1077L172.685 24.1671L176.321 19.7527Z" fill="white"/>
</g>
<g opacity="0.6">
<path d="M171.17 26.0033L162.51 18.944L158.875 23.3584L167.535 30.4177L171.17 26.0033Z" fill="white"/>
</g>
<g opacity="0.7">
<path d="M166.021 32.2562L157.361 25.1968L153.725 29.6113L162.385 36.6706L166.021 32.2562Z" fill="white"/>
</g>
<g opacity="0.8">
<path d="M160.872 38.5085L152.212 31.4492L148.577 35.8636L157.237 42.9229L160.872 38.5085Z" fill="white"/>
</g>
<path d="M153.741 8.91898L143.848 40.8136C143.571 41.7069 144.074 42.6544 144.972 42.9301L153.35 45.5023C154.248 45.7779 155.2 45.2773 155.477 44.384L165.37 12.4894C165.647 11.5961 165.144 10.6486 164.246 10.3729L155.868 7.80074C154.97 7.52509 154.018 8.02575 153.741 8.91898Z" fill="#FAFAFA"/>
<path d="M153.356 45.5C153.435 45.5208 153.515 45.5373 153.596 45.5494C153.907 45.5958 154.225 45.5549 154.514 45.4314C154.803 45.3078 155.052 45.1065 155.232 44.85C155.369 44.6436 155.468 44.4147 155.525 44.174L155.786 43.3602L158.781 33.6467L163.234 19.24C163.652 17.8863 164.082 16.4997 164.522 15.08L165.189 12.9298C165.244 12.7504 165.306 12.5658 165.354 12.3864C165.396 12.206 165.41 12.02 165.395 11.8352C165.354 11.462 165.189 11.1131 164.925 10.8446C164.793 10.7098 164.638 10.5997 164.468 10.5196C164.29 10.4445 164.108 10.3819 163.921 10.3325L162.795 9.98665L160.516 9.28725L155.859 7.85725C155.476 7.74015 155.062 7.76603 154.696 7.93005C154.331 8.08985 154.037 8.37886 153.873 8.74125C153.795 8.91805 153.742 9.11825 153.68 9.30805L153.502 9.88005C153.384 10.2648 153.264 10.66 153.147 11.0266C152.675 12.5502 152.208 14.0505 151.749 15.5273L149.109 24.0318L144.63 38.4306L144.162 39.9309C144.086 40.1753 144.01 40.4144 143.937 40.6536C143.851 40.8795 143.809 41.1194 143.812 41.3609C143.818 41.5917 143.872 41.8188 143.972 42.0275C144.071 42.2362 144.213 42.4218 144.389 42.5725C144.726 42.8819 145.173 42.9495 145.586 43.0924L149.783 44.3925L152.433 45.214L153.121 45.4324L153.356 45.5079L153.118 45.4428L152.428 45.2348L149.77 44.4289L145.563 43.16L144.938 42.9676C144.598 42.8582 144.301 42.6468 144.086 42.3623C143.872 42.0779 143.751 41.7344 143.741 41.379C143.737 41.1299 143.779 40.8821 143.867 40.6484C143.942 40.4118 144.016 40.17 144.091 39.9256C144.24 39.4394 144.397 38.9376 144.554 38.4254C145.824 34.32 147.34 29.4294 149.018 24.0058C149.856 21.294 150.74 18.4496 151.654 15.4987C152.112 14.0245 152.577 12.5216 153.047 11.0007C153.168 10.6185 153.285 10.2362 153.403 9.85145L153.583 9.27685C153.638 9.08019 153.703 8.88664 153.779 8.69705C153.953 8.31218 154.264 8.0048 154.652 7.83385C155.042 7.65918 155.482 7.63145 155.891 7.75585L160.548 9.18585L162.826 9.88005L163.95 10.2259C164.141 10.2776 164.328 10.3428 164.509 10.4209C164.691 10.507 164.856 10.6231 164.998 10.7641C165.277 11.0511 165.452 11.4226 165.495 11.8196C165.513 12.0149 165.498 12.2117 165.45 12.4021C165.401 12.5944 165.34 12.7687 165.286 12.9507C165.061 13.6761 164.839 14.3911 164.617 15.1009C164.178 16.5205 163.747 17.9071 163.326 19.2608L158.846 33.6597L155.817 43.3654C155.729 43.6514 155.645 43.9219 155.556 44.1767C155.517 44.3041 155.478 44.4366 155.433 44.5433L155.352 44.7097C155.318 44.7591 155.29 44.811 155.256 44.8604C155.026 45.185 154.69 45.4188 154.304 45.5209C154.071 45.5862 153.825 45.5986 153.586 45.5573C153.525 45.5478 153.464 45.5339 153.405 45.5156L153.356 45.5Z" fill="#263238"/>
<path d="M164.711 12.9935L154.013 9.70905L152.322 15.1623L163.02 18.4467L164.711 12.9935Z" fill="#40C5A6"/>
<path d="M162.315 20.7169L151.617 17.4324L149.925 22.8857L160.623 26.1701L162.315 20.7169Z" fill="#40C5A6"/>
<path d="M159.92 28.4409L149.222 25.1565L147.531 30.6097L158.228 33.8942L159.92 28.4409Z" fill="#40C5A6"/>
<path d="M157.524 36.161L146.828 32.8773L145.137 38.3306L155.832 41.6142L157.524 36.161Z" fill="#40C5A6"/>
<g opacity="0.2">
<path d="M162.315 20.7169L151.617 17.4324L149.925 22.8857L160.623 26.1701L162.315 20.7169Z" fill="white"/>
</g>
<g opacity="0.3">
<path d="M159.92 28.4409L149.222 25.1565L147.531 30.6097L158.229 33.8942L159.92 28.4409Z" fill="white"/>
</g>
<g opacity="0.4">
<path d="M157.524 36.161L146.828 32.8773L145.137 38.3306L155.832 41.6142L157.524 36.161Z" fill="white"/>
</g>
<g opacity="0.1">
<path d="M164.711 12.9935L154.013 9.70905L152.322 15.1623L163.02 18.4467L164.711 12.9935Z" fill="white"/>
</g>
<path d="M154.589 43.7554C154.457 43.9858 154.258 44.1717 154.019 44.2896C153.78 44.4075 153.511 44.452 153.247 44.4176C152.982 44.3831 152.734 44.2712 152.533 44.096C152.333 43.9208 152.189 43.6903 152.121 43.4338C152.052 43.1772 152.062 42.9062 152.148 42.6551C152.235 42.404 152.395 42.1843 152.607 42.0237C152.82 41.8631 153.075 41.769 153.342 41.7533C153.608 41.7376 153.873 41.801 154.103 41.9354C154.409 42.114 154.631 42.4053 154.722 42.7461C154.813 43.0868 154.765 43.4495 154.589 43.7554Z" fill="#455A64"/>
<path d="M154.589 43.7554C154.589 43.7554 154.644 43.6488 154.699 43.446C154.775 43.1594 154.753 42.8556 154.636 42.5828C154.552 42.3817 154.418 42.2049 154.248 42.0687C154.077 41.9324 153.874 41.841 153.659 41.8028C153.405 41.7582 153.145 41.7889 152.909 41.8912C152.655 42.0001 152.442 42.1863 152.301 42.4232C152.16 42.6601 152.098 42.9354 152.125 43.2094C152.151 43.4639 152.253 43.7048 152.417 43.901C152.556 44.0686 152.735 44.1989 152.937 44.2802C153.139 44.3615 153.358 44.3911 153.575 44.3664C153.871 44.3327 154.147 44.2018 154.359 43.9946C154.508 43.849 154.566 43.7346 154.573 43.7346C154.581 43.7346 154.573 43.7632 154.537 43.8126C154.495 43.8839 154.445 43.9502 154.388 44.0102C154.176 44.2384 153.89 44.3856 153.58 44.4262C153.367 44.4534 153.15 44.432 152.945 44.3638C152.71 44.2815 152.502 44.1378 152.342 43.9478C152.163 43.7385 152.051 43.4802 152.023 43.2068C151.996 42.9131 152.066 42.6187 152.22 42.3669C152.374 42.1151 152.605 41.9192 152.88 41.808C153.049 41.7354 153.231 41.6971 153.415 41.6954C153.599 41.6937 153.782 41.7286 153.953 41.7981C154.123 41.8676 154.278 41.9703 154.408 42.1002C154.538 42.23 154.64 42.3844 154.709 42.5542C154.826 42.8417 154.838 43.161 154.743 43.4564C154.721 43.5367 154.687 43.6137 154.644 43.6852C154.61 43.732 154.594 43.758 154.589 43.7554Z" fill="#263238"/>
<path d="M146.982 17.5188H58.3323V76.3178H146.982V17.5188Z" fill="#FAFAFA"/>
<path d="M146.984 76.3178C146.984 75.8758 146.963 53.3572 146.929 17.5188L146.984 17.5708L58.3401 17.5864L58.408 17.5188C58.408 38.4566 58.408 58.3726 58.408 76.3178L58.3453 76.2554L146.997 76.3178L58.3453 76.3776H58.2773V76.3178C58.2773 58.3778 58.2773 38.4566 58.2773 17.5188V17.4512H58.3531H146.997H147.05V17.5058C147.005 53.3572 146.984 75.8758 146.984 76.3178Z" fill="#263238"/>
<path d="M105.521 43.0924C105.521 43.0924 105.521 43.0248 105.521 42.9026C105.521 42.7804 105.521 42.5932 105.521 42.3618C105.521 41.8834 105.521 41.1944 105.506 40.3182C105.506 38.558 105.49 36.0464 105.477 33.0174L105.534 33.072H92.5199C92.5042 33.072 92.6479 32.9446 92.5878 33.0044V35.6824C92.5878 36.5629 92.5878 37.4296 92.5878 38.2824C92.5878 39.9698 92.5878 41.5818 92.5878 43.0872L92.5277 43.0248L101.912 43.056L104.58 43.0716H105.291H105.477H105.542H105.304H104.607L101.951 43.0872L92.512 43.16H92.4519V43.1002C92.4519 41.5948 92.4519 39.9802 92.4519 38.2954C92.4519 37.4504 92.4519 36.5872 92.4519 35.6954V33.02L92.5199 32.9524H105.534H105.579V33.02C105.566 36.0646 105.558 38.5866 105.55 40.3546C105.55 41.2282 105.55 41.9146 105.534 42.3878C105.534 42.614 105.534 42.7908 105.534 42.9078C105.534 43.0248 105.521 43.0924 105.521 43.0924Z" fill="#263238"/>
<path d="M132.959 66.95H63.0938V22.6382H132.959V66.95ZM63.3551 66.69H132.697V22.8982H63.3551V66.69Z" fill="#263238"/>
<path d="M132.828 22.7682H63.2244V25.012H132.828V22.7682Z" fill="#263238"/>
<path d="M65.7515 34.7698H63.2244V66.82H65.7515V34.7698Z" fill="#263238"/>
<path d="M65.7515 22.7682H63.2244V26.9932H65.7515V22.7682Z" fill="#263238"/>
<path d="M69.4337 33.5764L64.8159 26.8164L65.6287 26.2678L70.2464 33.0278L69.4337 33.5764ZM65.1792 26.8866L69.5147 33.215L69.8962 32.955L65.5738 26.6266L65.1792 26.8866Z" fill="#263238"/>
<path d="M72.4547 49.66H66.3787V43.16H72.4494L72.4547 49.66ZM66.64 49.4H72.1881V43.42H66.64V49.4Z" fill="#263238"/>
<path d="M132.828 64.2823H63.2244V66.8199H132.828V64.2823Z" fill="#263238"/>
<path d="M69.4206 48.217C69.0762 48.2175 68.7395 48.1164 68.4529 47.9264C68.1664 47.7365 67.9429 47.4662 67.8107 47.1498C67.6786 46.8335 67.6438 46.4852 67.7106 46.1492C67.7775 45.8131 67.943 45.5043 68.1863 45.2619C68.4297 45.0194 68.7398 44.8543 69.0775 44.7872C69.4152 44.7202 69.7652 44.7544 70.0834 44.8853C70.4016 45.0163 70.6736 45.2383 70.865 45.5231C71.0563 45.8079 71.1585 46.1428 71.1585 46.4854C71.1578 46.944 70.9745 47.3836 70.6488 47.7081C70.3232 48.0326 69.8815 48.2156 69.4206 48.217ZM69.4206 45.0138C69.1279 45.0133 68.8417 45.0991 68.5981 45.2605C68.3545 45.4219 68.1645 45.6516 68.0522 45.9204C67.9398 46.1893 67.9102 46.4852 67.9669 46.7709C68.0237 47.0565 68.1644 47.319 68.3711 47.525C68.5779 47.7311 68.8414 47.8715 69.1284 47.9285C69.4154 47.9855 69.713 47.9565 69.9834 47.8452C70.2538 47.7339 70.485 47.5453 70.6477 47.3032C70.8103 47.0612 70.8971 46.7765 70.8971 46.4854C70.8964 46.0957 70.7407 45.7222 70.4641 45.4465C70.1874 45.1707 69.8122 45.0152 69.4206 45.0138Z" fill="#263238"/>
<path d="M111.122 31.2H87.6016V24.882H111.122V31.2ZM87.8629 30.94H110.86V25.142H87.8629V30.94Z" fill="#263238"/>
<path d="M95.5382 30.3888L92.7733 28.093L95.0809 25.35L97.838 27.6458L95.5382 30.3888ZM93.147 28.0618L95.499 30.0248L97.4721 27.6848L95.1201 25.7218L93.147 28.0618Z" fill="#263238"/>
<path d="M99.21 30.3888L96.4529 28.093L98.7605 25.35L101.52 27.6458L99.21 30.3888ZM96.8214 28.0618L99.1734 30.0248L101.146 27.6848L98.7944 25.7218L96.8214 28.0618Z" fill="#263238"/>
<path d="M102.884 30.3888L100.125 28.093L102.443 25.35L105.202 27.6458L102.884 30.3888ZM100.493 28.0618L102.845 30.0248L104.818 27.6848L102.466 25.7218L100.493 28.0618Z" fill="#263238"/>
<path d="M114.864 30.0144C114.437 30.0144 114.021 29.8886 113.666 29.6529C113.312 29.4172 113.035 29.0822 112.872 28.6902C112.709 28.2983 112.666 27.867 112.749 27.4509C112.833 27.0348 113.038 26.6526 113.339 26.3526C113.641 26.0526 114.025 25.8483 114.443 25.7656C114.861 25.6828 115.295 25.7253 115.689 25.8876C116.083 26.05 116.42 26.3249 116.657 26.6777C116.893 27.0304 117.02 27.4451 117.02 27.8694C117.019 28.438 116.792 28.9832 116.388 29.3854C115.983 29.7875 115.435 30.0137 114.864 30.0144ZM114.864 25.9844C114.489 25.9844 114.123 26.0949 113.811 26.302C113.5 26.5092 113.257 26.8036 113.113 27.148C112.97 27.4924 112.933 27.8715 113.006 28.2371C113.079 28.6028 113.259 28.9386 113.524 29.2023C113.789 29.4659 114.127 29.6454 114.494 29.7181C114.862 29.7909 115.243 29.7536 115.589 29.6109C115.935 29.4682 116.231 29.2266 116.439 28.9166C116.647 28.6066 116.759 28.2422 116.759 27.8694C116.758 27.3696 116.558 26.8906 116.203 26.5372C115.848 26.1839 115.366 25.9851 114.864 25.9844Z" fill="#263238"/>
<path d="M86.1067 30.5396H76.0219V24.882H86.1067V30.5396ZM76.2832 30.2796H85.8454V25.142H76.2832V30.2796Z" fill="#263238"/>
<path d="M130.635 43.6098H124.813V28.691H130.635V43.6098ZM125.074 43.3498H130.374V28.951H125.074V43.3498Z" fill="#263238"/>
<path d="M132.828 22.7682H130.505V64.2824H132.828V22.7682Z" fill="#263238"/>
<path d="M122.074 40.4404H121.651C121.182 40.4397 120.732 40.254 120.4 39.9241C120.069 39.5941 119.882 39.1468 119.881 38.6802V35.3002C119.882 34.8336 120.069 34.3862 120.4 34.0563C120.732 33.7263 121.182 33.5407 121.651 33.54H122.074C122.543 33.5407 122.993 33.7263 123.324 34.0563C123.656 34.3862 123.843 34.8336 123.843 35.3002V38.6802C123.843 39.1468 123.656 39.5941 123.324 39.9241C122.993 40.254 122.543 40.4397 122.074 40.4404ZM121.651 33.8C121.251 33.8007 120.868 33.9589 120.585 34.2401C120.303 34.5213 120.143 34.9025 120.143 35.3002V38.6802C120.143 39.0778 120.303 39.459 120.585 39.7402C120.868 40.0214 121.251 40.1797 121.651 40.1804H122.074C122.474 40.1797 122.857 40.0214 123.14 39.7402C123.422 39.459 123.581 39.0778 123.582 38.6802V35.3002C123.581 34.9025 123.422 34.5213 123.14 34.2401C122.857 33.9589 122.474 33.8007 122.074 33.8H121.651Z" fill="#263238"/>
<path d="M94.8144 50.765C94.8144 50.8014 88.2157 50.8326 80.0778 50.8326C71.9399 50.8326 65.3386 50.8014 65.3386 50.765C65.3386 50.7286 71.9347 50.6974 80.0778 50.6974C88.221 50.6974 94.8144 50.7286 94.8144 50.765Z" fill="#263238"/>
<path d="M94.6026 56.2094C94.5617 55.9393 94.5451 55.6661 94.553 55.393C94.5399 54.8886 94.5347 54.1892 94.5347 53.4196C94.5347 52.65 94.5347 51.9506 94.553 51.4462C94.5451 51.1723 94.5617 50.8982 94.6026 50.6272C94.64 50.8985 94.6558 51.1724 94.6497 51.4462C94.6497 51.9506 94.6706 52.6474 94.6706 53.4196C94.6706 54.1918 94.6706 54.8886 94.6497 55.393C94.6557 55.6659 94.64 55.9389 94.6026 56.2094Z" fill="#263238"/>
<path d="M73.3171 64.5865H65.6208V50.6349H73.3171V64.5865ZM65.8822 64.3265H73.0558V50.8949H65.8822V64.3265Z" fill="#263238"/>
<path d="M141.569 22.7682C141.569 22.8046 138.671 22.8358 135.096 22.8358C131.521 22.8358 128.623 22.8046 128.623 22.7682C128.623 22.7318 131.519 22.7006 135.096 22.7006C138.674 22.7006 141.569 22.7292 141.569 22.7682Z" fill="#263238"/>
<path d="M141.465 70.941C141.428 70.941 141.397 59.8442 141.397 46.1604C141.397 32.4766 141.428 21.3772 141.465 21.3772C141.502 21.3772 141.533 32.4714 141.533 46.1604C141.533 59.8494 141.502 70.941 141.465 70.941Z" fill="#263238"/>
<path d="M144.055 66.9214C144.055 66.9604 141.457 66.9916 138.256 66.9916C135.054 66.9916 132.454 66.9604 132.454 66.9214C132.454 66.8824 135.052 66.8538 138.256 66.8538C141.46 66.8538 144.055 66.885 144.055 66.9214Z" fill="#263238"/>
<path d="M132.661 70.7356C132.593 69.8785 132.571 69.0185 132.593 68.159C132.571 67.2995 132.593 66.4395 132.661 65.5824C132.73 66.4394 132.752 67.2995 132.729 68.159C132.752 69.0185 132.73 69.8786 132.661 70.7356Z" fill="#263238"/>
<path d="M63.7837 69.706C63.7837 69.667 81.0317 69.6384 102.312 69.6384C123.592 69.6384 140.843 69.667 140.843 69.706C140.843 69.745 123.595 69.7736 102.312 69.7736C81.0291 69.7736 63.7837 69.7424 63.7837 69.706Z" fill="#263238"/>
<path d="M63.4753 70.9409C63.4065 70.2568 63.3838 69.5689 63.4073 68.8817C63.3837 68.1937 63.4064 67.5049 63.4753 66.8199C63.5425 67.505 63.5652 68.1937 63.5432 68.8817C63.5652 69.5689 63.5425 70.2567 63.4753 70.9409Z" fill="#263238"/>
<path d="M70.2098 33.02C70.1549 33.0874 70.0917 33.1476 70.0217 33.1994C69.8962 33.3086 69.7028 33.4594 69.4572 33.6284C68.81 34.0691 68.0988 34.4085 67.3482 34.6346C66.5968 34.8532 65.8205 34.9763 65.038 35.0012C64.7375 35.0012 64.4971 35.0012 64.3298 35.0012C64.242 35.0068 64.1539 34.9989 64.0685 34.9778C64.0685 34.9544 64.437 34.9492 65.0302 34.905C65.801 34.8503 66.5639 34.7153 67.3064 34.502C68.043 34.2771 68.7461 33.9553 69.3971 33.5452C69.9041 33.228 70.1941 32.9992 70.2098 33.02Z" fill="#263238"/>
<path d="M98.784 63.0552L94.1663 56.2952L94.979 55.7466L99.5942 62.5066L98.784 63.0552ZM94.5295 56.3654L98.852 62.6938L99.2335 62.4338L94.9085 56.108L94.5295 56.3654Z" fill="#263238"/>
<path d="M99.568 62.4936C99.5138 62.5617 99.4505 62.6221 99.3798 62.673C99.2003 62.8268 99.0118 62.9701 98.8153 63.102C98.169 63.5446 97.4575 63.885 96.7064 64.1108C95.9543 64.3268 95.1784 64.4499 94.3962 64.4774C94.0956 64.4774 93.8552 64.4774 93.688 64.4774C93.6 64.4817 93.512 64.473 93.4266 64.4514C93.4266 64.4306 93.7951 64.4228 94.3883 64.3786C95.1591 64.325 95.9221 64.1908 96.6646 63.9782C97.4013 63.7525 98.1044 63.4298 98.7552 63.0188C99.2518 62.7068 99.5418 62.4754 99.568 62.4936Z" fill="#263238"/>
<path d="M92.512 30.7866C92.4755 30.7866 92.4441 29.5204 92.4441 27.9604C92.4441 26.4004 92.4755 25.1316 92.512 25.1316C92.5486 25.1316 92.58 26.3978 92.58 27.9604C92.58 29.523 92.5434 30.7866 92.512 30.7866Z" fill="#263238"/>
<path d="M105.317 31.0336C105.281 31.0336 105.249 29.7544 105.249 28.1736C105.249 26.5928 105.281 25.3136 105.317 25.3136C105.354 25.3136 105.388 26.5928 105.388 28.1736C105.388 29.7544 105.346 31.0336 105.317 31.0336Z" fill="#263238"/>
<path d="M124.808 52.5668C124.801 52.5193 124.801 52.4712 124.808 52.4238C124.808 52.3146 124.828 52.1794 124.844 52.0156C124.886 51.6438 124.941 51.1368 125.009 50.518L125.27 48.3002C125.305 48.0932 125.319 47.8833 125.312 47.6736C125.304 47.5717 125.268 47.474 125.208 47.3911C125.148 47.3081 125.067 47.2431 124.972 47.203C124.759 47.123 124.54 47.0604 124.316 47.0158L123.613 46.8468L118.766 45.656L117.299 45.279L116.902 45.1698C116.855 45.1612 116.809 45.1454 116.766 45.123C116.814 45.1235 116.862 45.1305 116.907 45.1438L117.31 45.227L118.786 45.5624L123.645 46.7168L124.345 46.8858C124.58 46.9308 124.81 46.9969 125.032 47.0834C125.146 47.1373 125.244 47.2176 125.32 47.3174C125.389 47.4187 125.43 47.536 125.44 47.658C125.449 47.8783 125.433 48.0989 125.393 48.3158C125.286 49.1452 125.187 49.894 125.103 50.531C125.019 51.168 124.946 51.6516 124.894 52.0208C124.871 52.1837 124.85 52.3189 124.831 52.4264C124.83 52.474 124.822 52.5213 124.808 52.5668Z" fill="#263238"/>
<path d="M119.735 44.6238C119.468 44.7079 119.195 44.7697 118.917 44.8084C118.395 44.9046 117.702 45.0294 116.921 45.1594L116.962 45.0502L116.986 45.0788C117.488 45.7002 117.935 46.267 118.253 46.683C118.436 46.8987 118.6 47.1292 118.745 47.372C118.539 47.1779 118.349 46.9675 118.178 46.7428C117.84 46.3424 117.394 45.7834 116.871 45.162L116.85 45.1334L116.777 45.045L116.892 45.0242C117.676 44.8968 118.381 44.7876 118.894 44.7148C119.171 44.6619 119.453 44.6314 119.735 44.6238Z" fill="#263238"/>
<path d="M88.8377 49.9668H73.2936V39.7228H88.8377V49.9668ZM73.5549 49.7068H88.5764V39.9828H73.5549V49.7068Z" fill="#263238"/>
<path d="M77.6761 49.7952C77.6395 49.7952 77.6082 47.5956 77.6082 44.8838C77.6082 42.172 77.6395 39.975 77.6761 39.975C77.7127 39.975 77.744 42.172 77.744 44.8838C77.744 47.5956 77.7153 49.7952 77.6761 49.7952Z" fill="#263238"/>
<path d="M84.7008 49.7614C84.6642 49.7614 84.6328 47.5696 84.6328 44.8682C84.6328 42.1668 84.6642 39.975 84.7008 39.975C84.7373 39.975 84.7687 42.1642 84.7687 44.8682C84.7687 47.5722 84.74 49.7614 84.7008 49.7614Z" fill="#263238"/>
<path d="M98.2247 37.4399C98.2247 37.4399 97.3754 49.8237 98.4338 51.8283H111.451L110.928 38.0171L98.2247 37.4399Z" fill="#E0E0E0"/>
<path d="M98.2247 37.4399C98.3162 42.5931 98.7474 47.2523 99.6908 51.2017L114.341 51.3109C114.341 51.3109 112.896 39.4679 112.896 37.4399H98.2247Z" fill="#40C5A6"/>
<path d="M111.27 42.0966C111.22 42.168 111.161 42.2334 111.095 42.2916C110.852 42.5145 110.561 42.6786 110.243 42.771C109.926 42.8634 109.592 42.8818 109.266 42.8246C108.732 42.7246 108.253 42.4332 107.92 42.0056C107.824 41.8839 107.747 41.7491 107.69 41.6052C107.626 41.4492 107.616 41.2762 107.661 41.1138C107.689 41.0271 107.738 40.9487 107.804 40.8856C107.869 40.8225 107.95 40.7767 108.038 40.7524C108.133 40.732 108.233 40.7448 108.32 40.7888C108.405 40.8378 108.472 40.9125 108.511 41.002C108.57 41.1801 108.583 41.37 108.55 41.5546C108.518 41.7392 108.439 41.9129 108.323 42.0602C108.108 42.3816 107.827 42.653 107.497 42.8558C107.146 43.0801 106.747 43.2177 106.331 43.2571C105.916 43.2964 105.498 43.2364 105.111 43.082C104.901 42.9998 104.713 42.87 104.563 42.703C104.412 42.536 104.303 42.3364 104.243 42.12C104.201 41.8891 104.236 41.6508 104.343 41.4414C104.393 41.3321 104.465 41.2344 104.555 41.1543C104.645 41.0742 104.751 41.0135 104.865 40.976C104.982 40.9416 105.106 40.9359 105.226 40.9595C105.345 40.983 105.457 41.0351 105.552 41.1112C105.738 41.2561 105.871 41.4582 105.929 41.6858C105.986 41.9104 105.965 42.1473 105.871 42.3592C105.783 42.5627 105.651 42.7446 105.485 42.8922C105.164 43.1616 104.776 43.34 104.362 43.4086C103.948 43.4772 103.524 43.4336 103.133 43.2822C102.765 43.1528 102.438 42.9317 102.181 42.64C101.946 42.3608 101.777 42.0331 101.685 41.6806C101.596 41.3535 101.579 41.0112 101.635 40.677C101.659 40.5179 101.706 40.363 101.774 40.2168C101.835 40.0649 101.954 39.9433 102.106 39.8788C102.181 39.852 102.263 39.8466 102.341 39.8631C102.419 39.8796 102.492 39.9175 102.55 39.9724C102.653 40.0723 102.73 40.1966 102.772 40.3338C102.836 40.5811 102.836 40.8405 102.772 41.0878C102.682 41.4858 102.474 41.848 102.176 42.1278C101.991 42.302 101.772 42.4373 101.533 42.5256C101.449 42.5591 101.362 42.581 101.272 42.5906C101.272 42.5906 101.361 42.5672 101.518 42.4996C101.748 42.403 101.957 42.2636 102.134 42.0888C102.419 41.8153 102.617 41.4645 102.704 41.08C102.758 40.8456 102.752 40.6015 102.686 40.3702C102.648 40.2477 102.58 40.1367 102.487 40.0478C102.441 40.0049 102.384 39.9755 102.322 39.9627C102.26 39.9498 102.196 39.9541 102.137 39.975C102.011 40.034 101.912 40.138 101.86 40.2662C101.799 40.4047 101.758 40.5508 101.737 40.7004C101.687 41.0203 101.705 41.3471 101.789 41.6598C101.88 41.9948 102.044 42.3057 102.27 42.5698C102.513 42.8451 102.822 43.0545 103.169 43.1782C103.538 43.319 103.938 43.3591 104.328 43.2941C104.717 43.2292 105.083 43.0617 105.385 42.809C105.537 42.6737 105.658 42.5068 105.738 42.3202C105.82 42.1355 105.839 41.9288 105.79 41.7326C105.739 41.5338 105.623 41.3574 105.461 41.2308C105.383 41.1678 105.291 41.1246 105.193 41.1046C105.095 41.0847 104.993 41.0887 104.897 41.1164C104.708 41.1962 104.553 41.3384 104.458 41.5189C104.362 41.6995 104.333 41.9072 104.374 42.107C104.428 42.302 104.527 42.4819 104.663 42.6322C104.799 42.7825 104.969 42.8991 105.158 42.9728C105.702 43.1793 106.3 43.1964 106.855 43.0212C107.41 42.846 107.888 42.4889 108.213 42.0082C108.316 41.8681 108.39 41.709 108.43 41.5402C108.468 41.3814 108.458 41.2149 108.401 41.0618C108.375 40.9942 108.326 40.938 108.262 40.9032C108.199 40.8685 108.125 40.8574 108.053 40.872C107.983 40.8919 107.919 40.9286 107.867 40.9789C107.815 41.0293 107.775 41.0916 107.753 41.1606C107.728 41.3029 107.737 41.4489 107.778 41.5873C107.819 41.7258 107.892 41.8529 107.991 41.9588C108.263 42.3251 108.649 42.5923 109.089 42.7191C109.529 42.8459 109.999 42.8254 110.426 42.6608C110.745 42.5349 111.033 42.3425 111.27 42.0966Z" fill="#263238"/>
<path d="M112.797 47.0157C112.553 47.2033 112.278 47.3468 111.984 47.4396C111.641 47.5561 111.282 47.6184 110.92 47.6241C110.439 47.6373 109.961 47.5487 109.517 47.3641C109.249 47.2668 109.007 47.1083 108.811 46.9013C108.759 46.8401 108.719 46.7689 108.696 46.692C108.672 46.6151 108.664 46.5341 108.673 46.4541C108.683 46.3685 108.715 46.2871 108.767 46.2181C108.819 46.1491 108.888 46.0951 108.968 46.0615C109.058 46.0373 109.153 46.045 109.238 46.0835C109.322 46.122 109.391 46.1887 109.431 46.2721C109.473 46.3525 109.495 46.4416 109.495 46.5321C109.495 46.6227 109.473 46.7118 109.431 46.7921C109.355 46.9492 109.246 47.0883 109.112 47.2003C108.984 47.3225 108.841 47.4282 108.686 47.5149C108.361 47.6994 108.001 47.8156 107.629 47.8563C107.256 47.897 106.88 47.8614 106.522 47.7515C106.14 47.6385 105.793 47.433 105.511 47.1535C105.362 47.0056 105.245 46.8286 105.168 46.6335C105.084 46.4337 105.075 46.2099 105.145 46.0043C105.177 45.8993 105.232 45.8026 105.306 45.7212C105.38 45.6399 105.472 45.5758 105.573 45.5337C105.678 45.4966 105.791 45.4875 105.9 45.5076C106.009 45.5277 106.111 45.5762 106.195 45.6482C106.361 45.782 106.469 45.9734 106.499 46.1837C106.522 46.385 106.494 46.5889 106.418 46.7765C106.267 47.1207 106.035 47.4233 105.741 47.6584C105.447 47.8934 105.1 48.0539 104.729 48.126C104.396 48.1883 104.052 48.1781 103.723 48.096C103.394 48.0138 103.086 47.8617 102.822 47.6501C102.575 47.4636 102.392 47.2057 102.299 46.9117C102.254 46.7698 102.242 46.6197 102.262 46.4723C102.288 46.3262 102.368 46.1952 102.487 46.1057C102.601 46.0314 102.735 45.9955 102.871 46.0034C103.006 46.0114 103.136 46.0628 103.24 46.1499C103.335 46.2203 103.412 46.3127 103.464 46.4191C103.516 46.5255 103.541 46.6428 103.538 46.761C103.527 46.944 103.476 47.1225 103.389 47.2841C103.302 47.4457 103.18 47.5866 103.033 47.6969C102.854 47.8373 102.66 47.9568 102.453 48.0532L102.291 48.126L102.236 48.1467C102.301 48.1032 102.37 48.0641 102.44 48.0297C102.638 47.9238 102.825 47.7993 102.999 47.6579C103.136 47.5501 103.249 47.4142 103.329 47.2595C103.408 47.1047 103.454 46.9347 103.462 46.761C103.465 46.6562 103.443 46.5524 103.397 46.4579C103.352 46.3634 103.284 46.281 103.201 46.2175C103.111 46.1443 102.999 46.1015 102.883 46.0954C102.767 46.0894 102.652 46.1203 102.555 46.1837C102.456 46.2585 102.391 46.3685 102.372 46.4905C102.355 46.6218 102.369 46.7551 102.411 46.8805C102.503 47.1547 102.68 47.393 102.916 47.5617C103.179 47.7729 103.489 47.9207 103.819 47.9936C104.15 48.0665 104.493 48.0625 104.821 47.982C105.15 47.9015 105.456 47.7467 105.714 47.5295C105.973 47.3123 106.178 47.0386 106.313 46.7297C106.381 46.5653 106.406 46.3864 106.386 46.2097C106.36 46.0321 106.267 45.8711 106.125 45.7599C106.059 45.7031 105.98 45.6647 105.894 45.6487C105.809 45.6328 105.721 45.6397 105.639 45.6689C105.556 45.7036 105.481 45.756 105.421 45.8225C105.36 45.889 105.315 45.968 105.289 46.0537C105.231 46.2299 105.239 46.4207 105.309 46.5919C105.382 46.7653 105.489 46.9226 105.623 47.0547C105.89 47.3182 106.217 47.5128 106.577 47.6215C106.918 47.7266 107.276 47.7613 107.631 47.7232C107.986 47.6852 108.329 47.5754 108.639 47.4005C108.785 47.32 108.92 47.2212 109.041 47.1067C109.165 47.0057 109.267 46.88 109.339 46.7375C109.373 46.6733 109.39 46.6019 109.39 46.5296C109.39 46.4572 109.373 46.3858 109.339 46.3215C109.313 46.2615 109.267 46.2125 109.208 46.1835C109.149 46.1544 109.082 46.1471 109.018 46.1629C108.957 46.1891 108.904 46.2307 108.865 46.2837C108.825 46.3367 108.801 46.399 108.793 46.4646C108.786 46.5302 108.793 46.5966 108.812 46.6597C108.832 46.7227 108.865 46.7811 108.908 46.8311C109.092 47.0246 109.317 47.1747 109.567 47.2705C109.997 47.4587 110.463 47.5536 110.933 47.5487C111.288 47.5496 111.641 47.4961 111.979 47.3901C112.262 47.2908 112.536 47.1654 112.797 47.0157Z" fill="#263238"/>
<path d="M49.5615 10.8521L17.1626 14.5304L20.8597 46.764L53.2586 43.0858L49.5615 10.8521Z" fill="white"/>
<path d="M53.2571 43.0898C53.2571 43.0898 53.2571 43.0378 53.2362 42.9364C53.2153 42.835 53.2048 42.6764 53.1813 42.4918C53.1343 42.0966 53.0663 41.5168 52.9775 40.7602C52.7998 39.247 52.541 37.0292 52.2092 34.2082L49.5044 10.8628L49.5697 10.9148L17.1644 14.599L17.2218 14.5236C18.5729 26.3276 19.8352 37.4036 20.9093 46.7636L20.8439 46.7116L44.3169 44.0778L50.9077 43.3472L52.6482 43.1548L53.0951 43.108L53.2493 43.095L53.1029 43.1132L52.6613 43.1678L50.9338 43.3706L44.3613 44.1324L20.8648 46.8234H20.8073V46.7636C19.7306 37.4036 18.4553 26.3354 17.1042 14.5236V14.456H17.1722L49.5775 10.79H49.6376V10.8498C50.7352 20.5244 51.6499 28.5896 52.2902 34.2498L53.0245 40.794C53.1081 41.5454 53.1709 42.1226 53.2153 42.5152L53.2623 42.9546C53.2545 43.0404 53.2571 43.0898 53.2571 43.0898Z" fill="#263238"/>
<path d="M48.0802 12.7056L19.0282 16.0038L22.3434 44.9077L51.3954 41.6094L48.0802 12.7056Z" fill="#EBEBEB"/>
<path d="M51.3939 41.613C51.3939 41.613 51.3939 41.5662 51.3756 41.4778C51.3573 41.3894 51.3469 41.2516 51.3259 41.0774C51.2841 40.7238 51.2214 40.2038 51.1404 39.5174C50.981 38.1576 50.7484 36.1712 50.4505 33.6414C49.8651 28.5844 49.0262 21.3668 48.0201 12.7088L48.0854 12.7608L19.0382 16.0732L19.0983 16.0004C20.3083 26.585 21.4503 36.504 22.4016 44.9046L22.3362 44.8526L43.3814 42.4944L49.2902 41.8392L50.8582 41.6676L51.2606 41.626H51.3991L51.2685 41.6442L50.8712 41.6936L49.3241 41.8756L43.4311 42.5594L22.3467 44.98H22.2892V44.9228C21.3249 36.5222 20.1855 26.6032 18.9677 16.0186V15.9536H19.0356L48.0854 12.6516H48.1455V12.7088C49.1281 21.385 49.9461 28.6182 50.521 33.683L51.177 39.5512C51.2528 40.2246 51.3103 40.742 51.3469 41.093C51.3651 41.2672 51.3808 41.3972 51.3887 41.4882C51.3965 41.5792 51.3939 41.613 51.3939 41.613Z" fill="#263238"/>
<path d="M39.0275 33.7376C39.0145 33.7376 40.1304 39.832 40.1304 39.832L39.0301 39.9568L37.1302 34.06L39.0275 33.7376Z" fill="#455A64"/>
<path d="M45.4459 32.9004C45.4328 32.9004 46.5461 38.9974 46.5461 38.9974L45.4459 39.1222L43.5486 33.215L45.4459 32.9004Z" fill="#455A64"/>
<path d="M26.8546 34.9024L26.8572 41.34L27.9496 41.2152L28.7101 34.9076L26.8546 34.9024Z" fill="#455A64"/>
<path d="M46.5174 20.1214C46.7264 22.3496 47.5183 29.445 45.8588 32.9628L38.3376 33.9144L26.1752 35.2924C26.1752 35.2924 22.9608 30.797 22.7517 26.312L28.7624 23.7536C28.7624 23.7536 29.6457 21.1536 30.6858 21.0834C31.4201 21.0314 42.4118 19.734 45.6027 19.3882C45.7115 19.3745 45.8219 19.3828 45.9275 19.4125C46.033 19.4422 46.1314 19.4928 46.2167 19.5613C46.3021 19.6298 46.3728 19.7146 46.4244 19.8109C46.4761 19.9071 46.5077 20.0127 46.5174 20.1214Z" fill="#40C5A6"/>
<path d="M44.6671 19.5C44.6671 19.5 44.6671 19.5156 44.6671 19.5442C44.6671 19.5728 44.6384 19.617 44.6149 19.6742C44.5652 19.7834 44.4868 19.9342 44.377 20.1474C44.1601 20.5556 43.8256 21.1328 43.3997 21.8374C43.2904 22.0245 43.1617 22.1997 43.0155 22.36C42.8492 22.5361 42.6493 22.6775 42.4275 22.776C41.9754 22.9606 41.4998 23.1582 40.998 23.3766C40.4962 23.595 39.9736 23.8264 39.4431 24.089C39.1817 24.219 38.9204 24.349 38.6591 24.5154C38.5284 24.5934 38.3977 24.6766 38.2775 24.7754C38.1573 24.8561 38.0658 24.9726 38.0162 25.1082C37.9183 25.3976 37.8389 25.6928 37.7784 25.9922C37.7157 26.2912 37.6555 26.585 37.6033 26.8762C37.4935 27.456 37.3942 28.0176 37.3054 28.5558C37.1329 29.6244 36.9787 30.5916 36.848 31.4158L36.5475 33.3398C36.5135 33.5556 36.4848 33.7298 36.4639 33.8598C36.4571 33.9216 36.444 33.9826 36.4247 34.0418C36.4188 33.9804 36.4188 33.9186 36.4247 33.8572C36.4403 33.722 36.4613 33.5478 36.4848 33.3372C36.5423 32.8822 36.6285 32.2218 36.7461 31.4054C36.8637 30.589 37.0074 29.6218 37.1773 28.5454C37.2635 28.0072 37.3576 27.4456 37.4648 26.8632C37.517 26.5694 37.5798 26.2756 37.6425 25.974C37.7027 25.6655 37.7839 25.3615 37.8855 25.064C37.9453 24.9068 38.0532 24.7722 38.1939 24.6792C38.3219 24.5856 38.4552 24.4998 38.5859 24.4192C38.8472 24.2632 39.1216 24.1228 39.3908 23.9928C39.9135 23.7328 40.4361 23.4962 40.9588 23.2804C41.4815 23.0646 41.944 22.8722 42.3935 22.6928C42.6025 22.6032 42.791 22.4723 42.9475 22.308C43.0891 22.1486 43.2127 21.9742 43.316 21.788C43.7525 21.0886 44.1 20.5192 44.33 20.1214C44.4476 19.9238 44.5338 19.7678 44.5913 19.6612C44.6127 19.6057 44.638 19.5519 44.6671 19.5Z" fill="#263238"/>
<path d="M38.335 33.9144C38.3346 33.8534 38.3389 33.7926 38.3481 33.7324C38.3637 33.5998 38.382 33.4282 38.4082 33.2124C38.4683 32.747 38.5545 32.1022 38.6695 31.3118C38.7845 30.5214 38.9151 29.5542 39.0772 28.496C39.1556 27.976 39.2444 27.4118 39.3385 26.8372C39.3855 26.5512 39.4378 26.2574 39.4953 25.961C39.5267 25.8128 39.5554 25.6672 39.5998 25.5112L39.6364 25.3942C39.6542 25.3524 39.68 25.3144 39.7122 25.2824C39.7693 25.224 39.8324 25.1717 39.9004 25.1264C40.4173 24.8075 40.9571 24.5268 41.5154 24.2866C42.0381 24.0448 42.5608 23.8212 43.0599 23.6106C43.559 23.4 44.0242 23.1998 44.4554 22.997C44.8866 22.7942 45.1166 22.4172 45.3152 22.074C45.6086 21.5071 45.8644 20.9217 46.0809 20.3216C46.1567 20.1214 46.2142 19.9576 46.2612 19.8328C46.2806 19.7752 46.3033 19.7188 46.3292 19.6638C46.3231 19.7251 46.3091 19.7854 46.2874 19.8432C46.256 19.9576 46.2011 20.124 46.1306 20.3398C45.9314 20.9494 45.6877 21.5438 45.4014 22.1182C45.3044 22.3099 45.1917 22.4934 45.0643 22.6668C44.9947 22.7641 44.912 22.8516 44.8187 22.9268C44.7208 22.9974 44.6157 23.0576 44.5051 23.1062C44.0713 23.3142 43.6035 23.5144 43.1096 23.7328C42.6156 23.9512 42.093 24.18 41.552 24.4114C41.01 24.65 40.486 24.9272 39.984 25.2408C39.9239 25.2812 39.8679 25.3273 39.8167 25.3786C39.7933 25.399 39.7754 25.4249 39.7645 25.454L39.7331 25.5554C39.6939 25.6932 39.6652 25.8466 39.6338 25.9922C39.5763 26.286 39.5241 26.5772 39.4744 26.8632C39.3803 27.4386 39.2932 27.9907 39.2131 28.5194C39.0484 29.5594 38.9021 30.524 38.7766 31.3274C38.6512 32.1308 38.5545 32.7574 38.4839 33.2202C38.4474 33.4334 38.4212 33.605 38.3977 33.7402C38.3829 33.8002 38.3618 33.8586 38.335 33.9144Z" fill="#263238"/>
<path d="M28.3077 35.0506C28.2764 35.0049 28.2502 34.9561 28.2293 34.905L28.0202 34.4708C27.8451 34.0938 27.5942 33.5452 27.2937 32.8666C26.9932 32.188 26.6273 31.3794 26.2928 30.4434C26.2504 30.3088 26.2597 30.1633 26.3189 30.0352C26.386 29.9116 26.4853 29.8083 26.6064 29.7362C26.8432 29.5886 27.112 29.4995 27.3904 29.4762L29.0446 29.289L34.8515 28.6494L36.6129 28.47L37.0911 28.4284C37.1476 28.4238 37.2044 28.4238 37.261 28.4284C37.2074 28.4452 37.1522 28.4565 37.0963 28.4622L36.6181 28.5298L34.8619 28.7508L29.0603 29.4268L27.4061 29.614C27.1514 29.6315 26.9044 29.7081 26.6848 29.8376C26.5843 29.8963 26.5013 29.9807 26.4444 30.082C26.3969 30.1821 26.3895 30.2964 26.4235 30.4018C26.7449 31.3196 27.1082 32.1334 27.393 32.8198C27.6779 33.5062 27.9157 34.0444 28.0803 34.4422L28.2633 34.8842C28.2852 34.9375 28.3001 34.9934 28.3077 35.0506Z" fill="#263238"/>
<path d="M27.3721 32.9758C27.3721 32.9394 29.4627 32.6716 32.0343 32.3804C34.6058 32.0892 36.7095 31.8786 36.7121 31.9176C36.7147 31.9566 34.6215 32.2218 32.0499 32.5156C29.4784 32.8094 27.3773 33.02 27.3721 32.9758Z" fill="#263238"/>
<path d="M22.7517 26.312C22.815 26.2551 22.8899 26.2125 22.9712 26.1872C23.1862 26.0995 23.4138 26.046 23.6455 26.0286C23.995 25.9909 24.3477 26.0627 24.6542 26.234C24.8337 26.3474 24.9826 26.5027 25.088 26.6864C25.2015 26.8723 25.2977 27.0681 25.3755 27.2714C25.6656 28.106 25.8982 28.8522 26.0837 29.4008C26.1936 29.6927 26.281 29.9926 26.345 30.2978C26.2086 30.019 26.0933 29.7305 26.0001 29.4346C25.7989 28.899 25.5375 28.1346 25.2527 27.3208C25.1834 27.125 25.0959 26.9361 24.9913 26.7566C24.9009 26.5894 24.7719 26.446 24.615 26.338C24.3318 26.175 24.0057 26.1007 23.6794 26.1248C23.3631 26.145 23.051 26.208 22.7517 26.312Z" fill="#263238"/>
<path d="M32.0525 29.1018C32.0112 29.019 31.9796 28.9318 31.9585 28.8418C31.9036 28.6702 31.8304 28.4232 31.7442 28.1164C31.5691 27.5054 31.3391 26.6552 31.0908 25.7166C30.9891 25.2777 30.8227 24.8563 30.5969 24.466C30.4062 24.1532 30.1259 23.9042 29.792 23.751C29.5676 23.6476 29.3193 23.6063 29.0733 23.6314C28.9009 23.6522 28.812 23.6938 28.812 23.6834C28.812 23.673 28.8303 23.6652 28.8747 23.6444C28.9374 23.6133 29.0043 23.5914 29.0733 23.5794C29.3306 23.5313 29.5965 23.5612 29.8364 23.6652C30.196 23.8126 30.4996 24.0692 30.7041 24.3984C30.9458 24.7961 31.1222 25.2297 31.2267 25.6828C31.4881 26.6214 31.6919 27.4742 31.8435 28.093C31.9167 28.4024 31.9768 28.6546 32.0133 28.8288C32.04 28.9173 32.0533 29.0093 32.0525 29.1018Z" fill="#263238"/>
<path d="M34.4412 24.0552C34.3079 24.0473 34.1754 24.081 34.0622 24.1514C34.0049 24.1848 33.9599 24.2357 33.934 24.2966C33.9081 24.3576 33.9026 24.4252 33.9185 24.4894C33.9298 24.5702 33.9665 24.6453 34.0233 24.7041C34.0801 24.763 34.1541 24.8024 34.2347 24.817C34.3135 24.8297 34.3943 24.8152 34.4637 24.7759C34.5331 24.7367 34.5869 24.675 34.6163 24.6012C34.6462 24.541 34.6598 24.474 34.6557 24.407C34.6515 24.3399 34.6299 24.2751 34.5927 24.219C34.5039 24.1201 34.3859 24.0519 34.2556 24.024C34.2556 24.024 34.2948 24.0006 34.3732 24.0058C34.4875 24.0182 34.593 24.0729 34.6685 24.1592C34.7225 24.2273 34.757 24.3087 34.7685 24.3947C34.78 24.4807 34.768 24.5682 34.7339 24.648C34.6951 24.7453 34.6277 24.8286 34.5405 24.8872C34.443 24.9473 34.327 24.9704 34.2138 24.9522C34.1073 24.9304 34.0103 24.8761 33.9363 24.7969C33.8623 24.7176 33.815 24.6174 33.8009 24.5102C33.7818 24.4157 33.7986 24.3175 33.8479 24.2346C33.8886 24.1657 33.9473 24.1091 34.0178 24.0708C34.115 24.0123 34.2295 23.9893 34.3419 24.0058C34.4098 24.0214 34.4464 24.05 34.4412 24.0552Z" fill="#263238"/>
<path d="M40.1879 23.673C40.1643 23.673 40.1042 23.5248 39.9265 23.491H39.9135C39.8189 23.4631 39.7173 23.4715 39.6286 23.5144C39.5645 23.5363 39.5082 23.5761 39.4665 23.6292C39.4247 23.6823 39.3993 23.7463 39.3934 23.8134C39.4143 23.9486 39.4431 24.0292 39.4274 24.0396C39.4117 24.05 39.3438 23.9772 39.2967 23.8394C39.2882 23.7464 39.3103 23.6532 39.3599 23.5739C39.4094 23.4946 39.4836 23.4335 39.5711 23.4C39.6319 23.3743 39.6972 23.3611 39.7632 23.3611C39.8292 23.3611 39.8945 23.3743 39.9553 23.4C40.0055 23.4124 40.0522 23.436 40.092 23.4688C40.1318 23.5017 40.1637 23.543 40.1853 23.5898C40.2035 23.6288 40.1983 23.66 40.1879 23.673Z" fill="#263238"/>
<g opacity="0.3">
<path d="M37.2766 28.4232C37.3057 27.2495 37.5273 26.0885 37.9325 24.986C37.5353 25.2668 37.3498 25.7478 37.1485 26.1898C36.9473 26.6318 36.6938 27.0998 36.2391 27.2688C35.7844 27.4378 35.3271 27.2688 34.8671 27.2922C34.2896 27.3078 33.7329 27.5808 33.158 27.5314C32.6484 27.4642 32.1824 27.2102 31.8513 26.819C31.525 26.4308 31.2485 26.0037 31.0281 25.5476C31.1771 26.26 31.3156 27.0504 30.9445 27.6796C30.5237 28.3972 29.6117 28.6312 28.7885 28.7794C27.9653 28.9276 27.0559 29.1148 26.5724 29.7908C26.9143 29.6562 27.273 29.5688 27.6386 29.5308L37.2766 28.4232Z" fill="black"/>
</g>
<path d="M24.8606 12.0965L23.3612 10.4204L14.4712 18.2924L15.9706 19.9685L24.8606 12.0965Z" fill="#E0E0E0"/>
<path d="M98.8702 84.3024L105.119 77.3968L110.04 77.012L110.787 82.3082L106.807 84.0788L102.461 88.6314L99.8241 89.2294L98.8702 84.3024Z" fill="#EFBE9D"/>
<path d="M110.455 49.837L100.659 95.8423L154.64 107.218L164.435 61.2131L110.455 49.837Z" fill="white"/>
<path d="M154.634 107.211L164.371 61.191L164.415 61.2586L110.437 49.8966L110.518 49.8446C106.961 66.5366 103.611 82.2692 100.718 95.849L100.671 95.7788L154.636 107.219L100.645 95.9062H100.587V95.8464C103.478 82.2666 106.823 66.534 110.374 49.842L110.387 49.7744H110.453L164.439 61.152H164.496L164.483 61.2092C158.554 88.92 154.736 106.743 154.634 107.211Z" fill="#263238"/>
<path d="M112.435 52.5293L103.567 94.1801L152.662 104.527L161.53 62.8758L112.435 52.5293Z" fill="#EBEBEB"/>
<path d="M152.655 104.52C152.655 104.52 152.708 104.26 152.812 103.753C152.917 103.246 153.073 102.5 153.28 101.527C153.69 99.5774 154.294 96.7226 155.062 93.0826C156.604 85.8026 158.807 75.4026 161.465 62.8576L161.509 62.9252L112.418 52.5928L112.499 52.5408C109.279 67.6468 106.245 81.887 103.626 94.1902L103.579 94.1174L139.076 101.629L149.096 103.756L151.746 104.32L152.428 104.468L152.66 104.52L152.433 104.476L151.756 104.338L149.114 103.787L139.102 101.694L103.561 94.2344H103.504V94.1746C106.117 81.8714 109.151 67.6312 112.363 52.5226L112.376 52.455L112.444 52.4706L161.53 62.8238H161.585V62.8784C158.901 75.4286 156.675 85.8442 155.117 93.1242C154.333 96.7642 153.724 99.6086 153.309 101.553C153.1 102.521 152.937 103.262 152.83 103.763C152.723 104.265 152.655 104.52 152.655 104.52Z" fill="#263238"/>
<path d="M127.857 90.727L126.574 94.965L126.94 95.0404L129.188 91.0052L127.857 90.727Z" fill="#263238"/>
<path d="M143.872 94.0992L143.318 98.4906L142.952 98.4152L142.542 93.821L143.872 94.0992Z" fill="#263238"/>
<path d="M147.188 88.0934L126.707 83.7771L125.339 90.2021L145.82 94.5184L147.188 88.0934Z" fill="#263238"/>
<path d="M136.136 89.0006V88.946C136.136 88.907 136.152 88.8576 136.163 88.7978C136.191 88.6574 136.228 88.4702 136.272 88.2284C136.374 87.7292 136.518 87.0168 136.696 86.125L136.73 86.177L127.008 84.149L127.086 84.097V84.1152V84.1386V84.1828L127.066 84.2764L127.026 84.461L126.948 84.8276C126.896 85.072 126.846 85.3138 126.794 85.553C126.692 86.0314 126.593 86.502 126.493 86.957L126.444 86.879L133.377 88.3714L135.418 88.8212L135.969 88.946L136.116 88.9798L136.165 88.9954L135.982 88.9668L135.441 88.8602L133.408 88.452L126.415 87.009L126.349 86.996L126.365 86.931L126.663 85.527C126.713 85.2878 126.765 85.046 126.817 84.8016C126.841 84.6794 126.867 84.5572 126.893 84.4324L126.932 84.2478L126.953 84.1568V84.11V84.0866V84.0684C127.115 83.9644 127 84.0398 127.037 84.0164L136.766 86.0964H136.808V86.138C136.607 87.0376 136.445 87.7526 136.332 88.257C136.278 88.491 136.236 88.6756 136.204 88.8108C136.186 88.8753 136.163 88.9387 136.136 89.0006Z" fill="#455A64"/>
<path d="M135.493 92.0192C135.493 92.0192 135.493 91.9984 135.493 91.9646L135.52 91.8164C135.548 91.676 135.585 91.4888 135.632 91.247C135.731 90.7478 135.875 90.0354 136.055 89.1436L136.087 89.1956L126.347 87.1676L126.428 87.1156V87.1338V87.1572V87.2014L126.41 87.295L126.368 87.4796C126.342 87.6018 126.315 87.7266 126.292 87.8462L126.135 88.5716C126.033 89.05 125.934 89.5206 125.835 89.9756L125.785 89.8976L132.718 91.39L134.759 91.8398L135.311 91.9646L135.457 91.9984L135.507 92.014L135.324 91.9854L134.783 91.8788L132.749 91.4706L125.756 90.0276H125.693L125.701 89.96L125.999 88.556C126.049 88.3168 126.101 88.075 126.153 87.8306L126.232 87.4614L126.271 87.2768L126.289 87.1858V87.139V87.1156V87.1L126.37 87.048L136.1 89.128H136.142V89.1696C135.94 90.0692 135.778 90.7842 135.666 91.2886C135.611 91.5226 135.569 91.7072 135.538 91.8424C135.526 91.9021 135.511 91.9611 135.493 92.0192Z" fill="#455A64"/>
<path d="M146.195 91.1196V91.065C146.195 91.026 146.211 90.9766 146.221 90.9168C146.25 90.7764 146.287 90.5892 146.334 90.3474C146.433 89.8482 146.577 89.1384 146.757 88.244L146.788 88.296L137.048 86.268L137.129 86.216V86.2342V86.2576V86.3044L137.111 86.3954L137.069 86.58C137.043 86.7048 137.017 86.84 136.994 86.9492L136.837 87.6746C136.734 88.153 136.634 88.6201 136.536 89.076L136.487 88.998L143.42 90.4904L145.461 90.9402L146.012 91.065L146.159 91.0988L146.208 91.1144C146.146 91.1109 146.085 91.1013 146.025 91.0858L145.484 90.9792L143.451 90.571L136.458 89.128L136.395 89.115V89.05L136.693 87.646C136.743 87.4068 136.795 87.165 136.847 86.9206L136.926 86.554L136.965 86.3668L136.983 86.2758V86.229V86.2056V86.1874L137.064 86.1354L146.794 88.2154H146.835V88.257C146.634 89.1566 146.472 89.8716 146.36 90.376C146.305 90.61 146.263 90.7946 146.232 90.9298C146.224 90.9938 146.211 91.0572 146.195 91.1196Z" fill="#455A64"/>
<path d="M145.563 94.1382V94.0836C145.563 94.0446 145.578 93.9952 145.589 93.9354C145.618 93.795 145.654 93.6078 145.701 93.366C145.8 92.8668 145.944 92.157 146.125 91.2626L146.156 91.3146L136.416 89.2866L136.497 89.2346V89.2528V89.2762V89.323L136.479 89.414L136.44 89.5986L136.361 89.9678L136.204 90.6906L135.906 92.0946L135.854 92.0166L142.787 93.509L144.831 93.9588L145.382 94.0836L145.526 94.1174L145.576 94.133C145.514 94.1295 145.453 94.1199 145.393 94.1044L144.852 93.9978L142.795 93.6L135.804 92.157L135.739 92.144L135.752 92.079L136.05 90.675C136.1 90.4358 136.152 90.194 136.204 89.9496L136.283 89.583L136.322 89.3958L136.34 89.3048V89.258V89.2346V89.2164L136.421 89.1644L146.151 91.2444H146.195V91.286C145.994 92.1856 145.832 92.9006 145.719 93.405C145.665 93.639 145.623 93.8236 145.591 93.9588C145.586 94.0191 145.576 94.079 145.563 94.1382Z" fill="#455A64"/>
<path d="M127.008 84.0814C126.979 84.1074 126.89 84.0606 126.809 83.9748C126.728 83.889 126.684 83.798 126.71 83.772C126.736 83.746 126.825 83.7954 126.909 83.8812C126.992 83.967 127.037 84.058 127.008 84.0814Z" fill="#455A64"/>
<path d="M125.727 89.96C125.746 89.9912 125.673 90.0744 125.56 90.142C125.448 90.2096 125.343 90.2408 125.325 90.2096C125.307 90.1784 125.377 90.0952 125.49 90.0276C125.602 89.96 125.701 89.9236 125.727 89.96Z" fill="#455A64"/>
<path d="M145.824 94.5126C145.824 94.549 141.219 93.6104 135.554 92.417C129.888 91.2236 125.304 90.2278 125.312 90.1888C125.32 90.1498 129.917 91.091 135.582 92.2844C141.248 93.4778 145.824 94.4762 145.824 94.5126Z" fill="#455A64"/>
<path d="M131.226 89.622C131.202 89.622 131.226 89.5024 131.121 89.3958C131.092 89.3678 131.057 89.3469 131.019 89.3347C130.98 89.3225 130.939 89.3194 130.899 89.3256C130.853 89.3359 130.809 89.3589 130.775 89.3919C130.74 89.4249 130.716 89.4667 130.703 89.5128C130.692 89.5613 130.695 89.6122 130.713 89.6587C130.731 89.7052 130.764 89.745 130.805 89.7728C130.839 89.7948 130.878 89.8087 130.918 89.8132C130.959 89.8177 131 89.8128 131.038 89.7988C131.179 89.7442 131.205 89.6272 131.226 89.635C131.247 89.6428 131.239 89.6662 131.226 89.7156C131.215 89.7522 131.196 89.7862 131.171 89.8157C131.147 89.8451 131.116 89.8694 131.082 89.8872C131.03 89.9166 130.972 89.9321 130.912 89.9321C130.853 89.9321 130.794 89.9166 130.742 89.8872C130.677 89.8497 130.625 89.7924 130.594 89.7237C130.563 89.655 130.555 89.5783 130.571 89.5047C130.586 89.431 130.625 89.3642 130.681 89.3138C130.738 89.2635 130.808 89.2321 130.884 89.2242C130.943 89.2171 131.003 89.2254 131.058 89.2481C131.113 89.2709 131.161 89.3075 131.197 89.3542C131.246 89.4153 131.268 89.4927 131.26 89.57C131.249 89.6012 131.234 89.6246 131.226 89.622Z" fill="#455A64"/>
<path d="M131.866 86.6034C131.845 86.6034 131.866 86.4838 131.764 86.3772C131.735 86.3488 131.699 86.3277 131.66 86.3155C131.621 86.3033 131.58 86.3004 131.54 86.307C131.493 86.3177 131.451 86.3409 131.417 86.3738C131.383 86.4068 131.358 86.4484 131.346 86.4942C131.337 86.5408 131.342 86.5889 131.36 86.6328C131.378 86.6766 131.409 86.7143 131.448 86.7412C131.482 86.7632 131.521 86.777 131.561 86.7815C131.602 86.7861 131.643 86.7811 131.681 86.7672C131.822 86.7126 131.848 86.5956 131.866 86.6034C131.884 86.6112 131.882 86.6346 131.866 86.684C131.855 86.7206 131.836 86.7546 131.812 86.784C131.787 86.8135 131.757 86.8378 131.722 86.8556C131.671 86.885 131.612 86.9005 131.553 86.9005C131.493 86.9005 131.434 86.885 131.383 86.8556C131.317 86.8181 131.265 86.7608 131.234 86.6921C131.204 86.6234 131.195 86.5467 131.211 86.4731C131.227 86.3994 131.265 86.3326 131.322 86.2822C131.378 86.2318 131.449 86.2005 131.524 86.1926C131.583 86.1855 131.643 86.1937 131.698 86.2165C131.753 86.2393 131.801 86.2758 131.837 86.3226C131.885 86.3843 131.907 86.4612 131.9 86.5384C131.892 86.58 131.877 86.606 131.866 86.6034Z" fill="#455A64"/>
<path d="M141.405 91.78C141.384 91.78 141.405 91.6604 141.303 91.5538C141.274 91.5254 141.238 91.5042 141.199 91.492C141.16 91.4799 141.119 91.4769 141.078 91.4836C141.031 91.4926 140.988 91.5151 140.953 91.5484C140.919 91.5817 140.895 91.6242 140.885 91.6708C140.872 91.7192 140.874 91.7707 140.893 91.8175C140.911 91.8644 140.944 91.9041 140.987 91.9308C141.021 91.9528 141.06 91.9666 141.1 91.9711C141.14 91.9756 141.181 91.9707 141.219 91.9568C141.358 91.9022 141.384 91.7852 141.405 91.793C141.426 91.8008 141.405 91.8242 141.405 91.8736C141.38 91.9465 141.329 92.0076 141.261 92.0452C141.209 92.0738 141.15 92.0889 141.09 92.0889C141.03 92.0889 140.971 92.0738 140.919 92.0452C140.855 92.0066 140.804 91.9492 140.775 91.8809C140.745 91.8125 140.737 91.7367 140.753 91.6638C140.768 91.5909 140.806 91.5246 140.861 91.4742C140.916 91.4237 140.986 91.3916 141.06 91.3822C141.119 91.3751 141.179 91.3833 141.234 91.4061C141.289 91.4289 141.337 91.4654 141.374 91.5122C141.398 91.5421 141.416 91.5767 141.427 91.6137C141.438 91.6508 141.441 91.6897 141.436 91.728C141.431 91.7462 141.413 91.78 141.405 91.78Z" fill="#455A64"/>
<path d="M142.048 88.7484C142.024 88.7484 142.048 88.6288 141.943 88.5222C141.914 88.4942 141.879 88.4733 141.84 88.4611C141.802 88.4489 141.761 88.4458 141.721 88.452C141.674 88.4607 141.63 88.4831 141.596 88.5165C141.561 88.5498 141.538 88.5925 141.528 88.6392C141.517 88.6858 141.522 88.7344 141.54 88.7786C141.558 88.8227 141.589 88.8603 141.63 88.8862C141.664 88.9082 141.702 88.9221 141.743 88.9266C141.783 88.9311 141.824 88.9262 141.862 88.9122C142.001 88.8576 142.027 88.7406 142.048 88.7484C142.069 88.7562 142.061 88.7796 142.048 88.829C142.023 88.9026 141.97 88.9639 141.901 89.0006C141.85 89.03 141.791 89.0455 141.732 89.0455C141.672 89.0455 141.613 89.03 141.562 89.0006C141.498 88.9621 141.447 88.9047 141.417 88.8363C141.388 88.768 141.38 88.6921 141.395 88.6192C141.411 88.5463 141.449 88.4801 141.504 88.4296C141.559 88.3792 141.628 88.347 141.703 88.3376C141.762 88.3305 141.822 88.3388 141.877 88.3615C141.932 88.3843 141.98 88.4209 142.016 88.4676C142.065 88.5287 142.087 88.6061 142.079 88.6834C142.074 88.7276 142.056 88.751 142.048 88.7484Z" fill="#455A64"/>
<path d="M147.201 88.0724C147.201 88.1114 147.123 88.1608 147.016 88.2076C146.909 88.2544 146.814 88.283 146.794 88.2518C146.773 88.2206 146.841 88.1348 146.961 88.0828C147.081 88.0308 147.193 88.0386 147.201 88.0724Z" fill="#455A64"/>
<path d="M145.876 94.523C145.848 94.5464 145.753 94.4762 145.667 94.367C145.581 94.2578 145.537 94.1486 145.568 94.1252C145.599 94.1018 145.691 94.1746 145.777 94.2838C145.863 94.393 145.905 94.5022 145.876 94.523Z" fill="#455A64"/>
<path d="M104.996 90.1128L104.135 94.1107L153.192 104.569L154.053 100.571L104.996 90.1128Z" fill="#E0E0E0"/>
<path d="M119.019 76.44C119.238 73.2958 118.566 70.1535 117.077 67.3712C114.6 62.7172 111.527 62.2648 111.527 62.2648C111.527 62.2648 115.211 61.6798 117.911 66.6848C119.518 69.6767 119.915 73.1667 119.019 76.44Z" fill="#455A64"/>
<path d="M121.429 60.7516C121.381 60.619 119.659 70.4392 119.659 70.4392L118.975 77.597C118.975 77.597 120.629 72.54 121.052 69.8594C121.476 67.1788 121.854 61.9606 121.429 60.7516Z" fill="#455A64"/>
<path d="M125.074 61.5212C125.074 61.5212 123.399 62.1374 121.439 69.186C119.939 74.5888 119.259 76.635 119.037 77.3032C119.002 77.3976 118.981 77.4965 118.975 77.597C118.975 77.597 121.823 72.8884 122.923 70.252C124.024 67.6156 124.115 63.505 125.074 61.5212Z" fill="#455A64"/>
<path d="M119.001 79.1388C118.956 79.3156 120.083 76.9158 123.875 74.4744C127.403 72.202 128.738 72.3632 128.738 72.3632C128.738 72.3632 125.62 72.1448 123.14 73.8868C120.95 75.4234 119.461 77.3422 119.001 79.1388Z" fill="#455A64"/>
<path d="M118.06 81.9C117.982 80.587 117.867 79.2532 117.373 78.0338C116.879 76.8144 115.951 75.7068 114.697 75.296C116.448 77.2408 117.592 79.3 118.06 81.9Z" fill="#455A64"/>
<path d="M119.105 76.9938C119.105 76.9938 119.552 72.0382 116.385 69.7996C114.621 68.5516 111.621 68.4788 111.621 68.4788C111.621 68.4788 115.154 69.6956 116.325 70.8188C117.496 71.942 119.105 76.9938 119.105 76.9938Z" fill="#455A64"/>
<path d="M116.084 91.0988C116.081 91.0789 116.081 91.0588 116.084 91.039C116.095 90.9904 116.105 90.9306 116.116 90.8596C116.15 90.6906 116.194 90.4618 116.249 90.1706C116.374 89.5648 116.549 88.7068 116.772 87.6512L118.52 79.3442C118.606 78.9386 118.692 78.5382 118.781 78.143L118.907 77.5554C118.933 77.4566 118.941 77.363 118.977 77.259C119.014 77.155 119.064 77.0796 119.1 76.999C119.252 76.6428 119.377 76.2788 119.529 75.9304C119.68 75.582 119.827 75.2492 119.968 74.919C120.253 74.2586 120.537 73.6398 120.775 73.0444C121.013 72.449 121.238 71.903 121.444 71.4012C121.651 70.8994 121.81 70.434 121.967 70.0284C122.124 69.6228 122.228 69.277 122.343 68.9884C122.458 68.6998 122.526 68.4918 122.586 68.3332L122.646 68.1616C122.652 68.1414 122.661 68.1222 122.673 68.1044C122.671 68.1248 122.667 68.145 122.659 68.1642L122.612 68.341C122.568 68.4944 122.49 68.718 122.393 69.0066C122.296 69.2952 122.176 69.6488 122.037 70.0466C121.899 70.4444 121.747 70.9254 121.538 71.4272C121.329 71.929 121.12 72.488 120.885 73.0808C120.65 73.6736 120.362 74.2976 120.101 74.9606C119.957 75.2908 119.814 75.6288 119.665 75.9746C119.516 76.3204 119.403 76.6818 119.239 77.0432C119.202 77.1342 119.152 77.2304 119.118 77.3032C119.084 77.376 119.077 77.4904 119.053 77.5814C119.011 77.7764 118.972 77.9714 118.93 78.169C118.847 78.5642 118.76 78.9646 118.669 79.3702C117.971 82.6046 117.341 85.5348 116.881 87.6668C116.649 88.7198 116.461 89.5752 116.325 90.181C116.259 90.467 116.207 90.701 116.168 90.8622L116.124 91.039C116.095 91.0806 116.087 91.1014 116.084 91.0988Z" fill="#263238"/>
<path d="M119.706 77.753C119.636 77.9593 119.549 78.1593 119.445 78.351C119.27 78.715 119.043 79.222 118.818 79.7966C118.593 80.3712 118.415 80.8964 118.295 81.2812C118.238 81.4926 118.163 81.6987 118.07 81.8974C118.09 81.6781 118.135 81.4618 118.204 81.2526C118.339 80.7421 118.503 80.2395 118.695 79.7472C118.888 79.2539 119.112 78.7728 119.364 78.3068C119.454 78.1083 119.569 77.9222 119.706 77.753Z" fill="#263238"/>
<path d="M117.861 93.1138C118.745 92.5938 119.105 91.4784 119.043 90.4592C118.98 89.44 118.58 88.4832 118.285 87.5082L115.567 86.9362C114.898 87.7162 114.14 88.4234 113.67 89.3282C113.199 90.233 113.068 91.4082 113.67 92.2298L117.861 93.1138Z" fill="#40C5A6"/>
<path d="M121.193 64.883C121.201 64.9251 121.201 64.9683 121.193 65.0104C121.193 65.1066 121.175 65.2262 121.162 65.3666C121.128 65.6786 121.073 66.1258 121 66.6666C120.851 67.7716 120.616 69.2952 120.323 70.9722C120.03 72.6492 119.733 74.1598 119.487 75.2492C119.367 75.7952 119.257 76.232 119.176 76.5336C119.139 76.6714 119.105 76.7936 119.079 76.8794C119.07 76.9206 119.056 76.9607 119.037 76.999C119.035 76.9568 119.041 76.9146 119.053 76.8742C119.071 76.778 119.097 76.661 119.126 76.5232C119.194 76.1956 119.283 75.7588 119.388 75.2232C119.61 74.1312 119.892 72.6232 120.172 70.9436C120.451 69.264 120.713 67.7482 120.885 66.6458C120.969 66.1258 121.039 65.6708 121.089 65.3458C121.112 65.2028 121.133 65.0858 121.149 64.9896C121.161 64.9529 121.176 64.9173 121.193 64.883Z" fill="#263238"/>
<path d="M118.162 68.536C118.211 68.6179 118.25 68.7051 118.28 68.796C118.347 68.965 118.436 69.2146 118.541 69.524C119.061 71.1431 119.347 72.8273 119.393 74.5264C119.393 74.8514 119.393 75.114 119.393 75.3064C119.397 75.4008 119.388 75.4952 119.367 75.5872C119.346 75.5872 119.341 75.1868 119.301 74.5472C119.204 72.8616 118.92 71.1918 118.455 69.5682C118.269 68.9234 118.141 68.5438 118.162 68.536Z" fill="#263238"/>
<path d="M116.275 70.1376C116.362 70.1831 116.441 70.2418 116.51 70.3118C116.71 70.488 116.896 70.6792 117.067 70.8838C117.32 71.1854 117.554 71.5024 117.767 71.8328C118.024 72.2442 118.231 72.685 118.381 73.1458C118.662 73.9722 118.886 74.8165 119.053 75.673C119.121 76.0006 119.165 76.2684 119.194 76.453C119.215 76.5477 119.225 76.6446 119.223 76.7416C119.184 76.6526 119.157 76.5592 119.142 76.4634C119.092 76.2528 119.032 75.9954 118.959 75.6834C118.802 75.036 118.585 74.139 118.253 73.1796C118.106 72.725 117.907 72.2888 117.66 71.8796C117.455 71.5487 117.232 71.2293 116.991 70.9228C116.785 70.6628 116.604 70.4626 116.468 70.3274C116.399 70.2695 116.334 70.2061 116.275 70.1376Z" fill="#263238"/>
<path d="M154.155 65.7908L153.156 65.5801L149.618 82.1972L150.617 82.4079L154.155 65.7908Z" fill="#263238"/>
<path d="M153.12 65.7381L132.91 61.4789L129.434 77.806L149.643 82.0652L153.12 65.7381Z" fill="white"/>
<path d="M149.953 82.5214L128.976 78.1014L132.614 61.0116L153.591 65.4316L149.953 82.5214ZM129.906 77.4982L149.349 81.5958L152.66 66.04L133.217 61.945L129.906 77.4982Z" fill="#455A64"/>
<path d="M149.9 67.349L134.977 64.204L132.516 75.7645L147.439 78.9095L149.9 67.349Z" fill="#E0E0E0"/>
<path d="M80.8697 84.1048L84.4107 95.394L96.2047 84.994L100.647 88.7666C100.647 88.7666 90.6383 104.595 85.7827 107.575C80.3966 110.882 73.9887 106.535 73.1786 103.345C72.3685 100.155 68.1035 85.852 68.1035 85.852L80.8697 84.1048Z" fill="#EFBE9D"/>
<path d="M84.6903 95.1964C84.7034 95.2198 84.3793 95.3992 83.9246 95.7736C83.659 95.9953 83.4109 96.237 83.1824 96.4964C82.6236 97.1313 82.1932 97.8676 81.915 98.6648C81.8021 98.9904 81.7147 99.3242 81.6536 99.6632C81.5491 100.243 81.5517 100.612 81.5256 100.612C81.5085 100.527 81.5024 100.439 81.5073 100.352C81.5 100.251 81.5 100.149 81.5073 100.048C81.5073 99.931 81.5203 99.788 81.5465 99.6476C81.5969 99.3008 81.6774 98.9589 81.7869 98.6258C82.0589 97.8069 82.4995 97.0533 83.0805 96.4132C83.3203 96.1533 83.5827 95.9149 83.8645 95.7008C83.9795 95.6046 84.0971 95.5344 84.1938 95.4668C84.278 95.4093 84.3652 95.3564 84.4551 95.3082C84.528 95.2605 84.6072 95.2229 84.6903 95.1964Z" fill="#E7996E"/>
<path d="M72.0052 95.3082L84.4107 91.9776C84.4107 91.9776 81.7503 84.149 79.6805 78.4914C77.8512 73.502 74.7858 71.4246 73.1916 70.2962C72.5479 69.8366 71.8002 69.5419 71.0147 69.4382C68.08 69.0482 60.0518 67.9978 56.0691 67.6676C51.1429 67.2594 40.8542 69.9582 40.8542 69.9582C40.8542 69.9582 31.833 74.9346 28.7911 76.96C28.0452 77.4508 27.4751 78.1645 27.163 78.9984C26.6011 80.5038 25.8851 83.0908 25.0279 86.437C24.4817 88.5638 22.6759 95.6046 22.6759 95.6046L33.2573 95.2796C35.3898 101.722 37.3654 107.5 37.3654 107.5L36.5083 122.933H75.7501C75.7501 122.933 72.128 99.06 72.128 98.5062C72.128 98.3034 72.0784 96.9384 72.0052 95.3082Z" fill="#40C5A6"/>
<g opacity="0.3">
<path d="M59.8009 82.7788C59.0169 81.7934 57.6684 81.3904 56.4193 81.5152C55.1701 81.64 54.0098 82.2276 52.9697 82.9296C49.7605 85.0954 47.4817 88.361 45.4694 91.6552C41.957 97.3984 39.0061 103.463 36.6572 109.767L36.7382 111.379C39.3699 111.049 41.0842 108.841 42.2262 106.462C43.3683 104.083 43.8596 101.442 44.8657 99.0028C46.8276 94.3177 50.5707 90.5937 55.2798 88.6418C56.8478 88.803 58.5308 88.3012 59.5553 87.1104C60.5797 85.9196 60.7757 84.0086 59.8009 82.7788Z" fill="black"/>
</g>
<path d="M72.1281 97.3518C72.0679 97.3518 71.7178 93.938 71.3441 89.7182C70.9703 85.4984 70.7142 82.069 70.7717 82.0638C70.8292 82.0586 71.182 85.475 71.5557 89.7C71.9294 93.925 72.1829 97.3466 72.1281 97.3518Z" fill="#263238"/>
<path d="M30.4402 82.0638C30.511 82.231 30.5635 82.4054 30.597 82.5838C30.6885 82.9686 30.8061 83.46 30.9446 84.0476C31.2294 85.2852 31.6083 86.996 32.0134 88.8914C32.4185 90.7868 32.7765 92.5028 33.0248 93.7482C33.1371 94.341 33.2312 94.8376 33.307 95.225C33.3501 95.4049 33.3746 95.5887 33.3802 95.7736C33.3126 95.6054 33.261 95.4313 33.226 95.2536C33.1345 94.8688 33.0169 94.3774 32.8784 93.7898C32.5936 92.5522 32.2146 90.8414 31.807 88.946C31.3993 87.0506 31.0465 85.3346 30.7982 84.0892C30.6858 83.4964 30.5891 82.9998 30.516 82.6098C30.4731 82.4306 30.4477 82.2478 30.4402 82.0638Z" fill="#263238"/>
<path d="M70.2334 69.5864C70.2961 69.602 69.938 70.9722 69.6924 72.7064C69.4467 74.4406 69.3945 75.842 69.3318 75.8264C69.2768 75.5202 69.2628 75.2081 69.2899 74.8982C69.3107 74.1498 69.3753 73.4032 69.4833 72.6622C69.5889 71.9199 69.739 71.1845 69.9328 70.46C69.9951 70.1572 70.0961 69.8637 70.2334 69.5864Z" fill="#263238"/>
<path d="M53.3121 76.7494L56.8819 69.5864L55.7738 66.4664C55.7738 66.4664 61.1286 63.7 59.2992 58.0554C58.4159 55.3306 56.1371 49.8654 54.0177 44.9436C52.9181 42.3907 50.8927 40.3432 48.3446 39.2087C45.7965 38.0741 42.9124 37.9355 40.2663 38.8206L39.7227 39C33.9603 41.3088 32.7112 47.4656 35.1886 53.1336L42.4354 74.1936L53.3121 76.7494Z" fill="#EFBE9D"/>
<path d="M55.7738 66.4456C55.7738 66.4456 52.3007 67.9302 47.7039 66.8278C47.7039 66.8278 50.8137 70.291 56.2782 67.899L55.7738 66.4456Z" fill="#E7996E"/>
<path d="M54.3182 50.4972C54.3904 50.7059 54.3781 50.9344 54.284 51.1344C54.1898 51.3343 54.0212 51.4899 53.8138 51.5684C53.7139 51.6107 53.6066 51.6328 53.498 51.6334C53.3894 51.6339 53.2818 51.6128 53.1815 51.5714C53.0812 51.53 52.9902 51.4691 52.9139 51.3922C52.8376 51.3153 52.7775 51.2241 52.7371 51.1238C52.6642 50.9154 52.6757 50.6869 52.7694 50.4868C52.8631 50.2868 53.0316 50.131 53.2389 50.0526C53.3389 50.0098 53.4466 49.9874 53.5554 49.9867C53.6643 49.9859 53.7722 50.0069 53.8728 50.0483C53.9734 50.0898 54.0647 50.1508 54.1412 50.2279C54.2177 50.305 54.2779 50.3966 54.3182 50.4972Z" fill="#263238"/>
<path d="M53.7093 47.762C53.6466 47.8998 52.8809 47.6528 52.0132 47.9466C51.1456 48.2404 50.6569 48.8826 50.5262 48.8098C50.4635 48.7786 50.5027 48.5498 50.7118 48.2612C51.0005 47.8768 51.401 47.5899 51.859 47.4396C52.3101 47.2883 52.7976 47.2828 53.252 47.424C53.5891 47.5384 53.7433 47.697 53.7093 47.762Z" fill="#263238"/>
<path d="M46.7786 52.7462C46.8514 52.9546 46.8394 53.183 46.7451 53.3827C46.6509 53.5823 46.4819 53.7374 46.2743 53.8148C46.1744 53.8575 46.067 53.8799 45.9583 53.8806C45.8496 53.8813 45.7419 53.8603 45.6415 53.8189C45.5411 53.7774 45.4501 53.7163 45.3738 53.6393C45.2976 53.5622 45.2377 53.4707 45.1976 53.3702C45.1254 53.1614 45.1377 52.9329 45.2318 52.733C45.326 52.5331 45.4946 52.3775 45.702 52.299C45.802 52.2567 45.9096 52.2347 46.0183 52.2344C46.127 52.234 46.2347 52.2553 46.335 52.297C46.4353 52.3387 46.5262 52.3999 46.6024 52.477C46.6786 52.5541 46.7385 52.6457 46.7786 52.7462Z" fill="#263238"/>
<path d="M45.276 50.3204C45.2264 50.4634 44.4398 50.3022 43.6087 50.687C42.7777 51.0718 42.3622 51.766 42.2263 51.7062C42.161 51.6802 42.1714 51.4462 42.3491 51.142C42.5926 50.7293 42.9575 50.4008 43.3944 50.2008C43.8271 50.0018 44.3117 49.9435 44.7795 50.0344C45.1297 50.1124 45.3022 50.2528 45.276 50.3204Z" fill="#263238"/>
<path d="M50.5602 56.4538C50.5419 56.4044 51.0489 56.1314 51.8851 55.7284C52.0994 55.6296 52.2954 55.5178 52.2824 55.354C52.2234 55.1192 52.094 54.9079 51.9113 54.7482L50.6987 53.3C48.9817 51.22 47.6568 49.4676 47.743 49.4C47.8292 49.3324 49.2901 50.96 51.007 53.0556C51.4278 53.5756 51.8276 54.0644 52.2066 54.535C52.3764 54.7586 52.6169 54.9952 52.6142 55.3618C52.6079 55.4509 52.581 55.5373 52.5357 55.6144C52.4903 55.6915 52.4278 55.7572 52.3529 55.8064C52.2405 55.8806 52.1194 55.9408 51.9923 55.9858C51.1246 56.3134 50.5811 56.5006 50.5602 56.4538Z" fill="#263238"/>
<path d="M44.0974 47.32C44.0974 47.58 43.1853 47.762 42.2079 48.2248C41.2305 48.6876 40.4988 49.2388 40.295 49.0724C40.1983 48.9918 40.2688 48.724 40.5223 48.386C40.8716 47.9588 41.3142 47.6165 41.8163 47.3849C42.3185 47.1534 42.8671 47.0387 43.4205 47.0496C43.8439 47.06 44.0948 47.1848 44.0974 47.32Z" fill="#263238"/>
<path d="M52.6743 45.4376C52.5881 45.6976 51.9217 45.682 51.2004 45.9134C50.4791 46.1448 49.9147 46.488 49.7056 46.3294C49.6115 46.2514 49.6403 46.0226 49.8441 45.747C50.1266 45.4055 50.5046 45.155 50.9303 45.0273C51.3559 44.8995 51.8101 44.9003 52.2353 45.0294C52.5594 45.1438 52.7109 45.318 52.6743 45.4376Z" fill="#263238"/>
<path d="M37.0492 57.1324C36.9395 57.1324 32.7817 57.2884 34.2033 61.0896C35.625 64.8908 39.1687 62.686 39.1347 62.5742C39.1007 62.4624 37.0492 57.1324 37.0492 57.1324Z" fill="#EFBE9D"/>
<path d="M37.4282 61.568C37.4073 61.568 37.3785 61.6382 37.287 61.7318C37.1543 61.8581 36.9768 61.9272 36.7931 61.9242C36.3332 61.9242 35.7478 61.4042 35.4865 60.7386C35.3535 60.4159 35.2955 60.0675 35.3166 59.7194C35.3088 59.5873 35.333 59.4554 35.3872 59.3346C35.4413 59.2138 35.5237 59.1077 35.6276 59.0252C35.6966 58.9773 35.7802 58.9547 35.8641 58.9614C35.948 58.968 36.027 59.0034 36.0875 59.0616C36.179 59.15 36.1842 59.2358 36.2077 59.2332C36.2313 59.2306 36.2652 59.1396 36.1764 58.994C36.1197 58.9075 36.0348 58.8432 35.936 58.812C35.8692 58.7912 35.799 58.7839 35.7294 58.7906C35.6599 58.7973 35.5924 58.8178 35.5309 58.851C35.3853 58.9399 35.2652 59.0646 35.1819 59.213C35.0986 59.3614 35.055 59.5286 35.0553 59.6986C35.0174 60.0877 35.0748 60.4802 35.2225 60.8426C35.5335 61.5992 36.1947 62.1712 36.8062 62.1244C36.9201 62.1167 37.0307 62.0835 37.1299 62.0272C37.229 61.9709 37.314 61.893 37.3785 61.7994C37.4569 61.6616 37.4438 61.568 37.4282 61.568Z" fill="#E7996E"/>
<path d="M48.2082 57.9046C48.3467 57.85 48.6655 58.786 49.6978 59.1812C50.7301 59.5764 51.697 59.1396 51.7493 59.267C51.7806 59.3216 51.5872 59.527 51.1665 59.6778C50.6166 59.8702 50.0161 59.8638 49.4704 59.6596C48.9476 59.4624 48.5222 59.0709 48.284 58.5676C48.1141 58.188 48.1429 57.9202 48.2082 57.9046Z" fill="#263238"/>
<path d="M55.4028 36.6158C55.2285 36.2683 54.97 35.9694 54.6506 35.7461C54.3313 35.5228 53.9611 35.382 53.5734 35.3366C53.4986 35.1234 53.4032 34.9179 53.2886 34.723C52.5882 33.5426 51.0097 32.903 49.7292 33.423C49.4565 32.966 49.0636 32.5918 48.5929 32.3406C48.1222 32.0894 47.5915 31.9708 47.058 31.9975C46.5245 32.0243 46.0085 32.1954 45.5655 32.4924C45.1226 32.7894 44.7695 33.2011 44.5444 33.683C43.9194 33.433 43.2353 33.3675 42.5739 33.4943C41.9126 33.6211 41.3019 33.9349 40.8151 34.398C40.6901 34.5092 40.5994 34.6535 40.5538 34.814C40.5429 34.868 40.5429 34.9235 40.5537 34.9775C40.5644 35.0315 40.5858 35.0828 40.6165 35.1286C40.3418 34.9038 40.0164 34.7486 39.6683 34.6762C39.3201 34.6037 38.9595 34.6162 38.6173 34.7126C38.3854 34.7822 38.1677 34.8922 37.9744 35.0376C37.3803 35.2951 36.9112 35.7739 36.6678 36.3714C35.8022 36.3833 34.9711 36.7106 34.332 37.2914C33.6928 37.8722 33.29 38.6661 33.1999 39.5226C32.5822 39.779 32.0554 40.2128 31.6867 40.7685C31.318 41.3243 31.1242 41.9767 31.1301 42.6426C30.7339 42.812 30.3895 43.0822 30.1315 43.426C29.8735 43.7699 29.7111 44.1752 29.6605 44.6013C29.6099 45.0274 29.673 45.4593 29.8433 45.8534C30.0137 46.2476 30.2853 46.5902 30.631 46.8468C30.631 46.8468 28.1326 48.3626 29.6457 50.531C30.4297 51.6386 31.9977 50.8716 31.9977 50.8716L36.7017 57.941C36.6808 57.9904 37.5093 58.721 37.9091 58.3726C38.3089 58.0242 38.4135 57.4548 38.5363 56.94C38.68 56.3498 38.8839 55.757 38.8342 55.1512C38.7846 54.5454 38.3978 53.911 37.7889 53.8174C38.3821 53.3754 38.5729 52.5538 38.4762 51.8232C38.3795 51.0926 38.0084 50.4296 37.653 49.7822L36.085 46.9222C36.7786 46.6612 37.3874 46.2166 37.8457 45.6365C38.3039 45.0564 38.5942 44.3628 38.6853 43.6306C39.9449 44.0622 41.4841 43.095 41.6279 41.7742C42.1073 42.3722 42.797 42.7669 43.5577 42.8784C44.3183 42.9898 45.0932 42.8099 45.7256 42.3748C45.8406 43.2224 47.5262 43.4824 48.3833 43.4278C49.2405 43.3732 50.0402 42.4944 50.0402 42.4944C50.6167 42.6129 51.2102 42.6253 51.7911 42.5308L51.8774 42.5074C53.0037 42.2474 53.7381 40.9084 53.9445 39.7774C54.2348 39.7111 54.5081 39.5854 54.7468 39.4082C55.152 39.0811 55.4363 38.6292 55.5551 38.1237C55.6738 37.6181 55.6203 37.0877 55.4028 36.6158Z" fill="#263238"/>
<path d="M49.2666 34.5462C49.3232 34.581 49.3751 34.6229 49.4208 34.671C49.5572 34.8037 49.6727 34.9562 49.7631 35.1234C49.9098 35.3873 50.0039 35.6768 50.0401 35.9762C50.0894 36.3752 50.0372 36.7802 49.8886 37.154C49.6968 37.6057 49.3493 37.9745 48.9086 38.194C48.4002 38.4472 47.8199 38.5188 47.2648 38.3968C46.9647 38.3316 46.6822 38.203 46.4364 38.0198C46.3052 37.9274 46.1911 37.813 46.0992 37.6818C45.9988 37.5449 45.9391 37.3828 45.9268 37.2138C45.9239 37.125 45.9401 37.0366 45.9744 36.9546C46.0086 36.8725 46.0601 36.7987 46.1254 36.738C46.2574 36.6221 46.4195 36.5455 46.5931 36.517C46.7664 36.4833 46.945 36.4886 47.1158 36.5326C47.2867 36.5694 47.4495 36.6363 47.5967 36.7302C47.8828 36.9124 48.1144 37.1679 48.267 37.4698C48.4197 37.7718 48.4878 38.109 48.4643 38.4462C48.4315 38.7558 48.337 39.0558 48.1862 39.3285C48.0354 39.6013 47.8314 39.8414 47.5862 40.0348C47.1462 40.3868 46.6155 40.6084 46.0548 40.6744C45.5729 40.7323 45.0847 40.7112 44.6096 40.612C43.9295 40.4589 43.2711 40.2222 42.6496 39.9074C42.4275 39.8008 42.2602 39.7124 42.1453 39.6474C42.0859 39.6188 42.0283 39.5867 41.9728 39.5512C42.0362 39.5689 42.0975 39.5933 42.1557 39.624L42.6784 39.8554C43.3027 40.1478 43.9586 40.3685 44.6331 40.5132C45.0981 40.6032 45.5746 40.6181 46.0444 40.5574C46.5824 40.4911 47.0907 40.2748 47.5104 39.9334C47.7411 39.7494 47.933 39.522 48.0751 39.2641C48.2173 39.0062 48.3069 38.723 48.3389 38.4306C48.3591 38.1175 48.2946 37.8048 48.1521 37.525C48.0096 37.2451 47.7944 37.0084 47.5287 36.8394C47.3957 36.7532 47.2477 36.6923 47.0923 36.66C46.9411 36.6212 46.7832 36.6158 46.6297 36.6444C46.4821 36.6678 46.3443 36.7328 46.2325 36.8316C46.1801 36.8786 46.1386 36.9365 46.1111 37.0012C46.0835 37.0659 46.0706 37.1358 46.0731 37.206C46.0938 37.349 46.1451 37.4859 46.2235 37.6075C46.302 37.729 46.4057 37.8324 46.5278 37.9106C46.76 38.0851 47.0275 38.2075 47.3118 38.2694C47.8399 38.3903 48.3938 38.326 48.8798 38.0874C49.3018 37.8802 49.6355 37.5298 49.8206 37.0994C49.9502 36.7843 50.0098 36.4451 49.9953 36.1049C49.9809 35.7648 49.8928 35.4317 49.737 35.1286C49.6115 34.9113 49.4528 34.7149 49.2666 34.5462Z" fill="#455A64"/>
<path d="M23.9591 95.5526C23.9591 95.5526 21.4816 104.476 20.9354 106.655C20.3893 108.833 20.384 113.896 21.6254 115.393C22.8667 116.891 26.9644 117.845 26.9644 117.845C26.9644 117.845 35.0056 113.945 37.7444 109.171C40.4832 104.398 47.9678 91.4394 47.9678 91.4394L45.5975 84.9654L33.1293 96.8084L33.2599 95.2666L23.9591 95.5526Z" fill="#EFBE9D"/>
<path d="M49.9984 64.5476C50.1011 64.4953 50.2131 64.4637 50.3281 64.4548C50.4431 64.4458 50.5588 64.4597 50.6683 64.4954C50.7779 64.5312 50.8793 64.5883 50.9666 64.6633C51.0539 64.7383 51.1254 64.8297 51.177 64.9324L58.3532 79.1492L56.5239 79.963L49.6064 65.702C49.507 65.4968 49.4924 65.261 49.5657 65.0452C49.639 64.8294 49.7943 64.6508 49.9984 64.5476Z" fill="#455A64"/>
<path d="M45.2107 85.3736L51.9191 78.4914H58.3479L62.4587 83.8994C62.4587 83.8994 60.5065 84.2608 59.8088 83.2182L58.8993 81.9312C58.8993 81.9312 59.8088 83.9124 59.3201 84.8874C59.3201 84.8874 58.3558 87.1468 58.2016 87.3886C57.9089 87.8436 57.6789 88.1348 56.8479 87.997C56.0168 87.8592 54.7075 87.1806 54.8461 86.697C54.8897 86.5557 54.9715 86.4291 55.0826 86.331C55.1936 86.2328 55.3297 86.167 55.4759 86.1406L53.5185 85.8624C53.5185 85.8624 51.548 89.414 50.3616 90.2486C49.6274 90.7589 48.8229 91.1609 47.973 91.442L45.2107 85.3736Z" fill="#EFBE9D"/>
<path d="M33.3802 96.6004C33.3959 96.6342 32.8392 96.8916 31.9847 97.3804C30.8759 98.0273 29.8335 98.7805 28.8722 99.6294C27.9113 100.484 27.036 101.43 26.2588 102.453C25.6656 103.233 25.3468 103.753 25.3154 103.753C25.363 103.617 25.427 103.488 25.5062 103.368C25.6992 103.027 25.9103 102.696 26.1386 102.378C27.6294 100.251 29.5979 98.4987 31.888 97.2608C32.327 97.0294 32.6929 96.8552 32.949 96.7408C33.086 96.6756 33.2309 96.6284 33.3802 96.6004Z" fill="#E7996E"/>
<path d="M53.38 80.4908C53.6875 80.4028 54.004 80.3496 54.3234 80.3322C54.9062 80.2594 55.7163 80.1762 56.6101 80.0982C56.8357 80.0709 57.0639 80.0709 57.2896 80.0982C57.5059 80.132 57.7115 80.2147 57.8906 80.34C58.1836 80.5504 58.4183 80.8313 58.5727 81.1564C58.7266 81.4395 58.8284 81.7476 58.8732 82.0664C58.8393 82.0794 58.7164 81.731 58.4394 81.2266C58.2805 80.9373 58.0559 80.6889 57.7835 80.5012C57.626 80.3977 57.4476 80.3302 57.2608 80.3036C57.0515 80.2803 56.8403 80.2803 56.631 80.3036C55.7372 80.3816 54.9271 80.4414 54.3391 80.4752C54.021 80.516 53.6993 80.5213 53.38 80.4908Z" fill="#E7996E"/>
<path d="M58.5022 87.0428C58.4656 87.0428 58.5283 86.5566 58.4865 85.7818C58.4609 85.3295 58.3989 84.88 58.3009 84.4376C58.1912 83.9514 58.0396 83.369 57.5431 83.0856C57.2967 82.9555 57.0326 82.8618 56.7591 82.8074L55.9751 82.628C55.5286 82.5264 55.0753 82.4569 54.6188 82.42C54.1986 82.4068 53.7781 82.4173 53.3591 82.4512C53.4613 82.396 53.573 82.3607 53.6884 82.3472C53.9973 82.2871 54.312 82.2618 54.6266 82.2718C55.0912 82.2879 55.5536 82.3427 56.0091 82.4356C56.2704 82.485 56.5317 82.5422 56.8087 82.6046C57.1068 82.6589 57.3943 82.7598 57.6607 82.9036C57.9292 83.0665 58.1395 83.3094 58.2617 83.5978C58.3711 83.854 58.4509 84.1218 58.4996 84.396C58.5905 84.8498 58.6386 85.3112 58.6433 85.774C58.647 86.0852 58.6277 86.3963 58.5858 86.7048C58.5776 86.8214 58.5493 86.9357 58.5022 87.0428Z" fill="#E7996E"/>
<path d="M56.1866 84.7314C56.2415 84.7314 56.2833 85.2878 56.2886 86.0132V86.138L56.1579 86.1146C56.0873 86.1008 56.0155 86.0939 55.9436 86.0938C55.6081 86.1054 55.2899 86.245 55.0551 86.4838C54.8748 86.671 54.8173 86.8348 54.7937 86.8244C54.7702 86.814 54.7781 86.6294 54.9505 86.3876C55.0685 86.2334 55.2201 86.1078 55.3939 86.0205C55.5678 85.9331 55.7593 85.8861 55.9541 85.8832C56.0419 85.8834 56.1296 85.893 56.2154 85.9118L56.0873 86.0132C56.0769 85.28 56.1213 84.7314 56.1866 84.7314Z" fill="#E7996E"/>
<path d="M56.1867 84.9446C56.1867 85.0044 55.5961 84.9186 54.88 84.8822C54.164 84.8458 53.5734 84.8666 53.5734 84.8068C53.5734 84.747 54.1509 84.6326 54.88 84.6716C55.6092 84.7106 56.1867 84.89 56.1867 84.9446Z" fill="#E7996E"/>
<path d="M53.6805 84.6118C53.7354 84.6118 53.6805 85.2436 53.3904 85.9508C53.1003 86.658 52.677 87.1286 52.6326 87.0948C52.5881 87.061 52.9096 86.5488 53.1944 85.8676C53.4793 85.1864 53.6178 84.6014 53.6805 84.6118Z" fill="#E7996E"/>
<path d="M95.7917 85.3684C95.7917 85.3684 100.214 79.6484 100.697 79.3884C101.18 79.1284 107.337 78.2444 107.337 78.2444C107.337 78.2444 107.076 80.1788 105.296 80.7482C104.037 81.1512 102.56 81.4658 102.56 81.4658C102.56 81.4658 103.052 85.215 102.145 86.7178C101.397 87.8661 100.548 88.9466 99.6098 89.947L95.7917 85.3684Z" fill="#EFBE9D"/>
<path d="M101.314 87.5888C101.709 87.1251 102.021 86.5975 102.236 86.0288C102.448 85.4016 102.569 84.7477 102.597 84.0866C102.618 83.696 102.618 83.3046 102.597 82.914C102.58 82.7095 102.551 82.5063 102.508 82.3056C102.455 82.0867 102.448 81.8592 102.487 81.6374C102.511 81.5791 102.547 81.5261 102.592 81.4814C102.637 81.4368 102.69 81.4015 102.748 81.3774C102.848 81.329 102.952 81.2898 103.059 81.2604C103.263 81.2037 103.47 81.1577 103.679 81.1226C104.066 81.0619 104.448 80.9751 104.823 80.8626C105.463 80.6886 106.046 80.3495 106.512 79.8798C106.811 79.5503 107.039 79.1625 107.181 78.741C107.285 78.442 107.319 78.2678 107.332 78.2704C107.334 78.3134 107.329 78.3565 107.317 78.3978C107.296 78.5192 107.267 78.6391 107.23 78.7566C107.105 79.1955 106.884 79.6014 106.582 79.9448C106.113 80.4396 105.518 80.799 104.86 80.9848C104.481 81.1055 104.094 81.1993 103.702 81.2656C103.499 81.3014 103.297 81.3473 103.099 81.4034C102.999 81.43 102.901 81.4666 102.809 81.5126C102.723 81.5445 102.653 81.6077 102.613 81.6894C102.582 81.8903 102.591 82.0951 102.639 82.2926C102.683 82.4992 102.712 82.7086 102.728 82.9192C102.75 83.3141 102.75 83.7099 102.728 84.1048C102.694 84.7769 102.56 85.4402 102.33 86.073C102.168 86.4911 101.942 86.8814 101.659 87.23C101.582 87.3266 101.499 87.4178 101.41 87.503C101.382 87.5353 101.349 87.5641 101.314 87.5888Z" fill="#E7996E"/>
<path d="M67.5703 122.996H97.4616C97.8034 122.996 98.1343 122.876 98.3965 122.658C98.6588 122.44 98.8356 122.137 98.8963 121.802L102.599 101.473C102.638 101.264 102.629 101.049 102.575 100.843C102.52 100.638 102.421 100.447 102.284 100.283C102.148 100.12 101.976 99.9889 101.783 99.8988C101.589 99.8087 101.378 99.762 101.165 99.762H71.2734C70.9312 99.762 70.6 99.8815 70.3373 100.1C70.0746 100.318 69.8972 100.621 69.836 100.955L66.1355 121.285C66.0973 121.494 66.1056 121.709 66.16 121.914C66.2145 122.12 66.3136 122.311 66.4505 122.474C66.5874 122.637 66.7586 122.769 66.9521 122.859C67.1456 122.949 67.3566 122.996 67.5703 122.996Z" fill="#263238"/>
<path d="M69.0886 122.993H49.8911V122.795C49.8911 122.333 50.0758 121.889 50.4047 121.562C50.7335 121.235 51.1796 121.051 51.6446 121.051H69.0886V122.993Z" fill="#263238"/>
<path d="M71.587 99.762C71.5582 99.762 70.4972 104.962 69.2167 111.366C67.9361 117.77 66.9195 122.98 66.9457 122.98C66.9718 122.98 68.0354 117.793 69.3186 111.376C70.6017 104.959 71.6053 99.7672 71.587 99.762Z" fill="#455A64"/>
<path d="M85.3593 111.709C85.414 111.508 85.5282 111.328 85.6871 111.192C85.846 111.056 86.0423 110.971 86.2504 110.947H86.1642C86.3815 110.906 86.6063 110.936 86.805 111.033C87.0037 111.13 87.1656 111.288 87.2665 111.483C87.3675 111.679 87.402 111.902 87.365 112.119C87.3279 112.336 87.2213 112.535 87.0611 112.687C86.9008 112.839 86.6955 112.935 86.4759 112.961C86.2563 112.987 86.0341 112.941 85.8426 112.831C85.6511 112.721 85.5005 112.552 85.4134 112.35C85.3263 112.148 85.3073 111.923 85.3593 111.709Z" fill="#455A64"/>
</svg>
