<svg width="176" height="117" viewBox="0 0 176 117" fill="none" xmlns="http://www.w3.org/2000/svg">
<path d="M114.433 85.8312L116.749 87.2188L114.398 88.6088L112.046 90.0011L112.081 87.2235L112.119 84.4459L114.433 85.8312Z" fill="#E0E0E0"/>
<path d="M23.3447 99.6583V110.46H39.1847H56.6579V99.6583H23.3447Z" fill="#F5F5F5"/>
<path d="M21.946 96.6373V99.6583H57.8219V96.6373H39.1847H21.946Z" fill="#E0E0E0"/>
<path d="M39.8839 110.46H56.6579V99.6583H57.8219V96.6373H39.1846V99.3775L39.8839 110.46Z" fill="#E0E0E0"/>
<path d="M34.7589 101.399H28.0028V103.026H34.7589V101.399Z" fill="#E0E0E0"/>
<path d="M35.8102 105.059H27.1345V108.492H35.8102V105.059Z" fill="white"/>
<path d="M28.4698 85.8499V96.6514H44.3098H61.7831V85.8499H28.4698Z" fill="#F5F5F5"/>
<path d="M27.0712 82.829V85.8499H62.947V82.829H44.3098H27.0712Z" fill="#E0E0E0"/>
<path d="M45.0091 96.6514H61.783V85.8499H62.947V82.829H44.3098V85.5715L45.0091 96.6514Z" fill="#E0E0E0"/>
<path d="M39.884 87.5909H33.1279V89.2172H39.884V87.5909Z" fill="#E0E0E0"/>
<path d="M40.9353 91.2507H32.2596V94.6835H40.9353V91.2507Z" fill="white"/>
<path d="M156.455 46.5684H117.225C116.205 46.5684 115.379 47.3929 115.379 48.4099V71.253C115.379 72.2701 116.205 73.0946 117.225 73.0946H156.455C157.475 73.0946 158.301 72.2701 158.301 71.253V48.4099C158.301 47.3929 157.475 46.5684 156.455 46.5684Z" fill="#E0E0E0"/>
<path d="M136.839 63.4514C138.644 63.4514 140.108 61.9921 140.108 60.1918C140.108 58.3916 138.644 56.9322 136.839 56.9322C135.033 56.9322 133.57 58.3916 133.57 60.1918C133.57 61.9921 135.033 63.4514 136.839 63.4514Z" fill="#EBEBEB"/>
<path d="M136.053 61.1442V59.2207C136.053 59.1994 136.058 59.1784 136.069 59.1599C136.08 59.1414 136.095 59.1261 136.114 59.1154C136.132 59.1047 136.153 59.0991 136.175 59.0991C136.196 59.0991 136.217 59.1047 136.236 59.1154L137.958 60.0842C137.977 60.0947 137.993 60.1101 138.004 60.1289C138.015 60.1476 138.021 60.1689 138.021 60.1907C138.021 60.2124 138.015 60.2337 138.004 60.2525C137.993 60.2712 137.977 60.2866 137.958 60.2971L136.233 61.2518C136.215 61.262 136.194 61.2672 136.173 61.2668C136.151 61.2664 136.13 61.2605 136.112 61.2496C136.094 61.2387 136.079 61.2233 136.068 61.2048C136.058 61.1863 136.053 61.1654 136.053 61.1442Z" fill="white"/>
<path d="M117.833 70.0479V70.1158H117.509V70.0619L117.683 69.8958C117.698 69.8854 117.71 69.8717 117.718 69.8559C117.727 69.8401 117.732 69.8225 117.732 69.8045C117.732 69.7648 117.706 69.7437 117.652 69.7437C117.633 69.7425 117.613 69.7459 117.596 69.7536C117.578 69.7613 117.562 69.7732 117.549 69.7882L117.493 69.7437C117.513 69.7196 117.539 69.7005 117.568 69.6879C117.597 69.6753 117.628 69.6696 117.66 69.6712C117.753 69.6712 117.814 69.7203 117.814 69.7975C117.814 69.8246 117.807 69.8512 117.795 69.8752C117.782 69.8991 117.764 69.9198 117.742 69.9356L117.624 70.0479H117.833Z" fill="white"/>
<path d="M117.875 69.8303C117.875 69.8201 117.879 69.8102 117.884 69.8017C117.89 69.7932 117.898 69.7866 117.907 69.7827C117.917 69.7788 117.927 69.7778 117.937 69.7798C117.947 69.7818 117.956 69.7867 117.964 69.7939C117.971 69.8011 117.976 69.8103 117.978 69.8202C117.98 69.8302 117.979 69.8406 117.975 69.85C117.971 69.8594 117.964 69.8674 117.956 69.8731C117.947 69.8788 117.937 69.8818 117.927 69.8818C117.913 69.8818 117.9 69.8763 117.891 69.8667C117.881 69.857 117.875 69.8439 117.875 69.8303ZM117.875 70.0643C117.875 70.0506 117.881 70.0375 117.891 70.0279C117.9 70.0182 117.913 70.0128 117.927 70.0128C117.941 70.0128 117.954 70.0182 117.964 70.0279C117.973 70.0375 117.979 70.0506 117.979 70.0643C117.979 70.0779 117.973 70.091 117.964 70.1007C117.954 70.1103 117.941 70.1158 117.927 70.1158C117.913 70.1158 117.9 70.1103 117.891 70.1007C117.881 70.091 117.875 70.0779 117.875 70.0643Z" fill="white"/>
<path d="M118.183 69.6782V70.1158H118.101V69.7461H118.009V69.6782H118.183Z" fill="white"/>
<path d="M118.659 70.0152H118.582V70.1158H118.507V70.0152H118.272V69.966L118.488 69.6852H118.575L118.373 69.9543H118.507V69.8654H118.582V69.9543H118.659V70.0152Z" fill="white"/>
<path d="M152.618 69.8303H119.375V70.0058H152.618V69.8303Z" fill="white"/>
<path d="M129.74 69.6454H119.351V70.1134H129.74V69.6454Z" fill="#EBEBEB"/>
<path d="M130.073 69.9169C130.074 70.017 130.045 70.1151 129.989 70.1985C129.933 70.282 129.854 70.3472 129.762 70.3857C129.669 70.4243 129.567 70.4345 129.468 70.415C129.37 70.3956 129.279 70.3474 129.208 70.2766C129.137 70.2058 129.089 70.1155 129.069 70.0172C129.05 69.919 129.06 69.8171 129.099 69.7247C129.137 69.6322 129.203 69.5533 129.286 69.498C129.37 69.4426 129.468 69.4133 129.569 69.4138C129.703 69.4144 129.83 69.4676 129.925 69.5618C130.019 69.656 130.073 69.7836 130.073 69.9169Z" fill="#EBEBEB"/>
<path d="M153.456 69.9122C153.455 69.9323 153.451 69.9521 153.443 69.9704C153.434 69.9887 153.422 70.0051 153.407 70.0185C153.392 70.032 153.375 70.0421 153.355 70.0484C153.336 70.0547 153.316 70.0569 153.296 70.0549C153.176 70.0549 153.106 69.9777 153.106 69.8373C153.102 69.8075 153.105 69.7772 153.114 69.7486C153.123 69.7199 153.138 69.6936 153.159 69.6713C153.179 69.6491 153.204 69.6315 153.232 69.6198C153.259 69.608 153.289 69.6024 153.319 69.6033C153.36 69.6017 153.399 69.6114 153.434 69.6314L153.406 69.6946C153.381 69.6794 153.351 69.6721 153.322 69.6735C153.24 69.6735 153.188 69.7227 153.188 69.8233C153.203 69.8077 153.221 69.7957 153.242 69.788C153.262 69.7803 153.284 69.7772 153.305 69.7788C153.324 69.7769 153.343 69.7789 153.361 69.7846C153.379 69.7904 153.396 69.7999 153.41 69.8125C153.424 69.825 153.435 69.8404 153.443 69.8575C153.451 69.8747 153.455 69.8933 153.456 69.9122ZM153.376 69.9122C153.376 69.8654 153.343 69.8373 153.289 69.8373C153.235 69.8373 153.2 69.8677 153.2 69.9122C153.2 69.9567 153.233 69.9847 153.291 69.9847C153.301 69.986 153.312 69.9853 153.321 69.9826C153.331 69.9798 153.34 69.9751 153.348 69.9688C153.356 69.9625 153.362 69.9546 153.367 69.9457C153.372 69.9367 153.375 69.927 153.376 69.9169V69.9122Z" fill="white"/>
<path d="M153.495 69.7624C153.495 69.7556 153.496 69.7487 153.499 69.7423C153.501 69.7359 153.505 69.7301 153.51 69.7253C153.515 69.7204 153.521 69.7166 153.527 69.7142C153.533 69.7117 153.54 69.7106 153.547 69.7109C153.561 69.7109 153.574 69.7164 153.584 69.726C153.593 69.7357 153.599 69.7488 153.599 69.7624C153.599 69.7761 153.593 69.7892 153.584 69.7988C153.574 69.8085 153.561 69.8139 153.547 69.8139C153.54 69.8142 153.533 69.8131 153.527 69.8107C153.521 69.8082 153.515 69.8044 153.51 69.7996C153.505 69.7947 153.501 69.7889 153.499 69.7825C153.496 69.7761 153.495 69.7693 153.495 69.7624ZM153.495 69.9964C153.495 69.9895 153.496 69.9825 153.498 69.9759C153.5 69.9693 153.504 69.9633 153.509 69.9584C153.514 69.9534 153.52 69.9497 153.526 69.9473C153.533 69.945 153.54 69.9442 153.547 69.9449C153.554 69.9446 153.561 69.9457 153.567 69.9481C153.573 69.9506 153.579 69.9545 153.584 69.9593C153.588 69.9642 153.592 69.9701 153.594 69.9765C153.596 69.9829 153.597 69.9897 153.596 69.9964C153.598 70.0039 153.598 70.0117 153.596 70.0192C153.594 70.0267 153.591 70.0337 153.586 70.0396C153.581 70.0456 153.575 70.0505 153.568 70.0538C153.561 70.0571 153.554 70.0588 153.546 70.0588C153.538 70.0588 153.531 70.0571 153.524 70.0538C153.517 70.0505 153.511 70.0456 153.506 70.0396C153.501 70.0337 153.497 70.0267 153.496 70.0192C153.494 70.0117 153.494 70.0039 153.495 69.9964Z" fill="white"/>
<path d="M153.65 69.8303C153.65 69.6852 153.728 69.5963 153.833 69.5963C153.939 69.5963 154.016 69.6782 154.016 69.8303C154.016 69.9824 153.937 70.0643 153.833 70.0643C153.73 70.0643 153.65 69.966 153.65 69.8303ZM153.934 69.8303C153.934 69.7227 153.892 69.6759 153.833 69.6759C153.775 69.6759 153.733 69.7227 153.733 69.8303C153.733 69.938 153.772 69.9824 153.833 69.9824C153.894 69.9824 153.941 69.9356 153.941 69.8303H153.934Z" fill="white"/>
<path d="M154.07 69.8303C154.07 69.6852 154.15 69.5963 154.253 69.5963C154.357 69.5963 154.437 69.6782 154.437 69.8303C154.437 69.9824 154.359 70.0643 154.253 70.0643C154.148 70.0643 154.07 69.966 154.07 69.8303ZM154.354 69.8303C154.354 69.7227 154.314 69.6759 154.253 69.6759C154.192 69.6759 154.153 69.7227 154.153 69.8303C154.153 69.938 154.195 69.9824 154.253 69.9824C154.312 69.9824 154.354 69.9356 154.354 69.8303Z" fill="white"/>
<path d="M155.157 69.8022H154.981V69.3553H155.429V69.5308H155.157V69.8022Z" fill="white"/>
<path d="M155.429 70.3825H154.981V69.9356H155.157V70.207H155.429V70.3825Z" fill="white"/>
<path d="M156.138 70.3825H155.69V70.207H155.962V69.9356H156.138V70.3825Z" fill="white"/>
<path d="M156.138 69.8022H155.962V69.5308H155.69V69.3553H156.138V69.8022Z" fill="white"/>
<path d="M150.468 49.14C150.768 49.1028 151.07 49.0864 151.372 49.0909H151.421V49.14C151.421 49.4816 151.421 49.8677 151.421 50.2843V50.4317L151.315 50.3264C151.278 50.2889 151.236 50.2492 151.196 50.207C151.09 50.1017 150.989 49.9988 150.888 49.9005H150.97L150.501 50.3217L150.412 50.4013V50.2819C150.412 49.9286 150.431 49.6337 150.44 49.4348C150.438 49.3351 150.447 49.2355 150.466 49.1377C150.484 49.2475 150.493 49.3587 150.492 49.4699C150.503 49.6712 150.515 49.952 150.52 50.2819L150.431 50.2421L150.9 49.8116L150.942 49.7741L150.982 49.8139L151.292 50.1181L151.412 50.2398L151.308 50.2819C151.308 49.8654 151.308 49.4793 151.32 49.1377L151.367 49.1868C150.848 49.1821 150.485 49.1564 150.468 49.14Z" fill="white"/>
<path d="M153.793 49.2898C153.793 49.2898 153.723 49.3834 153.575 49.5682C153.427 49.7531 153.204 50.0245 152.932 50.3311L152.831 50.4434V50.2913C152.831 50.1111 152.831 49.9216 152.831 49.7227V49.6689L152.85 49.711L152.449 49.3225L152.346 49.2219H152.489C152.888 49.2219 153.228 49.2477 153.456 49.2617C153.569 49.2627 153.683 49.2713 153.796 49.2874C153.796 49.2874 153.636 49.2874 153.402 49.3085C153.167 49.3296 152.852 49.3366 152.489 49.3366L152.529 49.2383L152.935 49.6221L152.953 49.6384V49.7203C152.953 49.9192 152.953 50.1088 152.953 50.289L152.85 50.2492C153.104 49.9731 153.334 49.7461 153.507 49.5729C153.681 49.3998 153.782 49.2945 153.793 49.2898Z" fill="white"/>
<path d="M153.794 49.2898C153.808 49.3202 153.615 49.4302 153.364 49.5355C153.22 49.6154 153.059 49.661 152.895 49.6689C152.881 49.6361 153.073 49.5261 153.322 49.4349C153.571 49.3436 153.779 49.257 153.794 49.2898Z" fill="white"/>
<path d="M155.415 49.14C155.415 49.14 155.471 49.119 155.577 49.14C155.727 49.1706 155.862 49.2535 155.957 49.374C156.029 49.4642 156.078 49.5712 156.097 49.685C156.116 49.7989 156.106 49.9157 156.067 50.0246C156.015 50.1548 155.925 50.2664 155.808 50.345C155.692 50.4236 155.555 50.4656 155.414 50.4656C155.273 50.4656 155.136 50.4236 155.019 50.345C154.903 50.2664 154.813 50.1548 154.76 50.0246C154.723 49.9149 154.714 49.7976 154.735 49.6838C154.756 49.5699 154.806 49.4633 154.88 49.374C154.975 49.2531 155.111 49.1701 155.262 49.14C155.366 49.1237 155.424 49.14 155.424 49.14C155.375 49.1567 155.325 49.1708 155.274 49.1822C155.143 49.2234 155.029 49.3054 154.948 49.4162C154.891 49.496 154.855 49.5885 154.842 49.6856C154.829 49.7827 154.841 49.8814 154.875 49.9731C154.906 50.0495 154.953 50.1185 155.013 50.1756C155.073 50.2326 155.144 50.2765 155.222 50.3042C155.3 50.3319 155.382 50.3429 155.465 50.3365C155.547 50.33 155.627 50.3062 155.7 50.2667C155.773 50.2272 155.836 50.1729 155.886 50.1072C155.936 50.0415 155.972 49.9661 155.99 49.8858C156.009 49.8055 156.011 49.7221 155.995 49.6412C155.979 49.5602 155.946 49.4835 155.898 49.4162C155.818 49.306 155.705 49.2241 155.575 49.1822C155.521 49.1716 155.467 49.1575 155.415 49.14Z" fill="white"/>
<path d="M155.633 50.0573C155.607 50.0807 155.467 49.9777 155.316 49.8233L155.298 49.8046V49.7788C155.298 49.5635 155.326 49.3904 155.359 49.3904C155.392 49.3904 155.42 49.5635 155.42 49.7788L155.403 49.7367C155.554 49.8911 155.657 50.0339 155.633 50.0573Z" fill="white"/>
<path d="M139.861 50.0152C139.861 50.0479 135.45 50.076 130.005 50.076C124.561 50.076 120.149 50.0479 120.149 50.0152C120.149 49.9824 124.559 49.9543 130.005 49.9543C135.452 49.9543 139.861 49.9801 139.861 50.0152Z" fill="white"/>
<path d="M119.234 50.0152C119.235 50.1691 119.189 50.3196 119.104 50.4477C119.018 50.5758 118.897 50.6757 118.754 50.7348C118.612 50.7939 118.455 50.8095 118.304 50.7796C118.152 50.7497 118.013 50.6757 117.904 50.5669C117.795 50.4581 117.721 50.3194 117.691 50.1685C117.661 50.0176 117.677 49.8612 117.736 49.7192C117.795 49.5771 117.895 49.4558 118.024 49.3706C118.152 49.2854 118.303 49.2402 118.457 49.2407C118.663 49.2407 118.861 49.3223 119.007 49.4675C119.152 49.6128 119.234 49.8098 119.234 50.0152Z" fill="white"/>
<path d="M138.106 89.4231C138.085 89.4488 137.902 89.3388 137.698 89.1891C137.494 89.0393 137.343 88.8708 137.367 88.8428C137.39 88.8147 137.571 88.9247 137.777 89.0885C137.984 89.2523 138.129 89.388 138.106 89.4231Z" fill="#263238"/>
<path d="M143.684 81.1091C143.719 80.3322 143.74 79.5343 143.494 78.7972C143.248 78.0601 142.677 77.3815 141.915 77.2247C141.044 77.0445 140.15 77.5921 139.662 78.3338C139.174 79.0756 139.007 79.9718 138.862 80.8517C137.868 86.8906 137.502 93.0155 137.768 99.1294L141.335 99.6278C142.912 93.249 143.4 87.6704 143.684 81.1091Z" fill="#455A64"/>
<path d="M141.42 77.1966C141.42 77.1966 141.42 77.2153 141.403 77.2527L141.344 77.4142C141.286 77.5639 141.208 77.7699 141.11 78.0273C141.06 78.163 140.992 78.3081 140.941 78.4719C140.889 78.6357 140.828 78.8182 140.767 79.0101C140.706 79.2019 140.638 79.4102 140.568 79.6302C140.497 79.8501 140.448 80.0982 140.382 80.3322C140.086 81.4882 139.857 82.6601 139.695 83.8422C139.502 85.1783 139.376 86.6502 139.275 88.2156C139.094 91.3302 139.066 94.1592 138.984 96.2044C138.946 97.227 138.911 98.053 138.871 98.6239C138.852 98.9024 138.838 99.1224 138.826 99.2815C138.826 99.3517 138.826 99.4078 138.812 99.4523C138.815 99.4717 138.815 99.4914 138.812 99.5108C138.81 99.4914 138.81 99.4718 138.812 99.4523C138.812 99.4055 138.812 99.3493 138.812 99.2815C138.812 99.1255 138.819 98.9055 138.833 98.6216C138.859 98.0506 138.88 97.2176 138.906 96.202C138.963 94.1569 138.977 91.3278 139.16 88.2086C139.261 86.6502 139.394 85.1666 139.589 83.8258C139.758 82.6371 139.997 81.4595 140.307 80.2994L140.502 79.5974L140.711 78.9796C140.777 78.7878 140.838 78.6076 140.896 78.4414C140.955 78.2753 141.021 78.1326 141.075 78.0015L141.335 77.3955L141.405 77.2387C141.408 77.22 141.417 77.1942 141.42 77.1966Z" fill="#263238"/>
<path d="M141.75 77.1989C141.936 77.4173 142.083 77.6658 142.185 77.9337C142.458 78.668 142.57 79.4527 142.511 80.2339C142.417 82.1995 142.238 84.9139 142.006 87.8951C141.774 90.8762 141.509 93.5859 141.302 95.5398C141.197 96.518 141.105 97.3065 141.039 97.8518C141.004 98.1162 140.978 98.3198 140.957 98.4789C140.957 98.5444 140.941 98.5982 140.934 98.6427C140.936 98.6613 140.936 98.6802 140.934 98.6988C140.931 98.6794 140.931 98.6598 140.934 98.6403C140.934 98.5959 140.934 98.5421 140.934 98.4765C140.948 98.3221 140.969 98.1115 140.992 97.8471C141.046 97.2878 141.121 96.5016 141.227 95.5305C141.415 93.5766 141.661 90.8739 141.896 87.8857C142.131 84.8975 142.323 82.1901 142.44 80.2316C142.505 79.4606 142.41 78.6845 142.159 77.9524C142.045 77.6897 141.909 77.4376 141.75 77.1989Z" fill="#263238"/>
<path d="M144.221 86.3998C143.988 86.3829 143.759 86.3243 143.546 86.2267C143.319 86.1677 143.105 86.0677 142.914 85.9318C143.375 86.008 143.818 86.1666 144.221 86.3998Z" fill="#263238"/>
<path d="M144.651 82.7775C144.458 82.9316 144.241 83.0519 144.008 83.1331C143.789 83.252 143.551 83.3312 143.304 83.3671C143.496 83.2123 143.714 83.0913 143.947 83.0091C144.166 82.8919 144.405 82.8135 144.651 82.7775Z" fill="#263238"/>
<path d="M144.428 79.8197C144.076 79.8785 143.715 79.8537 143.374 79.7472C143.547 79.6972 143.73 79.6876 143.907 79.7191C144.086 79.7112 144.265 79.7456 144.428 79.8197Z" fill="#263238"/>
<path d="M140.748 77.922C140.72 77.9407 140.563 77.7465 140.401 77.4891C140.287 77.3415 140.207 77.1705 140.166 76.9883C140.197 76.9696 140.352 77.1638 140.516 77.4212C140.68 77.6786 140.779 77.9056 140.748 77.922Z" fill="#263238"/>
<path d="M139.533 79.7121C139.372 79.7705 139.198 79.789 139.028 79.7659C138.857 79.7817 138.684 79.756 138.524 79.6911C138.686 79.6325 138.86 79.614 139.031 79.6372C139.31 79.6443 139.535 79.677 139.533 79.7121Z" fill="#263238"/>
<path d="M138.66 83.2899C138.474 83.282 138.292 83.2324 138.127 83.1449C137.846 83.0325 137.63 82.9109 137.641 82.8804C137.828 82.888 138.01 82.9385 138.174 83.0279C138.453 83.1402 138.674 83.2572 138.66 83.2899Z" fill="#263238"/>
<path d="M138.568 86.2992C138.568 86.3343 138.371 86.4068 138.113 86.4607C137.962 86.5109 137.801 86.523 137.644 86.4958C137.644 86.4607 137.839 86.3905 138.097 86.3366C138.248 86.285 138.41 86.2721 138.568 86.2992Z" fill="#263238"/>
<path d="M138.155 91.2225C138.155 91.2576 137.946 91.3255 137.674 91.3723C137.402 91.4191 137.177 91.4331 137.17 91.398C137.163 91.3629 137.381 91.2974 137.653 91.2483C137.925 91.1991 138.151 91.1874 138.155 91.2225Z" fill="#263238"/>
<path d="M137.883 93.9393C137.9 93.9697 137.721 94.0984 137.482 94.2225C137.242 94.3465 137.038 94.426 137.013 94.3956C136.987 94.3652 137.174 94.2365 137.414 94.1101C137.653 93.9838 137.867 93.9089 137.883 93.9393Z" fill="#263238"/>
<path d="M140.108 97.0234C140.077 97.0422 139.922 96.8245 139.758 96.5414C139.643 96.3779 139.563 96.1922 139.523 95.9962C139.554 95.9798 139.711 96.1951 139.873 96.4782C139.989 96.6412 140.069 96.8271 140.108 97.0234Z" fill="#263238"/>
<path d="M140.751 91.8988C140.777 91.9245 140.601 92.1328 140.361 92.3668C140.122 92.6008 139.906 92.7716 139.892 92.7459C139.878 92.7201 140.042 92.5119 140.281 92.2779C140.521 92.0439 140.727 91.8731 140.751 91.8988Z" fill="#263238"/>
<path d="M140.608 89.2102C140.582 89.2336 140.42 89.1002 140.246 88.913C140.073 88.7258 139.953 88.555 139.979 88.5316C140.005 88.5082 140.166 88.6392 140.34 88.8264C140.514 89.0136 140.633 89.1868 140.608 89.2102Z" fill="#263238"/>
<path d="M141.051 85.7727C141.077 85.7961 140.931 86.0067 140.725 86.2407C140.518 86.4747 140.331 86.6362 140.305 86.6128C140.279 86.5894 140.425 86.3788 140.631 86.1448C140.838 85.9108 141.035 85.7493 141.051 85.7727Z" fill="#263238"/>
<path d="M141.297 83.2806C141.274 83.304 141.063 83.1449 140.845 82.9249C140.626 82.705 140.457 82.5037 140.481 82.478C140.504 82.4522 140.715 82.6137 140.934 82.8337C141.152 83.0536 141.323 83.2549 141.297 83.2806Z" fill="#263238"/>
<path d="M141.786 79.9086C141.816 79.9274 141.715 80.1426 141.551 80.4141C141.387 80.6855 141.246 80.8821 141.215 80.854C141.185 80.8259 141.286 80.62 141.45 80.3486C141.614 80.0771 141.757 79.8899 141.786 79.9086Z" fill="#263238"/>
<path d="M142.705 76.7848C142.678 76.9664 142.609 77.1394 142.504 77.2902C142.361 77.5523 142.222 77.7582 142.189 77.7348C142.218 77.5535 142.287 77.3808 142.391 77.2294C142.534 76.9673 142.677 76.7684 142.705 76.7848Z" fill="#263238"/>
<path d="M143.747 78.2051C143.762 78.2356 143.621 78.3362 143.428 78.4391C143.236 78.5421 143.069 78.5772 143.055 78.5468C143.041 78.5164 143.182 78.4157 143.374 78.3245C143.567 78.2332 143.731 78.1724 143.747 78.2051Z" fill="#263238"/>
<path d="M143.773 89.4231C143.528 89.4268 143.286 89.3689 143.069 89.2546C142.839 89.1788 142.631 89.046 142.466 88.8685C142.905 89.0424 143.339 89.2274 143.769 89.4231H143.773Z" fill="#263238"/>
<path d="M143.346 91.7982C143.346 91.8333 143.137 91.9035 142.877 91.955C142.616 92.0064 142.379 92.0228 142.372 91.9877C142.365 91.9526 142.581 91.8824 142.842 91.8309C143.005 91.7805 143.178 91.7693 143.346 91.7982Z" fill="#263238"/>
<path d="M142.823 95.8722C142.404 95.6209 142.091 95.2269 141.941 94.763C142.103 94.9345 142.25 95.1201 142.379 95.3176C142.543 95.4892 142.692 95.6748 142.823 95.8722Z" fill="#263238"/>
<path d="M137.092 97.7371C137.069 97.7091 137.214 97.5476 137.414 97.3768C137.613 97.206 137.799 97.0866 137.822 97.1147C137.846 97.1428 137.7 97.3019 137.498 97.4727C137.296 97.6435 137.113 97.7629 137.092 97.7371Z" fill="#263238"/>
<path d="M135.443 88.8451C135.208 88.122 134.776 87.2796 134.016 87.2679C133.79 87.28 133.571 87.3527 133.382 87.4783C133.194 87.6038 133.043 87.7777 132.946 87.9816C132.737 88.3853 132.638 88.8361 132.657 89.2897C132.754 92.5078 133.307 95.6962 134.3 98.7597H137.085C137.05 95.3904 136.496 92.0466 135.443 88.8451Z" fill="#455A64"/>
<path d="M130.409 84.2962C130.019 82.7424 128.858 81.9047 127.511 81.8275C126.279 82.0427 125.802 83.2502 125.657 84.488C125.511 85.7259 125.892 86.9567 126.277 88.1431C127.497 91.9526 128.718 95.7621 129.94 99.5717L133.403 99.1949C132.307 94.0914 131.679 89.3599 130.409 84.2962Z" fill="#455A64"/>
<path d="M134.016 87.2679C133.927 87.3923 133.848 87.5238 133.781 87.6611C133.64 88.0534 133.595 88.4741 133.652 88.8872C133.706 89.4161 133.765 90.0572 133.854 90.7475C133.943 91.4378 134.072 92.21 134.227 93.0056C134.541 94.6015 134.898 96.0336 135.121 97.0749C135.236 97.5967 135.323 98.0109 135.377 98.3127C135.4 98.4485 135.419 98.5608 135.436 98.652C135.441 98.6916 135.441 98.7318 135.436 98.7714C135.436 98.7714 135.417 98.7339 135.398 98.6567C135.379 98.5795 135.349 98.4578 135.316 98.3244C135.243 98.0156 135.142 97.599 135.023 97.0959C134.788 96.0593 134.408 94.6319 134.084 93.0314C133.927 92.2311 133.805 91.4636 133.72 90.7616C133.676 90.4106 133.645 90.0783 133.617 89.7647C133.589 89.4512 133.558 89.1633 133.542 88.8942C133.493 88.4681 133.554 88.0365 133.718 87.64C133.789 87.4956 133.89 87.3686 134.016 87.2679Z" fill="#263238"/>
<path d="M127.56 81.7292C127.407 81.905 127.268 82.092 127.142 82.2885C126.823 82.8401 126.641 83.4607 126.614 84.0973C126.599 85.0414 126.744 85.9813 127.044 86.8772C127.347 87.9044 127.682 89.0323 128.032 90.2164C128.722 92.5845 129.348 94.7256 129.804 96.3004L130.327 98.1443C130.383 98.3549 130.43 98.521 130.463 98.6497C130.482 98.7075 130.496 98.7671 130.503 98.8276C130.477 98.7726 130.456 98.7154 130.439 98.6567C130.4 98.5304 130.346 98.3666 130.28 98.1583L129.717 96.3261C129.247 94.7606 128.614 92.6219 127.91 90.2608L126.931 86.917C126.633 86.0077 126.495 85.0535 126.525 84.0973C126.56 83.4497 126.758 82.8212 127.1 82.2697C127.222 82.0649 127.377 81.8822 127.56 81.7292Z" fill="#263238"/>
<path d="M132.648 98.8252C132.617 98.7729 132.591 98.7181 132.57 98.6614C132.526 98.5491 132.451 98.39 132.373 98.1747C132.209 97.7512 131.995 97.1264 131.777 96.3401C131.559 95.5539 131.341 94.6109 131.132 93.5555C130.923 92.5002 130.709 91.3372 130.475 90.1204C130.24 88.9036 129.965 87.7547 129.656 86.7274C129.386 85.8164 129.048 84.927 128.644 84.0668C128.371 83.4867 128.057 82.9261 127.706 82.3891C127.588 82.1948 127.471 82.0544 127.415 81.9538C127.378 81.9056 127.345 81.8538 127.318 81.7994C127.361 81.8431 127.4 81.89 127.436 81.9398C127.506 82.0357 127.621 82.1738 127.748 82.361C128.115 82.8902 128.441 83.4472 128.722 84.0271C129.142 84.886 129.493 85.7773 129.771 86.6923C130.107 87.8097 130.385 88.9438 130.604 90.09C130.838 91.3091 131.05 92.4698 131.247 93.5275C131.444 94.5851 131.657 95.5282 131.864 96.3121C132.07 97.096 132.27 97.7161 132.42 98.1536C132.49 98.3689 132.556 98.5327 132.594 98.6474C132.618 98.7047 132.636 98.7642 132.648 98.8252Z" fill="#263238"/>
<path d="M126.337 87.5721C126.337 87.6072 126.157 87.6821 125.917 87.7406C125.678 87.7991 125.474 87.8178 125.467 87.7827C125.46 87.7476 125.645 87.6751 125.887 87.6166C126.129 87.5581 126.33 87.5394 126.337 87.5721Z" fill="#263238"/>
<path d="M125.971 85.2158C125.782 85.2692 125.584 85.2905 125.387 85.279C125.191 85.3066 124.992 85.3002 124.798 85.2602C124.981 85.177 125.182 85.1393 125.382 85.1503C125.581 85.1226 125.784 85.1451 125.971 85.2158Z" fill="#263238"/>
<path d="M126.361 83.07C126.337 83.0957 126.15 82.9741 125.941 82.7962C125.732 82.6184 125.58 82.4546 125.603 82.4288C125.626 82.4031 125.814 82.5224 126.023 82.7003C126.232 82.8781 126.384 83.0349 126.361 83.07Z" fill="#263238"/>
<path d="M127.424 81.0693C127.459 81.0693 127.45 81.2448 127.445 81.4484C127.44 81.652 127.445 81.8204 127.403 81.8251C127.361 81.8298 127.311 81.6613 127.318 81.4437C127.325 81.2261 127.384 81.0623 127.424 81.0693Z" fill="#263238"/>
<path d="M129.576 82.0076C129.606 82.0287 129.522 82.1995 129.388 82.389C129.254 82.5786 129.123 82.7166 129.095 82.6956C129.067 82.6745 129.151 82.506 129.283 82.3165C129.414 82.127 129.548 81.9889 129.576 82.0076Z" fill="#263238"/>
<path d="M130.977 84.4365C130.991 84.4693 130.813 84.5722 130.578 84.6705C130.343 84.7688 130.141 84.8156 130.127 84.7828C130.113 84.7501 130.294 84.6471 130.529 84.5488C130.763 84.4506 130.965 84.4038 130.977 84.4365Z" fill="#263238"/>
<path d="M131.829 86.9333C131.492 87.1622 131.081 87.2551 130.679 87.1931C130.863 87.1205 131.055 87.0717 131.251 87.048C131.438 86.9848 131.632 86.9462 131.829 86.9333Z" fill="#263238"/>
<path d="M127.926 86.2243C127.891 86.2126 127.926 86.0418 127.98 85.8382C128.034 85.6346 128.121 85.4802 128.156 85.4919C128.191 85.5036 128.156 85.6744 128.1 85.8757C128.044 86.0769 127.959 86.2337 127.926 86.2243Z" fill="#263238"/>
<path d="M128.471 89.3599C128.481 89.1772 128.534 88.9994 128.625 88.8404C128.745 88.5667 128.86 88.3584 128.9 88.3724C128.889 88.5547 128.835 88.7318 128.743 88.8896C128.623 89.154 128.501 89.374 128.471 89.3599Z" fill="#263238"/>
<path d="M127.124 90.2163C126.952 90.2148 126.783 90.1782 126.626 90.1087C126.361 90.0245 126.145 89.9496 126.157 89.9145C126.169 89.8794 126.392 89.9028 126.666 89.987C126.941 90.0713 127.138 90.1859 127.124 90.2163Z" fill="#263238"/>
<path d="M127.893 92.774C127.915 92.802 127.764 92.9424 127.563 93.0875C127.361 93.2326 127.178 93.3215 127.157 93.2981C127.135 93.2747 127.283 93.1296 127.487 92.9846C127.692 92.8395 127.879 92.7459 127.893 92.774Z" fill="#263238"/>
<path d="M128.522 95.3222C128.522 95.3573 128.346 95.4299 128.112 95.486C127.877 95.5422 127.68 95.5632 127.673 95.5281C127.666 95.493 127.846 95.4205 128.081 95.3643C128.316 95.3082 128.513 95.2871 128.522 95.3222Z" fill="#263238"/>
<path d="M131.897 89.0627C131.913 89.0908 131.756 89.2171 131.528 89.2967C131.301 89.3763 131.099 89.3926 131.094 89.3599C131.09 89.3271 131.266 89.2593 131.484 89.1774C131.702 89.0955 131.883 89.0323 131.897 89.0627Z" fill="#263238"/>
<path d="M132.378 93.0267C132.364 93.0594 132.176 93.0033 131.96 92.9003C131.744 92.7973 131.582 92.692 131.596 92.6663C131.611 92.6406 131.798 92.6897 132.014 92.7903C132.23 92.8909 132.394 92.9962 132.378 93.0267Z" fill="#263238"/>
<path d="M133.23 95.8651C133.037 95.856 132.849 95.8057 132.678 95.7177C132.387 95.603 132.16 95.4837 132.174 95.4509C132.366 95.4606 132.554 95.5108 132.725 95.5983C132.911 95.6499 133.083 95.7409 133.23 95.8651Z" fill="#263238"/>
<path d="M128.658 98.0881C128.642 98.0554 128.867 97.9033 129.128 97.6973C129.388 97.4914 129.597 97.3066 129.62 97.3323C129.644 97.358 129.48 97.5827 129.207 97.8003C129.054 97.9448 128.864 98.0444 128.658 98.0881Z" fill="#263238"/>
<path d="M130.909 96.642C130.871 96.642 130.822 96.4548 130.735 96.2349C130.648 96.0149 130.559 95.8371 130.587 95.816C130.615 95.7949 130.763 95.9494 130.855 96.1881C130.946 96.4267 130.944 96.642 130.909 96.642Z" fill="#263238"/>
<path d="M130.31 93.2326C130.292 93.2607 130.146 93.1905 129.987 93.0781C129.827 92.9658 129.717 92.8442 129.738 92.8208C129.759 92.7974 129.902 92.8605 130.062 92.9752C130.221 93.0898 130.332 93.2045 130.31 93.2326Z" fill="#263238"/>
<path d="M135.555 87.8834C135.576 87.9138 135.436 88.0518 135.241 88.1969C135.046 88.342 134.87 88.4309 134.849 88.4052C134.828 88.3794 134.969 88.2367 135.163 88.094C135.358 87.9512 135.534 87.8553 135.555 87.8834Z" fill="#263238"/>
<path d="M136.341 90.0385C136.341 90.0736 136.123 90.1204 135.849 90.09C135.574 90.0596 135.379 89.9683 135.379 89.9356C135.379 89.9028 135.614 89.9356 135.863 89.9636C136.111 89.9917 136.341 90.0034 136.341 90.0385Z" fill="#263238"/>
<path d="M132.948 90.5229C132.948 90.5557 132.751 90.6282 132.479 90.6469C132.207 90.6656 132.009 90.6188 132.009 90.5837C132.009 90.5486 132.221 90.5369 132.479 90.5206C132.737 90.5042 132.941 90.4878 132.948 90.5229Z" fill="#263238"/>
<path d="M133.241 88.4848C133.241 88.5199 133.03 88.5245 132.805 88.4192C132.58 88.3139 132.446 88.1548 132.469 88.1314C132.493 88.108 132.65 88.211 132.857 88.3046C133.063 88.3982 133.246 88.452 133.241 88.4848Z" fill="#263238"/>
<path d="M136.637 92.3528C136.618 92.3808 136.402 92.2826 136.168 92.1305C135.933 91.9784 135.743 91.8286 135.762 91.8005C135.781 91.7724 135.996 91.8684 136.231 92.0228C136.466 92.1773 136.656 92.3223 136.637 92.3528Z" fill="#263238"/>
<path d="M144.928 98.3994H126.802V101.603H144.928V98.3994Z" fill="#40C5A6"/>
<path d="M128.156 100.966L130.36 110.539H141.164L143.574 100.966H128.156Z" fill="#40C5A6"/>
<path d="M144.918 101.605C144.918 101.64 140.831 101.671 135.788 101.671C130.745 101.671 126.654 101.64 126.654 101.605C126.654 101.57 130.742 101.542 135.788 101.542C140.833 101.542 144.918 101.572 144.918 101.605Z" fill="#263238"/>
<path d="M134.837 90.5931C134.807 90.6118 134.685 90.4668 134.56 90.2702C134.436 90.0736 134.363 89.9005 134.391 89.8818C134.419 89.863 134.546 90.0081 134.668 90.2023C134.79 90.3966 134.868 90.5744 134.837 90.5931Z" fill="#263238"/>
<path d="M134.844 93.1694C134.835 93.002 134.867 92.8348 134.938 92.6827C135.025 92.4253 135.121 92.2264 135.154 92.2381C135.187 92.2498 135.154 92.4721 135.06 92.7225C134.966 92.9729 134.877 93.1811 134.844 93.1694Z" fill="#263238"/>
<path d="M135.729 95.8768C135.696 95.8909 135.562 95.6756 135.426 95.3924C135.325 95.2289 135.261 95.0452 135.238 94.8542C135.271 94.8402 135.405 95.0555 135.541 95.3386C135.644 95.5016 135.708 95.6856 135.729 95.8768Z" fill="#263238"/>
<path d="M133.814 98.046C133.788 98.0226 133.896 97.8541 134.049 97.6716C134.201 97.4891 134.361 97.3581 134.387 97.3791C134.412 97.4002 134.304 97.571 134.152 97.7535C133.999 97.936 133.842 98.0764 133.814 98.046Z" fill="#263238"/>
<path d="M133.413 94.1008C133.413 94.1335 133.232 94.1335 133.023 94.1008C132.814 94.068 132.65 94.0071 132.655 93.972C132.659 93.9369 132.835 93.9393 133.044 93.972C133.253 94.0048 133.42 94.068 133.413 94.1008Z" fill="#263238"/>
<path d="M93.4935 45.5739L81.0562 41.1279C81.8705 50.8014 82.6613 60.716 80.0823 70.076C79.803 71.0892 79.5566 72.3575 80.3639 73.0314C80.8473 73.4339 81.5372 73.4479 82.1685 73.4292C83.4576 73.3902 84.7443 73.2958 86.0288 73.1461C87.3945 72.9893 88.8448 72.7226 89.8233 71.7538C90.6376 70.9395 90.9661 69.7742 91.2313 68.658C93.0896 61.1109 93.8514 53.3369 93.4935 45.5739Z" fill="#263238"/>
<path d="M73.1315 85.5036L74.6052 83.5778L75.5908 78.4298L77.8342 65.8991C77.8342 65.8991 78.8222 61.1864 81.8705 59.8362L82.5158 72.3552L76.2972 88.087L73.1315 85.5036Z" fill="#40C5A6"/>
<path d="M86.4981 56.4291L84.6654 58.5913L81.8705 59.8315C81.8705 59.8315 75.7176 71.5502 75.5627 71.6602C75.4078 71.7702 74.4105 75.1117 74.9596 77.9595C75.5087 80.8073 75.8982 84.5325 75.8372 87.2142C75.7762 89.8958 72.2586 98.7176 72.0427 100.744C71.8268 102.771 71.104 110.602 71.104 110.602L102.193 110.368C101.911 108.4 101.525 106.447 101.038 104.518C101.038 104.518 100.928 96.7403 99.7756 95.2614C99.7756 95.2614 100.653 93.235 100.545 92.0861C100.437 90.9371 105.159 84.8016 106.093 82.6652C107.027 80.5288 110.706 75.6452 110.76 72.1493C110.814 68.6533 110.265 65.6862 108.508 63.276C106.75 60.8658 103.565 59.2231 102.247 58.3479L99.6653 55.0602L86.4981 56.4291Z" fill="#40C5A6"/>
<path d="M75.4148 110.602C75.4117 110.571 75.4117 110.54 75.4148 110.509C75.4148 110.441 75.4148 110.35 75.4148 110.233C75.4148 109.985 75.4406 109.631 75.4594 109.177C75.4993 108.255 75.5533 106.931 75.6213 105.298C75.6495 104.479 75.68 103.58 75.6917 102.616C75.6917 102.148 75.6917 101.638 75.6917 101.125C75.6819 100.592 75.7347 100.06 75.849 99.5389C76.113 98.4329 76.4525 97.3462 76.8651 96.2863C77.0765 95.7275 77.2559 95.1572 77.4025 94.5781C77.4608 94.2798 77.5008 93.9781 77.5221 93.6749L77.6137 92.7389C77.7404 91.494 77.8624 90.2796 77.9797 89.1049C78.0407 88.5175 78.0971 87.9349 78.1557 87.3756C78.2144 86.8163 78.2848 86.2594 78.3012 85.7189C78.4328 83.8065 78.6939 81.9052 79.0827 80.028C79.3995 78.4181 79.6905 77.1217 79.8782 76.2232C79.9721 75.7809 80.0448 75.4346 80.0941 75.1912L80.1527 74.9221C80.1581 74.8911 80.166 74.8606 80.1762 74.8309C80.175 74.8623 80.171 74.8937 80.1645 74.9245C80.1527 74.9923 80.1387 75.0813 80.1199 75.1959C80.073 75.4299 80.0073 75.7879 79.9251 76.2349C79.7515 77.1358 79.4746 78.4321 79.1671 80.0444C78.79 81.9259 78.5376 83.8301 78.4115 85.7446C78.3974 86.2875 78.32 86.8374 78.2684 87.4037C78.2167 87.97 78.1557 88.5456 78.0971 89.133L77.7333 92.7693L77.6418 93.7053C77.619 94.0133 77.5775 94.3196 77.5174 94.6226C77.3714 95.2069 77.1904 95.7821 76.9754 96.3448C76.5628 97.3993 76.2225 98.4806 75.9569 99.5811C75.8438 100.093 75.7895 100.616 75.795 101.139C75.8114 101.657 75.8091 102.155 75.795 102.637C75.7786 103.601 75.7434 104.509 75.7105 105.319C75.6401 106.957 75.565 108.284 75.511 109.198C75.4805 109.652 75.4571 110.006 75.4406 110.254C75.4313 110.369 75.4242 110.46 75.4195 110.528C75.4192 110.553 75.4176 110.578 75.4148 110.602Z" fill="#263238"/>
<path d="M80.256 74.7209C80.256 74.4705 81.3589 70.2234 83.6633 66.6736C85.9678 63.1239 86.4793 60.0257 86.4793 60.0257L86.5169 55.444L86.714 56.0337L98.4004 54.3442L98.7548 56.029L90.9333 63.0747C90.9333 63.0747 87.3194 63.7767 87.1786 63.875C87.0378 63.9733 80.256 74.7209 80.256 74.7209Z" fill="#EFBDA8"/>
<path d="M102.247 58.3526C102.217 58.4095 102.183 58.4635 102.143 58.5141C102.073 58.6194 101.967 58.7738 101.829 58.968C101.552 59.3588 101.139 59.9157 100.616 60.5943C100.092 61.2729 99.4564 62.0709 98.7712 62.9718C98.4286 63.4234 98.0672 63.9078 97.7152 64.3992C97.6267 64.5309 97.5287 64.6561 97.4218 64.7736C97.3053 64.9025 97.1463 64.9855 96.9736 65.0076C96.8 65.0089 96.6297 64.9601 96.4832 64.8672C96.3377 64.7829 96.2063 64.694 96.0678 64.6051L94.458 63.5755C94.1975 63.4093 93.9441 63.2409 93.693 63.0888C93.4657 62.9248 93.1895 62.8424 92.9092 62.8548C92.6451 62.9032 92.3978 63.0184 92.1911 63.1894C91.9799 63.3485 91.7711 63.51 91.5528 63.6433C91.149 63.8905 90.7087 64.0729 90.2481 64.1839C89.5834 64.35 88.8899 64.366 88.2182 64.2307C88.1129 64.2114 88.0087 64.1864 87.9061 64.1558C87.8169 64.1301 87.7419 64.109 87.6715 64.0856C87.6095 64.0672 87.5497 64.0421 87.4931 64.0107C87.556 64.0239 87.6179 64.0411 87.6785 64.0622C87.7395 64.0809 87.8146 64.0996 87.9132 64.1207C88.0161 64.147 88.1202 64.1681 88.2253 64.1839C88.8898 64.3007 89.5719 64.2727 90.2246 64.102C90.6742 63.9865 91.1031 63.8026 91.4965 63.5568C91.7077 63.4257 91.9095 63.2666 92.1254 63.1028C92.3452 62.9178 92.6098 62.7935 92.8928 62.7424C93.1972 62.7231 93.4994 62.8055 93.7517 62.9764C94.0075 63.1332 94.2585 63.297 94.5214 63.4632L96.1312 64.4904C96.4057 64.6566 96.6709 64.8882 96.9619 64.8742C97.1054 64.8561 97.2374 64.7862 97.3327 64.6776C97.4361 64.5646 97.531 64.4442 97.6166 64.3173C97.9757 63.8188 98.3347 63.3415 98.6797 62.8922C99.3696 61.9936 100.015 61.2027 100.557 60.5311C101.099 59.8596 101.51 59.3097 101.798 58.9282L102.134 58.4883C102.169 58.4409 102.206 58.3955 102.247 58.3526Z" fill="#263238"/>
<path d="M84.6653 71.721C84.7121 71.6048 84.7702 71.4935 84.839 71.3887C84.9563 71.1805 85.137 70.881 85.3646 70.5159C85.834 69.7858 86.4864 68.796 87.2819 67.7477C88.0774 66.6994 88.8495 65.7938 89.4314 65.1573C89.7224 64.8391 89.9618 64.5864 90.1354 64.4155C90.2186 64.3222 90.3097 64.2361 90.4076 64.1581C90.3382 64.2609 90.2596 64.3572 90.173 64.446C90.0017 64.6449 89.774 64.9023 89.5018 65.2135C88.941 65.864 88.1783 66.7766 87.3898 67.8226C86.6013 68.8686 85.9232 69.8467 85.4491 70.5627C85.2145 70.909 85.0338 71.1945 84.8906 71.4145C84.8242 71.5227 84.7488 71.6253 84.6653 71.721Z" fill="#263238"/>
<path d="M85.6744 72.6196H85.719L85.8528 72.6477L86.3714 72.7577C86.8266 72.8559 87.4931 72.9917 88.3426 73.1719C88.7673 73.2561 89.239 73.3473 89.7506 73.4363C90.0087 73.4807 90.2762 73.5182 90.5555 73.5603C90.8347 73.6024 91.1234 73.6726 91.4167 73.7498C92.0034 73.8996 92.6182 74.0962 93.2588 74.3185C93.5803 74.4308 93.9065 74.5524 94.2397 74.6811C94.4064 74.7467 94.573 74.8122 94.7419 74.8847L94.993 74.9947L95.1197 75.0555L95.1854 75.0906L95.2183 75.1117L95.2347 75.1257C95.2504 75.1399 95.2611 75.1588 95.2652 75.1796V75.1936L92.8153 82.9952C92.6805 83.2465 92.5234 83.4854 92.346 83.7089C92.1689 83.9456 91.9605 84.1573 91.7265 84.3383C91.6396 84.4043 91.543 84.4564 91.4402 84.4928L91.1492 84.591L90.5719 84.7853L89.4408 85.176L87.2396 85.9131L87.2068 85.9249L87.181 85.9015L84.8789 83.7744L84.3345 83.269C84.1501 83.1069 83.9746 82.9351 83.8088 82.7541C83.6457 82.5674 83.5384 82.3388 83.499 82.0943C83.4683 81.8609 83.4731 81.6242 83.5131 81.3923C83.8276 79.5998 84.1819 78.0297 84.5034 76.7263C84.8249 75.4229 85.1206 74.3863 85.3294 73.6843L85.5782 72.877L85.6462 72.6711C85.653 72.6467 85.6624 72.6232 85.6744 72.6009C85.6744 72.6009 85.6744 72.6266 85.658 72.6734C85.6416 72.7202 85.6228 72.7951 85.5993 72.884L85.3646 73.6937C85.1675 74.3957 84.8836 75.4323 84.5715 76.7357C84.2594 78.039 83.9144 79.6115 83.6117 81.3969C83.573 81.6188 83.5683 81.8452 83.5976 82.0685C83.6343 82.2942 83.7353 82.5046 83.8886 82.6746C84.0505 82.8516 84.2221 83.0195 84.4025 83.1777L84.9493 83.7019L87.2537 85.8242H87.1951L89.3939 85.0824L90.5344 84.6987L91.1116 84.5045L91.4026 84.4062C91.4929 84.3733 91.5776 84.3267 91.6537 84.2681C91.8782 84.0931 92.0786 83.8893 92.2498 83.6621C92.4191 83.4413 92.5691 83.2065 92.698 82.9601L95.1643 75.1632L95.2089 75.1796C93.9694 74.6479 92.6964 74.1976 91.3979 73.8317C91.1069 73.7545 90.8206 73.689 90.5461 73.6399C90.2715 73.5907 89.997 73.5556 89.7388 73.5088C89.2249 73.4176 88.7532 73.3216 88.3308 73.2327C87.4813 73.0525 86.8172 72.8981 86.3643 72.7904L85.8481 72.6641L85.7166 72.629C85.6885 72.6266 85.6721 72.6219 85.6744 72.6196Z" fill="#263238"/>
<g opacity="0.3">
<path d="M85.9302 99.6443C83.2128 99.2348 79.437 98.1045 76.3394 97.4587C75.2341 97.2247 74.2767 96.9626 73.1714 96.7333L72.9813 97.344C76.12 98.0193 79.1571 99.0994 82.016 100.557C83.7338 101.434 85.4374 102.459 87.3476 102.738C89.4854 103.051 91.6326 102.396 93.6836 101.748C94.857 101.381 96.0655 100.98 96.8939 100.091C97.4782 99.4617 97.8114 98.6474 98.1188 97.8471C98.9276 95.7302 99.6355 93.5774 100.243 91.3887C96.5536 95.5212 91.4144 100.473 85.9302 99.6443Z" fill="black"/>
</g>
<path d="M98.743 72.9753L90.9333 87.2961C90.9333 87.2961 89.1217 87.6588 89.1217 89.5706C89.1217 89.5706 88.4904 89.0675 87.5729 89.6127C86.9838 89.9613 85.3248 90.427 84.4072 90.9161C84.1877 91.0323 84.0146 91.2197 83.9165 91.4473C83.8183 91.675 83.801 91.9292 83.8675 92.168L86.2916 100.95C86.2916 100.95 89.2366 100.95 89.4971 100.222L93.5357 98.961C93.5357 98.961 96.1429 98.28 97.152 96.5438C98.161 94.8075 104.173 85.878 104.173 85.878" fill="#40C5A6"/>
<path d="M104.173 85.878C104.173 85.878 104.157 85.9108 104.119 85.9693C104.082 86.0278 104.023 86.1144 103.953 86.2267L103.296 87.2212L100.836 90.9277C100.313 91.7233 99.7357 92.5985 99.1138 93.5485C98.4919 94.4986 97.8232 95.5188 97.152 96.6256C96.7852 97.1945 96.2953 97.6743 95.7182 98.0296C95.1227 98.4113 94.4808 98.7156 93.808 98.9352L89.5159 100.278L89.5535 100.241C89.4896 100.377 89.3812 100.488 89.2461 100.555C89.1206 100.621 88.9885 100.674 88.8518 100.714C88.5803 100.795 88.3024 100.854 88.0211 100.889C87.4478 100.967 86.8701 101.007 86.2916 101.011H86.2447V100.966L84.8766 96.0102C84.6294 95.1195 84.3861 94.2373 84.1468 93.3637C84.0294 92.9238 83.9121 92.5026 83.7948 92.058C83.7582 91.8257 83.7937 91.5878 83.8964 91.3762C83.9992 91.1646 84.1643 90.9893 84.3697 90.8739C85.1557 90.5078 85.961 90.1844 86.7821 89.9052C86.9792 89.8279 87.174 89.7507 87.3617 89.6712C87.5455 89.5673 87.736 89.4759 87.9319 89.3974C88.1346 89.3224 88.352 89.2958 88.5668 89.3198C88.7815 89.3438 88.9877 89.4176 89.1686 89.5354L89.0748 89.5799C89.0648 89.0277 89.251 88.4897 89.6004 88.0612C89.9492 87.6582 90.4164 87.3749 90.9357 87.2516L90.8981 87.2797C93.2307 83.0209 95.1902 79.4454 96.5653 76.9299L98.1728 74.0142C98.3605 73.6796 98.5037 73.4245 98.6022 73.2444L98.7149 73.0501C98.7264 73.0273 98.7398 73.0054 98.7548 72.9846C98.7548 72.9846 98.7548 73.008 98.7219 73.0525L98.6163 73.2537C98.5225 73.4339 98.3817 73.6936 98.2033 74.0306C97.8349 74.7115 97.2998 75.7037 96.624 76.9603L90.992 87.3312V87.3522H90.9662C90.4717 87.4721 90.0271 87.7429 89.6943 88.1268C89.3623 88.5349 89.1868 89.0475 89.1991 89.5729V89.6829L89.1076 89.6173C88.9419 89.5119 88.7538 89.4464 88.5583 89.4261C88.3628 89.4058 88.1652 89.4312 87.9812 89.5003C87.79 89.5776 87.6042 89.6675 87.4251 89.7694C87.2326 89.8607 87.0355 89.9403 86.8361 90.0175C86.0204 90.2951 85.2206 90.6169 84.4401 90.9816C84.2565 91.0852 84.1089 91.2421 84.0171 91.4315C83.9253 91.6209 83.8936 91.8337 83.9262 92.0416C84.0271 92.4604 84.1609 92.9004 84.2758 93.3333C84.5152 94.2053 84.7585 95.0883 85.0057 95.9821C85.475 97.6786 85.9326 99.3424 86.3714 100.936L86.3151 100.891C86.8881 100.889 87.4603 100.85 88.0282 100.774C88.3036 100.739 88.5758 100.681 88.8425 100.604C88.9702 100.567 89.0937 100.517 89.2109 100.454C89.3216 100.401 89.4116 100.313 89.4667 100.204L89.4784 100.178H89.5042L93.7963 98.844C94.4574 98.6272 95.0882 98.3276 95.6736 97.9524C96.2385 97.6063 96.7194 97.1396 97.0816 96.5859C97.7574 95.479 98.4309 94.4611 99.0528 93.5111L100.789 90.8973L103.253 87.1884L103.924 86.2033L104.1 85.9506C104.15 85.8944 104.173 85.878 104.173 85.878Z" fill="#263238"/>
<path d="M99.9468 91.852C99.9252 91.8085 99.9102 91.7619 99.9022 91.714C99.8741 91.611 99.8412 91.48 99.799 91.3162C99.7075 90.9511 99.5854 90.4527 99.4329 89.8396C99.1255 88.5971 98.6914 86.8795 98.1798 84.9912C97.6682 83.1028 97.1754 81.4016 96.8117 80.1708L96.3822 78.7129L96.2673 78.3175C96.2515 78.2713 96.2412 78.2234 96.2368 78.1747C96.26 78.2177 96.2781 78.2633 96.2907 78.3105L96.4268 78.6989C96.5418 79.0405 96.7014 79.5343 96.8962 80.145C97.281 81.3688 97.7856 83.07 98.3042 84.9584C98.8228 86.8468 99.2428 88.5714 99.5244 89.8209C99.6676 90.4457 99.7802 90.9535 99.853 91.3045L99.9328 91.7093C99.9406 91.7565 99.9453 91.8042 99.9468 91.852Z" fill="white"/>
<path d="M97.098 96.3285C97.0652 96.3285 96.4128 92.9425 95.6431 88.7539C94.8734 84.5653 94.2726 81.1606 94.3055 81.1536C94.3383 81.1466 94.9907 84.5396 95.7628 88.7305C96.5348 92.9214 97.1309 96.3238 97.098 96.3285Z" fill="white"/>
<path d="M84.2453 76.4525C84.2641 76.4806 83.1189 77.2903 81.6898 78.2614C80.2607 79.2325 79.0827 79.9953 79.0639 79.9672C79.0451 79.9391 80.1903 79.1295 81.6194 78.1607C83.0485 77.192 84.2266 76.4244 84.2453 76.4525Z" fill="white"/>
<path d="M83.485 79.5085C83.4363 79.5745 83.3795 79.6343 83.3161 79.6864C83.2011 79.7964 83.0345 79.9485 82.8233 80.1333C82.4009 80.5054 81.8095 81.0061 81.136 81.5373C80.4625 82.0685 79.8406 82.5342 79.383 82.8594C79.1484 83.0232 78.9677 83.1519 78.8363 83.2385C78.7701 83.2867 78.6994 83.3282 78.6251 83.3625C78.6787 83.3003 78.7402 83.2452 78.8081 83.1987L79.3314 82.7892C79.7773 82.4476 80.3898 81.9749 81.0609 81.4414C81.732 80.9079 82.3328 80.4211 82.7669 80.0655L83.2855 79.6489C83.3456 79.5937 83.4127 79.5465 83.485 79.5085Z" fill="white"/>
<path d="M78.3786 79.8408C78.3505 79.8619 77.5338 78.7925 76.5553 77.4564C75.5767 76.1202 74.8023 75.0181 74.8305 74.997C74.8586 74.9759 75.6729 76.0453 76.6538 77.3838C77.6347 78.7223 78.4091 79.8221 78.3786 79.8408Z" fill="white"/>
<path d="M77.9727 83.9428C77.8201 83.84 77.6806 83.7189 77.5573 83.5825C77.3227 83.3485 76.9894 83.0068 76.6539 82.6114C76.3183 82.2159 76.0367 81.8415 75.8443 81.5607C75.7305 81.4171 75.6351 81.2599 75.5603 81.0927C75.6929 81.2186 75.8117 81.3583 75.9147 81.5092C76.1235 81.776 76.4145 82.1387 76.7477 82.5318C77.0809 82.9249 77.3931 83.2736 77.6183 83.524C77.75 83.6516 77.8687 83.7919 77.9727 83.9428Z" fill="white"/>
<path d="M99.3156 61.9772C99.1139 61.862 98.921 61.7322 98.7383 61.5888L97.3867 60.606C96.8587 60.2199 96.387 59.8642 96.0514 59.5975C95.8619 59.4625 95.6859 59.3097 95.5258 59.1412C95.7285 59.2538 95.9216 59.383 96.103 59.5273L97.4594 60.5077C97.9874 60.8938 98.4614 61.2495 98.797 61.5163C98.9851 61.652 99.1589 61.8065 99.3156 61.9772Z" fill="white"/>
<path d="M100.386 60.4984C99.7962 60.0901 99.2306 59.6487 98.6914 59.1763C98.1258 58.7338 97.5853 58.2604 97.0722 57.7582C97.663 58.1665 98.2295 58.6088 98.7688 59.0827C99.3343 59.5236 99.8741 59.9963 100.386 60.4984Z" fill="white"/>
<path d="M89.1099 75.348C89.1428 75.348 88.7251 77.688 88.1713 80.5405C87.6175 83.3929 87.1481 85.7142 87.1153 85.7095C87.0824 85.7049 87.5025 83.3695 88.0539 80.5171C88.6054 77.6646 89.0771 75.3293 89.1099 75.348Z" fill="white"/>
<path d="M95.0517 92.7623C94.9807 92.7388 94.9129 92.7066 94.8499 92.6664C94.7208 92.5985 94.5425 92.4909 94.3243 92.3505C93.7628 91.9773 93.2393 91.5502 92.7614 91.0752C92.2839 90.5996 91.8554 90.0775 91.4824 89.5167C91.3416 89.3014 91.2337 89.1236 91.1656 88.9949C91.1244 88.9321 91.0928 88.8634 91.0718 88.7913C91.0882 88.7913 91.2548 89.0534 91.5552 89.4676C91.9448 90.0089 92.3772 90.5183 92.8482 90.9909C93.3226 91.4592 93.8325 91.8903 94.3735 92.2803C94.7912 92.5774 95.0635 92.7436 95.0517 92.7623Z" fill="#263238"/>
<path d="M95.3098 88.2695C95.0934 88.3364 94.8696 88.3765 94.6434 88.3889C93.5526 88.5008 92.4504 88.3844 91.4073 88.0472C91.1884 87.9883 90.9778 87.9018 90.7808 87.7898C90.7808 87.7734 91.0319 87.8577 91.4331 87.9653C91.953 88.1076 92.4835 88.2078 93.0195 88.2648C93.5566 88.3203 94.0972 88.3336 94.6363 88.3046C94.86 88.2798 95.0848 88.2681 95.3098 88.2695Z" fill="#263238"/>
<path d="M78.5288 66.0231C78.526 66.0425 78.5205 66.0614 78.5124 66.0793L78.449 66.2384C78.3974 66.3788 78.3082 66.5824 78.1886 66.8398C77.9539 67.3569 77.5479 68.0777 77.027 68.9458C76.3918 69.9507 75.8513 71.0122 75.4124 72.1165L75.328 72.3505L75.2576 72.5845C75.213 72.7483 75.166 72.9168 75.1215 73.0853C75.0714 73.2546 75.0346 73.4274 75.0112 73.6024C74.983 73.7779 74.9525 73.9557 74.922 74.1359C74.8798 74.4963 74.8563 74.866 74.8352 75.2404C74.8352 75.4276 74.8352 75.6171 74.8352 75.809C74.8352 76.0009 74.8352 76.1904 74.8516 76.3823C74.9655 77.8424 75.1677 79.2943 75.457 80.73C75.6867 81.9006 75.8481 83.0836 75.9404 84.2728C75.9874 84.7782 75.9639 85.2416 75.971 85.6464C75.9381 86.0489 75.9193 86.3975 75.8841 86.6807C75.8489 86.9638 75.7973 87.1697 75.7691 87.3265L75.7363 87.4926C75.7332 87.512 75.7277 87.5308 75.7199 87.5488C75.7174 87.5294 75.7174 87.5097 75.7199 87.4903C75.7199 87.4466 75.7269 87.3905 75.741 87.3218C75.7621 87.165 75.7926 86.9474 75.8325 86.676C75.8724 86.4045 75.8724 86.0465 75.8982 85.644C75.8841 85.2416 75.8982 84.7829 75.8489 84.2775C75.7437 83.0938 75.5745 81.9166 75.342 80.7511C75.0473 79.3198 74.842 77.8717 74.7272 76.4151C74.7108 76.2209 74.7084 76.029 74.7108 75.8348C74.7131 75.6405 74.7108 75.4533 74.7108 75.2615C74.7343 74.8847 74.7577 74.5103 74.8 74.1453C74.8328 73.9651 74.8633 73.7849 74.8938 73.6071C74.9172 73.4298 74.9541 73.2546 75.0041 73.0829C75.0534 72.9121 75.1003 72.7436 75.1473 72.5775L75.2177 72.3294C75.2458 72.2475 75.2763 72.168 75.3045 72.0954C75.749 70.9871 76.2991 69.9237 76.9472 68.9201C77.4752 68.0519 77.8858 67.3406 78.1393 66.8304C78.2636 66.5754 78.3599 66.3788 78.4209 66.2408C78.449 66.1776 78.4725 66.1284 78.4936 66.0863C78.5014 66.0633 78.5133 66.0419 78.5288 66.0231Z" fill="#263238"/>
<path d="M86.4981 56.4291L86.4676 56.4783L86.3737 56.614C86.2916 56.7357 86.1578 56.9065 85.9818 57.1218C85.6275 57.5547 85.0901 58.1584 84.4119 58.9002C84.0764 59.2746 83.7079 59.6817 83.309 60.1217C82.9101 60.5616 82.497 61.0436 82.1005 61.5818C81.2895 62.798 80.77 64.1839 80.5822 65.6324L80.4672 65.5996C80.6564 65.2415 80.877 64.9009 81.1266 64.5817C81.2533 64.4109 81.38 64.2401 81.4974 64.0669C81.556 63.9803 81.6147 63.8938 81.6663 63.8048L81.7438 63.6715L81.7813 63.6036L81.7977 63.5685V63.5521L81.8118 63.531C81.8194 63.522 81.8293 63.5151 81.8404 63.511C81.8515 63.5069 81.8635 63.5057 81.8752 63.5076C81.8861 63.5096 81.8964 63.5139 81.9053 63.5204C81.9143 63.5269 81.9216 63.5353 81.9268 63.5451V63.5591V63.5779L81.9409 63.6153L81.969 63.6902C81.99 63.7385 82.0065 63.7886 82.0183 63.8399C82.0491 63.941 82.0718 64.0442 82.0864 64.1488C82.1195 64.353 82.1329 64.5599 82.1263 64.7666C82.0712 65.5422 81.9423 66.3108 81.7414 67.0621C81.4669 68.5223 80.9647 69.7718 80.6667 70.8459C80.4048 71.6881 80.2588 72.5619 80.2325 73.4433C80.2292 73.6824 80.2402 73.9215 80.2654 74.1593C80.2654 74.2342 80.2818 74.2974 80.2865 74.3442C80.2901 74.3659 80.2901 74.388 80.2865 74.4097C80.2149 74.0926 80.1794 73.7684 80.1809 73.4433C80.1893 72.5551 80.3244 71.6727 80.5822 70.8225C80.8708 69.7391 81.3613 68.4825 81.6288 67.0387C81.8246 66.2938 81.9503 65.5324 82.0043 64.7642C82.0098 64.5645 81.9964 64.3647 81.9644 64.1675C81.9503 64.0677 81.9283 63.9691 81.8987 63.8727C81.8884 63.8238 81.8735 63.776 81.8541 63.73L81.8259 63.6597L81.8142 63.6246V63.6059C81.8329 63.6059 81.7672 63.6223 81.8588 63.5825C81.8189 63.5615 81.9151 63.6083 81.9033 63.6059V63.6223L81.8987 63.648L81.8611 63.7206L81.7813 63.8586C81.725 63.9499 81.6687 64.0388 81.6077 64.1254C81.488 64.3009 81.3613 64.4717 81.2345 64.6449C80.99 64.9569 80.7732 65.2897 80.5869 65.6394L80.4132 66.0044L80.4719 65.6066C80.6624 64.1392 81.1935 62.7362 82.023 61.5093C82.4243 60.9664 82.849 60.4914 83.2456 60.0491C83.6422 59.6069 84.02 59.2044 84.3627 58.8347C85.0479 58.0999 85.5947 57.5055 85.956 57.0843C86.1367 56.8714 86.2752 56.7076 86.3644 56.5906L86.4676 56.4619C86.4817 56.4408 86.4958 56.4268 86.4981 56.4291Z" fill="#263238"/>
<path d="M86.9839 89.8256C87.0147 89.8483 87.0423 89.8751 87.066 89.9052L87.2843 90.1509C87.4009 90.2785 87.5098 90.4129 87.6104 90.5534C87.7301 90.7172 87.878 90.8973 88.0117 91.1126C88.1455 91.3279 88.3051 91.5619 88.4459 91.8263C88.5867 92.0907 88.7345 92.3739 88.8823 92.6781C89.1824 93.3464 89.4242 94.0393 89.6051 94.749C89.7736 95.4617 89.8812 96.1873 89.9266 96.9182C89.9266 97.2551 89.9524 97.5757 89.9266 97.8752C89.9224 98.1537 89.9036 98.4317 89.8703 98.7083C89.8539 98.9633 89.8069 99.1903 89.7764 99.3892C89.7517 99.5603 89.7172 99.7298 89.6732 99.897L89.5934 100.215C89.5871 100.253 89.5752 100.29 89.5582 100.325C89.5562 100.287 89.5602 100.248 89.5699 100.211C89.5863 100.122 89.6051 100.016 89.6262 99.8876C89.6473 99.7589 89.6872 99.5787 89.7084 99.3775C89.7295 99.1763 89.7741 98.954 89.7858 98.6989C89.7975 98.4438 89.828 98.1724 89.8257 97.8729C89.8233 97.5734 89.8257 97.2598 89.8069 96.9252C89.7558 96.2022 89.6459 95.4846 89.4784 94.7794C89.3007 94.0764 89.0653 93.3893 88.7744 92.7249C88.6312 92.423 88.5022 92.1329 88.352 91.8755C88.2018 91.6181 88.0704 91.3747 87.9343 91.1618C87.7982 90.9488 87.6644 90.7593 87.5518 90.5955C87.4391 90.4317 87.3312 90.2913 87.242 90.1813L87.0426 89.9216C87.0193 89.8919 86.9997 89.8598 86.9839 89.8256Z" fill="#263238"/>
<path d="M94.4346 77.0796C94.313 77.0508 94.1944 77.0108 94.0802 76.9603L93.1251 76.6116C92.3155 76.3191 91.1891 75.9471 89.9219 75.6125C88.6547 75.2778 87.4884 75.0415 86.6366 74.8941L85.6322 74.7256C85.5078 74.7114 85.3847 74.688 85.2638 74.6554C85.3894 74.6516 85.5151 74.6595 85.6393 74.6788C85.8739 74.7022 86.2236 74.7467 86.6507 74.8098C87.7572 74.9791 88.8539 75.2072 89.936 75.4931C91.0292 75.7814 92.1063 76.1274 93.1627 76.5297C93.564 76.6865 93.8854 76.8176 94.1013 76.9182C94.2169 76.9623 94.3284 77.0164 94.4346 77.0796Z" fill="#263238"/>
<g opacity="0.3">
<path d="M93.1627 93.5836C92.9908 93.2673 92.7671 92.9818 92.5009 92.7389L89.1311 89.3178V89.5705C89.8797 90.0783 90.0393 91.1079 90.2552 91.9854C90.471 92.8629 90.6588 93.8012 91.2713 94.4681C91.5132 94.7489 91.8446 94.9381 92.2099 95.004C92.3909 95.0349 92.5769 95.0147 92.747 94.9457C92.917 94.8766 93.0643 94.7614 93.1721 94.6132C93.2561 94.4542 93.2992 94.2769 93.2975 94.0972C93.2959 93.9176 93.2496 93.7411 93.1627 93.5836Z" fill="black"/>
</g>
<g opacity="0.3">
<path d="M88.5327 85.4685C88.1737 85.637 87.7739 85.6995 87.3804 85.6487C87.0473 85.5403 86.7476 85.3485 86.5098 85.0918L83.7056 82.5435C84.5081 83.7135 85.1511 84.9116 85.9537 86.0886C86.1696 86.4069 86.4089 86.7415 86.7703 86.8725C87.1317 87.0036 87.5682 86.8889 87.9436 86.7462C89.2926 86.2288 90.5128 85.4256 91.52 84.3921L88.5327 85.4685Z" fill="black"/>
</g>
<g opacity="0.3">
<path d="M85.0103 71.0167C87.6315 69.7648 88.5749 66.2875 91.1774 64.9935C91.9273 64.6316 92.7605 64.476 93.591 64.5426C94.4214 64.6093 95.2189 64.8958 95.9012 65.3726C96.3518 65.6955 96.8516 66.1261 97.3866 65.974C97.7903 65.8593 98.0226 65.4498 98.2127 65.0777C98.8635 63.8079 99.5143 62.5365 100.165 61.2635L97.6049 64.2728C97.4413 64.5079 97.2096 64.6875 96.9408 64.7876C96.4245 64.921 96.0514 64.343 95.575 64.1066C94.0919 63.3695 93.05 62.4406 92.224 63.063C92.224 63.063 90.7808 64.0528 90.2035 64.1581L85.0103 70.9184" fill="black"/>
</g>
<g opacity="0.3">
<path d="M80.5469 73.5626C80.331 72.4113 80.5892 71.1384 81.0656 70.069C81.5419 68.9996 82.1403 67.963 82.4337 66.8351C82.6683 65.9273 82.7012 64.9793 82.5299 64.0575C82.4477 63.627 82.3234 63.1894 82.4172 62.7612C82.4898 62.4901 82.6089 62.2336 82.7692 62.003C83.3622 61.0564 84.0476 60.1707 84.8155 59.3588L86.4582 56.9018C86.4582 56.9018 86.5286 59.7566 86.4746 60.0257C86.2998 60.8713 86.0645 61.7033 85.7706 62.5155C85.2878 63.8412 84.6647 65.112 83.9121 66.3063C83.0262 67.681 82.2548 69.1257 81.6053 70.6259L80.5469 73.5626Z" fill="black"/>
</g>
<path d="M90.9333 63.0748C87.6081 62.2932 86.5873 60.6435 86.5474 57.7279L86.4981 54.0166C86.4981 54.0166 82.8162 53.8271 81.9573 48.3585C81.5302 45.6394 81.1594 41.2449 81.3988 37.5945C81.6123 34.3185 85.0291 28.534 88.3027 28.8874L97.2998 33.2515C97.7797 33.3035 98.2226 33.533 98.541 33.8947C98.8595 34.2565 99.0304 34.7241 99.0199 35.2054L98.3159 56.3987" fill="#EFBDA8"/>
<path d="M82.8044 41.6216C82.8043 41.803 82.8746 41.9774 83.0006 42.1083C83.1266 42.2392 83.2985 42.3163 83.4803 42.3236C83.5698 42.3309 83.6598 42.3203 83.7451 42.2923C83.8304 42.2643 83.9092 42.2195 83.9768 42.1606C84.0444 42.1016 84.0995 42.0298 84.1388 41.9493C84.178 41.8688 84.2007 41.7812 84.2054 41.6918C84.2056 41.5108 84.1356 41.3367 84.0101 41.2059C83.8846 41.075 83.7133 40.9976 83.5319 40.9898C83.4424 40.9828 83.3523 40.9937 83.267 41.0218C83.1818 41.0499 83.1029 41.0946 83.0352 41.1535C82.9675 41.2123 82.9122 41.284 82.8726 41.3644C82.8329 41.4447 82.8098 41.5322 82.8044 41.6216Z" fill="#263238"/>
<path d="M82.368 40.1123C82.4431 40.1778 82.9969 40.1123 83.7314 40.2831C84.4659 40.4539 84.9681 40.7886 85.0549 40.7511C85.0995 40.7511 85.0268 40.6341 84.8085 40.4867C84.486 40.2825 84.1314 40.1338 83.7596 40.0468C83.4021 39.954 83.0306 39.9278 82.6637 39.9696C82.422 40.014 82.3304 40.0795 82.368 40.1123Z" fill="#263238"/>
<path d="M89.8445 41.8322C89.8444 42.014 89.915 42.1888 90.0415 42.3197C90.168 42.4507 90.3405 42.5276 90.5227 42.5342C90.6121 42.5412 90.702 42.5303 90.7872 42.5022C90.8723 42.4741 90.951 42.4293 91.0185 42.3704C91.0861 42.3116 91.1411 42.2399 91.1805 42.1595C91.2199 42.0791 91.2428 41.9917 91.2478 41.9024C91.2479 41.721 91.1776 41.5466 91.0516 41.4157C90.9257 41.2848 90.7537 41.2077 90.572 41.2004C90.4824 41.1934 90.3924 41.2043 90.3071 41.2324C90.2218 41.2605 90.143 41.3053 90.0753 41.3641C90.0075 41.4229 89.9522 41.4946 89.9126 41.575C89.873 41.6554 89.8498 41.7428 89.8445 41.8322Z" fill="#263238"/>
<path d="M89.8163 40.6996C89.9266 40.7254 90.4123 40.3557 91.2055 40.1451C91.9987 39.9345 92.6534 39.993 92.7215 39.9111C92.7567 39.876 92.6323 39.8081 92.346 39.7753C91.9307 39.7414 91.5127 39.7818 91.1117 39.8947C90.7207 39.9912 90.3525 40.1629 90.0275 40.4001C89.8163 40.5709 89.7647 40.6879 89.8163 40.6996Z" fill="#263238"/>
<path d="M87.0402 45.6675C87.0402 45.6253 86.5708 45.5434 85.8105 45.4452C85.6181 45.4241 85.4351 45.3867 85.4022 45.2533C85.3873 45.0549 85.4331 44.8566 85.5336 44.6847C85.7167 44.2167 85.9067 43.7299 86.1086 43.2175C86.9064 41.1325 87.4837 39.4173 87.3992 39.3846C87.3147 39.3518 86.599 41.0226 85.8011 43.1052L85.252 44.5794C85.1287 44.8111 85.0921 45.079 85.1488 45.3352C85.1754 45.4052 85.2178 45.4683 85.2727 45.5194C85.3277 45.5705 85.3936 45.6084 85.4656 45.63C85.5727 45.6591 85.6831 45.674 85.7941 45.6745C86.5615 45.7072 87.0355 45.7119 87.0402 45.6675Z" fill="#263238"/>
<path d="M86.4981 54.0704C89.0782 54.1158 91.6202 53.4458 93.8408 52.1353C93.8408 52.1353 91.9893 55.9869 86.4981 55.4581V54.0704Z" fill="#D1967C"/>
<path d="M87.1599 47.502C87.5354 46.9428 88.0985 46.566 88.6148 46.545C88.7875 46.5287 88.9611 46.5646 89.1131 46.648C89.265 46.7315 89.3882 46.8587 89.4667 47.013C89.5487 47.2165 89.5805 47.4367 89.5593 47.655C89.538 47.8733 89.4644 48.0833 89.3446 48.2672C89.2287 48.4608 89.0585 48.6162 88.855 48.7144C88.6515 48.8125 88.4236 48.8491 88.1995 48.8195C87.8323 48.7117 87.5055 48.4975 87.2608 48.204C87.1764 48.1306 87.1105 48.0384 87.0684 47.9349C87.0486 47.8686 87.0438 47.7988 87.0543 47.7304C87.0649 47.662 87.0905 47.5968 87.1294 47.5395" fill="#D1967C"/>
<path d="M89.2649 46.194C89.1405 46.194 89.1381 47.006 88.4341 47.598C87.7301 48.19 86.8572 48.0847 86.8501 48.1994C86.8384 48.2508 87.0449 48.3585 87.4133 48.3702C87.8943 48.3764 88.3625 48.2151 88.7369 47.9139C89.0957 47.6222 89.3264 47.2025 89.3799 46.7439C89.408 46.3929 89.3212 46.1893 89.2649 46.194Z" fill="#263238"/>
<path d="M89.2015 37.4026C89.2953 37.5992 90.0369 37.4283 90.931 37.4471C91.825 37.4658 92.5619 37.6366 92.6628 37.4471C92.705 37.3535 92.5619 37.1733 92.2545 37.0048C91.8465 36.8003 91.3972 36.691 90.9406 36.6854C90.484 36.6797 90.0321 36.7777 89.6192 36.972C89.3071 37.1312 89.1592 37.3067 89.2015 37.4026Z" fill="#263238"/>
<path d="M82.1333 38.4509C82.2999 38.6217 82.9476 38.4509 83.7243 38.4322C84.5011 38.4135 85.1628 38.5445 85.3154 38.3667C85.3811 38.2777 85.2755 38.1069 84.9892 37.9455C84.5886 37.7432 84.1424 37.6473 83.6938 37.667C83.2483 37.67 82.8114 37.7894 82.4266 38.0133C82.1544 38.1912 82.0629 38.376 82.1333 38.4509Z" fill="#263238"/>
<path d="M106.893 57.997C105.699 56.0711 104.722 51.2718 104.312 48.8405C103.901 46.4093 102.603 38.6077 100.524 34.508C98.445 30.4083 95.9974 28.7516 93.5968 28.1058C92.6862 27.8357 91.7212 27.8041 90.7947 28.0139C89.8683 28.2237 89.0117 28.668 88.3074 29.3039C87.2233 30.2703 86.8525 33.0876 86.8525 33.0876C86.8525 33.0876 92.6464 34.3723 94.5965 37.667C96.8375 41.4508 97.382 43.3532 97.382 43.3532L98.1071 45.4241C98.1071 45.4241 97.4266 49.4302 97.1684 51.4122C96.9103 53.3942 97.3163 55.2311 98.9519 56.0337L102.237 58.3526C102.237 58.3526 106.536 61.2659 106.733 61.4157C107.651 62.1177 109.451 64.7783 109.451 64.7783C109.451 64.7783 109.336 61.9352 106.893 57.997Z" fill="#263238"/>
<path d="M86.6858 33.1228C86.6858 33.1228 83.3723 32.7601 82.1474 36.5041C81.5959 38.1912 81.1712 43.0561 81.1712 43.0561C81.1712 43.0561 80.6878 39.1857 80.8661 36.9721C81.0444 34.7584 82.1497 31.9691 83.8487 30.4201C85.4914 28.9154 86.8994 28.2088 89.8444 28.3889C89.8444 28.3889 88.4693 28.8569 87.7137 29.9778C87.3359 30.5464 87.1716 31.0214 86.6858 33.1228Z" fill="#263238"/>
<path d="M97.3397 43.641C97.3984 42.4313 98.7196 41.6263 99.7709 42.237C100.348 42.5717 100.792 43.2409 100.738 44.5232C100.597 47.949 97.1778 47.0972 97.1755 47.0013C97.1755 46.9334 97.267 45.0591 97.3397 43.641Z" fill="#EFBDA8"/>
<path d="M98.2784 45.74C98.2948 45.74 98.3371 45.7845 98.4356 45.8359C98.5752 45.9023 98.7352 45.9115 98.8815 45.8617C99.2499 45.7447 99.5855 45.1831 99.623 44.5677C99.6433 44.2743 99.5976 43.9801 99.4893 43.7065C99.4606 43.5999 99.4066 43.5017 99.3319 43.4202C99.2571 43.3388 99.1638 43.2765 99.0598 43.2385C98.9915 43.2173 98.9179 43.2206 98.8519 43.248C98.7858 43.2754 98.7315 43.325 98.6984 43.3883C98.6492 43.4819 98.6679 43.5498 98.6492 43.5568C98.6304 43.5638 98.5788 43.4959 98.6116 43.3555C98.6341 43.2712 98.6846 43.197 98.7548 43.1449C98.8534 43.0794 98.9733 43.0534 99.0903 43.0724C99.23 43.1066 99.3587 43.1756 99.4642 43.273C99.5697 43.3705 99.6486 43.4931 99.6934 43.6293C99.8273 43.9314 99.8845 44.2617 99.8601 44.5911C99.8108 45.2814 99.4306 45.9132 98.9214 46.0348C98.8284 46.0579 98.7313 46.0598 98.6375 46.0403C98.5437 46.0209 98.4554 45.9806 98.3793 45.9225C98.2807 45.8242 98.2667 45.747 98.2784 45.74Z" fill="#D1967C"/>
<path d="M92.224 27.8905C92.224 27.9162 91.7547 27.8905 91.0061 28.0005C90.5713 28.0594 90.1485 28.1857 89.753 28.3749C89.2744 28.6161 88.8473 28.9474 88.4951 29.3507C87.8411 30.0804 87.3649 30.9509 87.1036 31.8942C86.9041 32.6196 86.8806 33.09 86.8548 33.0876C86.8484 32.9775 86.8523 32.8671 86.8666 32.7577C86.896 32.4596 86.947 32.164 87.0191 31.8732C87.2617 30.9065 87.7369 30.0134 88.4036 29.2711C89.0561 28.5037 89.9812 28.0181 90.985 27.9162C91.2841 27.883 91.5851 27.8681 91.8861 27.8718C91.9991 27.8666 92.1123 27.8728 92.224 27.8905Z" fill="#455A64"/>
<path d="M100.517 46.1168C100.514 46.0982 100.514 46.0792 100.517 46.0606L100.545 45.9015C100.559 45.829 100.578 45.7424 100.597 45.6418C100.616 45.5411 100.63 45.4078 100.648 45.2861C100.747 44.5256 100.736 43.7551 100.618 42.9976C100.446 41.8747 100.041 40.7998 99.4306 39.8409C98.6516 38.6856 97.6208 37.7208 96.4151 37.0189C95.7979 36.6449 95.1576 36.3104 94.4979 36.0173C93.8619 35.7248 93.2236 35.4979 92.6206 35.2311C91.5864 34.7485 90.5909 34.1876 89.6426 33.5533C88.8283 33.0151 88.1947 32.5424 87.7653 32.2078C87.5517 32.0393 87.3851 31.9083 87.2772 31.8147L87.1528 31.7094C87.1247 31.6837 87.1106 31.672 87.1129 31.6696L87.1599 31.7L87.2913 31.796L87.7958 32.1704C88.2346 32.4933 88.8753 32.9543 89.6919 33.4808C90.6468 34.1005 91.647 34.6481 92.6839 35.1188C93.2682 35.3809 93.9112 35.6078 94.5612 35.898C95.2256 36.1926 95.8706 36.5286 96.4925 36.9042C97.7151 37.6156 98.7585 38.596 99.5432 39.7707C100.158 40.7444 100.558 41.8371 100.717 42.9765C100.831 43.7406 100.831 44.5173 100.717 45.2814L100.653 45.6394C100.63 45.7377 100.609 45.8243 100.592 45.8968L100.55 46.0559C100.526 46.0981 100.519 46.1191 100.517 46.1168Z" fill="#455A64"/>
<path d="M101.313 44.825C101.311 44.8064 101.311 44.7876 101.313 44.7689C101.313 44.7244 101.313 44.6706 101.313 44.6051C101.313 44.46 101.329 44.2494 101.313 43.9756C101.294 42.0592 100.854 40.1701 100.024 38.4415C99.417 37.1821 98.6068 36.0304 97.626 35.0321C96.6264 34.0517 95.4955 33.2138 94.2656 32.5424C93.1439 31.9012 92.0856 31.4075 91.2149 30.9793C90.3443 30.551 89.6216 30.2047 89.1358 29.9473C88.9011 29.8233 88.7087 29.7133 88.582 29.6478L88.4388 29.5659C88.4218 29.5571 88.406 29.5461 88.3919 29.5331C88.3919 29.5331 88.4107 29.5331 88.4459 29.5542L88.5937 29.6244L89.1569 29.9052C89.6474 30.1392 90.3654 30.4879 91.2525 30.8997C92.1395 31.3115 93.2002 31.8076 94.3313 32.4441C95.5734 33.1156 96.7149 33.9577 97.7222 34.9456C98.7112 35.9547 99.527 37.1192 100.137 38.3924C100.627 39.4345 100.979 40.5357 101.184 41.6684C101.319 42.4307 101.381 43.204 101.369 43.978C101.369 44.2517 101.343 44.4647 101.336 44.6074C101.336 44.6729 101.324 44.7268 101.322 44.7712C101.321 44.7895 101.318 44.8076 101.313 44.825Z" fill="#455A64"/>
<path d="M101.212 57.6225C101.19 57.5905 101.173 57.5559 101.16 57.5196L101.031 57.2154C100.975 57.082 100.909 56.9182 100.848 56.724C100.787 56.5297 100.705 56.3098 100.644 56.0594C100.611 55.933 100.576 55.8043 100.541 55.6686C100.505 55.5329 100.48 55.3878 100.447 55.2404C100.376 54.9432 100.334 54.6226 100.278 54.288C100.182 53.5553 100.126 52.8179 100.111 52.0791C100.1 50.7386 100.167 49.3987 100.311 48.066C100.365 47.5558 100.412 47.144 100.449 46.8585C100.468 46.7275 100.482 46.6245 100.494 46.5309C100.498 46.492 100.506 46.4536 100.517 46.4163C100.523 46.4551 100.523 46.4944 100.517 46.5333L100.494 46.8632C100.468 47.1674 100.435 47.5652 100.395 48.0753C100.315 49.0979 100.205 50.5136 100.231 52.0767C100.245 52.8106 100.298 53.5432 100.388 54.2716C100.44 54.6063 100.48 54.9268 100.543 55.2076C100.573 55.3551 100.597 55.4978 100.63 55.6359L100.726 56.0243C100.78 56.2747 100.855 56.4923 100.911 56.6912C100.968 56.8901 101.024 57.0516 101.073 57.1873C101.123 57.323 101.151 57.4213 101.181 57.4985C101.199 57.5376 101.209 57.5797 101.212 57.6225Z" fill="#455A64"/>
<path d="M57.7702 89.0557C57.7702 89.0557 61.5014 93.8293 62.839 94.2037C64.1766 94.5781 69.2431 95.83 69.2431 95.83L85.8692 99.6606L83.9121 92.554L68.1659 92.3411L57.7702 89.0557Z" fill="#EFBDA8"/>
<path d="M36.3921 64.7479C37.6382 67.8296 43.9178 81.9281 45.3728 85.1924C45.4674 85.4051 45.6063 85.5952 45.7802 85.7501C45.9542 85.905 46.1593 86.0212 46.3818 86.091L66.1455 92.3481L85.7542 93.8083V93.1648L69.9025 88.3748L64.8947 87.7898L57.4182 69.3038C57.2498 68.8871 56.9783 68.5197 56.6291 68.2358C56.28 67.9518 55.8644 67.7606 55.4212 67.6799L36.784 64.2728C36.7222 64.262 36.6586 64.2678 36.5998 64.2895C36.541 64.3112 36.489 64.3481 36.4491 64.3964C36.4093 64.4447 36.383 64.5027 36.373 64.5644C36.3629 64.6262 36.3695 64.6895 36.3921 64.7479Z" fill="#455A64"/>
<path d="M85.7542 93.1648H85.6909L85.5102 93.1508L84.8062 93.0876L82.2366 92.8302L78.428 92.43L73.7604 91.962C72.1037 91.7982 70.5244 91.6742 69.0859 91.5923L67.0419 91.466C66.8843 91.4562 66.7275 91.4359 66.5726 91.4051C66.4914 91.3905 66.4125 91.3654 66.3379 91.3302C66.2621 91.2932 66.1998 91.2335 66.1596 91.1594C66.0366 90.899 65.9285 90.6318 65.8357 90.3591C65.4532 89.3506 65.1317 88.5292 64.9229 87.9513C64.8196 87.6728 64.7398 87.4529 64.6882 87.2937L64.6272 87.1206C64.6196 87.1017 64.6141 87.0821 64.6108 87.0621C64.6108 87.0621 64.6108 87.0785 64.6389 87.1182L64.7093 87.2844C64.775 87.4412 64.8619 87.6588 64.9745 87.9349L65.9249 90.3311C66.0175 90.5965 66.1249 90.8567 66.2464 91.1103C66.2784 91.1687 66.3275 91.2161 66.3872 91.246C66.4534 91.2747 66.5227 91.2959 66.5937 91.3092C66.7487 91.3383 66.9055 91.3563 67.063 91.363C67.7013 91.3934 68.3889 91.4402 69.107 91.4823C70.5478 91.5572 72.1318 91.6766 73.7886 91.8404L78.4561 92.3084L82.2648 92.7319L84.832 93.0267L85.536 93.1133L85.7167 93.1367L85.7542 93.1648Z" fill="#263238"/>
<path d="M75.6213 89.388C75.6213 89.388 75.9052 87.53 75.6213 87.1627C75.3373 86.7953 73.3403 85.0052 73.3403 85.0052L72.2069 83.9428L69.7077 83.5614C69.56 83.5387 69.409 83.5599 69.2733 83.6224C69.1377 83.6848 69.0235 83.7857 68.945 83.9124L68.6892 84.3219L68.0111 84.2096L67.4127 83.3461H65.7465L64.5145 84.6729V86.4654C64.5145 86.4654 64.6811 86.9638 65.1153 86.5987C65.5494 86.2337 65.5846 85.2228 65.5846 85.2228L66.3238 85.9014L65.5377 88.2929C65.5377 88.2929 66.0891 88.7937 66.4904 88.2929C66.8917 87.7921 67.4549 87.0644 67.4549 87.0644C67.4549 87.0644 68.1213 88.8568 69.2524 89.388C70.3835 89.9192 73.1151 90.4036 73.6829 90.2772C74.2508 90.1508 75.5133 90.3825 75.6213 89.388Z" fill="#EFBDA8"/>
<path d="M71.6672 85.3118C71.6672 85.3118 71.6672 85.3399 71.6226 85.3796C71.5679 85.4362 71.5002 85.4787 71.4255 85.5037C71.3086 85.5437 71.1852 85.5612 71.0618 85.5551C70.9186 85.5551 70.7614 85.52 70.5924 85.5037C70.413 85.4726 70.2282 85.5014 70.0668 85.5856C69.9001 85.7212 69.7524 85.8786 69.628 86.0536C69.4642 86.2559 69.2619 86.4239 69.0327 86.548C68.8036 86.6721 68.5521 86.7498 68.2927 86.7766C68.0781 86.7925 67.863 86.7533 67.6678 86.6628C67.4727 86.5723 67.3041 86.4334 67.178 86.2595L67.1522 86.222L67.1851 86.1893C67.6232 85.7294 68.0271 85.2382 68.3936 84.7198C68.6635 84.3337 68.809 84.0973 68.823 84.1043C68.8027 84.1682 68.7735 84.2288 68.7362 84.2845C68.6752 84.3968 68.5813 84.5606 68.4523 84.7525C68.1069 85.2893 67.7142 85.7944 67.2789 86.2618V86.1893C67.3944 86.3464 67.548 86.4718 67.7253 86.5537C67.9026 86.6355 68.0978 86.6712 68.2927 86.6573C68.7837 86.6039 69.2343 86.3612 69.5482 85.981C69.6819 85.7998 69.8398 85.6376 70.0175 85.499C70.1998 85.4064 70.4081 85.3775 70.6089 85.4171C70.7849 85.4405 70.9397 85.4779 71.0782 85.4873C71.1939 85.4974 71.3106 85.4879 71.4232 85.4592C71.5137 85.4272 71.5968 85.377 71.6672 85.3118Z" fill="#D1967C"/>
<path d="M73.629 89.2897C73.6149 89.2897 73.6009 89.1844 73.5258 89.0089C73.4165 88.7619 73.271 88.5324 73.094 88.328C72.8781 88.0612 72.5801 87.7711 72.3102 87.392C72.1662 87.1909 72.0612 86.9647 72.0004 86.7251C71.9375 86.4647 71.9416 86.1926 72.0122 85.9342C72.082 85.678 72.2042 85.439 72.3712 85.2322C72.4504 85.1265 72.5533 85.0408 72.6716 84.9818C72.7331 84.9541 72.8002 84.9407 72.8677 84.9427C72.9352 84.9447 73.0014 84.9621 73.0611 84.9935C73.2591 85.1162 73.4013 85.3109 73.4577 85.5364C73.5166 85.7154 73.5953 85.8872 73.6924 86.0488C73.8299 86.2806 74.0098 86.4846 74.2227 86.6502C74.3729 86.7696 74.4691 86.821 74.4574 86.8304C74.3605 86.7983 74.2694 86.7509 74.1875 86.69C73.9567 86.532 73.7603 86.329 73.6102 86.0933C73.5123 85.9289 73.4335 85.7538 73.3756 85.5715C73.3217 85.3768 73.1959 85.2096 73.0236 85.1035C72.978 85.081 72.9278 85.0693 72.8769 85.0693C72.826 85.0693 72.7758 85.081 72.7302 85.1035C72.6297 85.156 72.5429 85.2314 72.4768 85.3234C72.3218 85.5194 72.2085 85.7447 72.1436 85.9857C72.0762 86.2253 72.0705 86.478 72.1272 86.7204C72.185 86.9457 72.2828 87.1589 72.4158 87.3499C72.6716 87.7219 72.9626 88.0191 73.1738 88.2976C73.3492 88.5126 73.4872 88.7554 73.5821 89.016C73.607 89.0873 73.6243 89.161 73.6337 89.2359C73.6353 89.2718 73.6337 89.2897 73.629 89.2897Z" fill="#D1967C"/>
<path d="M67.2789 84.708C67.144 84.7093 67.0147 84.7621 66.9175 84.8555C66.7094 85.1157 66.5576 85.416 66.4717 85.7376C66.3356 86.112 66.2182 86.4537 66.122 86.697C66.0808 86.834 66.0165 86.963 65.9319 87.0785C65.9513 86.9381 65.9876 86.8006 66.0399 86.669C66.115 86.4186 66.2206 86.0723 66.3567 85.6955C66.4476 85.3576 66.621 85.0473 66.8612 84.7923C66.9446 84.7178 67.052 84.6754 67.1639 84.6729C67.2437 84.6636 67.2813 84.6893 67.2789 84.708Z" fill="#D1967C"/>
<path d="M67.4573 84.6659C67.4573 84.6799 67.354 84.701 67.1827 84.6799C66.9518 84.6474 66.7348 84.5509 66.5561 84.4015H66.6453L66.4928 84.5349C66.2158 84.7952 65.9122 85.0258 65.587 85.2228C65.8332 84.9333 66.1102 84.6713 66.413 84.4413L66.5679 84.3102L66.6078 84.2775L66.6453 84.3102C66.809 84.4495 67.0024 84.5496 67.2109 84.6027C67.2946 84.6169 67.377 84.638 67.4573 84.6659Z" fill="#D1967C"/>
<path d="M70.1019 88.9458C70.1379 88.7958 70.1981 88.6528 70.2803 88.5222C70.4558 88.1963 70.6684 87.8917 70.9139 87.6143C71.1589 87.3358 71.4344 87.0854 71.7352 86.8679C71.8543 86.7684 71.9891 86.6894 72.1341 86.6339C71.7394 86.9655 71.3627 87.3177 71.0054 87.6892C70.6809 88.0909 70.3793 88.5104 70.1019 88.9458Z" fill="#D1967C"/>
<path d="M56.0126 67.9747C56.0263 67.993 56.0367 68.0136 56.0431 68.0355L56.1229 68.218L56.4139 68.92L57.4605 71.5174C58.3381 73.7217 59.542 76.7544 60.8749 80.1029C62.2078 83.4514 63.3881 86.4958 64.2541 88.7024C64.6788 89.7999 65.0238 90.6891 65.2678 91.3138L65.5353 92.0158C65.5635 92.0931 65.5846 92.1539 65.6034 92.203C65.6123 92.224 65.6186 92.246 65.6222 92.2686C65.6102 92.2492 65.6 92.2289 65.5917 92.2077C65.5713 92.1609 65.5455 92.1001 65.5142 92.0252C65.4438 91.8567 65.3453 91.6204 65.2232 91.3232L64.1743 88.7258C63.299 86.5215 62.0928 83.4889 60.7599 80.138C59.427 76.7871 58.2489 73.7475 57.3807 71.5408L56.3693 68.9294C56.2543 68.6252 56.1651 68.3865 56.0994 68.2157L56.0313 68.0308C56.0242 68.0124 56.0179 67.9937 56.0126 67.9747Z" fill="#263238"/>
<path d="M51.7788 78.601C52.2839 78.2367 52.2896 77.3845 51.7914 76.6975C51.2933 76.0105 50.4799 75.7489 49.9747 76.1131C49.4696 76.4774 49.4639 77.3296 49.9621 78.0166C50.4602 78.7036 51.2736 78.9652 51.7788 78.601Z" fill="white"/>
<path d="M163.605 110.602C163.605 110.635 129.747 110.663 87.9906 110.663C46.234 110.663 12.3693 110.635 12.3693 110.602C12.3693 110.57 46.2293 110.542 88 110.542C129.771 110.542 163.605 110.567 163.605 110.602Z" fill="#263238"/>
<path d="M67.3846 29.0371H21.235C20.215 29.0371 19.3882 29.8616 19.3882 30.8787V57.9993C19.3882 59.0164 20.215 59.8409 21.235 59.8409H67.3846C68.4045 59.8409 69.2314 59.0164 69.2314 57.9993V30.8787C69.2314 29.8616 68.4045 29.0371 67.3846 29.0371Z" fill="#263238"/>
<path d="M44.3098 48.644C46.4068 48.644 48.1067 46.9489 48.1067 44.8578C48.1067 42.7668 46.4068 41.0717 44.3098 41.0717C42.2128 41.0717 40.5129 42.7668 40.5129 44.8578C40.5129 46.9489 42.2128 48.644 44.3098 48.644Z" fill="#40C5A6"/>
<path d="M43.3946 45.9646V43.7299C43.3946 43.705 43.4012 43.6805 43.4137 43.659C43.4262 43.6374 43.4441 43.6194 43.4657 43.6069C43.4873 43.5943 43.5118 43.5876 43.5368 43.5875C43.5618 43.5873 43.5864 43.5937 43.6081 43.6059L45.6098 44.7315C45.6318 44.7439 45.65 44.762 45.6627 44.7838C45.6754 44.8055 45.6821 44.8303 45.6821 44.8555C45.6821 44.8807 45.6754 44.9054 45.6627 44.9272C45.65 44.949 45.6318 44.967 45.6098 44.9795L43.6081 46.098C43.5857 46.1107 43.5602 46.1172 43.5344 46.1166C43.5085 46.1161 43.4833 46.1085 43.4614 46.0949C43.4396 46.0812 43.4218 46.0619 43.41 46.0389C43.3982 46.016 43.3929 45.9903 43.3946 45.9646Z" fill="white"/>
<path d="M22.237 56.3004V56.394H21.8615V56.3308L22.0657 56.1389C22.0825 56.1268 22.0963 56.111 22.1061 56.0928C22.1159 56.0745 22.1213 56.0543 22.122 56.0336C22.122 55.9868 22.0915 55.9611 22.0282 55.9611C22.0056 55.96 21.9831 55.9641 21.9623 55.973C21.9416 55.9819 21.9232 55.9955 21.9085 56.0126L21.8428 55.9634C21.8661 55.9355 21.8956 55.9133 21.929 55.8986C21.9624 55.884 21.9988 55.8774 22.0352 55.8792C22.1478 55.8792 22.2182 55.933 22.2182 56.0243C22.2175 56.0555 22.2095 56.0862 22.1948 56.1138C22.1802 56.1414 22.1593 56.1652 22.1338 56.1834L21.9977 56.3121L22.237 56.3004Z" fill="white"/>
<path d="M22.2934 56.05C22.2931 56.0422 22.2943 56.0343 22.2972 56.0269C22.3 56.0196 22.3042 56.0128 22.3097 56.0071C22.3152 56.0015 22.3218 55.9969 22.329 55.9939C22.3363 55.9908 22.3441 55.9892 22.352 55.9892C22.3682 55.9892 22.3837 55.9956 22.3952 56.007C22.4066 56.0184 22.4131 56.0339 22.4131 56.05C22.4131 56.0662 22.4066 56.0816 22.3952 56.0931C22.3837 56.1045 22.3682 56.1109 22.352 56.1109C22.3441 56.1109 22.3363 56.1093 22.329 56.1062C22.3218 56.1031 22.3152 56.0986 22.3097 56.0929C22.3042 56.0872 22.3 56.0805 22.2972 56.0731C22.2943 56.0658 22.2931 56.0579 22.2934 56.05ZM22.2934 56.3262C22.2931 56.3183 22.2943 56.3104 22.2972 56.303C22.3 56.2957 22.3042 56.289 22.3097 56.2833C22.3152 56.2776 22.3218 56.2731 22.329 56.27C22.3363 56.2669 22.3441 56.2653 22.352 56.2653C22.3682 56.2653 22.3837 56.2717 22.3952 56.2831C22.4066 56.2945 22.4131 56.31 22.4131 56.3262C22.4131 56.3423 22.4066 56.3578 22.3952 56.3692C22.3837 56.3806 22.3682 56.387 22.352 56.387C22.3441 56.387 22.3363 56.3854 22.329 56.3823C22.3218 56.3792 22.3152 56.3747 22.3097 56.369C22.3042 56.3634 22.3 56.3566 22.2972 56.3493C22.2943 56.3419 22.2931 56.334 22.2934 56.3262Z" fill="white"/>
<path d="M22.6454 55.8745V56.394H22.5491V55.9658H22.4435V55.8862L22.6454 55.8745Z" fill="white"/>
<path d="M23.1991 56.2653H23.11V56.3823H23.0184V56.2653H22.7392V56.1998L22.9973 55.8745H23.0982L22.8636 56.1857H23.0302V56.0851H23.1194V56.1857H23.2085L23.1991 56.2653Z" fill="white"/>
<path d="M62.6326 56.0641H24.0299V56.2396H62.6326V56.0641Z" fill="white"/>
<path d="M36.0659 55.8745H24.0017V56.3425H36.0659V55.8745Z" fill="#40C5A6"/>
<path d="M36.4531 56.16C36.4531 56.2757 36.4187 56.3888 36.3542 56.485C36.2898 56.5812 36.1982 56.6562 36.091 56.7005C35.9838 56.7448 35.8658 56.7563 35.752 56.7338C35.6382 56.7112 35.5337 56.6555 35.4516 56.5737C35.3696 56.4919 35.3137 56.3876 35.2911 56.2741C35.2684 56.1607 35.28 56.043 35.3244 55.9361C35.3688 55.8292 35.444 55.7379 35.5405 55.6736C35.637 55.6093 35.7504 55.575 35.8665 55.575C36.022 55.575 36.1713 55.6366 36.2813 55.7464C36.3913 55.8561 36.4531 56.0049 36.4531 56.16Z" fill="#40C5A6"/>
<path d="M63.5947 56.146C63.5941 56.1692 63.5888 56.192 63.579 56.213C63.5692 56.234 63.5552 56.2528 63.5378 56.2682C63.5204 56.2836 63.5 56.2952 63.4779 56.3024C63.4558 56.3095 63.4324 56.312 63.4093 56.3098C63.2708 56.3098 63.1887 56.2209 63.1887 56.0571C63.1832 56.0221 63.1858 55.9864 63.1962 55.9525C63.2066 55.9187 63.2246 55.8877 63.2488 55.8618C63.2729 55.8359 63.3027 55.8158 63.3358 55.803C63.3689 55.7902 63.4044 55.7851 63.4398 55.788C63.4858 55.7868 63.5312 55.7981 63.5712 55.8207L63.5383 55.8909C63.5082 55.8745 63.4741 55.8664 63.4398 55.8675C63.3459 55.8675 63.2849 55.926 63.2849 56.0407C63.3024 56.0225 63.3236 56.0083 63.3471 55.999C63.3706 55.9897 63.3958 55.9856 63.421 55.9869C63.4432 55.9845 63.4656 55.9869 63.4868 55.9939C63.508 56.0009 63.5274 56.0123 63.5439 56.0273C63.5603 56.0424 63.5733 56.0607 63.5821 56.0812C63.5908 56.1017 63.5951 56.1237 63.5947 56.146ZM63.5031 56.146C63.5031 56.0922 63.4632 56.0594 63.4022 56.0594C63.3897 56.0581 63.3771 56.0593 63.365 56.063C63.353 56.0667 63.3418 56.0728 63.3322 56.0809C63.3226 56.0889 63.3147 56.0989 63.309 56.1101C63.3033 56.1212 63.2999 56.1335 63.299 56.146C63.299 56.1928 63.3365 56.2302 63.4046 56.2302C63.4163 56.2333 63.4286 56.2339 63.4406 56.232C63.4526 56.2301 63.464 56.2256 63.4742 56.219C63.4844 56.2124 63.493 56.2037 63.4996 56.1936C63.5062 56.1834 63.5106 56.172 63.5125 56.16L63.5031 56.146Z" fill="white"/>
<path d="M63.651 55.9705C63.6507 55.9627 63.6519 55.955 63.6548 55.9477C63.6576 55.9405 63.6619 55.9339 63.6674 55.9284C63.673 55.9229 63.6796 55.9186 63.6868 55.9158C63.6941 55.9129 63.7019 55.9116 63.7097 55.912C63.7176 55.9117 63.7254 55.9129 63.7328 55.9157C63.7402 55.9185 63.747 55.9228 63.7527 55.9283C63.7584 55.9337 63.7629 55.9403 63.766 55.9475C63.7691 55.9548 63.7707 55.9626 63.7707 55.9705C63.7707 55.9866 63.7642 56.0021 63.7528 56.0135C63.7414 56.0249 63.7258 56.0313 63.7097 56.0313C63.7018 56.0313 63.6939 56.0297 63.6867 56.0266C63.6794 56.0236 63.6728 56.019 63.6673 56.0134C63.6618 56.0077 63.6576 56.001 63.6548 55.9936C63.652 55.9862 63.6507 55.9784 63.651 55.9705ZM63.651 56.2466C63.6507 56.2388 63.6519 56.2311 63.6548 56.2238C63.6576 56.2166 63.6619 56.21 63.6674 56.2045C63.673 56.199 63.6796 56.1947 63.6868 56.1919C63.6941 56.1891 63.7019 56.1878 63.7097 56.1881C63.7176 56.1878 63.7254 56.1891 63.7328 56.1919C63.7402 56.1947 63.747 56.1989 63.7527 56.2044C63.7584 56.2098 63.7629 56.2164 63.766 56.2237C63.7691 56.2309 63.7707 56.2387 63.7707 56.2466C63.7707 56.2627 63.7642 56.2782 63.7528 56.2896C63.7414 56.301 63.7258 56.3074 63.7097 56.3074C63.7018 56.3074 63.6939 56.3059 63.6867 56.3028C63.6794 56.2997 63.6728 56.2952 63.6673 56.2895C63.6618 56.2838 63.6576 56.2771 63.6548 56.2697C63.652 56.2623 63.6507 56.2545 63.651 56.2466Z" fill="white"/>
<path d="M63.8293 56.05C63.8293 55.8816 63.9209 55.788 64.0405 55.788C64.1602 55.788 64.2541 55.8816 64.2541 56.05C64.2541 56.2185 64.1626 56.3098 64.0405 56.3098C63.9185 56.3098 63.8293 56.2162 63.8293 56.05ZM64.1579 56.05C64.1579 55.926 64.1109 55.8699 64.0405 55.8699C63.9701 55.8699 63.9232 55.926 63.9232 56.05C63.9232 56.1741 63.9725 56.2279 64.0405 56.2279C64.1086 56.2279 64.1602 56.1717 64.1602 56.05H64.1579Z" fill="white"/>
<path d="M64.3198 56.05C64.3198 55.8816 64.4113 55.788 64.531 55.788C64.6507 55.788 64.7446 55.8816 64.7446 56.05C64.7446 56.2185 64.653 56.3098 64.531 56.3098C64.409 56.3098 64.3198 56.2162 64.3198 56.05ZM64.6507 56.05C64.6507 55.926 64.6014 55.8699 64.531 55.8699C64.4606 55.8699 64.4137 55.926 64.4137 56.05C64.4137 56.1741 64.463 56.2279 64.531 56.2279C64.5991 56.2279 64.6507 56.1717 64.6507 56.05Z" fill="white"/>
<path d="M65.5659 56.0173H65.3899V55.5118H65.8968V55.6873H65.5659V56.0173Z" fill="white"/>
<path d="M65.8968 56.6772H65.3899V56.1741H65.5659V56.5017H65.8968V56.6772Z" fill="white"/>
<path d="M66.7063 56.6772H66.1995V56.5017H66.5303V56.1718H66.7063V56.6772Z" fill="white"/>
<path d="M66.7063 56.0173H66.5303V55.6873H66.1995V55.5118H66.7063V56.0173Z" fill="white"/>
<path d="M60.1381 32.03C60.2269 32.0127 60.3174 32.0049 60.4079 32.0066C60.5886 32.0066 60.8585 31.9879 61.187 31.9808H61.248V32.03C61.248 32.4231 61.248 32.8724 61.2598 33.3614V33.5089L61.1542 33.4036L61.0134 33.2632L60.6567 32.9075H60.7388L60.1826 33.3989L60.0911 33.4784V33.3591C60.0911 32.9496 60.1075 32.608 60.1169 32.3786C60.1151 32.261 60.1245 32.1435 60.1451 32.0276C60.1451 32.0276 60.1592 32.1774 60.1709 32.4114C60.1826 32.6454 60.192 32.973 60.1967 33.3474L60.1076 33.3076L60.6567 32.8069L60.6989 32.7694L60.7388 32.8092L61.0978 33.1649L61.2363 33.3029L61.133 33.3474C61.133 32.8583 61.133 32.4114 61.133 32.0159L61.1823 32.0651C60.8749 32.0651 60.6191 32.0487 60.4337 32.0393C60.3351 32.0431 60.2363 32.04 60.1381 32.03Z" fill="white"/>
<path d="M63.9984 32.1961C63.9172 32.3089 63.8302 32.4175 63.7379 32.5214C63.5642 32.732 63.3061 33.0479 62.9916 33.3989L62.8907 33.5135V33.3614C62.8907 33.1532 62.8907 32.9309 62.8907 32.7015V32.636L62.9095 32.6805L62.4402 32.2289L62.3369 32.1282H62.4801C62.9494 32.1282 63.3342 32.154 63.5971 32.168C63.8599 32.1821 64.0101 32.1891 63.9984 32.1938C63.9866 32.1984 63.8153 32.1938 63.5431 32.2148C63.2709 32.2359 62.9072 32.2429 62.4801 32.2429L62.52 32.1446L62.9893 32.5892L63.0081 32.6079V32.6992C63.0081 32.9332 63.0081 33.1508 63.0081 33.3591L62.9072 33.3193C63.2028 32.9964 63.4704 32.7273 63.6675 32.526C63.8646 32.3248 63.9866 32.2031 63.9984 32.1961Z" fill="white"/>
<path d="M63.9983 32.1961C64.0124 32.2289 63.7871 32.3505 63.4961 32.4722C63.3272 32.5641 63.141 32.6199 62.9493 32.636C63.2631 32.4157 63.6209 32.2657 63.9983 32.1961Z" fill="white"/>
<path d="M65.8803 32.0299C65.9418 32.0131 66.0066 32.0131 66.0681 32.0299C66.2402 32.0628 66.3949 32.1557 66.5045 32.292C66.5878 32.3953 66.6431 32.5182 66.6653 32.6488C66.6874 32.7795 66.6757 32.9136 66.6313 33.0385C66.5768 33.1938 66.4753 33.3283 66.3407 33.4235C66.2062 33.5188 66.0453 33.5699 65.8803 33.5699C65.7154 33.5699 65.5545 33.5188 65.4199 33.4235C65.2854 33.3283 65.1839 33.1938 65.1294 33.0385C65.0851 32.9137 65.0732 32.7798 65.0949 32.6492C65.1167 32.5187 65.1714 32.3958 65.2538 32.292C65.3639 32.1542 65.5193 32.0598 65.6926 32.0253C65.754 32.0084 65.8189 32.0084 65.8803 32.0253C65.8803 32.037 65.8146 32.0393 65.7043 32.0721C65.5509 32.1193 65.4174 32.2155 65.3242 32.3458C65.2487 32.4483 65.2032 32.5697 65.1927 32.6964C65.1823 32.8232 65.2072 32.9503 65.2648 33.0638C65.3225 33.1772 65.4105 33.2725 65.5191 33.3391C65.6278 33.4057 65.7528 33.4409 65.8803 33.4409C66.0079 33.4409 66.1329 33.4057 66.2415 33.3391C66.3502 33.2725 66.4382 33.1772 66.4958 33.0638C66.5534 32.9503 66.5784 32.8232 66.5679 32.6964C66.5575 32.5697 66.512 32.4483 66.4365 32.3458C66.3433 32.2155 66.2097 32.1193 66.0563 32.0721C65.9413 32.044 65.8803 32.0416 65.8803 32.0299Z" fill="white"/>
<path d="M66.1338 33.0876C66.1103 33.111 65.9484 32.9893 65.7724 32.8162L65.756 32.7975V32.76C65.756 32.512 65.7818 32.3107 65.817 32.3107C65.8522 32.3107 65.878 32.512 65.878 32.76L65.8592 32.7179C66.0352 32.9028 66.1573 33.0642 66.1338 33.0876Z" fill="white"/>
<path d="M47.8274 33.0385C47.8274 33.0736 42.7046 33.0993 36.3874 33.0993C30.0702 33.0993 24.9451 33.0736 24.9451 33.0385C24.9451 33.0034 30.0678 32.9777 36.3874 32.9777C42.707 32.9777 47.8274 33.0057 47.8274 33.0385Z" fill="white"/>
<path d="M22.9622 33.9394C23.4612 33.9394 23.8656 33.536 23.8656 33.0385C23.8656 32.5409 23.4612 32.1376 22.9622 32.1376C22.4632 32.1376 22.0587 32.5409 22.0587 33.0385C22.0587 33.536 22.4632 33.9394 22.9622 33.9394Z" fill="white"/>
<path d="M142.375 14.5174H108.146C107.126 14.5174 106.299 15.3419 106.299 16.359V36.1133C106.299 37.1303 107.126 37.9548 108.146 37.9548H142.375C143.395 37.9548 144.221 37.1303 144.221 36.1133V16.359C144.221 15.3419 143.395 14.5174 142.375 14.5174Z" fill="#F5F5F5"/>
<path d="M138.202 24.769C137.296 24.2167 136.283 23.7464 135.22 23.7862C133.711 23.8423 132.453 24.8977 131.322 25.8922L126.042 30.5722C125.84 30.7523 125.598 30.9442 125.338 30.9044C125.128 30.8477 124.945 30.7204 124.819 30.5441L120.142 25.3727C119.173 24.2986 118.066 23.1544 116.622 23.014C115.449 22.9016 114.337 23.482 113.353 24.1278C110.538 25.9634 108.153 28.3825 106.36 31.2203L106.304 36.1109C106.614 37.1663 107.559 37.9549 108.562 37.9549H141.973C142.539 37.9498 143.083 37.7359 143.5 37.3542C143.917 36.9726 144.177 36.4505 144.231 35.8886V31.2788C142.88 28.5835 140.789 26.326 138.202 24.769Z" fill="#455A64"/>
<path d="M108.465 35.2615V35.334H108.181V35.2849L108.334 35.1398C108.371 35.1047 108.378 35.0836 108.378 35.0602C108.378 35.0368 108.355 35.0064 108.308 35.0064C108.291 35.0052 108.273 35.0082 108.257 35.0151C108.241 35.022 108.227 35.0327 108.217 35.0462L108.167 35.0064C108.185 34.9851 108.207 34.9683 108.232 34.9573C108.258 34.9463 108.285 34.9415 108.313 34.9432C108.397 34.9432 108.451 34.9853 108.451 35.0532C108.45 35.0769 108.444 35.1001 108.433 35.1212C108.422 35.1423 108.407 35.1606 108.388 35.1749L108.285 35.2732L108.465 35.2615Z" fill="#263238"/>
<path d="M108.505 35.072C108.505 35.0659 108.506 35.0599 108.508 35.0542C108.51 35.0486 108.513 35.0434 108.517 35.039C108.522 35.0346 108.527 35.0311 108.532 35.0287C108.538 35.0264 108.544 35.0251 108.55 35.0252C108.556 35.0248 108.562 35.0258 108.568 35.028C108.574 35.0303 108.579 35.0337 108.584 35.0381C108.588 35.0425 108.592 35.0478 108.594 35.0537C108.596 35.0595 108.597 35.0657 108.597 35.072C108.597 35.078 108.596 35.084 108.593 35.0895C108.591 35.0951 108.587 35.1001 108.583 35.1042C108.578 35.1084 108.573 35.1116 108.568 35.1137C108.562 35.1158 108.556 35.1167 108.55 35.1164C108.538 35.1164 108.527 35.1117 108.518 35.1034C108.51 35.0951 108.505 35.0837 108.505 35.072ZM108.505 35.2802C108.505 35.2743 108.506 35.2684 108.508 35.2628C108.51 35.2573 108.513 35.2522 108.518 35.248C108.522 35.2438 108.527 35.2406 108.532 35.2384C108.538 35.2363 108.544 35.2354 108.55 35.2358C108.556 35.2354 108.562 35.2363 108.568 35.2384C108.573 35.2405 108.578 35.2438 108.583 35.2479C108.587 35.2521 108.591 35.2571 108.593 35.2626C108.596 35.2682 108.597 35.2742 108.597 35.2802C108.598 35.2871 108.598 35.2942 108.597 35.301C108.595 35.3079 108.592 35.3143 108.588 35.3198C108.583 35.3253 108.578 35.3297 108.571 35.3328C108.565 35.3358 108.558 35.3374 108.551 35.3374C108.544 35.3374 108.537 35.3358 108.531 35.3328C108.524 35.3297 108.519 35.3253 108.514 35.3198C108.51 35.3143 108.507 35.3079 108.505 35.301C108.504 35.2942 108.504 35.2871 108.505 35.2802Z" fill="#263238"/>
<path d="M108.775 34.9362V35.334H108.705V35.0088H108.623V34.9479L108.775 34.9362Z" fill="#263238"/>
<path d="M109.197 35.2358H109.12V35.334H109.05V35.2475H108.838V35.196L109.028 34.9479H109.12L108.939 35.1819H109.066V35.1H109.12V35.1773H109.188L109.197 35.2358Z" fill="#263238"/>
<path d="M139.202 35.0602H109.831V35.2357H139.202V35.0602Z" fill="#263238"/>
<path d="M118.985 34.8801H109.808V35.3481H118.985V34.8801Z" fill="#40C5A6"/>
<path d="M119.283 35.1468C119.284 35.2353 119.258 35.3219 119.209 35.3958C119.16 35.4696 119.09 35.5272 119.008 35.5614C118.926 35.5956 118.836 35.6048 118.749 35.5878C118.662 35.5708 118.582 35.5284 118.519 35.466C118.456 35.4036 118.413 35.324 118.396 35.2372C118.378 35.1504 118.387 35.0605 118.421 34.9787C118.455 34.8969 118.512 34.8269 118.586 34.7777C118.66 34.7285 118.746 34.7022 118.835 34.7022C118.954 34.7022 119.067 34.749 119.151 34.8323C119.235 34.9156 119.283 35.0287 119.283 35.1468Z" fill="#40C5A6"/>
<path d="M139.939 35.1421C139.939 35.1599 139.935 35.1774 139.927 35.1935C139.92 35.2097 139.909 35.2241 139.896 35.236C139.883 35.2479 139.867 35.2569 139.85 35.2625C139.834 35.2681 139.816 35.2701 139.798 35.2685C139.692 35.2685 139.631 35.2006 139.631 35.0766C139.628 35.0505 139.631 35.0241 139.639 34.9991C139.647 34.9742 139.661 34.9512 139.678 34.9319C139.696 34.9126 139.718 34.8973 139.742 34.8872C139.767 34.877 139.793 34.8722 139.819 34.873C139.855 34.8713 139.891 34.8794 139.922 34.8964L139.894 34.9503C139.873 34.9364 139.847 34.9298 139.821 34.9315C139.749 34.9315 139.704 34.976 139.704 35.0649C139.717 35.0509 139.733 35.0401 139.751 35.0332C139.769 35.0263 139.788 35.0235 139.807 35.0251C139.824 35.0235 139.84 35.0253 139.856 35.0304C139.872 35.0356 139.886 35.0439 139.899 35.0549C139.911 35.0659 139.921 35.0793 139.928 35.0943C139.935 35.1093 139.939 35.1256 139.939 35.1421ZM139.871 35.1421C139.871 35.1024 139.84 35.0766 139.793 35.0766C139.784 35.0753 139.774 35.076 139.765 35.0786C139.755 35.0813 139.747 35.0858 139.739 35.092C139.732 35.0981 139.725 35.1058 139.721 35.1144C139.717 35.123 139.714 35.1325 139.713 35.1421C139.713 35.1796 139.744 35.2077 139.793 35.2077C139.81 35.2077 139.826 35.2016 139.839 35.1903C139.852 35.1791 139.86 35.1636 139.861 35.1468L139.871 35.1421Z" fill="#263238"/>
<path d="M139.974 35.0111C139.974 35.0049 139.975 34.9986 139.977 34.9928C139.979 34.987 139.983 34.9817 139.987 34.9773C139.991 34.9728 139.997 34.9694 140.003 34.9672C140.008 34.9649 140.015 34.964 140.021 34.9643C140.027 34.9643 140.033 34.9655 140.038 34.9679C140.044 34.9703 140.049 34.9738 140.053 34.9781C140.057 34.9825 140.061 34.9877 140.063 34.9934C140.065 34.999 140.066 35.0051 140.065 35.0111C140.065 35.0229 140.061 35.0342 140.052 35.0425C140.044 35.0509 140.033 35.0556 140.021 35.0556C140.015 35.0559 140.009 35.055 140.003 35.0529C139.997 35.0508 139.992 35.0476 139.988 35.0434C139.983 35.0392 139.98 35.0342 139.978 35.0287C139.975 35.0231 139.974 35.0171 139.974 35.0111ZM139.974 35.2217C139.974 35.2155 139.975 35.2092 139.977 35.2034C139.979 35.1976 139.983 35.1923 139.987 35.1879C139.991 35.1834 139.997 35.18 140.003 35.1778C140.008 35.1755 140.015 35.1746 140.021 35.1749C140.027 35.1749 140.033 35.1761 140.038 35.1785C140.044 35.1809 140.049 35.1844 140.053 35.1887C140.057 35.1931 140.061 35.1983 140.063 35.204C140.065 35.2096 140.066 35.2157 140.065 35.2217C140.065 35.2335 140.061 35.2448 140.052 35.2531C140.044 35.2615 140.033 35.2662 140.021 35.2662C140.015 35.2665 140.009 35.2656 140.003 35.2635C139.997 35.2614 139.992 35.2582 139.988 35.254C139.983 35.2498 139.98 35.2448 139.978 35.2393C139.975 35.2337 139.974 35.2277 139.974 35.2217Z" fill="#263238"/>
<path d="M140.112 35.0696C140.112 34.9432 140.18 34.873 140.272 34.873C140.364 34.873 140.434 34.9432 140.434 35.0696C140.434 35.196 140.366 35.2685 140.272 35.2685C140.178 35.2685 140.112 35.196 140.112 35.0696ZM140.364 35.0696C140.364 34.976 140.326 34.9339 140.272 34.9339C140.218 34.9339 140.185 34.976 140.185 35.0696C140.185 35.1632 140.22 35.2053 140.272 35.2053C140.324 35.2053 140.364 35.1632 140.364 35.0696Z" fill="#263238"/>
<path d="M140.483 35.0696C140.483 34.9432 140.554 34.873 140.645 34.873C140.737 34.873 140.807 34.9432 140.807 35.0696C140.807 35.196 140.737 35.2685 140.645 35.2685C140.554 35.2685 140.483 35.196 140.483 35.0696ZM140.734 35.0696C140.734 34.976 140.699 34.9339 140.645 34.9339C140.591 34.9339 140.556 34.976 140.556 35.0696C140.556 35.1632 140.594 35.2053 140.645 35.2053C140.697 35.2053 140.734 35.1632 140.734 35.0696Z" fill="#263238"/>
<path d="M141.455 35.0462H141.279V34.639H141.685V34.8145H141.455V35.0462Z" fill="#263238"/>
<path d="M141.685 35.568H141.279V35.1632H141.455V35.3925H141.685V35.568Z" fill="#263238"/>
<path d="M142.321 35.568H141.915V35.3925H142.145V35.1632H142.321V35.568Z" fill="#263238"/>
<path d="M142.321 35.0439H142.145V34.8145H141.915V34.639H142.321V35.0439Z" fill="#263238"/>
<path d="M137.301 16.7942C137.567 16.7601 137.834 16.7445 138.101 16.7474H138.148V16.7989C138.148 17.0844 138.148 17.433 138.148 17.8098V17.9572L138.043 17.8519L137.937 17.7466L137.667 17.4752H137.749L137.325 17.8472L137.233 17.9268V17.8074C137.229 17.4689 137.246 17.1305 137.285 16.7942C137.322 17.1307 137.34 17.4689 137.339 17.8074L137.25 17.7677L137.667 17.3862L137.71 17.3488L137.749 17.3886L138.022 17.6577L138.127 17.7653L138.024 17.8074C138.024 17.4307 138.024 17.082 138.024 16.7966L138.073 16.8434C137.815 16.8422 137.557 16.8258 137.301 16.7942Z" fill="#263238"/>
<path d="M140.239 16.9229C140.182 17.009 140.12 17.0911 140.051 17.1686C139.92 17.3301 139.725 17.5758 139.484 17.8472L139.383 17.9595V17.8074C139.383 17.6483 139.383 17.4798 139.383 17.3043V17.2552L139.401 17.2996L139.047 16.9557L138.944 16.855H139.087C139.441 16.855 139.744 16.8808 139.944 16.8948C140.043 16.8955 140.143 16.9041 140.242 16.9206C140.23 16.9206 140.098 16.9206 139.89 16.9416C139.681 16.9627 139.406 16.9697 139.087 16.9697L139.127 16.8714L139.486 17.2107L139.505 17.2271V17.316C139.505 17.4915 139.505 17.66 139.505 17.8191L139.401 17.7793C139.636 17.5453 139.829 17.3394 139.983 17.1873C140.138 17.0352 140.227 16.9276 140.239 16.9229Z" fill="#263238"/>
<path d="M140.239 16.9229C140.253 16.9533 140.084 17.0539 139.864 17.1569C139.643 17.2598 139.453 17.2996 139.441 17.2669C139.43 17.2341 139.596 17.1358 139.817 17.0446C140.037 16.9533 140.227 16.8901 140.239 16.9229Z" fill="#263238"/>
<path d="M141.671 16.7942C141.718 16.7802 141.769 16.7802 141.816 16.7942C141.951 16.8183 142.072 16.8907 142.156 16.9978C142.221 17.0776 142.264 17.1727 142.281 17.2739C142.299 17.3752 142.29 17.4791 142.255 17.5758C142.215 17.6992 142.136 17.8066 142.031 17.8829C141.925 17.9591 141.798 18.0001 141.668 18.0001C141.538 18.0001 141.411 17.9591 141.306 17.8829C141.201 17.8066 141.122 17.6992 141.082 17.5758C141.047 17.4791 141.038 17.3752 141.055 17.2739C141.072 17.1727 141.115 17.0776 141.18 16.9978C141.265 16.8907 141.386 16.8183 141.52 16.7942C141.614 16.7802 141.666 16.7942 141.664 16.7942C141.661 16.7942 141.614 16.8083 141.532 16.8363C141.418 16.8737 141.319 16.9467 141.251 17.0446C141.195 17.1207 141.162 17.2106 141.155 17.3044C141.147 17.3981 141.166 17.4921 141.209 17.5758C141.252 17.6596 141.317 17.7299 141.398 17.779C141.478 17.8281 141.57 17.8541 141.665 17.8541C141.759 17.8541 141.852 17.8281 141.932 17.779C142.012 17.7299 142.078 17.6596 142.12 17.5758C142.163 17.4921 142.182 17.3981 142.175 17.3044C142.167 17.2106 142.134 17.1207 142.079 17.0446C142.01 16.9467 141.911 16.8737 141.797 16.8363C141.722 16.8083 141.671 16.8059 141.671 16.7942Z" fill="#263238"/>
<path d="M141.865 17.5992C141.84 17.6226 141.713 17.536 141.579 17.4026L141.563 17.3839V17.3558C141.563 17.1663 141.589 17.0142 141.624 17.0142C141.659 17.0142 141.685 17.1663 141.685 17.3558L141.666 17.3113C141.8 17.4494 141.889 17.5758 141.865 17.5992Z" fill="#263238"/>
<path d="M127.936 17.5617C127.936 17.5968 124.038 17.6225 119.232 17.6225C114.426 17.6225 110.528 17.5968 110.528 17.5617C110.528 17.5266 114.426 17.5009 119.234 17.5009C124.043 17.5009 127.936 17.5289 127.936 17.5617Z" fill="#263238"/>
<path d="M109.704 17.5617C109.705 17.6975 109.665 17.8304 109.589 17.9435C109.514 18.0566 109.407 18.1448 109.281 18.197C109.155 18.2492 109.017 18.263 108.883 18.2366C108.75 18.2102 108.627 18.1449 108.531 18.0488C108.434 17.9528 108.369 17.8304 108.342 17.6972C108.316 17.564 108.33 17.426 108.382 17.3006C108.434 17.1752 108.523 17.0682 108.636 16.993C108.75 16.9178 108.883 16.878 109.019 16.8784C109.201 16.879 109.375 16.9512 109.503 17.0792C109.631 17.2072 109.704 17.3807 109.704 17.5617Z" fill="#263238"/>
<path d="M142.375 37.9548C142.375 37.9548 142.483 37.9548 142.682 37.9197C142.98 37.869 143.26 37.7442 143.496 37.557C143.691 37.4082 143.853 37.222 143.974 37.0093C144.095 36.7967 144.172 36.562 144.2 36.3192C144.224 35.7435 144.2 35.0696 144.2 34.3138C144.2 31.2929 144.189 26.9241 144.182 21.5257C144.182 20.1779 144.182 18.7622 144.182 17.2903C144.182 16.9229 144.182 16.5438 144.182 16.1788C144.142 15.8053 143.986 15.4535 143.736 15.1724C143.486 14.8914 143.155 14.6951 142.788 14.611C142.598 14.5748 142.405 14.5599 142.213 14.5665H141.619H131.453H108.165C107.915 14.5659 107.668 14.6179 107.439 14.7191C107.211 14.8203 107.006 14.9685 106.839 15.1539C106.672 15.3384 106.544 15.5549 106.463 15.7902C106.383 16.0256 106.351 16.2748 106.37 16.5228V19.5648C106.37 21.5694 106.37 23.5443 106.37 25.4897V31.2086C106.37 32.1446 106.37 33.0689 106.37 33.9815V36.0197C106.363 36.2384 106.393 36.4568 106.459 36.6655C106.593 37.0784 106.875 37.4279 107.25 37.6483C107.435 37.7557 107.637 37.8302 107.848 37.8683C108.062 37.8966 108.278 37.906 108.493 37.8963H116.003L124.843 37.908L137.667 37.9291H141.152H142.06H142.368C142.368 37.9291 142.264 37.9291 142.06 37.9291H141.152L137.667 37.9408L124.843 37.9595H115.986H111.058H108.477C108.255 37.9702 108.033 37.96 107.813 37.9291C107.473 37.8707 107.156 37.7209 106.895 37.4957C106.635 37.2705 106.441 36.9786 106.335 36.6515C106.266 36.432 106.234 36.2027 106.241 35.9729V35.2989C106.241 34.845 106.241 34.391 106.241 33.9347V31.211C106.241 29.339 106.241 27.4326 106.241 25.492V16.5345C106.226 16.2734 106.259 16.0119 106.337 15.7623C106.463 15.3821 106.706 15.0513 107.032 14.8169C107.358 14.5825 107.749 14.4564 108.151 14.4566H131.439H141.605H142.208C142.408 14.4496 142.608 14.4661 142.804 14.5057C143.195 14.5942 143.549 14.8039 143.813 15.1047C144.074 15.4002 144.238 15.7686 144.282 16.1601C144.301 16.5438 144.282 16.9089 144.282 17.2809C144.282 18.7528 144.282 20.1685 144.282 21.5163C144.282 26.9147 144.266 31.2835 144.261 34.3044C144.261 35.0603 144.261 35.7295 144.245 36.3145C144.215 36.5604 144.136 36.7978 144.013 37.0131C143.89 37.2284 143.726 37.4173 143.529 37.5687C143.287 37.754 143.002 37.8762 142.701 37.9244C142.623 37.9372 142.545 37.9434 142.466 37.9431L142.375 37.9548Z" fill="#263238"/>
<path d="M125.896 25.237C127.288 25.237 128.417 24.1118 128.417 22.7238C128.417 21.3358 127.288 20.2106 125.896 20.2106C124.504 20.2106 123.376 21.3358 123.376 22.7238C123.376 24.1118 124.504 25.237 125.896 25.237Z" fill="#455A64"/>
<path d="M86.9956 23.6013C87.2094 23.5811 87.4146 23.507 87.5917 23.386C87.8006 23.2331 87.9505 23.0134 88.0164 22.7635C88.0505 22.6021 88.0623 22.4368 88.0516 22.2721C88.0516 22.0943 88.0516 21.9024 88.0516 21.7012C88.0516 20.0749 88.0681 17.7419 88.0822 14.8614C88.0822 14.1406 88.0822 13.3825 88.0962 12.5962C88.0962 12.2008 88.0962 11.8006 88.0962 11.3911C88.1072 11.1905 88.1001 10.9892 88.0751 10.7898C88.0383 10.6039 87.9487 10.4325 87.817 10.296C87.6783 10.1479 87.4958 10.0479 87.296 10.0105C87.0845 9.99351 86.8721 9.9896 86.6601 9.99884H85.3201L82.5229 10.0152L70.0668 10.0831C69.8157 10.0899 69.5762 10.1895 69.3945 10.3624C69.2129 10.5353 69.1021 10.7693 69.0835 11.0191C69.0835 11.5588 69.0765 12.0963 69.0624 12.6313C69.053 13.7031 69.0429 14.7592 69.0319 15.7997C69.0084 17.8776 68.9873 19.8807 68.9686 21.7901C68.9686 22.0241 68.9686 22.2581 68.9686 22.4921C68.9563 22.7096 69.0103 22.9258 69.1234 23.1122C69.2336 23.2905 69.3981 23.4291 69.5928 23.5077C69.8012 23.5691 70.0195 23.5898 70.2358 23.5685H72.8758H77.6113H84.48H86.3456H86.829C86.8845 23.5634 86.9402 23.5634 86.9956 23.5685C86.9402 23.5726 86.8845 23.5726 86.829 23.5685L86.3574 23.634L84.4917 23.6621L77.6348 23.73L72.8969 23.7651L70.2592 23.7838C70.0221 23.8043 69.7832 23.7797 69.5552 23.7112C69.3178 23.6214 69.1161 23.4572 68.9803 23.2432C68.8476 23.0269 68.783 22.7758 68.7949 22.5225C68.7949 22.2885 68.7949 22.0545 68.7949 21.8205C68.8113 19.9111 68.8301 17.9057 68.8465 15.8278C68.8559 14.7888 68.8653 13.7327 68.8747 12.6594C68.8747 12.1212 68.8817 11.5752 68.8958 11.0214C68.9195 10.7197 69.0545 10.4375 69.2746 10.2292C69.4948 10.0209 69.7845 9.9013 70.0879 9.89354L82.5299 9.82802H85.3272H86.6695C86.8926 9.82013 87.116 9.82716 87.3383 9.84908C87.5685 9.8923 87.7799 10.005 87.9437 10.172C88.1021 10.336 88.2111 10.5412 88.2582 10.764C88.284 10.9752 88.2903 11.1882 88.2769 11.4005C88.2769 11.81 88.2769 12.2125 88.2628 12.6056C88.2535 13.395 88.2441 14.1508 88.2347 14.8731C88.1924 17.7513 88.1596 20.0866 88.1361 21.7105C88.1361 21.9141 88.1361 22.1037 88.1244 22.2838C88.1323 22.4538 88.1157 22.624 88.0751 22.7893C88.0014 23.0493 87.8397 23.2758 87.6175 23.4304C87.4815 23.5234 87.3256 23.5834 87.1623 23.6059C87.1068 23.6117 87.0507 23.6101 86.9956 23.6013Z" fill="#40C5A6"/>
<path d="M79.2516 15.6266L81.5654 17.0119L79.2141 18.4042L76.8627 19.7941L76.8979 17.0165L76.9355 14.239L79.2516 15.6266Z" fill="#40C5A6"/>
</svg>
